G04 #@! TF.GenerationSoftware,KiCad,Pcbnew,(5.1.5)-3*
G04 #@! TF.CreationDate,2020-07-10T12:59:04+02:00*
G04 #@! TF.ProjectId,twitchdisplay,74776974-6368-4646-9973-706c61792e6b,rev?*
G04 #@! TF.SameCoordinates,Original*
G04 #@! TF.FileFunction,Copper,L1,Top*
G04 #@! TF.FilePolarity,Positive*
%FSLAX46Y46*%
G04 Gerber Fmt 4.6, Leading zero omitted, Abs format (unit mm)*
G04 Created by KiCad (PCBNEW (5.1.5)-3) date 2020-07-10 12:59:04*
%MOMM*%
%LPD*%
G04 APERTURE LIST*
%ADD10C,1.524000*%
%ADD11O,1.905000X2.000000*%
%ADD12R,1.905000X2.000000*%
%ADD13O,1.600000X1.600000*%
%ADD14C,1.600000*%
%ADD15R,1.050000X1.500000*%
%ADD16O,1.050000X1.500000*%
%ADD17O,1.700000X1.700000*%
%ADD18R,1.700000X1.700000*%
%ADD19R,1.600000X1.600000*%
%ADD20C,1.270000*%
%ADD21C,1.270000*%
%ADD22C,0.254000*%
G04 APERTURE END LIST*
D10*
X-2540000Y-80645000D03*
X-2540000Y-83185000D03*
X-2540000Y-85725000D03*
X-2540000Y-88265000D03*
X-2540000Y-90805000D03*
X-2540000Y-93345000D03*
X-2540000Y-95885000D03*
X-2540000Y-98425000D03*
X-2540000Y-100965000D03*
X-2540000Y-103505000D03*
X-2540000Y-106045000D03*
X-2540000Y-108585000D03*
X-2540000Y-111125000D03*
X-2540000Y-113665000D03*
X-2540000Y-116205000D03*
X-30480000Y-116205000D03*
X-30480000Y-113665000D03*
X-30480000Y-111125000D03*
X-30480000Y-108585000D03*
X-30480000Y-106045000D03*
X-30480000Y-103505000D03*
X-30480000Y-100965000D03*
X-30480000Y-98425000D03*
X-30480000Y-95885000D03*
X-30480000Y-93345000D03*
X-30480000Y-90805000D03*
X-30480000Y-88265000D03*
X-30480000Y-85725000D03*
X-30480000Y-83185000D03*
X-30480000Y-80645000D03*
D11*
X15430000Y-90580000D03*
X12890000Y-90580000D03*
D12*
X10350000Y-90580000D03*
D13*
X3810000Y-118110000D03*
D14*
X3810000Y-110490000D03*
D13*
X15240000Y-118110000D03*
D14*
X15240000Y-110490000D03*
D13*
X8890000Y-118110000D03*
D14*
X8890000Y-110490000D03*
D13*
X20320000Y-118110000D03*
D14*
X20320000Y-110490000D03*
D15*
X7620000Y-124460000D03*
D16*
X5080000Y-124460000D03*
X6350000Y-124460000D03*
D15*
X19050000Y-124460000D03*
D16*
X16510000Y-124460000D03*
X17780000Y-124460000D03*
D17*
X50800000Y-78740000D03*
X50800000Y-76200000D03*
X50800000Y-73660000D03*
X50800000Y-71120000D03*
D18*
X50800000Y-68580000D03*
D17*
X354330000Y-88900000D03*
X354330000Y-86360000D03*
X354330000Y-83820000D03*
X354330000Y-81280000D03*
D18*
X354330000Y-78740000D03*
D17*
X50800000Y-114300000D03*
X50800000Y-111760000D03*
X50800000Y-109220000D03*
X50800000Y-106680000D03*
D18*
X50800000Y-104140000D03*
D17*
X5080000Y-72390000D03*
D18*
X2540000Y-72390000D03*
D14*
X16510000Y-97790000D03*
D19*
X19010000Y-97790000D03*
D14*
X8890000Y-97790000D03*
D19*
X6390000Y-97790000D03*
D13*
X26670000Y-88900000D03*
X41910000Y-88900000D03*
X26670000Y-124460000D03*
X41910000Y-91440000D03*
X26670000Y-121920000D03*
X41910000Y-93980000D03*
X26670000Y-119380000D03*
X41910000Y-96520000D03*
X26670000Y-116840000D03*
X41910000Y-99060000D03*
X26670000Y-114300000D03*
X41910000Y-101600000D03*
X26670000Y-111760000D03*
X41910000Y-104140000D03*
X26670000Y-109220000D03*
X41910000Y-106680000D03*
X26670000Y-106680000D03*
X41910000Y-109220000D03*
X26670000Y-104140000D03*
X41910000Y-111760000D03*
X26670000Y-101600000D03*
X41910000Y-114300000D03*
X26670000Y-99060000D03*
X41910000Y-116840000D03*
X26670000Y-96520000D03*
X41910000Y-119380000D03*
X26670000Y-93980000D03*
X41910000Y-121920000D03*
X26670000Y-91440000D03*
D19*
X41910000Y-124460000D03*
D20*
X12700000Y-105410000D03*
X6350000Y-102870000D03*
D21*
X15240000Y-118110000D02*
X13970000Y-118110000D01*
X13970000Y-118110000D02*
X12700000Y-116840000D01*
X12700000Y-116840000D02*
X12700000Y-106680000D01*
X12700000Y-106680000D02*
X12700000Y-105410000D01*
X12700000Y-105410000D02*
X12700000Y-105410000D01*
X3810000Y-118110000D02*
X5080000Y-118110000D01*
X5080000Y-118110000D02*
X6350000Y-116840000D01*
X6350000Y-116840000D02*
X6350000Y-102870000D01*
X6350000Y-102870000D02*
X6350000Y-102870000D01*
D22*
G36*
X358013000Y-135763000D02*
G01*
X-40513000Y-135763000D01*
X-40513000Y-130589872D01*
X-37795000Y-130589872D01*
X-37795000Y-131030128D01*
X-37709110Y-131461925D01*
X-37540631Y-131868669D01*
X-37296038Y-132234729D01*
X-36984729Y-132546038D01*
X-36618669Y-132790631D01*
X-36211925Y-132959110D01*
X-35780128Y-133045000D01*
X-35339872Y-133045000D01*
X-34908075Y-132959110D01*
X-34501331Y-132790631D01*
X-34135271Y-132546038D01*
X-33823962Y-132234729D01*
X-33579369Y-131868669D01*
X-33410890Y-131461925D01*
X-33325000Y-131030128D01*
X-33325000Y-130589872D01*
X350825000Y-130589872D01*
X350825000Y-131030128D01*
X350910890Y-131461925D01*
X351079369Y-131868669D01*
X351323962Y-132234729D01*
X351635271Y-132546038D01*
X352001331Y-132790631D01*
X352408075Y-132959110D01*
X352839872Y-133045000D01*
X353280128Y-133045000D01*
X353711925Y-132959110D01*
X354118669Y-132790631D01*
X354484729Y-132546038D01*
X354796038Y-132234729D01*
X355040631Y-131868669D01*
X355209110Y-131461925D01*
X355295000Y-131030128D01*
X355295000Y-130589872D01*
X355209110Y-130158075D01*
X355040631Y-129751331D01*
X354796038Y-129385271D01*
X354484729Y-129073962D01*
X354118669Y-128829369D01*
X353711925Y-128660890D01*
X353280128Y-128575000D01*
X352839872Y-128575000D01*
X352408075Y-128660890D01*
X352001331Y-128829369D01*
X351635271Y-129073962D01*
X351323962Y-129385271D01*
X351079369Y-129751331D01*
X350910890Y-130158075D01*
X350825000Y-130589872D01*
X-33325000Y-130589872D01*
X-33410890Y-130158075D01*
X-33579369Y-129751331D01*
X-33823962Y-129385271D01*
X-34135271Y-129073962D01*
X-34501331Y-128829369D01*
X-34908075Y-128660890D01*
X-35339872Y-128575000D01*
X-35780128Y-128575000D01*
X-36211925Y-128660890D01*
X-36618669Y-128829369D01*
X-36984729Y-129073962D01*
X-37296038Y-129385271D01*
X-37540631Y-129751331D01*
X-37709110Y-130158075D01*
X-37795000Y-130589872D01*
X-40513000Y-130589872D01*
X-40513000Y-128049872D01*
X73330000Y-128049872D01*
X73330000Y-128490128D01*
X73415890Y-128921925D01*
X73584369Y-129328669D01*
X73828962Y-129694729D01*
X74140271Y-130006038D01*
X74506331Y-130250631D01*
X74913075Y-130419110D01*
X75344872Y-130505000D01*
X75785128Y-130505000D01*
X76216925Y-130419110D01*
X76623669Y-130250631D01*
X76989729Y-130006038D01*
X77301038Y-129694729D01*
X77545631Y-129328669D01*
X77714110Y-128921925D01*
X77800000Y-128490128D01*
X77800000Y-128049872D01*
X198425000Y-128049872D01*
X198425000Y-128490128D01*
X198510890Y-128921925D01*
X198679369Y-129328669D01*
X198923962Y-129694729D01*
X199235271Y-130006038D01*
X199601331Y-130250631D01*
X200008075Y-130419110D01*
X200439872Y-130505000D01*
X200880128Y-130505000D01*
X201311925Y-130419110D01*
X201718669Y-130250631D01*
X202084729Y-130006038D01*
X202396038Y-129694729D01*
X202640631Y-129328669D01*
X202809110Y-128921925D01*
X202895000Y-128490128D01*
X202895000Y-128049872D01*
X205410000Y-128049872D01*
X205410000Y-128490128D01*
X205495890Y-128921925D01*
X205664369Y-129328669D01*
X205908962Y-129694729D01*
X206220271Y-130006038D01*
X206586331Y-130250631D01*
X206993075Y-130419110D01*
X207424872Y-130505000D01*
X207865128Y-130505000D01*
X208296925Y-130419110D01*
X208703669Y-130250631D01*
X209069729Y-130006038D01*
X209381038Y-129694729D01*
X209625631Y-129328669D01*
X209794110Y-128921925D01*
X209880000Y-128490128D01*
X209880000Y-128049872D01*
X330505000Y-128049872D01*
X330505000Y-128490128D01*
X330590890Y-128921925D01*
X330759369Y-129328669D01*
X331003962Y-129694729D01*
X331315271Y-130006038D01*
X331681331Y-130250631D01*
X332088075Y-130419110D01*
X332519872Y-130505000D01*
X332960128Y-130505000D01*
X333391925Y-130419110D01*
X333798669Y-130250631D01*
X334164729Y-130006038D01*
X334476038Y-129694729D01*
X334720631Y-129328669D01*
X334889110Y-128921925D01*
X334975000Y-128490128D01*
X334975000Y-128049872D01*
X334889110Y-127618075D01*
X334720631Y-127211331D01*
X334476038Y-126845271D01*
X334164729Y-126533962D01*
X333798669Y-126289369D01*
X333391925Y-126120890D01*
X332960128Y-126035000D01*
X332519872Y-126035000D01*
X332088075Y-126120890D01*
X331681331Y-126289369D01*
X331315271Y-126533962D01*
X331003962Y-126845271D01*
X330759369Y-127211331D01*
X330590890Y-127618075D01*
X330505000Y-128049872D01*
X209880000Y-128049872D01*
X209794110Y-127618075D01*
X209625631Y-127211331D01*
X209381038Y-126845271D01*
X209069729Y-126533962D01*
X208703669Y-126289369D01*
X208296925Y-126120890D01*
X207865128Y-126035000D01*
X207424872Y-126035000D01*
X206993075Y-126120890D01*
X206586331Y-126289369D01*
X206220271Y-126533962D01*
X205908962Y-126845271D01*
X205664369Y-127211331D01*
X205495890Y-127618075D01*
X205410000Y-128049872D01*
X202895000Y-128049872D01*
X202809110Y-127618075D01*
X202640631Y-127211331D01*
X202396038Y-126845271D01*
X202084729Y-126533962D01*
X201718669Y-126289369D01*
X201311925Y-126120890D01*
X200880128Y-126035000D01*
X200439872Y-126035000D01*
X200008075Y-126120890D01*
X199601331Y-126289369D01*
X199235271Y-126533962D01*
X198923962Y-126845271D01*
X198679369Y-127211331D01*
X198510890Y-127618075D01*
X198425000Y-128049872D01*
X77800000Y-128049872D01*
X77714110Y-127618075D01*
X77545631Y-127211331D01*
X77301038Y-126845271D01*
X76989729Y-126533962D01*
X76623669Y-126289369D01*
X76216925Y-126120890D01*
X75785128Y-126035000D01*
X75344872Y-126035000D01*
X74913075Y-126120890D01*
X74506331Y-126289369D01*
X74140271Y-126533962D01*
X73828962Y-126845271D01*
X73584369Y-127211331D01*
X73415890Y-127618075D01*
X73330000Y-128049872D01*
X-40513000Y-128049872D01*
X-40513000Y-124178021D01*
X3920000Y-124178021D01*
X3920000Y-124741978D01*
X3936785Y-124912399D01*
X4003115Y-125131059D01*
X4110829Y-125332578D01*
X4255788Y-125509212D01*
X4432421Y-125654171D01*
X4633940Y-125761885D01*
X4852600Y-125828215D01*
X5080000Y-125850612D01*
X5307399Y-125828215D01*
X5526059Y-125761885D01*
X5715000Y-125660894D01*
X5903940Y-125761885D01*
X6122600Y-125828215D01*
X6350000Y-125850612D01*
X6577399Y-125828215D01*
X6786098Y-125764907D01*
X6850820Y-125799502D01*
X6970518Y-125835812D01*
X7095000Y-125848072D01*
X8145000Y-125848072D01*
X8269482Y-125835812D01*
X8389180Y-125799502D01*
X8499494Y-125740537D01*
X8596185Y-125661185D01*
X8675537Y-125564494D01*
X8734502Y-125454180D01*
X8770812Y-125334482D01*
X8783072Y-125210000D01*
X8783072Y-124178021D01*
X15350000Y-124178021D01*
X15350000Y-124741978D01*
X15366785Y-124912399D01*
X15433115Y-125131059D01*
X15540829Y-125332578D01*
X15685788Y-125509212D01*
X15862421Y-125654171D01*
X16063940Y-125761885D01*
X16282600Y-125828215D01*
X16510000Y-125850612D01*
X16737399Y-125828215D01*
X16956059Y-125761885D01*
X17145000Y-125660894D01*
X17333940Y-125761885D01*
X17552600Y-125828215D01*
X17780000Y-125850612D01*
X18007399Y-125828215D01*
X18216098Y-125764907D01*
X18280820Y-125799502D01*
X18400518Y-125835812D01*
X18525000Y-125848072D01*
X19575000Y-125848072D01*
X19699482Y-125835812D01*
X19819180Y-125799502D01*
X19929494Y-125740537D01*
X20026185Y-125661185D01*
X20105537Y-125564494D01*
X20164502Y-125454180D01*
X20200812Y-125334482D01*
X20213072Y-125210000D01*
X20213072Y-123710000D01*
X20200812Y-123585518D01*
X20164502Y-123465820D01*
X20105537Y-123355506D01*
X20026185Y-123258815D01*
X19929494Y-123179463D01*
X19819180Y-123120498D01*
X19699482Y-123084188D01*
X19575000Y-123071928D01*
X18525000Y-123071928D01*
X18400518Y-123084188D01*
X18280820Y-123120498D01*
X18216098Y-123155093D01*
X18007400Y-123091785D01*
X17780000Y-123069388D01*
X17552601Y-123091785D01*
X17333941Y-123158115D01*
X17145001Y-123259106D01*
X16956060Y-123158115D01*
X16737400Y-123091785D01*
X16510000Y-123069388D01*
X16282601Y-123091785D01*
X16063941Y-123158115D01*
X15862422Y-123265829D01*
X15685789Y-123410788D01*
X15540830Y-123587421D01*
X15433115Y-123788940D01*
X15366785Y-124007600D01*
X15350000Y-124178021D01*
X8783072Y-124178021D01*
X8783072Y-123710000D01*
X8770812Y-123585518D01*
X8734502Y-123465820D01*
X8675537Y-123355506D01*
X8596185Y-123258815D01*
X8499494Y-123179463D01*
X8389180Y-123120498D01*
X8269482Y-123084188D01*
X8145000Y-123071928D01*
X7095000Y-123071928D01*
X6970518Y-123084188D01*
X6850820Y-123120498D01*
X6786098Y-123155093D01*
X6577400Y-123091785D01*
X6350000Y-123069388D01*
X6122601Y-123091785D01*
X5903941Y-123158115D01*
X5715001Y-123259106D01*
X5526060Y-123158115D01*
X5307400Y-123091785D01*
X5080000Y-123069388D01*
X4852601Y-123091785D01*
X4633941Y-123158115D01*
X4432422Y-123265829D01*
X4255789Y-123410788D01*
X4110830Y-123587421D01*
X4003115Y-123788940D01*
X3936785Y-124007600D01*
X3920000Y-124178021D01*
X-40513000Y-124178021D01*
X-40513000Y-116067408D01*
X-31877000Y-116067408D01*
X-31877000Y-116342592D01*
X-31823314Y-116612490D01*
X-31718005Y-116866727D01*
X-31565120Y-117095535D01*
X-31370535Y-117290120D01*
X-31141727Y-117443005D01*
X-30887490Y-117548314D01*
X-30617592Y-117602000D01*
X-30342408Y-117602000D01*
X-30072510Y-117548314D01*
X-29818273Y-117443005D01*
X-29589465Y-117290120D01*
X-29394880Y-117095535D01*
X-29241995Y-116866727D01*
X-29136686Y-116612490D01*
X-29083000Y-116342592D01*
X-29083000Y-116067408D01*
X-3937000Y-116067408D01*
X-3937000Y-116342592D01*
X-3883314Y-116612490D01*
X-3778005Y-116866727D01*
X-3625120Y-117095535D01*
X-3430535Y-117290120D01*
X-3201727Y-117443005D01*
X-2947490Y-117548314D01*
X-2677592Y-117602000D01*
X-2402408Y-117602000D01*
X-2132510Y-117548314D01*
X-1878273Y-117443005D01*
X-1649465Y-117290120D01*
X-1454880Y-117095535D01*
X-1301995Y-116866727D01*
X-1196686Y-116612490D01*
X-1143000Y-116342592D01*
X-1143000Y-116067408D01*
X-1196686Y-115797510D01*
X-1301995Y-115543273D01*
X-1454880Y-115314465D01*
X-1649465Y-115119880D01*
X-1878273Y-114966995D01*
X-1949943Y-114937308D01*
X-1936977Y-114932636D01*
X-1821020Y-114870656D01*
X-1754040Y-114630565D01*
X-2540000Y-113844605D01*
X-3325960Y-114630565D01*
X-3258980Y-114870656D01*
X-3123240Y-114934485D01*
X-3201727Y-114966995D01*
X-3430535Y-115119880D01*
X-3625120Y-115314465D01*
X-3778005Y-115543273D01*
X-3883314Y-115797510D01*
X-3937000Y-116067408D01*
X-29083000Y-116067408D01*
X-29136686Y-115797510D01*
X-29241995Y-115543273D01*
X-29394880Y-115314465D01*
X-29589465Y-115119880D01*
X-29818273Y-114966995D01*
X-29889943Y-114937308D01*
X-29876977Y-114932636D01*
X-29761020Y-114870656D01*
X-29694040Y-114630565D01*
X-30480000Y-113844605D01*
X-31265960Y-114630565D01*
X-31198980Y-114870656D01*
X-31063240Y-114934485D01*
X-31141727Y-114966995D01*
X-31370535Y-115119880D01*
X-31565120Y-115314465D01*
X-31718005Y-115543273D01*
X-31823314Y-115797510D01*
X-31877000Y-116067408D01*
X-40513000Y-116067408D01*
X-40513000Y-113737017D01*
X-31881910Y-113737017D01*
X-31840922Y-114009133D01*
X-31747636Y-114268023D01*
X-31685656Y-114383980D01*
X-31445565Y-114450960D01*
X-30659605Y-113665000D01*
X-30300395Y-113665000D01*
X-29514435Y-114450960D01*
X-29274344Y-114383980D01*
X-29157244Y-114134952D01*
X-29090977Y-113867865D01*
X-29084843Y-113737017D01*
X-3941910Y-113737017D01*
X-3900922Y-114009133D01*
X-3807636Y-114268023D01*
X-3745656Y-114383980D01*
X-3505565Y-114450960D01*
X-2719605Y-113665000D01*
X-2360395Y-113665000D01*
X-1574435Y-114450960D01*
X-1334344Y-114383980D01*
X-1217244Y-114134952D01*
X-1150977Y-113867865D01*
X-1138090Y-113592983D01*
X-1179078Y-113320867D01*
X-1272364Y-113061977D01*
X-1334344Y-112946020D01*
X-1574435Y-112879040D01*
X-2360395Y-113665000D01*
X-2719605Y-113665000D01*
X-3505565Y-112879040D01*
X-3745656Y-112946020D01*
X-3862756Y-113195048D01*
X-3929023Y-113462135D01*
X-3941910Y-113737017D01*
X-29084843Y-113737017D01*
X-29078090Y-113592983D01*
X-29119078Y-113320867D01*
X-29212364Y-113061977D01*
X-29274344Y-112946020D01*
X-29514435Y-112879040D01*
X-30300395Y-113665000D01*
X-30659605Y-113665000D01*
X-31445565Y-112879040D01*
X-31685656Y-112946020D01*
X-31802756Y-113195048D01*
X-31869023Y-113462135D01*
X-31881910Y-113737017D01*
X-40513000Y-113737017D01*
X-40513000Y-105907408D01*
X-31877000Y-105907408D01*
X-31877000Y-106182592D01*
X-31823314Y-106452490D01*
X-31718005Y-106706727D01*
X-31565120Y-106935535D01*
X-31370535Y-107130120D01*
X-31141727Y-107283005D01*
X-31064485Y-107315000D01*
X-31141727Y-107346995D01*
X-31370535Y-107499880D01*
X-31565120Y-107694465D01*
X-31718005Y-107923273D01*
X-31823314Y-108177510D01*
X-31877000Y-108447408D01*
X-31877000Y-108722592D01*
X-31823314Y-108992490D01*
X-31718005Y-109246727D01*
X-31565120Y-109475535D01*
X-31370535Y-109670120D01*
X-31141727Y-109823005D01*
X-31064485Y-109855000D01*
X-31141727Y-109886995D01*
X-31370535Y-110039880D01*
X-31565120Y-110234465D01*
X-31718005Y-110463273D01*
X-31823314Y-110717510D01*
X-31877000Y-110987408D01*
X-31877000Y-111262592D01*
X-31823314Y-111532490D01*
X-31718005Y-111786727D01*
X-31565120Y-112015535D01*
X-31370535Y-112210120D01*
X-31141727Y-112363005D01*
X-31070057Y-112392692D01*
X-31083023Y-112397364D01*
X-31198980Y-112459344D01*
X-31265960Y-112699435D01*
X-30480000Y-113485395D01*
X-29694040Y-112699435D01*
X-29761020Y-112459344D01*
X-29896760Y-112395515D01*
X-29818273Y-112363005D01*
X-29589465Y-112210120D01*
X-29394880Y-112015535D01*
X-29241995Y-111786727D01*
X-29136686Y-111532490D01*
X-29083000Y-111262592D01*
X-29083000Y-110987408D01*
X-29136686Y-110717510D01*
X-29241995Y-110463273D01*
X-29394880Y-110234465D01*
X-29589465Y-110039880D01*
X-29818273Y-109886995D01*
X-29895515Y-109855000D01*
X-29818273Y-109823005D01*
X-29589465Y-109670120D01*
X-29394880Y-109475535D01*
X-29241995Y-109246727D01*
X-29136686Y-108992490D01*
X-29083000Y-108722592D01*
X-29083000Y-108447408D01*
X-29136686Y-108177510D01*
X-29241995Y-107923273D01*
X-29394880Y-107694465D01*
X-29589465Y-107499880D01*
X-29818273Y-107346995D01*
X-29895515Y-107315000D01*
X-29818273Y-107283005D01*
X-29589465Y-107130120D01*
X-29394880Y-106935535D01*
X-29241995Y-106706727D01*
X-29136686Y-106452490D01*
X-29083000Y-106182592D01*
X-29083000Y-105907408D01*
X-29136686Y-105637510D01*
X-29241995Y-105383273D01*
X-29394880Y-105154465D01*
X-29589465Y-104959880D01*
X-29818273Y-104806995D01*
X-29889943Y-104777308D01*
X-29876977Y-104772636D01*
X-29761020Y-104710656D01*
X-29694040Y-104470565D01*
X-30480000Y-103684605D01*
X-31265960Y-104470565D01*
X-31198980Y-104710656D01*
X-31063240Y-104774485D01*
X-31141727Y-104806995D01*
X-31370535Y-104959880D01*
X-31565120Y-105154465D01*
X-31718005Y-105383273D01*
X-31823314Y-105637510D01*
X-31877000Y-105907408D01*
X-40513000Y-105907408D01*
X-40513000Y-103577017D01*
X-31881910Y-103577017D01*
X-31840922Y-103849133D01*
X-31747636Y-104108023D01*
X-31685656Y-104223980D01*
X-31445565Y-104290960D01*
X-30659605Y-103505000D01*
X-30300395Y-103505000D01*
X-29514435Y-104290960D01*
X-29274344Y-104223980D01*
X-29157244Y-103974952D01*
X-29090977Y-103707865D01*
X-29078090Y-103432983D01*
X-29119078Y-103160867D01*
X-29212364Y-102901977D01*
X-29274344Y-102786020D01*
X-29514435Y-102719040D01*
X-30300395Y-103505000D01*
X-30659605Y-103505000D01*
X-31445565Y-102719040D01*
X-31685656Y-102786020D01*
X-31802756Y-103035048D01*
X-31869023Y-103302135D01*
X-31881910Y-103577017D01*
X-40513000Y-103577017D01*
X-40513000Y-80507408D01*
X-31877000Y-80507408D01*
X-31877000Y-80782592D01*
X-31823314Y-81052490D01*
X-31718005Y-81306727D01*
X-31565120Y-81535535D01*
X-31370535Y-81730120D01*
X-31141727Y-81883005D01*
X-31064485Y-81915000D01*
X-31141727Y-81946995D01*
X-31370535Y-82099880D01*
X-31565120Y-82294465D01*
X-31718005Y-82523273D01*
X-31823314Y-82777510D01*
X-31877000Y-83047408D01*
X-31877000Y-83322592D01*
X-31823314Y-83592490D01*
X-31718005Y-83846727D01*
X-31565120Y-84075535D01*
X-31370535Y-84270120D01*
X-31141727Y-84423005D01*
X-31064485Y-84455000D01*
X-31141727Y-84486995D01*
X-31370535Y-84639880D01*
X-31565120Y-84834465D01*
X-31718005Y-85063273D01*
X-31823314Y-85317510D01*
X-31877000Y-85587408D01*
X-31877000Y-85862592D01*
X-31823314Y-86132490D01*
X-31718005Y-86386727D01*
X-31565120Y-86615535D01*
X-31370535Y-86810120D01*
X-31141727Y-86963005D01*
X-31064485Y-86995000D01*
X-31141727Y-87026995D01*
X-31370535Y-87179880D01*
X-31565120Y-87374465D01*
X-31718005Y-87603273D01*
X-31823314Y-87857510D01*
X-31877000Y-88127408D01*
X-31877000Y-88402592D01*
X-31823314Y-88672490D01*
X-31718005Y-88926727D01*
X-31565120Y-89155535D01*
X-31370535Y-89350120D01*
X-31141727Y-89503005D01*
X-31064485Y-89535000D01*
X-31141727Y-89566995D01*
X-31370535Y-89719880D01*
X-31565120Y-89914465D01*
X-31718005Y-90143273D01*
X-31823314Y-90397510D01*
X-31877000Y-90667408D01*
X-31877000Y-90942592D01*
X-31823314Y-91212490D01*
X-31718005Y-91466727D01*
X-31565120Y-91695535D01*
X-31370535Y-91890120D01*
X-31141727Y-92043005D01*
X-31064485Y-92075000D01*
X-31141727Y-92106995D01*
X-31370535Y-92259880D01*
X-31565120Y-92454465D01*
X-31718005Y-92683273D01*
X-31823314Y-92937510D01*
X-31877000Y-93207408D01*
X-31877000Y-93482592D01*
X-31823314Y-93752490D01*
X-31718005Y-94006727D01*
X-31565120Y-94235535D01*
X-31370535Y-94430120D01*
X-31141727Y-94583005D01*
X-31064485Y-94615000D01*
X-31141727Y-94646995D01*
X-31370535Y-94799880D01*
X-31565120Y-94994465D01*
X-31718005Y-95223273D01*
X-31823314Y-95477510D01*
X-31877000Y-95747408D01*
X-31877000Y-96022592D01*
X-31823314Y-96292490D01*
X-31718005Y-96546727D01*
X-31565120Y-96775535D01*
X-31370535Y-96970120D01*
X-31141727Y-97123005D01*
X-31064485Y-97155000D01*
X-31141727Y-97186995D01*
X-31370535Y-97339880D01*
X-31565120Y-97534465D01*
X-31718005Y-97763273D01*
X-31823314Y-98017510D01*
X-31877000Y-98287408D01*
X-31877000Y-98562592D01*
X-31823314Y-98832490D01*
X-31718005Y-99086727D01*
X-31565120Y-99315535D01*
X-31370535Y-99510120D01*
X-31141727Y-99663005D01*
X-31064485Y-99695000D01*
X-31141727Y-99726995D01*
X-31370535Y-99879880D01*
X-31565120Y-100074465D01*
X-31718005Y-100303273D01*
X-31823314Y-100557510D01*
X-31877000Y-100827408D01*
X-31877000Y-101102592D01*
X-31823314Y-101372490D01*
X-31718005Y-101626727D01*
X-31565120Y-101855535D01*
X-31370535Y-102050120D01*
X-31141727Y-102203005D01*
X-31070057Y-102232692D01*
X-31083023Y-102237364D01*
X-31198980Y-102299344D01*
X-31265960Y-102539435D01*
X-30480000Y-103325395D01*
X-29694040Y-102539435D01*
X-29761020Y-102299344D01*
X-29896760Y-102235515D01*
X-29818273Y-102203005D01*
X-29589465Y-102050120D01*
X-29394880Y-101855535D01*
X-29241995Y-101626727D01*
X-29136686Y-101372490D01*
X-29083000Y-101102592D01*
X-29083000Y-100827408D01*
X-29136686Y-100557510D01*
X-29241995Y-100303273D01*
X-29394880Y-100074465D01*
X-29589465Y-99879880D01*
X-29818273Y-99726995D01*
X-29895515Y-99695000D01*
X-29818273Y-99663005D01*
X-29589465Y-99510120D01*
X-29394880Y-99315535D01*
X-29241995Y-99086727D01*
X-29136686Y-98832490D01*
X-29083000Y-98562592D01*
X-29083000Y-98287408D01*
X-3937000Y-98287408D01*
X-3937000Y-98562592D01*
X-3883314Y-98832490D01*
X-3778005Y-99086727D01*
X-3625120Y-99315535D01*
X-3430535Y-99510120D01*
X-3201727Y-99663005D01*
X-3124485Y-99695000D01*
X-3201727Y-99726995D01*
X-3430535Y-99879880D01*
X-3625120Y-100074465D01*
X-3778005Y-100303273D01*
X-3883314Y-100557510D01*
X-3937000Y-100827408D01*
X-3937000Y-101102592D01*
X-3883314Y-101372490D01*
X-3778005Y-101626727D01*
X-3625120Y-101855535D01*
X-3430535Y-102050120D01*
X-3201727Y-102203005D01*
X-3124485Y-102235000D01*
X-3201727Y-102266995D01*
X-3430535Y-102419880D01*
X-3625120Y-102614465D01*
X-3778005Y-102843273D01*
X-3883314Y-103097510D01*
X-3937000Y-103367408D01*
X-3937000Y-103642592D01*
X-3883314Y-103912490D01*
X-3778005Y-104166727D01*
X-3625120Y-104395535D01*
X-3430535Y-104590120D01*
X-3201727Y-104743005D01*
X-3124485Y-104775000D01*
X-3201727Y-104806995D01*
X-3430535Y-104959880D01*
X-3625120Y-105154465D01*
X-3778005Y-105383273D01*
X-3883314Y-105637510D01*
X-3937000Y-105907408D01*
X-3937000Y-106182592D01*
X-3883314Y-106452490D01*
X-3778005Y-106706727D01*
X-3625120Y-106935535D01*
X-3430535Y-107130120D01*
X-3201727Y-107283005D01*
X-3124485Y-107315000D01*
X-3201727Y-107346995D01*
X-3430535Y-107499880D01*
X-3625120Y-107694465D01*
X-3778005Y-107923273D01*
X-3883314Y-108177510D01*
X-3937000Y-108447408D01*
X-3937000Y-108722592D01*
X-3883314Y-108992490D01*
X-3778005Y-109246727D01*
X-3625120Y-109475535D01*
X-3430535Y-109670120D01*
X-3201727Y-109823005D01*
X-3124485Y-109855000D01*
X-3201727Y-109886995D01*
X-3430535Y-110039880D01*
X-3625120Y-110234465D01*
X-3778005Y-110463273D01*
X-3883314Y-110717510D01*
X-3937000Y-110987408D01*
X-3937000Y-111262592D01*
X-3883314Y-111532490D01*
X-3778005Y-111786727D01*
X-3625120Y-112015535D01*
X-3430535Y-112210120D01*
X-3201727Y-112363005D01*
X-3130057Y-112392692D01*
X-3143023Y-112397364D01*
X-3258980Y-112459344D01*
X-3325960Y-112699435D01*
X-2540000Y-113485395D01*
X-1754040Y-112699435D01*
X-1821020Y-112459344D01*
X-1956760Y-112395515D01*
X-1878273Y-112363005D01*
X-1649465Y-112210120D01*
X-1454880Y-112015535D01*
X-1301995Y-111786727D01*
X-1196686Y-111532490D01*
X-1143000Y-111262592D01*
X-1143000Y-110987408D01*
X-1196686Y-110717510D01*
X-1301995Y-110463273D01*
X-1378573Y-110348665D01*
X2375000Y-110348665D01*
X2375000Y-110631335D01*
X2430147Y-110908574D01*
X2538320Y-111169727D01*
X2695363Y-111404759D01*
X2895241Y-111604637D01*
X3130273Y-111761680D01*
X3391426Y-111869853D01*
X3668665Y-111925000D01*
X3951335Y-111925000D01*
X4228574Y-111869853D01*
X4489727Y-111761680D01*
X4724759Y-111604637D01*
X4924637Y-111404759D01*
X5080000Y-111172241D01*
X5080000Y-116313949D01*
X4553950Y-116840000D01*
X4492241Y-116840000D01*
X4489727Y-116838320D01*
X4228574Y-116730147D01*
X3951335Y-116675000D01*
X3668665Y-116675000D01*
X3391426Y-116730147D01*
X3130273Y-116838320D01*
X2895241Y-116995363D01*
X2695363Y-117195241D01*
X2538320Y-117430273D01*
X2430147Y-117691426D01*
X2375000Y-117968665D01*
X2375000Y-118251335D01*
X2430147Y-118528574D01*
X2538320Y-118789727D01*
X2695363Y-119024759D01*
X2895241Y-119224637D01*
X3130273Y-119381680D01*
X3391426Y-119489853D01*
X3668665Y-119545000D01*
X3951335Y-119545000D01*
X4228574Y-119489853D01*
X4489727Y-119381680D01*
X4492241Y-119380000D01*
X5017627Y-119380000D01*
X5080000Y-119386143D01*
X5142373Y-119380000D01*
X5142380Y-119380000D01*
X5328963Y-119361623D01*
X5568359Y-119289003D01*
X5788988Y-119171075D01*
X5982370Y-119012370D01*
X6022141Y-118963909D01*
X7017385Y-117968665D01*
X7455000Y-117968665D01*
X7455000Y-118251335D01*
X7510147Y-118528574D01*
X7618320Y-118789727D01*
X7775363Y-119024759D01*
X7975241Y-119224637D01*
X8210273Y-119381680D01*
X8471426Y-119489853D01*
X8748665Y-119545000D01*
X9031335Y-119545000D01*
X9308574Y-119489853D01*
X9569727Y-119381680D01*
X9804759Y-119224637D01*
X10004637Y-119024759D01*
X10161680Y-118789727D01*
X10269853Y-118528574D01*
X10325000Y-118251335D01*
X10325000Y-117968665D01*
X10269853Y-117691426D01*
X10161680Y-117430273D01*
X10004637Y-117195241D01*
X9804759Y-116995363D01*
X9569727Y-116838320D01*
X9308574Y-116730147D01*
X9031335Y-116675000D01*
X8748665Y-116675000D01*
X8471426Y-116730147D01*
X8210273Y-116838320D01*
X7975241Y-116995363D01*
X7775363Y-117195241D01*
X7618320Y-117430273D01*
X7510147Y-117691426D01*
X7455000Y-117968665D01*
X7017385Y-117968665D01*
X7203915Y-117782136D01*
X7252370Y-117742370D01*
X7411075Y-117548988D01*
X7529003Y-117328359D01*
X7579594Y-117161584D01*
X7601623Y-117088964D01*
X7610842Y-116995363D01*
X7620000Y-116902380D01*
X7620000Y-116902374D01*
X7626143Y-116840001D01*
X7620000Y-116777628D01*
X7620000Y-111172241D01*
X7775363Y-111404759D01*
X7975241Y-111604637D01*
X8210273Y-111761680D01*
X8471426Y-111869853D01*
X8748665Y-111925000D01*
X9031335Y-111925000D01*
X9308574Y-111869853D01*
X9569727Y-111761680D01*
X9804759Y-111604637D01*
X10004637Y-111404759D01*
X10161680Y-111169727D01*
X10269853Y-110908574D01*
X10325000Y-110631335D01*
X10325000Y-110348665D01*
X10269853Y-110071426D01*
X10161680Y-109810273D01*
X10004637Y-109575241D01*
X9804759Y-109375363D01*
X9569727Y-109218320D01*
X9308574Y-109110147D01*
X9031335Y-109055000D01*
X8748665Y-109055000D01*
X8471426Y-109110147D01*
X8210273Y-109218320D01*
X7975241Y-109375363D01*
X7775363Y-109575241D01*
X7620000Y-109807759D01*
X7620000Y-105410000D01*
X11423856Y-105410000D01*
X11430000Y-105472380D01*
X11430000Y-106742379D01*
X11430001Y-106742389D01*
X11430000Y-116777627D01*
X11423857Y-116840000D01*
X11430000Y-116902373D01*
X11430000Y-116902379D01*
X11432819Y-116930997D01*
X11448377Y-117088963D01*
X11450371Y-117095535D01*
X11520997Y-117328358D01*
X11638925Y-117548987D01*
X11797630Y-117742370D01*
X11846091Y-117782141D01*
X13027863Y-118963914D01*
X13067630Y-119012370D01*
X13261012Y-119171075D01*
X13481641Y-119289003D01*
X13648416Y-119339594D01*
X13721036Y-119361623D01*
X13746755Y-119364156D01*
X13907620Y-119380000D01*
X13907626Y-119380000D01*
X13969999Y-119386143D01*
X14032372Y-119380000D01*
X14557759Y-119380000D01*
X14560273Y-119381680D01*
X14821426Y-119489853D01*
X15098665Y-119545000D01*
X15381335Y-119545000D01*
X15658574Y-119489853D01*
X15919727Y-119381680D01*
X16154759Y-119224637D01*
X16354637Y-119024759D01*
X16511680Y-118789727D01*
X16619853Y-118528574D01*
X16675000Y-118251335D01*
X16675000Y-117968665D01*
X18885000Y-117968665D01*
X18885000Y-118251335D01*
X18940147Y-118528574D01*
X19048320Y-118789727D01*
X19205363Y-119024759D01*
X19405241Y-119224637D01*
X19640273Y-119381680D01*
X19901426Y-119489853D01*
X20178665Y-119545000D01*
X20461335Y-119545000D01*
X20738574Y-119489853D01*
X20999727Y-119381680D01*
X21234759Y-119224637D01*
X21434637Y-119024759D01*
X21591680Y-118789727D01*
X21699853Y-118528574D01*
X21755000Y-118251335D01*
X21755000Y-117968665D01*
X21699853Y-117691426D01*
X21591680Y-117430273D01*
X21434637Y-117195241D01*
X21234759Y-116995363D01*
X20999727Y-116838320D01*
X20738574Y-116730147D01*
X20461335Y-116675000D01*
X20178665Y-116675000D01*
X19901426Y-116730147D01*
X19640273Y-116838320D01*
X19405241Y-116995363D01*
X19205363Y-117195241D01*
X19048320Y-117430273D01*
X18940147Y-117691426D01*
X18885000Y-117968665D01*
X16675000Y-117968665D01*
X16619853Y-117691426D01*
X16511680Y-117430273D01*
X16354637Y-117195241D01*
X16154759Y-116995363D01*
X15919727Y-116838320D01*
X15658574Y-116730147D01*
X15381335Y-116675000D01*
X15098665Y-116675000D01*
X14821426Y-116730147D01*
X14560273Y-116838320D01*
X14557759Y-116840000D01*
X14496051Y-116840000D01*
X13970000Y-116313950D01*
X13970000Y-111172241D01*
X14125363Y-111404759D01*
X14325241Y-111604637D01*
X14560273Y-111761680D01*
X14821426Y-111869853D01*
X15098665Y-111925000D01*
X15381335Y-111925000D01*
X15658574Y-111869853D01*
X15919727Y-111761680D01*
X16154759Y-111604637D01*
X16354637Y-111404759D01*
X16511680Y-111169727D01*
X16619853Y-110908574D01*
X16675000Y-110631335D01*
X16675000Y-110348665D01*
X18885000Y-110348665D01*
X18885000Y-110631335D01*
X18940147Y-110908574D01*
X19048320Y-111169727D01*
X19205363Y-111404759D01*
X19405241Y-111604637D01*
X19640273Y-111761680D01*
X19901426Y-111869853D01*
X20178665Y-111925000D01*
X20461335Y-111925000D01*
X20738574Y-111869853D01*
X20999727Y-111761680D01*
X21234759Y-111604637D01*
X21434637Y-111404759D01*
X21591680Y-111169727D01*
X21699853Y-110908574D01*
X21755000Y-110631335D01*
X21755000Y-110348665D01*
X21699853Y-110071426D01*
X21591680Y-109810273D01*
X21434637Y-109575241D01*
X21234759Y-109375363D01*
X20999727Y-109218320D01*
X20738574Y-109110147D01*
X20461335Y-109055000D01*
X20178665Y-109055000D01*
X19901426Y-109110147D01*
X19640273Y-109218320D01*
X19405241Y-109375363D01*
X19205363Y-109575241D01*
X19048320Y-109810273D01*
X18940147Y-110071426D01*
X18885000Y-110348665D01*
X16675000Y-110348665D01*
X16619853Y-110071426D01*
X16511680Y-109810273D01*
X16354637Y-109575241D01*
X16154759Y-109375363D01*
X15919727Y-109218320D01*
X15658574Y-109110147D01*
X15381335Y-109055000D01*
X15098665Y-109055000D01*
X14821426Y-109110147D01*
X14560273Y-109218320D01*
X14325241Y-109375363D01*
X14125363Y-109575241D01*
X13970000Y-109807759D01*
X13970000Y-105472380D01*
X13976144Y-105410000D01*
X13970000Y-105347620D01*
X13970000Y-105284916D01*
X13957767Y-105223415D01*
X13951623Y-105161037D01*
X13933429Y-105101059D01*
X13921195Y-105039555D01*
X13897197Y-104981620D01*
X13879003Y-104921641D01*
X13849455Y-104866361D01*
X13825459Y-104808429D01*
X13790625Y-104756296D01*
X13761075Y-104701012D01*
X13721307Y-104652555D01*
X13686473Y-104600422D01*
X13642137Y-104556086D01*
X13602370Y-104507630D01*
X13553914Y-104467863D01*
X13509578Y-104423527D01*
X13457445Y-104388693D01*
X13408988Y-104348925D01*
X13353704Y-104319375D01*
X13301571Y-104284541D01*
X13243639Y-104260545D01*
X13188359Y-104230997D01*
X13128380Y-104212803D01*
X13070445Y-104188805D01*
X13008941Y-104176571D01*
X12948963Y-104158377D01*
X12886585Y-104152233D01*
X12825084Y-104140000D01*
X12762380Y-104140000D01*
X12700000Y-104133856D01*
X12637620Y-104140000D01*
X12574916Y-104140000D01*
X12513415Y-104152233D01*
X12451037Y-104158377D01*
X12391059Y-104176571D01*
X12329555Y-104188805D01*
X12271620Y-104212803D01*
X12211641Y-104230997D01*
X12156361Y-104260545D01*
X12098429Y-104284541D01*
X12046296Y-104319375D01*
X11991012Y-104348925D01*
X11942555Y-104388693D01*
X11890422Y-104423527D01*
X11846086Y-104467863D01*
X11797630Y-104507630D01*
X11757863Y-104556086D01*
X11713527Y-104600422D01*
X11678693Y-104652555D01*
X11638925Y-104701012D01*
X11609375Y-104756296D01*
X11574541Y-104808429D01*
X11550545Y-104866361D01*
X11520997Y-104921641D01*
X11502803Y-104981620D01*
X11478805Y-105039555D01*
X11466571Y-105101059D01*
X11448377Y-105161037D01*
X11442233Y-105223415D01*
X11430000Y-105284916D01*
X11430000Y-105347620D01*
X11423856Y-105410000D01*
X7620000Y-105410000D01*
X7620000Y-102932380D01*
X7626144Y-102870000D01*
X7620000Y-102807620D01*
X7620000Y-102744916D01*
X7607767Y-102683415D01*
X7601623Y-102621037D01*
X7583429Y-102561059D01*
X7571195Y-102499555D01*
X7547197Y-102441620D01*
X7529003Y-102381641D01*
X7499455Y-102326361D01*
X7475459Y-102268429D01*
X7440625Y-102216296D01*
X7411075Y-102161012D01*
X7371307Y-102112555D01*
X7336473Y-102060422D01*
X7292137Y-102016086D01*
X7252370Y-101967630D01*
X7203914Y-101927863D01*
X7159578Y-101883527D01*
X7107445Y-101848693D01*
X7058988Y-101808925D01*
X7003704Y-101779375D01*
X6951571Y-101744541D01*
X6893639Y-101720545D01*
X6838359Y-101690997D01*
X6778380Y-101672803D01*
X6720445Y-101648805D01*
X6658941Y-101636571D01*
X6598963Y-101618377D01*
X6536585Y-101612233D01*
X6475084Y-101600000D01*
X6412380Y-101600000D01*
X6350000Y-101593856D01*
X6287620Y-101600000D01*
X6224916Y-101600000D01*
X6163415Y-101612233D01*
X6101037Y-101618377D01*
X6041059Y-101636571D01*
X5979555Y-101648805D01*
X5921620Y-101672803D01*
X5861641Y-101690997D01*
X5806361Y-101720545D01*
X5748429Y-101744541D01*
X5696296Y-101779375D01*
X5641012Y-101808925D01*
X5592555Y-101848693D01*
X5540422Y-101883527D01*
X5496086Y-101927863D01*
X5447630Y-101967630D01*
X5407863Y-102016086D01*
X5363527Y-102060422D01*
X5328693Y-102112555D01*
X5288925Y-102161012D01*
X5259375Y-102216296D01*
X5224541Y-102268429D01*
X5200545Y-102326361D01*
X5170997Y-102381641D01*
X5152803Y-102441620D01*
X5128805Y-102499555D01*
X5116571Y-102561059D01*
X5098377Y-102621037D01*
X5092233Y-102683415D01*
X5080000Y-102744916D01*
X5080000Y-102807620D01*
X5073856Y-102870000D01*
X5080000Y-102932380D01*
X5080000Y-102995084D01*
X5080001Y-102995089D01*
X5080001Y-109807759D01*
X4924637Y-109575241D01*
X4724759Y-109375363D01*
X4489727Y-109218320D01*
X4228574Y-109110147D01*
X3951335Y-109055000D01*
X3668665Y-109055000D01*
X3391426Y-109110147D01*
X3130273Y-109218320D01*
X2895241Y-109375363D01*
X2695363Y-109575241D01*
X2538320Y-109810273D01*
X2430147Y-110071426D01*
X2375000Y-110348665D01*
X-1378573Y-110348665D01*
X-1454880Y-110234465D01*
X-1649465Y-110039880D01*
X-1878273Y-109886995D01*
X-1955515Y-109855000D01*
X-1878273Y-109823005D01*
X-1649465Y-109670120D01*
X-1454880Y-109475535D01*
X-1301995Y-109246727D01*
X-1196686Y-108992490D01*
X-1143000Y-108722592D01*
X-1143000Y-108447408D01*
X-1196686Y-108177510D01*
X-1301995Y-107923273D01*
X-1454880Y-107694465D01*
X-1649465Y-107499880D01*
X-1878273Y-107346995D01*
X-1955515Y-107315000D01*
X-1878273Y-107283005D01*
X-1649465Y-107130120D01*
X-1454880Y-106935535D01*
X-1301995Y-106706727D01*
X-1196686Y-106452490D01*
X-1143000Y-106182592D01*
X-1143000Y-105907408D01*
X-1196686Y-105637510D01*
X-1301995Y-105383273D01*
X-1454880Y-105154465D01*
X-1649465Y-104959880D01*
X-1878273Y-104806995D01*
X-1955515Y-104775000D01*
X-1878273Y-104743005D01*
X-1649465Y-104590120D01*
X-1454880Y-104395535D01*
X-1301995Y-104166727D01*
X-1196686Y-103912490D01*
X-1143000Y-103642592D01*
X-1143000Y-103367408D01*
X-1196686Y-103097510D01*
X-1301995Y-102843273D01*
X-1454880Y-102614465D01*
X-1649465Y-102419880D01*
X-1878273Y-102266995D01*
X-1955515Y-102235000D01*
X-1878273Y-102203005D01*
X-1649465Y-102050120D01*
X-1454880Y-101855535D01*
X-1301995Y-101626727D01*
X-1196686Y-101372490D01*
X-1143000Y-101102592D01*
X-1143000Y-100827408D01*
X-1196686Y-100557510D01*
X-1301995Y-100303273D01*
X-1454880Y-100074465D01*
X-1649465Y-99879880D01*
X-1878273Y-99726995D01*
X-1955515Y-99695000D01*
X-1878273Y-99663005D01*
X-1649465Y-99510120D01*
X-1454880Y-99315535D01*
X-1301995Y-99086727D01*
X-1196686Y-98832490D01*
X-1143000Y-98562592D01*
X-1143000Y-98287408D01*
X-1196686Y-98017510D01*
X-1301995Y-97763273D01*
X-1454880Y-97534465D01*
X-1649465Y-97339880D01*
X-1878273Y-97186995D01*
X-1949943Y-97157308D01*
X-1936977Y-97152636D01*
X-1821020Y-97090656D01*
X-1792940Y-96990000D01*
X4951928Y-96990000D01*
X4951928Y-98590000D01*
X4964188Y-98714482D01*
X5000498Y-98834180D01*
X5059463Y-98944494D01*
X5138815Y-99041185D01*
X5235506Y-99120537D01*
X5345820Y-99179502D01*
X5465518Y-99215812D01*
X5590000Y-99228072D01*
X7190000Y-99228072D01*
X7314482Y-99215812D01*
X7434180Y-99179502D01*
X7544494Y-99120537D01*
X7641185Y-99041185D01*
X7720537Y-98944494D01*
X7779502Y-98834180D01*
X7795117Y-98782702D01*
X8076903Y-98782702D01*
X8148486Y-99026671D01*
X8403996Y-99147571D01*
X8678184Y-99216300D01*
X8960512Y-99230217D01*
X9240130Y-99188787D01*
X9506292Y-99093603D01*
X9631514Y-99026671D01*
X9703097Y-98782702D01*
X15696903Y-98782702D01*
X15768486Y-99026671D01*
X16023996Y-99147571D01*
X16298184Y-99216300D01*
X16580512Y-99230217D01*
X16860130Y-99188787D01*
X17126292Y-99093603D01*
X17251514Y-99026671D01*
X17323097Y-98782702D01*
X16510000Y-97969605D01*
X15696903Y-98782702D01*
X9703097Y-98782702D01*
X8890000Y-97969605D01*
X8076903Y-98782702D01*
X7795117Y-98782702D01*
X7815812Y-98714482D01*
X7828072Y-98590000D01*
X7828072Y-98582785D01*
X7897298Y-98603097D01*
X8710395Y-97790000D01*
X9069605Y-97790000D01*
X9882702Y-98603097D01*
X10126671Y-98531514D01*
X10247571Y-98276004D01*
X10316300Y-98001816D01*
X10323265Y-97860512D01*
X15069783Y-97860512D01*
X15111213Y-98140130D01*
X15206397Y-98406292D01*
X15273329Y-98531514D01*
X15517298Y-98603097D01*
X16330395Y-97790000D01*
X16689605Y-97790000D01*
X17502702Y-98603097D01*
X17571928Y-98582785D01*
X17571928Y-98590000D01*
X17584188Y-98714482D01*
X17620498Y-98834180D01*
X17679463Y-98944494D01*
X17758815Y-99041185D01*
X17855506Y-99120537D01*
X17965820Y-99179502D01*
X18085518Y-99215812D01*
X18210000Y-99228072D01*
X19810000Y-99228072D01*
X19934482Y-99215812D01*
X20054180Y-99179502D01*
X20164494Y-99120537D01*
X20261185Y-99041185D01*
X20340537Y-98944494D01*
X20399502Y-98834180D01*
X20435812Y-98714482D01*
X20448072Y-98590000D01*
X20448072Y-96990000D01*
X20435812Y-96865518D01*
X20399502Y-96745820D01*
X20340537Y-96635506D01*
X20261185Y-96538815D01*
X20164494Y-96459463D01*
X20054180Y-96400498D01*
X19934482Y-96364188D01*
X19810000Y-96351928D01*
X18210000Y-96351928D01*
X18085518Y-96364188D01*
X17965820Y-96400498D01*
X17855506Y-96459463D01*
X17758815Y-96538815D01*
X17679463Y-96635506D01*
X17620498Y-96745820D01*
X17584188Y-96865518D01*
X17571928Y-96990000D01*
X17571928Y-96997215D01*
X17502702Y-96976903D01*
X16689605Y-97790000D01*
X16330395Y-97790000D01*
X15517298Y-96976903D01*
X15273329Y-97048486D01*
X15152429Y-97303996D01*
X15083700Y-97578184D01*
X15069783Y-97860512D01*
X10323265Y-97860512D01*
X10330217Y-97719488D01*
X10288787Y-97439870D01*
X10193603Y-97173708D01*
X10126671Y-97048486D01*
X9882702Y-96976903D01*
X9069605Y-97790000D01*
X8710395Y-97790000D01*
X7897298Y-96976903D01*
X7828072Y-96997215D01*
X7828072Y-96990000D01*
X7815812Y-96865518D01*
X7795118Y-96797298D01*
X8076903Y-96797298D01*
X8890000Y-97610395D01*
X9703097Y-96797298D01*
X15696903Y-96797298D01*
X16510000Y-97610395D01*
X17323097Y-96797298D01*
X17251514Y-96553329D01*
X16996004Y-96432429D01*
X16721816Y-96363700D01*
X16439488Y-96349783D01*
X16159870Y-96391213D01*
X15893708Y-96486397D01*
X15768486Y-96553329D01*
X15696903Y-96797298D01*
X9703097Y-96797298D01*
X9631514Y-96553329D01*
X9376004Y-96432429D01*
X9101816Y-96363700D01*
X8819488Y-96349783D01*
X8539870Y-96391213D01*
X8273708Y-96486397D01*
X8148486Y-96553329D01*
X8076903Y-96797298D01*
X7795118Y-96797298D01*
X7779502Y-96745820D01*
X7720537Y-96635506D01*
X7641185Y-96538815D01*
X7544494Y-96459463D01*
X7434180Y-96400498D01*
X7314482Y-96364188D01*
X7190000Y-96351928D01*
X5590000Y-96351928D01*
X5465518Y-96364188D01*
X5345820Y-96400498D01*
X5235506Y-96459463D01*
X5138815Y-96538815D01*
X5059463Y-96635506D01*
X5000498Y-96745820D01*
X4964188Y-96865518D01*
X4951928Y-96990000D01*
X-1792940Y-96990000D01*
X-1754040Y-96850565D01*
X-2540000Y-96064605D01*
X-3325960Y-96850565D01*
X-3258980Y-97090656D01*
X-3123240Y-97154485D01*
X-3201727Y-97186995D01*
X-3430535Y-97339880D01*
X-3625120Y-97534465D01*
X-3778005Y-97763273D01*
X-3883314Y-98017510D01*
X-3937000Y-98287408D01*
X-29083000Y-98287408D01*
X-29136686Y-98017510D01*
X-29241995Y-97763273D01*
X-29394880Y-97534465D01*
X-29589465Y-97339880D01*
X-29818273Y-97186995D01*
X-29895515Y-97155000D01*
X-29818273Y-97123005D01*
X-29589465Y-96970120D01*
X-29394880Y-96775535D01*
X-29241995Y-96546727D01*
X-29136686Y-96292490D01*
X-29083000Y-96022592D01*
X-29083000Y-95957017D01*
X-3941910Y-95957017D01*
X-3900922Y-96229133D01*
X-3807636Y-96488023D01*
X-3745656Y-96603980D01*
X-3505565Y-96670960D01*
X-2719605Y-95885000D01*
X-2360395Y-95885000D01*
X-1574435Y-96670960D01*
X-1334344Y-96603980D01*
X-1217244Y-96354952D01*
X-1150977Y-96087865D01*
X-1138090Y-95812983D01*
X-1179078Y-95540867D01*
X-1272364Y-95281977D01*
X-1334344Y-95166020D01*
X-1574435Y-95099040D01*
X-2360395Y-95885000D01*
X-2719605Y-95885000D01*
X-3505565Y-95099040D01*
X-3745656Y-95166020D01*
X-3862756Y-95415048D01*
X-3929023Y-95682135D01*
X-3941910Y-95957017D01*
X-29083000Y-95957017D01*
X-29083000Y-95747408D01*
X-29136686Y-95477510D01*
X-29241995Y-95223273D01*
X-29394880Y-94994465D01*
X-29589465Y-94799880D01*
X-29818273Y-94646995D01*
X-29895515Y-94615000D01*
X-29818273Y-94583005D01*
X-29589465Y-94430120D01*
X-29394880Y-94235535D01*
X-29241995Y-94006727D01*
X-29136686Y-93752490D01*
X-29083000Y-93482592D01*
X-29083000Y-93207408D01*
X-29136686Y-92937510D01*
X-29241995Y-92683273D01*
X-29394880Y-92454465D01*
X-29589465Y-92259880D01*
X-29818273Y-92106995D01*
X-29895515Y-92075000D01*
X-29818273Y-92043005D01*
X-29589465Y-91890120D01*
X-29394880Y-91695535D01*
X-29241995Y-91466727D01*
X-29136686Y-91212490D01*
X-29083000Y-90942592D01*
X-29083000Y-90667408D01*
X-29136686Y-90397510D01*
X-29241995Y-90143273D01*
X-29394880Y-89914465D01*
X-29589465Y-89719880D01*
X-29818273Y-89566995D01*
X-29895515Y-89535000D01*
X-29818273Y-89503005D01*
X-29589465Y-89350120D01*
X-29394880Y-89155535D01*
X-29241995Y-88926727D01*
X-29136686Y-88672490D01*
X-29083000Y-88402592D01*
X-29083000Y-88127408D01*
X-29136686Y-87857510D01*
X-29241995Y-87603273D01*
X-29394880Y-87374465D01*
X-29589465Y-87179880D01*
X-29818273Y-87026995D01*
X-29895515Y-86995000D01*
X-29818273Y-86963005D01*
X-29589465Y-86810120D01*
X-29394880Y-86615535D01*
X-29241995Y-86386727D01*
X-29136686Y-86132490D01*
X-29083000Y-85862592D01*
X-29083000Y-85587408D01*
X-29136686Y-85317510D01*
X-29241995Y-85063273D01*
X-29394880Y-84834465D01*
X-29589465Y-84639880D01*
X-29818273Y-84486995D01*
X-29895515Y-84455000D01*
X-29818273Y-84423005D01*
X-29589465Y-84270120D01*
X-29394880Y-84075535D01*
X-29241995Y-83846727D01*
X-29136686Y-83592490D01*
X-29083000Y-83322592D01*
X-29083000Y-83047408D01*
X-29136686Y-82777510D01*
X-29241995Y-82523273D01*
X-29394880Y-82294465D01*
X-29589465Y-82099880D01*
X-29818273Y-81946995D01*
X-29895515Y-81915000D01*
X-29818273Y-81883005D01*
X-29589465Y-81730120D01*
X-29394880Y-81535535D01*
X-29241995Y-81306727D01*
X-29136686Y-81052490D01*
X-29083000Y-80782592D01*
X-29083000Y-80507408D01*
X-3937000Y-80507408D01*
X-3937000Y-80782592D01*
X-3883314Y-81052490D01*
X-3778005Y-81306727D01*
X-3625120Y-81535535D01*
X-3430535Y-81730120D01*
X-3201727Y-81883005D01*
X-3124485Y-81915000D01*
X-3201727Y-81946995D01*
X-3430535Y-82099880D01*
X-3625120Y-82294465D01*
X-3778005Y-82523273D01*
X-3883314Y-82777510D01*
X-3937000Y-83047408D01*
X-3937000Y-83322592D01*
X-3883314Y-83592490D01*
X-3778005Y-83846727D01*
X-3625120Y-84075535D01*
X-3430535Y-84270120D01*
X-3201727Y-84423005D01*
X-3124485Y-84455000D01*
X-3201727Y-84486995D01*
X-3430535Y-84639880D01*
X-3625120Y-84834465D01*
X-3778005Y-85063273D01*
X-3883314Y-85317510D01*
X-3937000Y-85587408D01*
X-3937000Y-85862592D01*
X-3883314Y-86132490D01*
X-3778005Y-86386727D01*
X-3625120Y-86615535D01*
X-3430535Y-86810120D01*
X-3201727Y-86963005D01*
X-3124485Y-86995000D01*
X-3201727Y-87026995D01*
X-3430535Y-87179880D01*
X-3625120Y-87374465D01*
X-3778005Y-87603273D01*
X-3883314Y-87857510D01*
X-3937000Y-88127408D01*
X-3937000Y-88402592D01*
X-3883314Y-88672490D01*
X-3778005Y-88926727D01*
X-3625120Y-89155535D01*
X-3430535Y-89350120D01*
X-3201727Y-89503005D01*
X-3124485Y-89535000D01*
X-3201727Y-89566995D01*
X-3430535Y-89719880D01*
X-3625120Y-89914465D01*
X-3778005Y-90143273D01*
X-3883314Y-90397510D01*
X-3937000Y-90667408D01*
X-3937000Y-90942592D01*
X-3883314Y-91212490D01*
X-3778005Y-91466727D01*
X-3625120Y-91695535D01*
X-3430535Y-91890120D01*
X-3201727Y-92043005D01*
X-3124485Y-92075000D01*
X-3201727Y-92106995D01*
X-3430535Y-92259880D01*
X-3625120Y-92454465D01*
X-3778005Y-92683273D01*
X-3883314Y-92937510D01*
X-3937000Y-93207408D01*
X-3937000Y-93482592D01*
X-3883314Y-93752490D01*
X-3778005Y-94006727D01*
X-3625120Y-94235535D01*
X-3430535Y-94430120D01*
X-3201727Y-94583005D01*
X-3130057Y-94612692D01*
X-3143023Y-94617364D01*
X-3258980Y-94679344D01*
X-3325960Y-94919435D01*
X-2540000Y-95705395D01*
X-1754040Y-94919435D01*
X-1821020Y-94679344D01*
X-1956760Y-94615515D01*
X-1878273Y-94583005D01*
X-1649465Y-94430120D01*
X-1454880Y-94235535D01*
X-1301995Y-94006727D01*
X-1196686Y-93752490D01*
X-1143000Y-93482592D01*
X-1143000Y-93207408D01*
X-1196686Y-92937510D01*
X-1301995Y-92683273D01*
X-1454880Y-92454465D01*
X-1649465Y-92259880D01*
X-1878273Y-92106995D01*
X-1955515Y-92075000D01*
X-1878273Y-92043005D01*
X-1649465Y-91890120D01*
X-1454880Y-91695535D01*
X-1301995Y-91466727D01*
X-1196686Y-91212490D01*
X-1143000Y-90942592D01*
X-1143000Y-90667408D01*
X-1196686Y-90397510D01*
X-1301995Y-90143273D01*
X-1454880Y-89914465D01*
X-1649465Y-89719880D01*
X-1858809Y-89580000D01*
X8759428Y-89580000D01*
X8759428Y-91580000D01*
X8771688Y-91704482D01*
X8807998Y-91824180D01*
X8866963Y-91934494D01*
X8946315Y-92031185D01*
X9043006Y-92110537D01*
X9153320Y-92169502D01*
X9273018Y-92205812D01*
X9397500Y-92218072D01*
X11302500Y-92218072D01*
X11426982Y-92205812D01*
X11546680Y-92169502D01*
X11656994Y-92110537D01*
X11753685Y-92031185D01*
X11833037Y-91934494D01*
X11882059Y-91842781D01*
X12023077Y-91955969D01*
X12298906Y-92099571D01*
X12517020Y-92170563D01*
X12763000Y-92050594D01*
X12763000Y-90707000D01*
X12743000Y-90707000D01*
X12743000Y-90453000D01*
X12763000Y-90453000D01*
X12763000Y-89109406D01*
X13017000Y-89109406D01*
X13017000Y-90453000D01*
X13037000Y-90453000D01*
X13037000Y-90707000D01*
X13017000Y-90707000D01*
X13017000Y-92050594D01*
X13262980Y-92170563D01*
X13481094Y-92099571D01*
X13756923Y-91955969D01*
X13999437Y-91761315D01*
X14154837Y-91576101D01*
X14302037Y-91755463D01*
X14543766Y-91953845D01*
X14819552Y-92101255D01*
X15118797Y-92192030D01*
X15430000Y-92222681D01*
X15741204Y-92192030D01*
X16040449Y-92101255D01*
X16316235Y-91953845D01*
X16557963Y-91755463D01*
X16756345Y-91513734D01*
X16903755Y-91237948D01*
X16994530Y-90938703D01*
X17017500Y-90705485D01*
X17017500Y-90454514D01*
X16994530Y-90221296D01*
X16903755Y-89922051D01*
X16756345Y-89646265D01*
X16557963Y-89404537D01*
X16316234Y-89206155D01*
X16040448Y-89058745D01*
X15741203Y-88967970D01*
X15430000Y-88937319D01*
X15118796Y-88967970D01*
X14819551Y-89058745D01*
X14543765Y-89206155D01*
X14302037Y-89404537D01*
X14154838Y-89583900D01*
X13999437Y-89398685D01*
X13756923Y-89204031D01*
X13481094Y-89060429D01*
X13262980Y-88989437D01*
X13017000Y-89109406D01*
X12763000Y-89109406D01*
X12517020Y-88989437D01*
X12298906Y-89060429D01*
X12023077Y-89204031D01*
X11882059Y-89317219D01*
X11833037Y-89225506D01*
X11753685Y-89128815D01*
X11656994Y-89049463D01*
X11546680Y-88990498D01*
X11426982Y-88954188D01*
X11302500Y-88941928D01*
X9397500Y-88941928D01*
X9273018Y-88954188D01*
X9153320Y-88990498D01*
X9043006Y-89049463D01*
X8946315Y-89128815D01*
X8866963Y-89225506D01*
X8807998Y-89335820D01*
X8771688Y-89455518D01*
X8759428Y-89580000D01*
X-1858809Y-89580000D01*
X-1878273Y-89566995D01*
X-1955515Y-89535000D01*
X-1878273Y-89503005D01*
X-1649465Y-89350120D01*
X-1454880Y-89155535D01*
X-1301995Y-88926727D01*
X-1232382Y-88758665D01*
X25235000Y-88758665D01*
X25235000Y-89041335D01*
X25290147Y-89318574D01*
X25398320Y-89579727D01*
X25555363Y-89814759D01*
X25755241Y-90014637D01*
X25987759Y-90170000D01*
X25755241Y-90325363D01*
X25555363Y-90525241D01*
X25398320Y-90760273D01*
X25290147Y-91021426D01*
X25235000Y-91298665D01*
X25235000Y-91581335D01*
X25290147Y-91858574D01*
X25398320Y-92119727D01*
X25555363Y-92354759D01*
X25755241Y-92554637D01*
X25987759Y-92710000D01*
X25755241Y-92865363D01*
X25555363Y-93065241D01*
X25398320Y-93300273D01*
X25290147Y-93561426D01*
X25235000Y-93838665D01*
X25235000Y-94121335D01*
X25290147Y-94398574D01*
X25398320Y-94659727D01*
X25555363Y-94894759D01*
X25755241Y-95094637D01*
X25987759Y-95250000D01*
X25755241Y-95405363D01*
X25555363Y-95605241D01*
X25398320Y-95840273D01*
X25290147Y-96101426D01*
X25235000Y-96378665D01*
X25235000Y-96661335D01*
X25290147Y-96938574D01*
X25398320Y-97199727D01*
X25555363Y-97434759D01*
X25755241Y-97634637D01*
X25987759Y-97790000D01*
X25755241Y-97945363D01*
X25555363Y-98145241D01*
X25398320Y-98380273D01*
X25290147Y-98641426D01*
X25235000Y-98918665D01*
X25235000Y-99201335D01*
X25290147Y-99478574D01*
X25398320Y-99739727D01*
X25555363Y-99974759D01*
X25755241Y-100174637D01*
X25987759Y-100330000D01*
X25755241Y-100485363D01*
X25555363Y-100685241D01*
X25398320Y-100920273D01*
X25290147Y-101181426D01*
X25235000Y-101458665D01*
X25235000Y-101741335D01*
X25290147Y-102018574D01*
X25398320Y-102279727D01*
X25555363Y-102514759D01*
X25755241Y-102714637D01*
X25987759Y-102870000D01*
X25755241Y-103025363D01*
X25555363Y-103225241D01*
X25398320Y-103460273D01*
X25290147Y-103721426D01*
X25235000Y-103998665D01*
X25235000Y-104281335D01*
X25290147Y-104558574D01*
X25398320Y-104819727D01*
X25555363Y-105054759D01*
X25755241Y-105254637D01*
X25987759Y-105410000D01*
X25755241Y-105565363D01*
X25555363Y-105765241D01*
X25398320Y-106000273D01*
X25290147Y-106261426D01*
X25235000Y-106538665D01*
X25235000Y-106821335D01*
X25290147Y-107098574D01*
X25398320Y-107359727D01*
X25555363Y-107594759D01*
X25755241Y-107794637D01*
X25987759Y-107950000D01*
X25755241Y-108105363D01*
X25555363Y-108305241D01*
X25398320Y-108540273D01*
X25290147Y-108801426D01*
X25235000Y-109078665D01*
X25235000Y-109361335D01*
X25290147Y-109638574D01*
X25398320Y-109899727D01*
X25555363Y-110134759D01*
X25755241Y-110334637D01*
X25987759Y-110490000D01*
X25755241Y-110645363D01*
X25555363Y-110845241D01*
X25398320Y-111080273D01*
X25290147Y-111341426D01*
X25235000Y-111618665D01*
X25235000Y-111901335D01*
X25290147Y-112178574D01*
X25398320Y-112439727D01*
X25555363Y-112674759D01*
X25755241Y-112874637D01*
X25987759Y-113030000D01*
X25755241Y-113185363D01*
X25555363Y-113385241D01*
X25398320Y-113620273D01*
X25290147Y-113881426D01*
X25235000Y-114158665D01*
X25235000Y-114441335D01*
X25290147Y-114718574D01*
X25398320Y-114979727D01*
X25555363Y-115214759D01*
X25755241Y-115414637D01*
X25987759Y-115570000D01*
X25755241Y-115725363D01*
X25555363Y-115925241D01*
X25398320Y-116160273D01*
X25290147Y-116421426D01*
X25235000Y-116698665D01*
X25235000Y-116981335D01*
X25290147Y-117258574D01*
X25398320Y-117519727D01*
X25555363Y-117754759D01*
X25755241Y-117954637D01*
X25987759Y-118110000D01*
X25755241Y-118265363D01*
X25555363Y-118465241D01*
X25398320Y-118700273D01*
X25290147Y-118961426D01*
X25235000Y-119238665D01*
X25235000Y-119521335D01*
X25290147Y-119798574D01*
X25398320Y-120059727D01*
X25555363Y-120294759D01*
X25755241Y-120494637D01*
X25987759Y-120650000D01*
X25755241Y-120805363D01*
X25555363Y-121005241D01*
X25398320Y-121240273D01*
X25290147Y-121501426D01*
X25235000Y-121778665D01*
X25235000Y-122061335D01*
X25290147Y-122338574D01*
X25398320Y-122599727D01*
X25555363Y-122834759D01*
X25755241Y-123034637D01*
X25987759Y-123190000D01*
X25755241Y-123345363D01*
X25555363Y-123545241D01*
X25398320Y-123780273D01*
X25290147Y-124041426D01*
X25235000Y-124318665D01*
X25235000Y-124601335D01*
X25290147Y-124878574D01*
X25398320Y-125139727D01*
X25555363Y-125374759D01*
X25755241Y-125574637D01*
X25990273Y-125731680D01*
X26251426Y-125839853D01*
X26528665Y-125895000D01*
X26811335Y-125895000D01*
X27088574Y-125839853D01*
X27349727Y-125731680D01*
X27584759Y-125574637D01*
X27784637Y-125374759D01*
X27941680Y-125139727D01*
X28049853Y-124878574D01*
X28105000Y-124601335D01*
X28105000Y-124318665D01*
X28049853Y-124041426D01*
X27941680Y-123780273D01*
X27861317Y-123660000D01*
X40471928Y-123660000D01*
X40471928Y-125260000D01*
X40484188Y-125384482D01*
X40520498Y-125504180D01*
X40579463Y-125614494D01*
X40658815Y-125711185D01*
X40755506Y-125790537D01*
X40865820Y-125849502D01*
X40985518Y-125885812D01*
X41110000Y-125898072D01*
X42710000Y-125898072D01*
X42834482Y-125885812D01*
X42954180Y-125849502D01*
X43064494Y-125790537D01*
X43161185Y-125711185D01*
X43240537Y-125614494D01*
X43299502Y-125504180D01*
X43335812Y-125384482D01*
X43348072Y-125260000D01*
X43348072Y-123660000D01*
X43335812Y-123535518D01*
X43299502Y-123415820D01*
X43240537Y-123305506D01*
X43161185Y-123208815D01*
X43064494Y-123129463D01*
X42954180Y-123070498D01*
X42834482Y-123034188D01*
X42826039Y-123033357D01*
X43024637Y-122834759D01*
X43181680Y-122599727D01*
X43289853Y-122338574D01*
X43345000Y-122061335D01*
X43345000Y-121778665D01*
X43289853Y-121501426D01*
X43181680Y-121240273D01*
X43024637Y-121005241D01*
X42824759Y-120805363D01*
X42592241Y-120650000D01*
X42824759Y-120494637D01*
X43024637Y-120294759D01*
X43181680Y-120059727D01*
X43289853Y-119798574D01*
X43345000Y-119521335D01*
X43345000Y-119238665D01*
X43289853Y-118961426D01*
X43181680Y-118700273D01*
X43024637Y-118465241D01*
X42824759Y-118265363D01*
X42589727Y-118108320D01*
X42579135Y-118103933D01*
X42765131Y-117992385D01*
X42973519Y-117803414D01*
X43141037Y-117577420D01*
X43261246Y-117323087D01*
X43301904Y-117189039D01*
X43179915Y-116967000D01*
X42037000Y-116967000D01*
X42037000Y-116987000D01*
X41783000Y-116987000D01*
X41783000Y-116967000D01*
X40640085Y-116967000D01*
X40518096Y-117189039D01*
X40558754Y-117323087D01*
X40678963Y-117577420D01*
X40846481Y-117803414D01*
X41054869Y-117992385D01*
X41240865Y-118103933D01*
X41230273Y-118108320D01*
X40995241Y-118265363D01*
X40795363Y-118465241D01*
X40638320Y-118700273D01*
X40530147Y-118961426D01*
X40475000Y-119238665D01*
X40475000Y-119521335D01*
X40530147Y-119798574D01*
X40638320Y-120059727D01*
X40795363Y-120294759D01*
X40995241Y-120494637D01*
X41227759Y-120650000D01*
X40995241Y-120805363D01*
X40795363Y-121005241D01*
X40638320Y-121240273D01*
X40530147Y-121501426D01*
X40475000Y-121778665D01*
X40475000Y-122061335D01*
X40530147Y-122338574D01*
X40638320Y-122599727D01*
X40795363Y-122834759D01*
X40993961Y-123033357D01*
X40985518Y-123034188D01*
X40865820Y-123070498D01*
X40755506Y-123129463D01*
X40658815Y-123208815D01*
X40579463Y-123305506D01*
X40520498Y-123415820D01*
X40484188Y-123535518D01*
X40471928Y-123660000D01*
X27861317Y-123660000D01*
X27784637Y-123545241D01*
X27584759Y-123345363D01*
X27352241Y-123190000D01*
X27584759Y-123034637D01*
X27784637Y-122834759D01*
X27941680Y-122599727D01*
X28049853Y-122338574D01*
X28105000Y-122061335D01*
X28105000Y-121778665D01*
X28049853Y-121501426D01*
X27941680Y-121240273D01*
X27784637Y-121005241D01*
X27584759Y-120805363D01*
X27352241Y-120650000D01*
X27584759Y-120494637D01*
X27784637Y-120294759D01*
X27941680Y-120059727D01*
X28049853Y-119798574D01*
X28105000Y-119521335D01*
X28105000Y-119238665D01*
X28049853Y-118961426D01*
X27941680Y-118700273D01*
X27784637Y-118465241D01*
X27584759Y-118265363D01*
X27352241Y-118110000D01*
X27584759Y-117954637D01*
X27784637Y-117754759D01*
X27941680Y-117519727D01*
X28049853Y-117258574D01*
X28105000Y-116981335D01*
X28105000Y-116698665D01*
X28049853Y-116421426D01*
X27941680Y-116160273D01*
X27784637Y-115925241D01*
X27584759Y-115725363D01*
X27352241Y-115570000D01*
X27584759Y-115414637D01*
X27784637Y-115214759D01*
X27941680Y-114979727D01*
X28049853Y-114718574D01*
X28105000Y-114441335D01*
X28105000Y-114158665D01*
X28049853Y-113881426D01*
X27941680Y-113620273D01*
X27784637Y-113385241D01*
X27584759Y-113185363D01*
X27352241Y-113030000D01*
X27584759Y-112874637D01*
X27784637Y-112674759D01*
X27941680Y-112439727D01*
X28049853Y-112178574D01*
X28105000Y-111901335D01*
X28105000Y-111618665D01*
X28049853Y-111341426D01*
X27941680Y-111080273D01*
X27784637Y-110845241D01*
X27584759Y-110645363D01*
X27352241Y-110490000D01*
X27584759Y-110334637D01*
X27784637Y-110134759D01*
X27941680Y-109899727D01*
X28049853Y-109638574D01*
X28105000Y-109361335D01*
X28105000Y-109078665D01*
X28049853Y-108801426D01*
X27941680Y-108540273D01*
X27784637Y-108305241D01*
X27584759Y-108105363D01*
X27352241Y-107950000D01*
X27584759Y-107794637D01*
X27784637Y-107594759D01*
X27941680Y-107359727D01*
X28049853Y-107098574D01*
X28105000Y-106821335D01*
X28105000Y-106538665D01*
X28049853Y-106261426D01*
X27941680Y-106000273D01*
X27784637Y-105765241D01*
X27584759Y-105565363D01*
X27352241Y-105410000D01*
X27584759Y-105254637D01*
X27784637Y-105054759D01*
X27941680Y-104819727D01*
X28049853Y-104558574D01*
X28105000Y-104281335D01*
X28105000Y-103998665D01*
X28049853Y-103721426D01*
X27941680Y-103460273D01*
X27784637Y-103225241D01*
X27584759Y-103025363D01*
X27352241Y-102870000D01*
X27584759Y-102714637D01*
X27784637Y-102514759D01*
X27941680Y-102279727D01*
X28049853Y-102018574D01*
X28105000Y-101741335D01*
X28105000Y-101458665D01*
X28049853Y-101181426D01*
X27941680Y-100920273D01*
X27784637Y-100685241D01*
X27584759Y-100485363D01*
X27352241Y-100330000D01*
X27584759Y-100174637D01*
X27784637Y-99974759D01*
X27941680Y-99739727D01*
X28049853Y-99478574D01*
X28105000Y-99201335D01*
X28105000Y-98918665D01*
X28049853Y-98641426D01*
X27941680Y-98380273D01*
X27784637Y-98145241D01*
X27584759Y-97945363D01*
X27352241Y-97790000D01*
X27584759Y-97634637D01*
X27784637Y-97434759D01*
X27941680Y-97199727D01*
X28049853Y-96938574D01*
X28105000Y-96661335D01*
X28105000Y-96378665D01*
X28049853Y-96101426D01*
X27941680Y-95840273D01*
X27784637Y-95605241D01*
X27584759Y-95405363D01*
X27352241Y-95250000D01*
X27584759Y-95094637D01*
X27784637Y-94894759D01*
X27941680Y-94659727D01*
X28049853Y-94398574D01*
X28105000Y-94121335D01*
X28105000Y-93838665D01*
X28049853Y-93561426D01*
X27941680Y-93300273D01*
X27784637Y-93065241D01*
X27584759Y-92865363D01*
X27352241Y-92710000D01*
X27584759Y-92554637D01*
X27784637Y-92354759D01*
X27941680Y-92119727D01*
X28049853Y-91858574D01*
X28105000Y-91581335D01*
X28105000Y-91298665D01*
X28049853Y-91021426D01*
X27941680Y-90760273D01*
X27784637Y-90525241D01*
X27584759Y-90325363D01*
X27352241Y-90170000D01*
X27584759Y-90014637D01*
X27784637Y-89814759D01*
X27941680Y-89579727D01*
X28049853Y-89318574D01*
X28105000Y-89041335D01*
X28105000Y-88758665D01*
X40475000Y-88758665D01*
X40475000Y-89041335D01*
X40530147Y-89318574D01*
X40638320Y-89579727D01*
X40795363Y-89814759D01*
X40995241Y-90014637D01*
X41227759Y-90170000D01*
X40995241Y-90325363D01*
X40795363Y-90525241D01*
X40638320Y-90760273D01*
X40530147Y-91021426D01*
X40475000Y-91298665D01*
X40475000Y-91581335D01*
X40530147Y-91858574D01*
X40638320Y-92119727D01*
X40795363Y-92354759D01*
X40995241Y-92554637D01*
X41227759Y-92710000D01*
X40995241Y-92865363D01*
X40795363Y-93065241D01*
X40638320Y-93300273D01*
X40530147Y-93561426D01*
X40475000Y-93838665D01*
X40475000Y-94121335D01*
X40530147Y-94398574D01*
X40638320Y-94659727D01*
X40795363Y-94894759D01*
X40995241Y-95094637D01*
X41227759Y-95250000D01*
X40995241Y-95405363D01*
X40795363Y-95605241D01*
X40638320Y-95840273D01*
X40530147Y-96101426D01*
X40475000Y-96378665D01*
X40475000Y-96661335D01*
X40530147Y-96938574D01*
X40638320Y-97199727D01*
X40795363Y-97434759D01*
X40995241Y-97634637D01*
X41227759Y-97790000D01*
X40995241Y-97945363D01*
X40795363Y-98145241D01*
X40638320Y-98380273D01*
X40530147Y-98641426D01*
X40475000Y-98918665D01*
X40475000Y-99201335D01*
X40530147Y-99478574D01*
X40638320Y-99739727D01*
X40795363Y-99974759D01*
X40995241Y-100174637D01*
X41227759Y-100330000D01*
X40995241Y-100485363D01*
X40795363Y-100685241D01*
X40638320Y-100920273D01*
X40530147Y-101181426D01*
X40475000Y-101458665D01*
X40475000Y-101741335D01*
X40530147Y-102018574D01*
X40638320Y-102279727D01*
X40795363Y-102514759D01*
X40995241Y-102714637D01*
X41227759Y-102870000D01*
X40995241Y-103025363D01*
X40795363Y-103225241D01*
X40638320Y-103460273D01*
X40530147Y-103721426D01*
X40475000Y-103998665D01*
X40475000Y-104281335D01*
X40530147Y-104558574D01*
X40638320Y-104819727D01*
X40795363Y-105054759D01*
X40995241Y-105254637D01*
X41227759Y-105410000D01*
X40995241Y-105565363D01*
X40795363Y-105765241D01*
X40638320Y-106000273D01*
X40530147Y-106261426D01*
X40475000Y-106538665D01*
X40475000Y-106821335D01*
X40530147Y-107098574D01*
X40638320Y-107359727D01*
X40795363Y-107594759D01*
X40995241Y-107794637D01*
X41227759Y-107950000D01*
X40995241Y-108105363D01*
X40795363Y-108305241D01*
X40638320Y-108540273D01*
X40530147Y-108801426D01*
X40475000Y-109078665D01*
X40475000Y-109361335D01*
X40530147Y-109638574D01*
X40638320Y-109899727D01*
X40795363Y-110134759D01*
X40995241Y-110334637D01*
X41227759Y-110490000D01*
X40995241Y-110645363D01*
X40795363Y-110845241D01*
X40638320Y-111080273D01*
X40530147Y-111341426D01*
X40475000Y-111618665D01*
X40475000Y-111901335D01*
X40530147Y-112178574D01*
X40638320Y-112439727D01*
X40795363Y-112674759D01*
X40995241Y-112874637D01*
X41227759Y-113030000D01*
X40995241Y-113185363D01*
X40795363Y-113385241D01*
X40638320Y-113620273D01*
X40530147Y-113881426D01*
X40475000Y-114158665D01*
X40475000Y-114441335D01*
X40530147Y-114718574D01*
X40638320Y-114979727D01*
X40795363Y-115214759D01*
X40995241Y-115414637D01*
X41230273Y-115571680D01*
X41240865Y-115576067D01*
X41054869Y-115687615D01*
X40846481Y-115876586D01*
X40678963Y-116102580D01*
X40558754Y-116356913D01*
X40518096Y-116490961D01*
X40640085Y-116713000D01*
X41783000Y-116713000D01*
X41783000Y-116693000D01*
X42037000Y-116693000D01*
X42037000Y-116713000D01*
X43179915Y-116713000D01*
X43301904Y-116490961D01*
X43261246Y-116356913D01*
X43141037Y-116102580D01*
X42973519Y-115876586D01*
X42765131Y-115687615D01*
X42579135Y-115576067D01*
X42589727Y-115571680D01*
X42824759Y-115414637D01*
X43024637Y-115214759D01*
X43181680Y-114979727D01*
X43289853Y-114718574D01*
X43345000Y-114441335D01*
X43345000Y-114158665D01*
X43289853Y-113881426D01*
X43181680Y-113620273D01*
X43024637Y-113385241D01*
X42824759Y-113185363D01*
X42592241Y-113030000D01*
X42824759Y-112874637D01*
X43024637Y-112674759D01*
X43181680Y-112439727D01*
X43289853Y-112178574D01*
X43345000Y-111901335D01*
X43345000Y-111618665D01*
X43289853Y-111341426D01*
X43181680Y-111080273D01*
X43024637Y-110845241D01*
X42824759Y-110645363D01*
X42592241Y-110490000D01*
X42824759Y-110334637D01*
X43024637Y-110134759D01*
X43181680Y-109899727D01*
X43289853Y-109638574D01*
X43345000Y-109361335D01*
X43345000Y-109078665D01*
X43344021Y-109073740D01*
X49315000Y-109073740D01*
X49315000Y-109366260D01*
X49372068Y-109653158D01*
X49484010Y-109923411D01*
X49646525Y-110166632D01*
X49853368Y-110373475D01*
X50027760Y-110490000D01*
X49853368Y-110606525D01*
X49646525Y-110813368D01*
X49484010Y-111056589D01*
X49372068Y-111326842D01*
X49315000Y-111613740D01*
X49315000Y-111906260D01*
X49372068Y-112193158D01*
X49484010Y-112463411D01*
X49646525Y-112706632D01*
X49853368Y-112913475D01*
X50027760Y-113030000D01*
X49853368Y-113146525D01*
X49646525Y-113353368D01*
X49484010Y-113596589D01*
X49372068Y-113866842D01*
X49315000Y-114153740D01*
X49315000Y-114446260D01*
X49372068Y-114733158D01*
X49484010Y-115003411D01*
X49646525Y-115246632D01*
X49853368Y-115453475D01*
X50096589Y-115615990D01*
X50366842Y-115727932D01*
X50653740Y-115785000D01*
X50946260Y-115785000D01*
X51233158Y-115727932D01*
X51503411Y-115615990D01*
X51746632Y-115453475D01*
X51953475Y-115246632D01*
X52115990Y-115003411D01*
X52227932Y-114733158D01*
X52285000Y-114446260D01*
X52285000Y-114153740D01*
X52227932Y-113866842D01*
X52115990Y-113596589D01*
X51953475Y-113353368D01*
X51746632Y-113146525D01*
X51572240Y-113030000D01*
X51746632Y-112913475D01*
X51953475Y-112706632D01*
X52115990Y-112463411D01*
X52227932Y-112193158D01*
X52285000Y-111906260D01*
X52285000Y-111613740D01*
X52227932Y-111326842D01*
X52115990Y-111056589D01*
X51953475Y-110813368D01*
X51746632Y-110606525D01*
X51572240Y-110490000D01*
X51746632Y-110373475D01*
X51953475Y-110166632D01*
X52115990Y-109923411D01*
X52227932Y-109653158D01*
X52285000Y-109366260D01*
X52285000Y-109073740D01*
X52227932Y-108786842D01*
X52115990Y-108516589D01*
X51953475Y-108273368D01*
X51746632Y-108066525D01*
X51564466Y-107944805D01*
X51681355Y-107875178D01*
X51897588Y-107680269D01*
X52071641Y-107446920D01*
X52196825Y-107184099D01*
X52241476Y-107036890D01*
X52120155Y-106807000D01*
X50927000Y-106807000D01*
X50927000Y-106827000D01*
X50673000Y-106827000D01*
X50673000Y-106807000D01*
X49479845Y-106807000D01*
X49358524Y-107036890D01*
X49403175Y-107184099D01*
X49528359Y-107446920D01*
X49702412Y-107680269D01*
X49918645Y-107875178D01*
X50035534Y-107944805D01*
X49853368Y-108066525D01*
X49646525Y-108273368D01*
X49484010Y-108516589D01*
X49372068Y-108786842D01*
X49315000Y-109073740D01*
X43344021Y-109073740D01*
X43289853Y-108801426D01*
X43181680Y-108540273D01*
X43024637Y-108305241D01*
X42824759Y-108105363D01*
X42592241Y-107950000D01*
X42824759Y-107794637D01*
X43024637Y-107594759D01*
X43181680Y-107359727D01*
X43289853Y-107098574D01*
X43345000Y-106821335D01*
X43345000Y-106538665D01*
X43289853Y-106261426D01*
X43181680Y-106000273D01*
X43024637Y-105765241D01*
X42824759Y-105565363D01*
X42592241Y-105410000D01*
X42824759Y-105254637D01*
X43024637Y-105054759D01*
X43181680Y-104819727D01*
X43289853Y-104558574D01*
X43345000Y-104281335D01*
X43345000Y-103998665D01*
X43289853Y-103721426D01*
X43181680Y-103460273D01*
X43067908Y-103290000D01*
X49311928Y-103290000D01*
X49311928Y-104990000D01*
X49324188Y-105114482D01*
X49360498Y-105234180D01*
X49419463Y-105344494D01*
X49498815Y-105441185D01*
X49595506Y-105520537D01*
X49705820Y-105579502D01*
X49786466Y-105603966D01*
X49702412Y-105679731D01*
X49528359Y-105913080D01*
X49403175Y-106175901D01*
X49358524Y-106323110D01*
X49479845Y-106553000D01*
X50673000Y-106553000D01*
X50673000Y-106533000D01*
X50927000Y-106533000D01*
X50927000Y-106553000D01*
X52120155Y-106553000D01*
X52169301Y-106459872D01*
X73330000Y-106459872D01*
X73330000Y-106900128D01*
X73415890Y-107331925D01*
X73584369Y-107738669D01*
X73828962Y-108104729D01*
X74140271Y-108416038D01*
X74506331Y-108660631D01*
X74913075Y-108829110D01*
X75344872Y-108915000D01*
X75785128Y-108915000D01*
X76216925Y-108829110D01*
X76623669Y-108660631D01*
X76989729Y-108416038D01*
X77301038Y-108104729D01*
X77545631Y-107738669D01*
X77714110Y-107331925D01*
X77800000Y-106900128D01*
X77800000Y-106459872D01*
X198425000Y-106459872D01*
X198425000Y-106900128D01*
X198510890Y-107331925D01*
X198679369Y-107738669D01*
X198923962Y-108104729D01*
X199235271Y-108416038D01*
X199601331Y-108660631D01*
X200008075Y-108829110D01*
X200439872Y-108915000D01*
X200880128Y-108915000D01*
X201311925Y-108829110D01*
X201718669Y-108660631D01*
X202084729Y-108416038D01*
X202396038Y-108104729D01*
X202640631Y-107738669D01*
X202809110Y-107331925D01*
X202895000Y-106900128D01*
X202895000Y-106459872D01*
X205410000Y-106459872D01*
X205410000Y-106900128D01*
X205495890Y-107331925D01*
X205664369Y-107738669D01*
X205908962Y-108104729D01*
X206220271Y-108416038D01*
X206586331Y-108660631D01*
X206993075Y-108829110D01*
X207424872Y-108915000D01*
X207865128Y-108915000D01*
X208296925Y-108829110D01*
X208703669Y-108660631D01*
X209069729Y-108416038D01*
X209381038Y-108104729D01*
X209625631Y-107738669D01*
X209794110Y-107331925D01*
X209880000Y-106900128D01*
X209880000Y-106459872D01*
X330505000Y-106459872D01*
X330505000Y-106900128D01*
X330590890Y-107331925D01*
X330759369Y-107738669D01*
X331003962Y-108104729D01*
X331315271Y-108416038D01*
X331681331Y-108660631D01*
X332088075Y-108829110D01*
X332519872Y-108915000D01*
X332960128Y-108915000D01*
X333391925Y-108829110D01*
X333798669Y-108660631D01*
X334164729Y-108416038D01*
X334476038Y-108104729D01*
X334720631Y-107738669D01*
X334889110Y-107331925D01*
X334975000Y-106900128D01*
X334975000Y-106459872D01*
X334889110Y-106028075D01*
X334720631Y-105621331D01*
X334476038Y-105255271D01*
X334164729Y-104943962D01*
X333798669Y-104699369D01*
X333391925Y-104530890D01*
X332960128Y-104445000D01*
X332519872Y-104445000D01*
X332088075Y-104530890D01*
X331681331Y-104699369D01*
X331315271Y-104943962D01*
X331003962Y-105255271D01*
X330759369Y-105621331D01*
X330590890Y-106028075D01*
X330505000Y-106459872D01*
X209880000Y-106459872D01*
X209794110Y-106028075D01*
X209625631Y-105621331D01*
X209381038Y-105255271D01*
X209069729Y-104943962D01*
X208703669Y-104699369D01*
X208296925Y-104530890D01*
X207865128Y-104445000D01*
X207424872Y-104445000D01*
X206993075Y-104530890D01*
X206586331Y-104699369D01*
X206220271Y-104943962D01*
X205908962Y-105255271D01*
X205664369Y-105621331D01*
X205495890Y-106028075D01*
X205410000Y-106459872D01*
X202895000Y-106459872D01*
X202809110Y-106028075D01*
X202640631Y-105621331D01*
X202396038Y-105255271D01*
X202084729Y-104943962D01*
X201718669Y-104699369D01*
X201311925Y-104530890D01*
X200880128Y-104445000D01*
X200439872Y-104445000D01*
X200008075Y-104530890D01*
X199601331Y-104699369D01*
X199235271Y-104943962D01*
X198923962Y-105255271D01*
X198679369Y-105621331D01*
X198510890Y-106028075D01*
X198425000Y-106459872D01*
X77800000Y-106459872D01*
X77714110Y-106028075D01*
X77545631Y-105621331D01*
X77301038Y-105255271D01*
X76989729Y-104943962D01*
X76623669Y-104699369D01*
X76216925Y-104530890D01*
X75785128Y-104445000D01*
X75344872Y-104445000D01*
X74913075Y-104530890D01*
X74506331Y-104699369D01*
X74140271Y-104943962D01*
X73828962Y-105255271D01*
X73584369Y-105621331D01*
X73415890Y-106028075D01*
X73330000Y-106459872D01*
X52169301Y-106459872D01*
X52241476Y-106323110D01*
X52196825Y-106175901D01*
X52071641Y-105913080D01*
X51897588Y-105679731D01*
X51813534Y-105603966D01*
X51894180Y-105579502D01*
X52004494Y-105520537D01*
X52101185Y-105441185D01*
X52180537Y-105344494D01*
X52239502Y-105234180D01*
X52275812Y-105114482D01*
X52288072Y-104990000D01*
X52288072Y-103290000D01*
X52275812Y-103165518D01*
X52239502Y-103045820D01*
X52180537Y-102935506D01*
X52101185Y-102838815D01*
X52004494Y-102759463D01*
X51894180Y-102700498D01*
X51774482Y-102664188D01*
X51650000Y-102651928D01*
X49950000Y-102651928D01*
X49825518Y-102664188D01*
X49705820Y-102700498D01*
X49595506Y-102759463D01*
X49498815Y-102838815D01*
X49419463Y-102935506D01*
X49360498Y-103045820D01*
X49324188Y-103165518D01*
X49311928Y-103290000D01*
X43067908Y-103290000D01*
X43024637Y-103225241D01*
X42824759Y-103025363D01*
X42592241Y-102870000D01*
X42824759Y-102714637D01*
X43024637Y-102514759D01*
X43181680Y-102279727D01*
X43289853Y-102018574D01*
X43345000Y-101741335D01*
X43345000Y-101458665D01*
X43289853Y-101181426D01*
X43181680Y-100920273D01*
X43024637Y-100685241D01*
X42824759Y-100485363D01*
X42592241Y-100330000D01*
X42824759Y-100174637D01*
X43024637Y-99974759D01*
X43181680Y-99739727D01*
X43289853Y-99478574D01*
X43345000Y-99201335D01*
X43345000Y-98918665D01*
X43289853Y-98641426D01*
X43181680Y-98380273D01*
X43024637Y-98145241D01*
X42824759Y-97945363D01*
X42592241Y-97790000D01*
X42824759Y-97634637D01*
X43024637Y-97434759D01*
X43181680Y-97199727D01*
X43289853Y-96938574D01*
X43345000Y-96661335D01*
X43345000Y-96378665D01*
X43289853Y-96101426D01*
X43181680Y-95840273D01*
X43024637Y-95605241D01*
X42824759Y-95405363D01*
X42592241Y-95250000D01*
X42824759Y-95094637D01*
X43024637Y-94894759D01*
X43181680Y-94659727D01*
X43289853Y-94398574D01*
X43345000Y-94121335D01*
X43345000Y-93838665D01*
X43329327Y-93759872D01*
X73330000Y-93759872D01*
X73330000Y-94200128D01*
X73415890Y-94631925D01*
X73584369Y-95038669D01*
X73828962Y-95404729D01*
X74140271Y-95716038D01*
X74506331Y-95960631D01*
X74913075Y-96129110D01*
X75344872Y-96215000D01*
X75785128Y-96215000D01*
X76216925Y-96129110D01*
X76623669Y-95960631D01*
X76989729Y-95716038D01*
X77301038Y-95404729D01*
X77545631Y-95038669D01*
X77714110Y-94631925D01*
X77800000Y-94200128D01*
X77800000Y-93759872D01*
X198425000Y-93759872D01*
X198425000Y-94200128D01*
X198510890Y-94631925D01*
X198679369Y-95038669D01*
X198923962Y-95404729D01*
X199235271Y-95716038D01*
X199601331Y-95960631D01*
X200008075Y-96129110D01*
X200439872Y-96215000D01*
X200880128Y-96215000D01*
X201311925Y-96129110D01*
X201718669Y-95960631D01*
X202084729Y-95716038D01*
X202396038Y-95404729D01*
X202640631Y-95038669D01*
X202809110Y-94631925D01*
X202895000Y-94200128D01*
X202895000Y-93759872D01*
X205410000Y-93759872D01*
X205410000Y-94200128D01*
X205495890Y-94631925D01*
X205664369Y-95038669D01*
X205908962Y-95404729D01*
X206220271Y-95716038D01*
X206586331Y-95960631D01*
X206993075Y-96129110D01*
X207424872Y-96215000D01*
X207865128Y-96215000D01*
X208296925Y-96129110D01*
X208703669Y-95960631D01*
X209069729Y-95716038D01*
X209381038Y-95404729D01*
X209625631Y-95038669D01*
X209794110Y-94631925D01*
X209880000Y-94200128D01*
X209880000Y-93759872D01*
X330505000Y-93759872D01*
X330505000Y-94200128D01*
X330590890Y-94631925D01*
X330759369Y-95038669D01*
X331003962Y-95404729D01*
X331315271Y-95716038D01*
X331681331Y-95960631D01*
X332088075Y-96129110D01*
X332519872Y-96215000D01*
X332960128Y-96215000D01*
X333391925Y-96129110D01*
X333798669Y-95960631D01*
X334164729Y-95716038D01*
X334476038Y-95404729D01*
X334720631Y-95038669D01*
X334889110Y-94631925D01*
X334975000Y-94200128D01*
X334975000Y-93759872D01*
X334889110Y-93328075D01*
X334720631Y-92921331D01*
X334476038Y-92555271D01*
X334164729Y-92243962D01*
X333798669Y-91999369D01*
X333391925Y-91830890D01*
X332960128Y-91745000D01*
X332519872Y-91745000D01*
X332088075Y-91830890D01*
X331681331Y-91999369D01*
X331315271Y-92243962D01*
X331003962Y-92555271D01*
X330759369Y-92921331D01*
X330590890Y-93328075D01*
X330505000Y-93759872D01*
X209880000Y-93759872D01*
X209794110Y-93328075D01*
X209625631Y-92921331D01*
X209381038Y-92555271D01*
X209069729Y-92243962D01*
X208703669Y-91999369D01*
X208296925Y-91830890D01*
X207865128Y-91745000D01*
X207424872Y-91745000D01*
X206993075Y-91830890D01*
X206586331Y-91999369D01*
X206220271Y-92243962D01*
X205908962Y-92555271D01*
X205664369Y-92921331D01*
X205495890Y-93328075D01*
X205410000Y-93759872D01*
X202895000Y-93759872D01*
X202809110Y-93328075D01*
X202640631Y-92921331D01*
X202396038Y-92555271D01*
X202084729Y-92243962D01*
X201718669Y-91999369D01*
X201311925Y-91830890D01*
X200880128Y-91745000D01*
X200439872Y-91745000D01*
X200008075Y-91830890D01*
X199601331Y-91999369D01*
X199235271Y-92243962D01*
X198923962Y-92555271D01*
X198679369Y-92921331D01*
X198510890Y-93328075D01*
X198425000Y-93759872D01*
X77800000Y-93759872D01*
X77714110Y-93328075D01*
X77545631Y-92921331D01*
X77301038Y-92555271D01*
X76989729Y-92243962D01*
X76623669Y-91999369D01*
X76216925Y-91830890D01*
X75785128Y-91745000D01*
X75344872Y-91745000D01*
X74913075Y-91830890D01*
X74506331Y-91999369D01*
X74140271Y-92243962D01*
X73828962Y-92555271D01*
X73584369Y-92921331D01*
X73415890Y-93328075D01*
X73330000Y-93759872D01*
X43329327Y-93759872D01*
X43289853Y-93561426D01*
X43181680Y-93300273D01*
X43024637Y-93065241D01*
X42824759Y-92865363D01*
X42592241Y-92710000D01*
X42824759Y-92554637D01*
X43024637Y-92354759D01*
X43181680Y-92119727D01*
X43289853Y-91858574D01*
X43345000Y-91581335D01*
X43345000Y-91298665D01*
X43289853Y-91021426D01*
X43181680Y-90760273D01*
X43024637Y-90525241D01*
X42824759Y-90325363D01*
X42592241Y-90170000D01*
X42824759Y-90014637D01*
X43024637Y-89814759D01*
X43181680Y-89579727D01*
X43289853Y-89318574D01*
X43345000Y-89041335D01*
X43345000Y-88758665D01*
X43289853Y-88481426D01*
X43181680Y-88220273D01*
X43024637Y-87985241D01*
X42824759Y-87785363D01*
X42589727Y-87628320D01*
X42328574Y-87520147D01*
X42051335Y-87465000D01*
X41768665Y-87465000D01*
X41491426Y-87520147D01*
X41230273Y-87628320D01*
X40995241Y-87785363D01*
X40795363Y-87985241D01*
X40638320Y-88220273D01*
X40530147Y-88481426D01*
X40475000Y-88758665D01*
X28105000Y-88758665D01*
X28049853Y-88481426D01*
X27941680Y-88220273D01*
X27784637Y-87985241D01*
X27584759Y-87785363D01*
X27349727Y-87628320D01*
X27088574Y-87520147D01*
X26811335Y-87465000D01*
X26528665Y-87465000D01*
X26251426Y-87520147D01*
X25990273Y-87628320D01*
X25755241Y-87785363D01*
X25555363Y-87985241D01*
X25398320Y-88220273D01*
X25290147Y-88481426D01*
X25235000Y-88758665D01*
X-1232382Y-88758665D01*
X-1196686Y-88672490D01*
X-1143000Y-88402592D01*
X-1143000Y-88127408D01*
X-1196686Y-87857510D01*
X-1301995Y-87603273D01*
X-1454880Y-87374465D01*
X-1649465Y-87179880D01*
X-1878273Y-87026995D01*
X-1955515Y-86995000D01*
X-1878273Y-86963005D01*
X-1649465Y-86810120D01*
X-1454880Y-86615535D01*
X-1301995Y-86386727D01*
X-1196686Y-86132490D01*
X-1143000Y-85862592D01*
X-1143000Y-85587408D01*
X-1196686Y-85317510D01*
X-1301995Y-85063273D01*
X-1454880Y-84834465D01*
X-1649465Y-84639880D01*
X-1878273Y-84486995D01*
X-1955515Y-84455000D01*
X-1878273Y-84423005D01*
X-1649465Y-84270120D01*
X-1454880Y-84075535D01*
X-1301995Y-83846727D01*
X-1230342Y-83673740D01*
X352845000Y-83673740D01*
X352845000Y-83966260D01*
X352902068Y-84253158D01*
X353014010Y-84523411D01*
X353176525Y-84766632D01*
X353383368Y-84973475D01*
X353557760Y-85090000D01*
X353383368Y-85206525D01*
X353176525Y-85413368D01*
X353014010Y-85656589D01*
X352902068Y-85926842D01*
X352845000Y-86213740D01*
X352845000Y-86506260D01*
X352902068Y-86793158D01*
X353014010Y-87063411D01*
X353176525Y-87306632D01*
X353383368Y-87513475D01*
X353557760Y-87630000D01*
X353383368Y-87746525D01*
X353176525Y-87953368D01*
X353014010Y-88196589D01*
X352902068Y-88466842D01*
X352845000Y-88753740D01*
X352845000Y-89046260D01*
X352902068Y-89333158D01*
X353014010Y-89603411D01*
X353176525Y-89846632D01*
X353383368Y-90053475D01*
X353626589Y-90215990D01*
X353896842Y-90327932D01*
X354183740Y-90385000D01*
X354476260Y-90385000D01*
X354763158Y-90327932D01*
X355033411Y-90215990D01*
X355276632Y-90053475D01*
X355483475Y-89846632D01*
X355645990Y-89603411D01*
X355757932Y-89333158D01*
X355815000Y-89046260D01*
X355815000Y-88753740D01*
X355757932Y-88466842D01*
X355645990Y-88196589D01*
X355483475Y-87953368D01*
X355276632Y-87746525D01*
X355102240Y-87630000D01*
X355276632Y-87513475D01*
X355483475Y-87306632D01*
X355645990Y-87063411D01*
X355757932Y-86793158D01*
X355815000Y-86506260D01*
X355815000Y-86213740D01*
X355757932Y-85926842D01*
X355645990Y-85656589D01*
X355483475Y-85413368D01*
X355276632Y-85206525D01*
X355102240Y-85090000D01*
X355276632Y-84973475D01*
X355483475Y-84766632D01*
X355645990Y-84523411D01*
X355757932Y-84253158D01*
X355815000Y-83966260D01*
X355815000Y-83673740D01*
X355757932Y-83386842D01*
X355645990Y-83116589D01*
X355483475Y-82873368D01*
X355276632Y-82666525D01*
X355094466Y-82544805D01*
X355211355Y-82475178D01*
X355427588Y-82280269D01*
X355601641Y-82046920D01*
X355726825Y-81784099D01*
X355771476Y-81636890D01*
X355650155Y-81407000D01*
X354457000Y-81407000D01*
X354457000Y-81427000D01*
X354203000Y-81427000D01*
X354203000Y-81407000D01*
X353009845Y-81407000D01*
X352888524Y-81636890D01*
X352933175Y-81784099D01*
X353058359Y-82046920D01*
X353232412Y-82280269D01*
X353448645Y-82475178D01*
X353565534Y-82544805D01*
X353383368Y-82666525D01*
X353176525Y-82873368D01*
X353014010Y-83116589D01*
X352902068Y-83386842D01*
X352845000Y-83673740D01*
X-1230342Y-83673740D01*
X-1196686Y-83592490D01*
X-1143000Y-83322592D01*
X-1143000Y-83047408D01*
X-1196686Y-82777510D01*
X-1301995Y-82523273D01*
X-1454880Y-82294465D01*
X-1649465Y-82099880D01*
X-1878273Y-81946995D01*
X-1955515Y-81915000D01*
X-1878273Y-81883005D01*
X-1649465Y-81730120D01*
X-1454880Y-81535535D01*
X-1301995Y-81306727D01*
X-1196686Y-81052490D01*
X-1143000Y-80782592D01*
X-1143000Y-80507408D01*
X-1196686Y-80237510D01*
X-1301995Y-79983273D01*
X-1454880Y-79754465D01*
X-1649465Y-79559880D01*
X-1878273Y-79406995D01*
X-2132510Y-79301686D01*
X-2402408Y-79248000D01*
X-2677592Y-79248000D01*
X-2947490Y-79301686D01*
X-3201727Y-79406995D01*
X-3430535Y-79559880D01*
X-3625120Y-79754465D01*
X-3778005Y-79983273D01*
X-3883314Y-80237510D01*
X-3937000Y-80507408D01*
X-29083000Y-80507408D01*
X-29136686Y-80237510D01*
X-29241995Y-79983273D01*
X-29394880Y-79754465D01*
X-29589465Y-79559880D01*
X-29818273Y-79406995D01*
X-30072510Y-79301686D01*
X-30342408Y-79248000D01*
X-30617592Y-79248000D01*
X-30887490Y-79301686D01*
X-31141727Y-79406995D01*
X-31370535Y-79559880D01*
X-31565120Y-79754465D01*
X-31718005Y-79983273D01*
X-31823314Y-80237510D01*
X-31877000Y-80507408D01*
X-40513000Y-80507408D01*
X-40513000Y-70899872D01*
X-37795000Y-70899872D01*
X-37795000Y-71340128D01*
X-37709110Y-71771925D01*
X-37540631Y-72178669D01*
X-37296038Y-72544729D01*
X-36984729Y-72856038D01*
X-36618669Y-73100631D01*
X-36211925Y-73269110D01*
X-35780128Y-73355000D01*
X-35339872Y-73355000D01*
X-34908075Y-73269110D01*
X-34501331Y-73100631D01*
X-34135271Y-72856038D01*
X-33823962Y-72544729D01*
X-33579369Y-72178669D01*
X-33410890Y-71771925D01*
X-33364758Y-71540000D01*
X1051928Y-71540000D01*
X1051928Y-73240000D01*
X1064188Y-73364482D01*
X1100498Y-73484180D01*
X1159463Y-73594494D01*
X1238815Y-73691185D01*
X1335506Y-73770537D01*
X1445820Y-73829502D01*
X1565518Y-73865812D01*
X1690000Y-73878072D01*
X3390000Y-73878072D01*
X3514482Y-73865812D01*
X3634180Y-73829502D01*
X3744494Y-73770537D01*
X3841185Y-73691185D01*
X3920537Y-73594494D01*
X3979502Y-73484180D01*
X4003966Y-73403534D01*
X4079731Y-73487588D01*
X4313080Y-73661641D01*
X4575901Y-73786825D01*
X4723110Y-73831476D01*
X4953000Y-73710155D01*
X4953000Y-72517000D01*
X5207000Y-72517000D01*
X5207000Y-73710155D01*
X5436890Y-73831476D01*
X5584099Y-73786825D01*
X5797672Y-73685098D01*
X10505000Y-73685098D01*
X10505000Y-74154902D01*
X10596654Y-74615679D01*
X10776440Y-75049721D01*
X11037450Y-75440349D01*
X11369651Y-75772550D01*
X11760279Y-76033560D01*
X12194321Y-76213346D01*
X12655098Y-76305000D01*
X13124902Y-76305000D01*
X13585679Y-76213346D01*
X14019721Y-76033560D01*
X14410349Y-75772550D01*
X14742550Y-75440349D01*
X15003560Y-75049721D01*
X15183346Y-74615679D01*
X15275000Y-74154902D01*
X15275000Y-73685098D01*
X15240915Y-73513740D01*
X49315000Y-73513740D01*
X49315000Y-73806260D01*
X49372068Y-74093158D01*
X49484010Y-74363411D01*
X49646525Y-74606632D01*
X49853368Y-74813475D01*
X50027760Y-74930000D01*
X49853368Y-75046525D01*
X49646525Y-75253368D01*
X49484010Y-75496589D01*
X49372068Y-75766842D01*
X49315000Y-76053740D01*
X49315000Y-76346260D01*
X49372068Y-76633158D01*
X49484010Y-76903411D01*
X49646525Y-77146632D01*
X49853368Y-77353475D01*
X50027760Y-77470000D01*
X49853368Y-77586525D01*
X49646525Y-77793368D01*
X49484010Y-78036589D01*
X49372068Y-78306842D01*
X49315000Y-78593740D01*
X49315000Y-78886260D01*
X49372068Y-79173158D01*
X49484010Y-79443411D01*
X49646525Y-79686632D01*
X49853368Y-79893475D01*
X50096589Y-80055990D01*
X50366842Y-80167932D01*
X50653740Y-80225000D01*
X50946260Y-80225000D01*
X51233158Y-80167932D01*
X51503411Y-80055990D01*
X51746632Y-79893475D01*
X51953475Y-79686632D01*
X52115990Y-79443411D01*
X52227932Y-79173158D01*
X52285000Y-78886260D01*
X52285000Y-78593740D01*
X52227932Y-78306842D01*
X52115990Y-78036589D01*
X52018043Y-77890000D01*
X352841928Y-77890000D01*
X352841928Y-79590000D01*
X352854188Y-79714482D01*
X352890498Y-79834180D01*
X352949463Y-79944494D01*
X353028815Y-80041185D01*
X353125506Y-80120537D01*
X353235820Y-80179502D01*
X353316466Y-80203966D01*
X353232412Y-80279731D01*
X353058359Y-80513080D01*
X352933175Y-80775901D01*
X352888524Y-80923110D01*
X353009845Y-81153000D01*
X354203000Y-81153000D01*
X354203000Y-81133000D01*
X354457000Y-81133000D01*
X354457000Y-81153000D01*
X355650155Y-81153000D01*
X355771476Y-80923110D01*
X355726825Y-80775901D01*
X355601641Y-80513080D01*
X355427588Y-80279731D01*
X355343534Y-80203966D01*
X355424180Y-80179502D01*
X355534494Y-80120537D01*
X355631185Y-80041185D01*
X355710537Y-79944494D01*
X355769502Y-79834180D01*
X355805812Y-79714482D01*
X355818072Y-79590000D01*
X355818072Y-77890000D01*
X355805812Y-77765518D01*
X355769502Y-77645820D01*
X355710537Y-77535506D01*
X355631185Y-77438815D01*
X355534494Y-77359463D01*
X355424180Y-77300498D01*
X355304482Y-77264188D01*
X355180000Y-77251928D01*
X353480000Y-77251928D01*
X353355518Y-77264188D01*
X353235820Y-77300498D01*
X353125506Y-77359463D01*
X353028815Y-77438815D01*
X352949463Y-77535506D01*
X352890498Y-77645820D01*
X352854188Y-77765518D01*
X352841928Y-77890000D01*
X52018043Y-77890000D01*
X51953475Y-77793368D01*
X51746632Y-77586525D01*
X51572240Y-77470000D01*
X51746632Y-77353475D01*
X51953475Y-77146632D01*
X52115990Y-76903411D01*
X52227932Y-76633158D01*
X52285000Y-76346260D01*
X52285000Y-76053740D01*
X52227932Y-75766842D01*
X52115990Y-75496589D01*
X51953475Y-75253368D01*
X51746632Y-75046525D01*
X51572240Y-74930000D01*
X51746632Y-74813475D01*
X51953475Y-74606632D01*
X52115990Y-74363411D01*
X52227932Y-74093158D01*
X52285000Y-73806260D01*
X52285000Y-73513740D01*
X52227932Y-73226842D01*
X52115990Y-72956589D01*
X51953475Y-72713368D01*
X51746632Y-72506525D01*
X51564466Y-72384805D01*
X51681355Y-72315178D01*
X51842558Y-72169872D01*
X73330000Y-72169872D01*
X73330000Y-72610128D01*
X73415890Y-73041925D01*
X73584369Y-73448669D01*
X73828962Y-73814729D01*
X74140271Y-74126038D01*
X74506331Y-74370631D01*
X74913075Y-74539110D01*
X75344872Y-74625000D01*
X75785128Y-74625000D01*
X76216925Y-74539110D01*
X76623669Y-74370631D01*
X76989729Y-74126038D01*
X77301038Y-73814729D01*
X77545631Y-73448669D01*
X77714110Y-73041925D01*
X77800000Y-72610128D01*
X77800000Y-72169872D01*
X198425000Y-72169872D01*
X198425000Y-72610128D01*
X198510890Y-73041925D01*
X198679369Y-73448669D01*
X198923962Y-73814729D01*
X199235271Y-74126038D01*
X199601331Y-74370631D01*
X200008075Y-74539110D01*
X200439872Y-74625000D01*
X200880128Y-74625000D01*
X201311925Y-74539110D01*
X201718669Y-74370631D01*
X202084729Y-74126038D01*
X202396038Y-73814729D01*
X202640631Y-73448669D01*
X202809110Y-73041925D01*
X202895000Y-72610128D01*
X202895000Y-72169872D01*
X205410000Y-72169872D01*
X205410000Y-72610128D01*
X205495890Y-73041925D01*
X205664369Y-73448669D01*
X205908962Y-73814729D01*
X206220271Y-74126038D01*
X206586331Y-74370631D01*
X206993075Y-74539110D01*
X207424872Y-74625000D01*
X207865128Y-74625000D01*
X208296925Y-74539110D01*
X208703669Y-74370631D01*
X209069729Y-74126038D01*
X209381038Y-73814729D01*
X209625631Y-73448669D01*
X209794110Y-73041925D01*
X209880000Y-72610128D01*
X209880000Y-72169872D01*
X330505000Y-72169872D01*
X330505000Y-72610128D01*
X330590890Y-73041925D01*
X330759369Y-73448669D01*
X331003962Y-73814729D01*
X331315271Y-74126038D01*
X331681331Y-74370631D01*
X332088075Y-74539110D01*
X332519872Y-74625000D01*
X332960128Y-74625000D01*
X333391925Y-74539110D01*
X333798669Y-74370631D01*
X334164729Y-74126038D01*
X334476038Y-73814729D01*
X334720631Y-73448669D01*
X334889110Y-73041925D01*
X334975000Y-72610128D01*
X334975000Y-72169872D01*
X334889110Y-71738075D01*
X334720631Y-71331331D01*
X334476038Y-70965271D01*
X334410639Y-70899872D01*
X350825000Y-70899872D01*
X350825000Y-71340128D01*
X350910890Y-71771925D01*
X351079369Y-72178669D01*
X351323962Y-72544729D01*
X351635271Y-72856038D01*
X352001331Y-73100631D01*
X352408075Y-73269110D01*
X352839872Y-73355000D01*
X353280128Y-73355000D01*
X353711925Y-73269110D01*
X354118669Y-73100631D01*
X354484729Y-72856038D01*
X354796038Y-72544729D01*
X355040631Y-72178669D01*
X355209110Y-71771925D01*
X355295000Y-71340128D01*
X355295000Y-70899872D01*
X355209110Y-70468075D01*
X355040631Y-70061331D01*
X354796038Y-69695271D01*
X354484729Y-69383962D01*
X354118669Y-69139369D01*
X353711925Y-68970890D01*
X353280128Y-68885000D01*
X352839872Y-68885000D01*
X352408075Y-68970890D01*
X352001331Y-69139369D01*
X351635271Y-69383962D01*
X351323962Y-69695271D01*
X351079369Y-70061331D01*
X350910890Y-70468075D01*
X350825000Y-70899872D01*
X334410639Y-70899872D01*
X334164729Y-70653962D01*
X333798669Y-70409369D01*
X333391925Y-70240890D01*
X332960128Y-70155000D01*
X332519872Y-70155000D01*
X332088075Y-70240890D01*
X331681331Y-70409369D01*
X331315271Y-70653962D01*
X331003962Y-70965271D01*
X330759369Y-71331331D01*
X330590890Y-71738075D01*
X330505000Y-72169872D01*
X209880000Y-72169872D01*
X209794110Y-71738075D01*
X209625631Y-71331331D01*
X209381038Y-70965271D01*
X209069729Y-70653962D01*
X208703669Y-70409369D01*
X208296925Y-70240890D01*
X207865128Y-70155000D01*
X207424872Y-70155000D01*
X206993075Y-70240890D01*
X206586331Y-70409369D01*
X206220271Y-70653962D01*
X205908962Y-70965271D01*
X205664369Y-71331331D01*
X205495890Y-71738075D01*
X205410000Y-72169872D01*
X202895000Y-72169872D01*
X202809110Y-71738075D01*
X202640631Y-71331331D01*
X202396038Y-70965271D01*
X202084729Y-70653962D01*
X201718669Y-70409369D01*
X201311925Y-70240890D01*
X200880128Y-70155000D01*
X200439872Y-70155000D01*
X200008075Y-70240890D01*
X199601331Y-70409369D01*
X199235271Y-70653962D01*
X198923962Y-70965271D01*
X198679369Y-71331331D01*
X198510890Y-71738075D01*
X198425000Y-72169872D01*
X77800000Y-72169872D01*
X77714110Y-71738075D01*
X77545631Y-71331331D01*
X77301038Y-70965271D01*
X76989729Y-70653962D01*
X76623669Y-70409369D01*
X76216925Y-70240890D01*
X75785128Y-70155000D01*
X75344872Y-70155000D01*
X74913075Y-70240890D01*
X74506331Y-70409369D01*
X74140271Y-70653962D01*
X73828962Y-70965271D01*
X73584369Y-71331331D01*
X73415890Y-71738075D01*
X73330000Y-72169872D01*
X51842558Y-72169872D01*
X51897588Y-72120269D01*
X52071641Y-71886920D01*
X52196825Y-71624099D01*
X52241476Y-71476890D01*
X52120155Y-71247000D01*
X50927000Y-71247000D01*
X50927000Y-71267000D01*
X50673000Y-71267000D01*
X50673000Y-71247000D01*
X49479845Y-71247000D01*
X49358524Y-71476890D01*
X49403175Y-71624099D01*
X49528359Y-71886920D01*
X49702412Y-72120269D01*
X49918645Y-72315178D01*
X50035534Y-72384805D01*
X49853368Y-72506525D01*
X49646525Y-72713368D01*
X49484010Y-72956589D01*
X49372068Y-73226842D01*
X49315000Y-73513740D01*
X15240915Y-73513740D01*
X15183346Y-73224321D01*
X15003560Y-72790279D01*
X14742550Y-72399651D01*
X14410349Y-72067450D01*
X14019721Y-71806440D01*
X13585679Y-71626654D01*
X13124902Y-71535000D01*
X12655098Y-71535000D01*
X12194321Y-71626654D01*
X11760279Y-71806440D01*
X11369651Y-72067450D01*
X11037450Y-72399651D01*
X10776440Y-72790279D01*
X10596654Y-73224321D01*
X10505000Y-73685098D01*
X5797672Y-73685098D01*
X5846920Y-73661641D01*
X6080269Y-73487588D01*
X6275178Y-73271355D01*
X6424157Y-73021252D01*
X6521481Y-72746891D01*
X6400814Y-72517000D01*
X5207000Y-72517000D01*
X4953000Y-72517000D01*
X4933000Y-72517000D01*
X4933000Y-72263000D01*
X4953000Y-72263000D01*
X4953000Y-71069845D01*
X5207000Y-71069845D01*
X5207000Y-72263000D01*
X6400814Y-72263000D01*
X6521481Y-72033109D01*
X6424157Y-71758748D01*
X6275178Y-71508645D01*
X6080269Y-71292412D01*
X5846920Y-71118359D01*
X5584099Y-70993175D01*
X5436890Y-70948524D01*
X5207000Y-71069845D01*
X4953000Y-71069845D01*
X4723110Y-70948524D01*
X4575901Y-70993175D01*
X4313080Y-71118359D01*
X4079731Y-71292412D01*
X4003966Y-71376466D01*
X3979502Y-71295820D01*
X3920537Y-71185506D01*
X3841185Y-71088815D01*
X3744494Y-71009463D01*
X3634180Y-70950498D01*
X3514482Y-70914188D01*
X3390000Y-70901928D01*
X1690000Y-70901928D01*
X1565518Y-70914188D01*
X1445820Y-70950498D01*
X1335506Y-71009463D01*
X1238815Y-71088815D01*
X1159463Y-71185506D01*
X1100498Y-71295820D01*
X1064188Y-71415518D01*
X1051928Y-71540000D01*
X-33364758Y-71540000D01*
X-33325000Y-71340128D01*
X-33325000Y-70899872D01*
X-33410890Y-70468075D01*
X-33579369Y-70061331D01*
X-33823962Y-69695271D01*
X-34135271Y-69383962D01*
X-34501331Y-69139369D01*
X-34908075Y-68970890D01*
X-35339872Y-68885000D01*
X-35780128Y-68885000D01*
X-36211925Y-68970890D01*
X-36618669Y-69139369D01*
X-36984729Y-69383962D01*
X-37296038Y-69695271D01*
X-37540631Y-70061331D01*
X-37709110Y-70468075D01*
X-37795000Y-70899872D01*
X-40513000Y-70899872D01*
X-40513000Y-67730000D01*
X49311928Y-67730000D01*
X49311928Y-69430000D01*
X49324188Y-69554482D01*
X49360498Y-69674180D01*
X49419463Y-69784494D01*
X49498815Y-69881185D01*
X49595506Y-69960537D01*
X49705820Y-70019502D01*
X49786466Y-70043966D01*
X49702412Y-70119731D01*
X49528359Y-70353080D01*
X49403175Y-70615901D01*
X49358524Y-70763110D01*
X49479845Y-70993000D01*
X50673000Y-70993000D01*
X50673000Y-70973000D01*
X50927000Y-70973000D01*
X50927000Y-70993000D01*
X52120155Y-70993000D01*
X52241476Y-70763110D01*
X52196825Y-70615901D01*
X52071641Y-70353080D01*
X51897588Y-70119731D01*
X51813534Y-70043966D01*
X51894180Y-70019502D01*
X52004494Y-69960537D01*
X52101185Y-69881185D01*
X52180537Y-69784494D01*
X52239502Y-69674180D01*
X52275812Y-69554482D01*
X52288072Y-69430000D01*
X52288072Y-67730000D01*
X52275812Y-67605518D01*
X52239502Y-67485820D01*
X52180537Y-67375506D01*
X52101185Y-67278815D01*
X52004494Y-67199463D01*
X51894180Y-67140498D01*
X51774482Y-67104188D01*
X51650000Y-67091928D01*
X49950000Y-67091928D01*
X49825518Y-67104188D01*
X49705820Y-67140498D01*
X49595506Y-67199463D01*
X49498815Y-67278815D01*
X49419463Y-67375506D01*
X49360498Y-67485820D01*
X49324188Y-67605518D01*
X49311928Y-67730000D01*
X-40513000Y-67730000D01*
X-40513000Y-66167000D01*
X358013000Y-66167000D01*
X358013000Y-135763000D01*
G37*
X358013000Y-135763000D02*
X-40513000Y-135763000D01*
X-40513000Y-130589872D01*
X-37795000Y-130589872D01*
X-37795000Y-131030128D01*
X-37709110Y-131461925D01*
X-37540631Y-131868669D01*
X-37296038Y-132234729D01*
X-36984729Y-132546038D01*
X-36618669Y-132790631D01*
X-36211925Y-132959110D01*
X-35780128Y-133045000D01*
X-35339872Y-133045000D01*
X-34908075Y-132959110D01*
X-34501331Y-132790631D01*
X-34135271Y-132546038D01*
X-33823962Y-132234729D01*
X-33579369Y-131868669D01*
X-33410890Y-131461925D01*
X-33325000Y-131030128D01*
X-33325000Y-130589872D01*
X350825000Y-130589872D01*
X350825000Y-131030128D01*
X350910890Y-131461925D01*
X351079369Y-131868669D01*
X351323962Y-132234729D01*
X351635271Y-132546038D01*
X352001331Y-132790631D01*
X352408075Y-132959110D01*
X352839872Y-133045000D01*
X353280128Y-133045000D01*
X353711925Y-132959110D01*
X354118669Y-132790631D01*
X354484729Y-132546038D01*
X354796038Y-132234729D01*
X355040631Y-131868669D01*
X355209110Y-131461925D01*
X355295000Y-131030128D01*
X355295000Y-130589872D01*
X355209110Y-130158075D01*
X355040631Y-129751331D01*
X354796038Y-129385271D01*
X354484729Y-129073962D01*
X354118669Y-128829369D01*
X353711925Y-128660890D01*
X353280128Y-128575000D01*
X352839872Y-128575000D01*
X352408075Y-128660890D01*
X352001331Y-128829369D01*
X351635271Y-129073962D01*
X351323962Y-129385271D01*
X351079369Y-129751331D01*
X350910890Y-130158075D01*
X350825000Y-130589872D01*
X-33325000Y-130589872D01*
X-33410890Y-130158075D01*
X-33579369Y-129751331D01*
X-33823962Y-129385271D01*
X-34135271Y-129073962D01*
X-34501331Y-128829369D01*
X-34908075Y-128660890D01*
X-35339872Y-128575000D01*
X-35780128Y-128575000D01*
X-36211925Y-128660890D01*
X-36618669Y-128829369D01*
X-36984729Y-129073962D01*
X-37296038Y-129385271D01*
X-37540631Y-129751331D01*
X-37709110Y-130158075D01*
X-37795000Y-130589872D01*
X-40513000Y-130589872D01*
X-40513000Y-128049872D01*
X73330000Y-128049872D01*
X73330000Y-128490128D01*
X73415890Y-128921925D01*
X73584369Y-129328669D01*
X73828962Y-129694729D01*
X74140271Y-130006038D01*
X74506331Y-130250631D01*
X74913075Y-130419110D01*
X75344872Y-130505000D01*
X75785128Y-130505000D01*
X76216925Y-130419110D01*
X76623669Y-130250631D01*
X76989729Y-130006038D01*
X77301038Y-129694729D01*
X77545631Y-129328669D01*
X77714110Y-128921925D01*
X77800000Y-128490128D01*
X77800000Y-128049872D01*
X198425000Y-128049872D01*
X198425000Y-128490128D01*
X198510890Y-128921925D01*
X198679369Y-129328669D01*
X198923962Y-129694729D01*
X199235271Y-130006038D01*
X199601331Y-130250631D01*
X200008075Y-130419110D01*
X200439872Y-130505000D01*
X200880128Y-130505000D01*
X201311925Y-130419110D01*
X201718669Y-130250631D01*
X202084729Y-130006038D01*
X202396038Y-129694729D01*
X202640631Y-129328669D01*
X202809110Y-128921925D01*
X202895000Y-128490128D01*
X202895000Y-128049872D01*
X205410000Y-128049872D01*
X205410000Y-128490128D01*
X205495890Y-128921925D01*
X205664369Y-129328669D01*
X205908962Y-129694729D01*
X206220271Y-130006038D01*
X206586331Y-130250631D01*
X206993075Y-130419110D01*
X207424872Y-130505000D01*
X207865128Y-130505000D01*
X208296925Y-130419110D01*
X208703669Y-130250631D01*
X209069729Y-130006038D01*
X209381038Y-129694729D01*
X209625631Y-129328669D01*
X209794110Y-128921925D01*
X209880000Y-128490128D01*
X209880000Y-128049872D01*
X330505000Y-128049872D01*
X330505000Y-128490128D01*
X330590890Y-128921925D01*
X330759369Y-129328669D01*
X331003962Y-129694729D01*
X331315271Y-130006038D01*
X331681331Y-130250631D01*
X332088075Y-130419110D01*
X332519872Y-130505000D01*
X332960128Y-130505000D01*
X333391925Y-130419110D01*
X333798669Y-130250631D01*
X334164729Y-130006038D01*
X334476038Y-129694729D01*
X334720631Y-129328669D01*
X334889110Y-128921925D01*
X334975000Y-128490128D01*
X334975000Y-128049872D01*
X334889110Y-127618075D01*
X334720631Y-127211331D01*
X334476038Y-126845271D01*
X334164729Y-126533962D01*
X333798669Y-126289369D01*
X333391925Y-126120890D01*
X332960128Y-126035000D01*
X332519872Y-126035000D01*
X332088075Y-126120890D01*
X331681331Y-126289369D01*
X331315271Y-126533962D01*
X331003962Y-126845271D01*
X330759369Y-127211331D01*
X330590890Y-127618075D01*
X330505000Y-128049872D01*
X209880000Y-128049872D01*
X209794110Y-127618075D01*
X209625631Y-127211331D01*
X209381038Y-126845271D01*
X209069729Y-126533962D01*
X208703669Y-126289369D01*
X208296925Y-126120890D01*
X207865128Y-126035000D01*
X207424872Y-126035000D01*
X206993075Y-126120890D01*
X206586331Y-126289369D01*
X206220271Y-126533962D01*
X205908962Y-126845271D01*
X205664369Y-127211331D01*
X205495890Y-127618075D01*
X205410000Y-128049872D01*
X202895000Y-128049872D01*
X202809110Y-127618075D01*
X202640631Y-127211331D01*
X202396038Y-126845271D01*
X202084729Y-126533962D01*
X201718669Y-126289369D01*
X201311925Y-126120890D01*
X200880128Y-126035000D01*
X200439872Y-126035000D01*
X200008075Y-126120890D01*
X199601331Y-126289369D01*
X199235271Y-126533962D01*
X198923962Y-126845271D01*
X198679369Y-127211331D01*
X198510890Y-127618075D01*
X198425000Y-128049872D01*
X77800000Y-128049872D01*
X77714110Y-127618075D01*
X77545631Y-127211331D01*
X77301038Y-126845271D01*
X76989729Y-126533962D01*
X76623669Y-126289369D01*
X76216925Y-126120890D01*
X75785128Y-126035000D01*
X75344872Y-126035000D01*
X74913075Y-126120890D01*
X74506331Y-126289369D01*
X74140271Y-126533962D01*
X73828962Y-126845271D01*
X73584369Y-127211331D01*
X73415890Y-127618075D01*
X73330000Y-128049872D01*
X-40513000Y-128049872D01*
X-40513000Y-124178021D01*
X3920000Y-124178021D01*
X3920000Y-124741978D01*
X3936785Y-124912399D01*
X4003115Y-125131059D01*
X4110829Y-125332578D01*
X4255788Y-125509212D01*
X4432421Y-125654171D01*
X4633940Y-125761885D01*
X4852600Y-125828215D01*
X5080000Y-125850612D01*
X5307399Y-125828215D01*
X5526059Y-125761885D01*
X5715000Y-125660894D01*
X5903940Y-125761885D01*
X6122600Y-125828215D01*
X6350000Y-125850612D01*
X6577399Y-125828215D01*
X6786098Y-125764907D01*
X6850820Y-125799502D01*
X6970518Y-125835812D01*
X7095000Y-125848072D01*
X8145000Y-125848072D01*
X8269482Y-125835812D01*
X8389180Y-125799502D01*
X8499494Y-125740537D01*
X8596185Y-125661185D01*
X8675537Y-125564494D01*
X8734502Y-125454180D01*
X8770812Y-125334482D01*
X8783072Y-125210000D01*
X8783072Y-124178021D01*
X15350000Y-124178021D01*
X15350000Y-124741978D01*
X15366785Y-124912399D01*
X15433115Y-125131059D01*
X15540829Y-125332578D01*
X15685788Y-125509212D01*
X15862421Y-125654171D01*
X16063940Y-125761885D01*
X16282600Y-125828215D01*
X16510000Y-125850612D01*
X16737399Y-125828215D01*
X16956059Y-125761885D01*
X17145000Y-125660894D01*
X17333940Y-125761885D01*
X17552600Y-125828215D01*
X17780000Y-125850612D01*
X18007399Y-125828215D01*
X18216098Y-125764907D01*
X18280820Y-125799502D01*
X18400518Y-125835812D01*
X18525000Y-125848072D01*
X19575000Y-125848072D01*
X19699482Y-125835812D01*
X19819180Y-125799502D01*
X19929494Y-125740537D01*
X20026185Y-125661185D01*
X20105537Y-125564494D01*
X20164502Y-125454180D01*
X20200812Y-125334482D01*
X20213072Y-125210000D01*
X20213072Y-123710000D01*
X20200812Y-123585518D01*
X20164502Y-123465820D01*
X20105537Y-123355506D01*
X20026185Y-123258815D01*
X19929494Y-123179463D01*
X19819180Y-123120498D01*
X19699482Y-123084188D01*
X19575000Y-123071928D01*
X18525000Y-123071928D01*
X18400518Y-123084188D01*
X18280820Y-123120498D01*
X18216098Y-123155093D01*
X18007400Y-123091785D01*
X17780000Y-123069388D01*
X17552601Y-123091785D01*
X17333941Y-123158115D01*
X17145001Y-123259106D01*
X16956060Y-123158115D01*
X16737400Y-123091785D01*
X16510000Y-123069388D01*
X16282601Y-123091785D01*
X16063941Y-123158115D01*
X15862422Y-123265829D01*
X15685789Y-123410788D01*
X15540830Y-123587421D01*
X15433115Y-123788940D01*
X15366785Y-124007600D01*
X15350000Y-124178021D01*
X8783072Y-124178021D01*
X8783072Y-123710000D01*
X8770812Y-123585518D01*
X8734502Y-123465820D01*
X8675537Y-123355506D01*
X8596185Y-123258815D01*
X8499494Y-123179463D01*
X8389180Y-123120498D01*
X8269482Y-123084188D01*
X8145000Y-123071928D01*
X7095000Y-123071928D01*
X6970518Y-123084188D01*
X6850820Y-123120498D01*
X6786098Y-123155093D01*
X6577400Y-123091785D01*
X6350000Y-123069388D01*
X6122601Y-123091785D01*
X5903941Y-123158115D01*
X5715001Y-123259106D01*
X5526060Y-123158115D01*
X5307400Y-123091785D01*
X5080000Y-123069388D01*
X4852601Y-123091785D01*
X4633941Y-123158115D01*
X4432422Y-123265829D01*
X4255789Y-123410788D01*
X4110830Y-123587421D01*
X4003115Y-123788940D01*
X3936785Y-124007600D01*
X3920000Y-124178021D01*
X-40513000Y-124178021D01*
X-40513000Y-116067408D01*
X-31877000Y-116067408D01*
X-31877000Y-116342592D01*
X-31823314Y-116612490D01*
X-31718005Y-116866727D01*
X-31565120Y-117095535D01*
X-31370535Y-117290120D01*
X-31141727Y-117443005D01*
X-30887490Y-117548314D01*
X-30617592Y-117602000D01*
X-30342408Y-117602000D01*
X-30072510Y-117548314D01*
X-29818273Y-117443005D01*
X-29589465Y-117290120D01*
X-29394880Y-117095535D01*
X-29241995Y-116866727D01*
X-29136686Y-116612490D01*
X-29083000Y-116342592D01*
X-29083000Y-116067408D01*
X-3937000Y-116067408D01*
X-3937000Y-116342592D01*
X-3883314Y-116612490D01*
X-3778005Y-116866727D01*
X-3625120Y-117095535D01*
X-3430535Y-117290120D01*
X-3201727Y-117443005D01*
X-2947490Y-117548314D01*
X-2677592Y-117602000D01*
X-2402408Y-117602000D01*
X-2132510Y-117548314D01*
X-1878273Y-117443005D01*
X-1649465Y-117290120D01*
X-1454880Y-117095535D01*
X-1301995Y-116866727D01*
X-1196686Y-116612490D01*
X-1143000Y-116342592D01*
X-1143000Y-116067408D01*
X-1196686Y-115797510D01*
X-1301995Y-115543273D01*
X-1454880Y-115314465D01*
X-1649465Y-115119880D01*
X-1878273Y-114966995D01*
X-1949943Y-114937308D01*
X-1936977Y-114932636D01*
X-1821020Y-114870656D01*
X-1754040Y-114630565D01*
X-2540000Y-113844605D01*
X-3325960Y-114630565D01*
X-3258980Y-114870656D01*
X-3123240Y-114934485D01*
X-3201727Y-114966995D01*
X-3430535Y-115119880D01*
X-3625120Y-115314465D01*
X-3778005Y-115543273D01*
X-3883314Y-115797510D01*
X-3937000Y-116067408D01*
X-29083000Y-116067408D01*
X-29136686Y-115797510D01*
X-29241995Y-115543273D01*
X-29394880Y-115314465D01*
X-29589465Y-115119880D01*
X-29818273Y-114966995D01*
X-29889943Y-114937308D01*
X-29876977Y-114932636D01*
X-29761020Y-114870656D01*
X-29694040Y-114630565D01*
X-30480000Y-113844605D01*
X-31265960Y-114630565D01*
X-31198980Y-114870656D01*
X-31063240Y-114934485D01*
X-31141727Y-114966995D01*
X-31370535Y-115119880D01*
X-31565120Y-115314465D01*
X-31718005Y-115543273D01*
X-31823314Y-115797510D01*
X-31877000Y-116067408D01*
X-40513000Y-116067408D01*
X-40513000Y-113737017D01*
X-31881910Y-113737017D01*
X-31840922Y-114009133D01*
X-31747636Y-114268023D01*
X-31685656Y-114383980D01*
X-31445565Y-114450960D01*
X-30659605Y-113665000D01*
X-30300395Y-113665000D01*
X-29514435Y-114450960D01*
X-29274344Y-114383980D01*
X-29157244Y-114134952D01*
X-29090977Y-113867865D01*
X-29084843Y-113737017D01*
X-3941910Y-113737017D01*
X-3900922Y-114009133D01*
X-3807636Y-114268023D01*
X-3745656Y-114383980D01*
X-3505565Y-114450960D01*
X-2719605Y-113665000D01*
X-2360395Y-113665000D01*
X-1574435Y-114450960D01*
X-1334344Y-114383980D01*
X-1217244Y-114134952D01*
X-1150977Y-113867865D01*
X-1138090Y-113592983D01*
X-1179078Y-113320867D01*
X-1272364Y-113061977D01*
X-1334344Y-112946020D01*
X-1574435Y-112879040D01*
X-2360395Y-113665000D01*
X-2719605Y-113665000D01*
X-3505565Y-112879040D01*
X-3745656Y-112946020D01*
X-3862756Y-113195048D01*
X-3929023Y-113462135D01*
X-3941910Y-113737017D01*
X-29084843Y-113737017D01*
X-29078090Y-113592983D01*
X-29119078Y-113320867D01*
X-29212364Y-113061977D01*
X-29274344Y-112946020D01*
X-29514435Y-112879040D01*
X-30300395Y-113665000D01*
X-30659605Y-113665000D01*
X-31445565Y-112879040D01*
X-31685656Y-112946020D01*
X-31802756Y-113195048D01*
X-31869023Y-113462135D01*
X-31881910Y-113737017D01*
X-40513000Y-113737017D01*
X-40513000Y-105907408D01*
X-31877000Y-105907408D01*
X-31877000Y-106182592D01*
X-31823314Y-106452490D01*
X-31718005Y-106706727D01*
X-31565120Y-106935535D01*
X-31370535Y-107130120D01*
X-31141727Y-107283005D01*
X-31064485Y-107315000D01*
X-31141727Y-107346995D01*
X-31370535Y-107499880D01*
X-31565120Y-107694465D01*
X-31718005Y-107923273D01*
X-31823314Y-108177510D01*
X-31877000Y-108447408D01*
X-31877000Y-108722592D01*
X-31823314Y-108992490D01*
X-31718005Y-109246727D01*
X-31565120Y-109475535D01*
X-31370535Y-109670120D01*
X-31141727Y-109823005D01*
X-31064485Y-109855000D01*
X-31141727Y-109886995D01*
X-31370535Y-110039880D01*
X-31565120Y-110234465D01*
X-31718005Y-110463273D01*
X-31823314Y-110717510D01*
X-31877000Y-110987408D01*
X-31877000Y-111262592D01*
X-31823314Y-111532490D01*
X-31718005Y-111786727D01*
X-31565120Y-112015535D01*
X-31370535Y-112210120D01*
X-31141727Y-112363005D01*
X-31070057Y-112392692D01*
X-31083023Y-112397364D01*
X-31198980Y-112459344D01*
X-31265960Y-112699435D01*
X-30480000Y-113485395D01*
X-29694040Y-112699435D01*
X-29761020Y-112459344D01*
X-29896760Y-112395515D01*
X-29818273Y-112363005D01*
X-29589465Y-112210120D01*
X-29394880Y-112015535D01*
X-29241995Y-111786727D01*
X-29136686Y-111532490D01*
X-29083000Y-111262592D01*
X-29083000Y-110987408D01*
X-29136686Y-110717510D01*
X-29241995Y-110463273D01*
X-29394880Y-110234465D01*
X-29589465Y-110039880D01*
X-29818273Y-109886995D01*
X-29895515Y-109855000D01*
X-29818273Y-109823005D01*
X-29589465Y-109670120D01*
X-29394880Y-109475535D01*
X-29241995Y-109246727D01*
X-29136686Y-108992490D01*
X-29083000Y-108722592D01*
X-29083000Y-108447408D01*
X-29136686Y-108177510D01*
X-29241995Y-107923273D01*
X-29394880Y-107694465D01*
X-29589465Y-107499880D01*
X-29818273Y-107346995D01*
X-29895515Y-107315000D01*
X-29818273Y-107283005D01*
X-29589465Y-107130120D01*
X-29394880Y-106935535D01*
X-29241995Y-106706727D01*
X-29136686Y-106452490D01*
X-29083000Y-106182592D01*
X-29083000Y-105907408D01*
X-29136686Y-105637510D01*
X-29241995Y-105383273D01*
X-29394880Y-105154465D01*
X-29589465Y-104959880D01*
X-29818273Y-104806995D01*
X-29889943Y-104777308D01*
X-29876977Y-104772636D01*
X-29761020Y-104710656D01*
X-29694040Y-104470565D01*
X-30480000Y-103684605D01*
X-31265960Y-104470565D01*
X-31198980Y-104710656D01*
X-31063240Y-104774485D01*
X-31141727Y-104806995D01*
X-31370535Y-104959880D01*
X-31565120Y-105154465D01*
X-31718005Y-105383273D01*
X-31823314Y-105637510D01*
X-31877000Y-105907408D01*
X-40513000Y-105907408D01*
X-40513000Y-103577017D01*
X-31881910Y-103577017D01*
X-31840922Y-103849133D01*
X-31747636Y-104108023D01*
X-31685656Y-104223980D01*
X-31445565Y-104290960D01*
X-30659605Y-103505000D01*
X-30300395Y-103505000D01*
X-29514435Y-104290960D01*
X-29274344Y-104223980D01*
X-29157244Y-103974952D01*
X-29090977Y-103707865D01*
X-29078090Y-103432983D01*
X-29119078Y-103160867D01*
X-29212364Y-102901977D01*
X-29274344Y-102786020D01*
X-29514435Y-102719040D01*
X-30300395Y-103505000D01*
X-30659605Y-103505000D01*
X-31445565Y-102719040D01*
X-31685656Y-102786020D01*
X-31802756Y-103035048D01*
X-31869023Y-103302135D01*
X-31881910Y-103577017D01*
X-40513000Y-103577017D01*
X-40513000Y-80507408D01*
X-31877000Y-80507408D01*
X-31877000Y-80782592D01*
X-31823314Y-81052490D01*
X-31718005Y-81306727D01*
X-31565120Y-81535535D01*
X-31370535Y-81730120D01*
X-31141727Y-81883005D01*
X-31064485Y-81915000D01*
X-31141727Y-81946995D01*
X-31370535Y-82099880D01*
X-31565120Y-82294465D01*
X-31718005Y-82523273D01*
X-31823314Y-82777510D01*
X-31877000Y-83047408D01*
X-31877000Y-83322592D01*
X-31823314Y-83592490D01*
X-31718005Y-83846727D01*
X-31565120Y-84075535D01*
X-31370535Y-84270120D01*
X-31141727Y-84423005D01*
X-31064485Y-84455000D01*
X-31141727Y-84486995D01*
X-31370535Y-84639880D01*
X-31565120Y-84834465D01*
X-31718005Y-85063273D01*
X-31823314Y-85317510D01*
X-31877000Y-85587408D01*
X-31877000Y-85862592D01*
X-31823314Y-86132490D01*
X-31718005Y-86386727D01*
X-31565120Y-86615535D01*
X-31370535Y-86810120D01*
X-31141727Y-86963005D01*
X-31064485Y-86995000D01*
X-31141727Y-87026995D01*
X-31370535Y-87179880D01*
X-31565120Y-87374465D01*
X-31718005Y-87603273D01*
X-31823314Y-87857510D01*
X-31877000Y-88127408D01*
X-31877000Y-88402592D01*
X-31823314Y-88672490D01*
X-31718005Y-88926727D01*
X-31565120Y-89155535D01*
X-31370535Y-89350120D01*
X-31141727Y-89503005D01*
X-31064485Y-89535000D01*
X-31141727Y-89566995D01*
X-31370535Y-89719880D01*
X-31565120Y-89914465D01*
X-31718005Y-90143273D01*
X-31823314Y-90397510D01*
X-31877000Y-90667408D01*
X-31877000Y-90942592D01*
X-31823314Y-91212490D01*
X-31718005Y-91466727D01*
X-31565120Y-91695535D01*
X-31370535Y-91890120D01*
X-31141727Y-92043005D01*
X-31064485Y-92075000D01*
X-31141727Y-92106995D01*
X-31370535Y-92259880D01*
X-31565120Y-92454465D01*
X-31718005Y-92683273D01*
X-31823314Y-92937510D01*
X-31877000Y-93207408D01*
X-31877000Y-93482592D01*
X-31823314Y-93752490D01*
X-31718005Y-94006727D01*
X-31565120Y-94235535D01*
X-31370535Y-94430120D01*
X-31141727Y-94583005D01*
X-31064485Y-94615000D01*
X-31141727Y-94646995D01*
X-31370535Y-94799880D01*
X-31565120Y-94994465D01*
X-31718005Y-95223273D01*
X-31823314Y-95477510D01*
X-31877000Y-95747408D01*
X-31877000Y-96022592D01*
X-31823314Y-96292490D01*
X-31718005Y-96546727D01*
X-31565120Y-96775535D01*
X-31370535Y-96970120D01*
X-31141727Y-97123005D01*
X-31064485Y-97155000D01*
X-31141727Y-97186995D01*
X-31370535Y-97339880D01*
X-31565120Y-97534465D01*
X-31718005Y-97763273D01*
X-31823314Y-98017510D01*
X-31877000Y-98287408D01*
X-31877000Y-98562592D01*
X-31823314Y-98832490D01*
X-31718005Y-99086727D01*
X-31565120Y-99315535D01*
X-31370535Y-99510120D01*
X-31141727Y-99663005D01*
X-31064485Y-99695000D01*
X-31141727Y-99726995D01*
X-31370535Y-99879880D01*
X-31565120Y-100074465D01*
X-31718005Y-100303273D01*
X-31823314Y-100557510D01*
X-31877000Y-100827408D01*
X-31877000Y-101102592D01*
X-31823314Y-101372490D01*
X-31718005Y-101626727D01*
X-31565120Y-101855535D01*
X-31370535Y-102050120D01*
X-31141727Y-102203005D01*
X-31070057Y-102232692D01*
X-31083023Y-102237364D01*
X-31198980Y-102299344D01*
X-31265960Y-102539435D01*
X-30480000Y-103325395D01*
X-29694040Y-102539435D01*
X-29761020Y-102299344D01*
X-29896760Y-102235515D01*
X-29818273Y-102203005D01*
X-29589465Y-102050120D01*
X-29394880Y-101855535D01*
X-29241995Y-101626727D01*
X-29136686Y-101372490D01*
X-29083000Y-101102592D01*
X-29083000Y-100827408D01*
X-29136686Y-100557510D01*
X-29241995Y-100303273D01*
X-29394880Y-100074465D01*
X-29589465Y-99879880D01*
X-29818273Y-99726995D01*
X-29895515Y-99695000D01*
X-29818273Y-99663005D01*
X-29589465Y-99510120D01*
X-29394880Y-99315535D01*
X-29241995Y-99086727D01*
X-29136686Y-98832490D01*
X-29083000Y-98562592D01*
X-29083000Y-98287408D01*
X-3937000Y-98287408D01*
X-3937000Y-98562592D01*
X-3883314Y-98832490D01*
X-3778005Y-99086727D01*
X-3625120Y-99315535D01*
X-3430535Y-99510120D01*
X-3201727Y-99663005D01*
X-3124485Y-99695000D01*
X-3201727Y-99726995D01*
X-3430535Y-99879880D01*
X-3625120Y-100074465D01*
X-3778005Y-100303273D01*
X-3883314Y-100557510D01*
X-3937000Y-100827408D01*
X-3937000Y-101102592D01*
X-3883314Y-101372490D01*
X-3778005Y-101626727D01*
X-3625120Y-101855535D01*
X-3430535Y-102050120D01*
X-3201727Y-102203005D01*
X-3124485Y-102235000D01*
X-3201727Y-102266995D01*
X-3430535Y-102419880D01*
X-3625120Y-102614465D01*
X-3778005Y-102843273D01*
X-3883314Y-103097510D01*
X-3937000Y-103367408D01*
X-3937000Y-103642592D01*
X-3883314Y-103912490D01*
X-3778005Y-104166727D01*
X-3625120Y-104395535D01*
X-3430535Y-104590120D01*
X-3201727Y-104743005D01*
X-3124485Y-104775000D01*
X-3201727Y-104806995D01*
X-3430535Y-104959880D01*
X-3625120Y-105154465D01*
X-3778005Y-105383273D01*
X-3883314Y-105637510D01*
X-3937000Y-105907408D01*
X-3937000Y-106182592D01*
X-3883314Y-106452490D01*
X-3778005Y-106706727D01*
X-3625120Y-106935535D01*
X-3430535Y-107130120D01*
X-3201727Y-107283005D01*
X-3124485Y-107315000D01*
X-3201727Y-107346995D01*
X-3430535Y-107499880D01*
X-3625120Y-107694465D01*
X-3778005Y-107923273D01*
X-3883314Y-108177510D01*
X-3937000Y-108447408D01*
X-3937000Y-108722592D01*
X-3883314Y-108992490D01*
X-3778005Y-109246727D01*
X-3625120Y-109475535D01*
X-3430535Y-109670120D01*
X-3201727Y-109823005D01*
X-3124485Y-109855000D01*
X-3201727Y-109886995D01*
X-3430535Y-110039880D01*
X-3625120Y-110234465D01*
X-3778005Y-110463273D01*
X-3883314Y-110717510D01*
X-3937000Y-110987408D01*
X-3937000Y-111262592D01*
X-3883314Y-111532490D01*
X-3778005Y-111786727D01*
X-3625120Y-112015535D01*
X-3430535Y-112210120D01*
X-3201727Y-112363005D01*
X-3130057Y-112392692D01*
X-3143023Y-112397364D01*
X-3258980Y-112459344D01*
X-3325960Y-112699435D01*
X-2540000Y-113485395D01*
X-1754040Y-112699435D01*
X-1821020Y-112459344D01*
X-1956760Y-112395515D01*
X-1878273Y-112363005D01*
X-1649465Y-112210120D01*
X-1454880Y-112015535D01*
X-1301995Y-111786727D01*
X-1196686Y-111532490D01*
X-1143000Y-111262592D01*
X-1143000Y-110987408D01*
X-1196686Y-110717510D01*
X-1301995Y-110463273D01*
X-1378573Y-110348665D01*
X2375000Y-110348665D01*
X2375000Y-110631335D01*
X2430147Y-110908574D01*
X2538320Y-111169727D01*
X2695363Y-111404759D01*
X2895241Y-111604637D01*
X3130273Y-111761680D01*
X3391426Y-111869853D01*
X3668665Y-111925000D01*
X3951335Y-111925000D01*
X4228574Y-111869853D01*
X4489727Y-111761680D01*
X4724759Y-111604637D01*
X4924637Y-111404759D01*
X5080000Y-111172241D01*
X5080000Y-116313949D01*
X4553950Y-116840000D01*
X4492241Y-116840000D01*
X4489727Y-116838320D01*
X4228574Y-116730147D01*
X3951335Y-116675000D01*
X3668665Y-116675000D01*
X3391426Y-116730147D01*
X3130273Y-116838320D01*
X2895241Y-116995363D01*
X2695363Y-117195241D01*
X2538320Y-117430273D01*
X2430147Y-117691426D01*
X2375000Y-117968665D01*
X2375000Y-118251335D01*
X2430147Y-118528574D01*
X2538320Y-118789727D01*
X2695363Y-119024759D01*
X2895241Y-119224637D01*
X3130273Y-119381680D01*
X3391426Y-119489853D01*
X3668665Y-119545000D01*
X3951335Y-119545000D01*
X4228574Y-119489853D01*
X4489727Y-119381680D01*
X4492241Y-119380000D01*
X5017627Y-119380000D01*
X5080000Y-119386143D01*
X5142373Y-119380000D01*
X5142380Y-119380000D01*
X5328963Y-119361623D01*
X5568359Y-119289003D01*
X5788988Y-119171075D01*
X5982370Y-119012370D01*
X6022141Y-118963909D01*
X7017385Y-117968665D01*
X7455000Y-117968665D01*
X7455000Y-118251335D01*
X7510147Y-118528574D01*
X7618320Y-118789727D01*
X7775363Y-119024759D01*
X7975241Y-119224637D01*
X8210273Y-119381680D01*
X8471426Y-119489853D01*
X8748665Y-119545000D01*
X9031335Y-119545000D01*
X9308574Y-119489853D01*
X9569727Y-119381680D01*
X9804759Y-119224637D01*
X10004637Y-119024759D01*
X10161680Y-118789727D01*
X10269853Y-118528574D01*
X10325000Y-118251335D01*
X10325000Y-117968665D01*
X10269853Y-117691426D01*
X10161680Y-117430273D01*
X10004637Y-117195241D01*
X9804759Y-116995363D01*
X9569727Y-116838320D01*
X9308574Y-116730147D01*
X9031335Y-116675000D01*
X8748665Y-116675000D01*
X8471426Y-116730147D01*
X8210273Y-116838320D01*
X7975241Y-116995363D01*
X7775363Y-117195241D01*
X7618320Y-117430273D01*
X7510147Y-117691426D01*
X7455000Y-117968665D01*
X7017385Y-117968665D01*
X7203915Y-117782136D01*
X7252370Y-117742370D01*
X7411075Y-117548988D01*
X7529003Y-117328359D01*
X7579594Y-117161584D01*
X7601623Y-117088964D01*
X7610842Y-116995363D01*
X7620000Y-116902380D01*
X7620000Y-116902374D01*
X7626143Y-116840001D01*
X7620000Y-116777628D01*
X7620000Y-111172241D01*
X7775363Y-111404759D01*
X7975241Y-111604637D01*
X8210273Y-111761680D01*
X8471426Y-111869853D01*
X8748665Y-111925000D01*
X9031335Y-111925000D01*
X9308574Y-111869853D01*
X9569727Y-111761680D01*
X9804759Y-111604637D01*
X10004637Y-111404759D01*
X10161680Y-111169727D01*
X10269853Y-110908574D01*
X10325000Y-110631335D01*
X10325000Y-110348665D01*
X10269853Y-110071426D01*
X10161680Y-109810273D01*
X10004637Y-109575241D01*
X9804759Y-109375363D01*
X9569727Y-109218320D01*
X9308574Y-109110147D01*
X9031335Y-109055000D01*
X8748665Y-109055000D01*
X8471426Y-109110147D01*
X8210273Y-109218320D01*
X7975241Y-109375363D01*
X7775363Y-109575241D01*
X7620000Y-109807759D01*
X7620000Y-105410000D01*
X11423856Y-105410000D01*
X11430000Y-105472380D01*
X11430000Y-106742379D01*
X11430001Y-106742389D01*
X11430000Y-116777627D01*
X11423857Y-116840000D01*
X11430000Y-116902373D01*
X11430000Y-116902379D01*
X11432819Y-116930997D01*
X11448377Y-117088963D01*
X11450371Y-117095535D01*
X11520997Y-117328358D01*
X11638925Y-117548987D01*
X11797630Y-117742370D01*
X11846091Y-117782141D01*
X13027863Y-118963914D01*
X13067630Y-119012370D01*
X13261012Y-119171075D01*
X13481641Y-119289003D01*
X13648416Y-119339594D01*
X13721036Y-119361623D01*
X13746755Y-119364156D01*
X13907620Y-119380000D01*
X13907626Y-119380000D01*
X13969999Y-119386143D01*
X14032372Y-119380000D01*
X14557759Y-119380000D01*
X14560273Y-119381680D01*
X14821426Y-119489853D01*
X15098665Y-119545000D01*
X15381335Y-119545000D01*
X15658574Y-119489853D01*
X15919727Y-119381680D01*
X16154759Y-119224637D01*
X16354637Y-119024759D01*
X16511680Y-118789727D01*
X16619853Y-118528574D01*
X16675000Y-118251335D01*
X16675000Y-117968665D01*
X18885000Y-117968665D01*
X18885000Y-118251335D01*
X18940147Y-118528574D01*
X19048320Y-118789727D01*
X19205363Y-119024759D01*
X19405241Y-119224637D01*
X19640273Y-119381680D01*
X19901426Y-119489853D01*
X20178665Y-119545000D01*
X20461335Y-119545000D01*
X20738574Y-119489853D01*
X20999727Y-119381680D01*
X21234759Y-119224637D01*
X21434637Y-119024759D01*
X21591680Y-118789727D01*
X21699853Y-118528574D01*
X21755000Y-118251335D01*
X21755000Y-117968665D01*
X21699853Y-117691426D01*
X21591680Y-117430273D01*
X21434637Y-117195241D01*
X21234759Y-116995363D01*
X20999727Y-116838320D01*
X20738574Y-116730147D01*
X20461335Y-116675000D01*
X20178665Y-116675000D01*
X19901426Y-116730147D01*
X19640273Y-116838320D01*
X19405241Y-116995363D01*
X19205363Y-117195241D01*
X19048320Y-117430273D01*
X18940147Y-117691426D01*
X18885000Y-117968665D01*
X16675000Y-117968665D01*
X16619853Y-117691426D01*
X16511680Y-117430273D01*
X16354637Y-117195241D01*
X16154759Y-116995363D01*
X15919727Y-116838320D01*
X15658574Y-116730147D01*
X15381335Y-116675000D01*
X15098665Y-116675000D01*
X14821426Y-116730147D01*
X14560273Y-116838320D01*
X14557759Y-116840000D01*
X14496051Y-116840000D01*
X13970000Y-116313950D01*
X13970000Y-111172241D01*
X14125363Y-111404759D01*
X14325241Y-111604637D01*
X14560273Y-111761680D01*
X14821426Y-111869853D01*
X15098665Y-111925000D01*
X15381335Y-111925000D01*
X15658574Y-111869853D01*
X15919727Y-111761680D01*
X16154759Y-111604637D01*
X16354637Y-111404759D01*
X16511680Y-111169727D01*
X16619853Y-110908574D01*
X16675000Y-110631335D01*
X16675000Y-110348665D01*
X18885000Y-110348665D01*
X18885000Y-110631335D01*
X18940147Y-110908574D01*
X19048320Y-111169727D01*
X19205363Y-111404759D01*
X19405241Y-111604637D01*
X19640273Y-111761680D01*
X19901426Y-111869853D01*
X20178665Y-111925000D01*
X20461335Y-111925000D01*
X20738574Y-111869853D01*
X20999727Y-111761680D01*
X21234759Y-111604637D01*
X21434637Y-111404759D01*
X21591680Y-111169727D01*
X21699853Y-110908574D01*
X21755000Y-110631335D01*
X21755000Y-110348665D01*
X21699853Y-110071426D01*
X21591680Y-109810273D01*
X21434637Y-109575241D01*
X21234759Y-109375363D01*
X20999727Y-109218320D01*
X20738574Y-109110147D01*
X20461335Y-109055000D01*
X20178665Y-109055000D01*
X19901426Y-109110147D01*
X19640273Y-109218320D01*
X19405241Y-109375363D01*
X19205363Y-109575241D01*
X19048320Y-109810273D01*
X18940147Y-110071426D01*
X18885000Y-110348665D01*
X16675000Y-110348665D01*
X16619853Y-110071426D01*
X16511680Y-109810273D01*
X16354637Y-109575241D01*
X16154759Y-109375363D01*
X15919727Y-109218320D01*
X15658574Y-109110147D01*
X15381335Y-109055000D01*
X15098665Y-109055000D01*
X14821426Y-109110147D01*
X14560273Y-109218320D01*
X14325241Y-109375363D01*
X14125363Y-109575241D01*
X13970000Y-109807759D01*
X13970000Y-105472380D01*
X13976144Y-105410000D01*
X13970000Y-105347620D01*
X13970000Y-105284916D01*
X13957767Y-105223415D01*
X13951623Y-105161037D01*
X13933429Y-105101059D01*
X13921195Y-105039555D01*
X13897197Y-104981620D01*
X13879003Y-104921641D01*
X13849455Y-104866361D01*
X13825459Y-104808429D01*
X13790625Y-104756296D01*
X13761075Y-104701012D01*
X13721307Y-104652555D01*
X13686473Y-104600422D01*
X13642137Y-104556086D01*
X13602370Y-104507630D01*
X13553914Y-104467863D01*
X13509578Y-104423527D01*
X13457445Y-104388693D01*
X13408988Y-104348925D01*
X13353704Y-104319375D01*
X13301571Y-104284541D01*
X13243639Y-104260545D01*
X13188359Y-104230997D01*
X13128380Y-104212803D01*
X13070445Y-104188805D01*
X13008941Y-104176571D01*
X12948963Y-104158377D01*
X12886585Y-104152233D01*
X12825084Y-104140000D01*
X12762380Y-104140000D01*
X12700000Y-104133856D01*
X12637620Y-104140000D01*
X12574916Y-104140000D01*
X12513415Y-104152233D01*
X12451037Y-104158377D01*
X12391059Y-104176571D01*
X12329555Y-104188805D01*
X12271620Y-104212803D01*
X12211641Y-104230997D01*
X12156361Y-104260545D01*
X12098429Y-104284541D01*
X12046296Y-104319375D01*
X11991012Y-104348925D01*
X11942555Y-104388693D01*
X11890422Y-104423527D01*
X11846086Y-104467863D01*
X11797630Y-104507630D01*
X11757863Y-104556086D01*
X11713527Y-104600422D01*
X11678693Y-104652555D01*
X11638925Y-104701012D01*
X11609375Y-104756296D01*
X11574541Y-104808429D01*
X11550545Y-104866361D01*
X11520997Y-104921641D01*
X11502803Y-104981620D01*
X11478805Y-105039555D01*
X11466571Y-105101059D01*
X11448377Y-105161037D01*
X11442233Y-105223415D01*
X11430000Y-105284916D01*
X11430000Y-105347620D01*
X11423856Y-105410000D01*
X7620000Y-105410000D01*
X7620000Y-102932380D01*
X7626144Y-102870000D01*
X7620000Y-102807620D01*
X7620000Y-102744916D01*
X7607767Y-102683415D01*
X7601623Y-102621037D01*
X7583429Y-102561059D01*
X7571195Y-102499555D01*
X7547197Y-102441620D01*
X7529003Y-102381641D01*
X7499455Y-102326361D01*
X7475459Y-102268429D01*
X7440625Y-102216296D01*
X7411075Y-102161012D01*
X7371307Y-102112555D01*
X7336473Y-102060422D01*
X7292137Y-102016086D01*
X7252370Y-101967630D01*
X7203914Y-101927863D01*
X7159578Y-101883527D01*
X7107445Y-101848693D01*
X7058988Y-101808925D01*
X7003704Y-101779375D01*
X6951571Y-101744541D01*
X6893639Y-101720545D01*
X6838359Y-101690997D01*
X6778380Y-101672803D01*
X6720445Y-101648805D01*
X6658941Y-101636571D01*
X6598963Y-101618377D01*
X6536585Y-101612233D01*
X6475084Y-101600000D01*
X6412380Y-101600000D01*
X6350000Y-101593856D01*
X6287620Y-101600000D01*
X6224916Y-101600000D01*
X6163415Y-101612233D01*
X6101037Y-101618377D01*
X6041059Y-101636571D01*
X5979555Y-101648805D01*
X5921620Y-101672803D01*
X5861641Y-101690997D01*
X5806361Y-101720545D01*
X5748429Y-101744541D01*
X5696296Y-101779375D01*
X5641012Y-101808925D01*
X5592555Y-101848693D01*
X5540422Y-101883527D01*
X5496086Y-101927863D01*
X5447630Y-101967630D01*
X5407863Y-102016086D01*
X5363527Y-102060422D01*
X5328693Y-102112555D01*
X5288925Y-102161012D01*
X5259375Y-102216296D01*
X5224541Y-102268429D01*
X5200545Y-102326361D01*
X5170997Y-102381641D01*
X5152803Y-102441620D01*
X5128805Y-102499555D01*
X5116571Y-102561059D01*
X5098377Y-102621037D01*
X5092233Y-102683415D01*
X5080000Y-102744916D01*
X5080000Y-102807620D01*
X5073856Y-102870000D01*
X5080000Y-102932380D01*
X5080000Y-102995084D01*
X5080001Y-102995089D01*
X5080001Y-109807759D01*
X4924637Y-109575241D01*
X4724759Y-109375363D01*
X4489727Y-109218320D01*
X4228574Y-109110147D01*
X3951335Y-109055000D01*
X3668665Y-109055000D01*
X3391426Y-109110147D01*
X3130273Y-109218320D01*
X2895241Y-109375363D01*
X2695363Y-109575241D01*
X2538320Y-109810273D01*
X2430147Y-110071426D01*
X2375000Y-110348665D01*
X-1378573Y-110348665D01*
X-1454880Y-110234465D01*
X-1649465Y-110039880D01*
X-1878273Y-109886995D01*
X-1955515Y-109855000D01*
X-1878273Y-109823005D01*
X-1649465Y-109670120D01*
X-1454880Y-109475535D01*
X-1301995Y-109246727D01*
X-1196686Y-108992490D01*
X-1143000Y-108722592D01*
X-1143000Y-108447408D01*
X-1196686Y-108177510D01*
X-1301995Y-107923273D01*
X-1454880Y-107694465D01*
X-1649465Y-107499880D01*
X-1878273Y-107346995D01*
X-1955515Y-107315000D01*
X-1878273Y-107283005D01*
X-1649465Y-107130120D01*
X-1454880Y-106935535D01*
X-1301995Y-106706727D01*
X-1196686Y-106452490D01*
X-1143000Y-106182592D01*
X-1143000Y-105907408D01*
X-1196686Y-105637510D01*
X-1301995Y-105383273D01*
X-1454880Y-105154465D01*
X-1649465Y-104959880D01*
X-1878273Y-104806995D01*
X-1955515Y-104775000D01*
X-1878273Y-104743005D01*
X-1649465Y-104590120D01*
X-1454880Y-104395535D01*
X-1301995Y-104166727D01*
X-1196686Y-103912490D01*
X-1143000Y-103642592D01*
X-1143000Y-103367408D01*
X-1196686Y-103097510D01*
X-1301995Y-102843273D01*
X-1454880Y-102614465D01*
X-1649465Y-102419880D01*
X-1878273Y-102266995D01*
X-1955515Y-102235000D01*
X-1878273Y-102203005D01*
X-1649465Y-102050120D01*
X-1454880Y-101855535D01*
X-1301995Y-101626727D01*
X-1196686Y-101372490D01*
X-1143000Y-101102592D01*
X-1143000Y-100827408D01*
X-1196686Y-100557510D01*
X-1301995Y-100303273D01*
X-1454880Y-100074465D01*
X-1649465Y-99879880D01*
X-1878273Y-99726995D01*
X-1955515Y-99695000D01*
X-1878273Y-99663005D01*
X-1649465Y-99510120D01*
X-1454880Y-99315535D01*
X-1301995Y-99086727D01*
X-1196686Y-98832490D01*
X-1143000Y-98562592D01*
X-1143000Y-98287408D01*
X-1196686Y-98017510D01*
X-1301995Y-97763273D01*
X-1454880Y-97534465D01*
X-1649465Y-97339880D01*
X-1878273Y-97186995D01*
X-1949943Y-97157308D01*
X-1936977Y-97152636D01*
X-1821020Y-97090656D01*
X-1792940Y-96990000D01*
X4951928Y-96990000D01*
X4951928Y-98590000D01*
X4964188Y-98714482D01*
X5000498Y-98834180D01*
X5059463Y-98944494D01*
X5138815Y-99041185D01*
X5235506Y-99120537D01*
X5345820Y-99179502D01*
X5465518Y-99215812D01*
X5590000Y-99228072D01*
X7190000Y-99228072D01*
X7314482Y-99215812D01*
X7434180Y-99179502D01*
X7544494Y-99120537D01*
X7641185Y-99041185D01*
X7720537Y-98944494D01*
X7779502Y-98834180D01*
X7795117Y-98782702D01*
X8076903Y-98782702D01*
X8148486Y-99026671D01*
X8403996Y-99147571D01*
X8678184Y-99216300D01*
X8960512Y-99230217D01*
X9240130Y-99188787D01*
X9506292Y-99093603D01*
X9631514Y-99026671D01*
X9703097Y-98782702D01*
X15696903Y-98782702D01*
X15768486Y-99026671D01*
X16023996Y-99147571D01*
X16298184Y-99216300D01*
X16580512Y-99230217D01*
X16860130Y-99188787D01*
X17126292Y-99093603D01*
X17251514Y-99026671D01*
X17323097Y-98782702D01*
X16510000Y-97969605D01*
X15696903Y-98782702D01*
X9703097Y-98782702D01*
X8890000Y-97969605D01*
X8076903Y-98782702D01*
X7795117Y-98782702D01*
X7815812Y-98714482D01*
X7828072Y-98590000D01*
X7828072Y-98582785D01*
X7897298Y-98603097D01*
X8710395Y-97790000D01*
X9069605Y-97790000D01*
X9882702Y-98603097D01*
X10126671Y-98531514D01*
X10247571Y-98276004D01*
X10316300Y-98001816D01*
X10323265Y-97860512D01*
X15069783Y-97860512D01*
X15111213Y-98140130D01*
X15206397Y-98406292D01*
X15273329Y-98531514D01*
X15517298Y-98603097D01*
X16330395Y-97790000D01*
X16689605Y-97790000D01*
X17502702Y-98603097D01*
X17571928Y-98582785D01*
X17571928Y-98590000D01*
X17584188Y-98714482D01*
X17620498Y-98834180D01*
X17679463Y-98944494D01*
X17758815Y-99041185D01*
X17855506Y-99120537D01*
X17965820Y-99179502D01*
X18085518Y-99215812D01*
X18210000Y-99228072D01*
X19810000Y-99228072D01*
X19934482Y-99215812D01*
X20054180Y-99179502D01*
X20164494Y-99120537D01*
X20261185Y-99041185D01*
X20340537Y-98944494D01*
X20399502Y-98834180D01*
X20435812Y-98714482D01*
X20448072Y-98590000D01*
X20448072Y-96990000D01*
X20435812Y-96865518D01*
X20399502Y-96745820D01*
X20340537Y-96635506D01*
X20261185Y-96538815D01*
X20164494Y-96459463D01*
X20054180Y-96400498D01*
X19934482Y-96364188D01*
X19810000Y-96351928D01*
X18210000Y-96351928D01*
X18085518Y-96364188D01*
X17965820Y-96400498D01*
X17855506Y-96459463D01*
X17758815Y-96538815D01*
X17679463Y-96635506D01*
X17620498Y-96745820D01*
X17584188Y-96865518D01*
X17571928Y-96990000D01*
X17571928Y-96997215D01*
X17502702Y-96976903D01*
X16689605Y-97790000D01*
X16330395Y-97790000D01*
X15517298Y-96976903D01*
X15273329Y-97048486D01*
X15152429Y-97303996D01*
X15083700Y-97578184D01*
X15069783Y-97860512D01*
X10323265Y-97860512D01*
X10330217Y-97719488D01*
X10288787Y-97439870D01*
X10193603Y-97173708D01*
X10126671Y-97048486D01*
X9882702Y-96976903D01*
X9069605Y-97790000D01*
X8710395Y-97790000D01*
X7897298Y-96976903D01*
X7828072Y-96997215D01*
X7828072Y-96990000D01*
X7815812Y-96865518D01*
X7795118Y-96797298D01*
X8076903Y-96797298D01*
X8890000Y-97610395D01*
X9703097Y-96797298D01*
X15696903Y-96797298D01*
X16510000Y-97610395D01*
X17323097Y-96797298D01*
X17251514Y-96553329D01*
X16996004Y-96432429D01*
X16721816Y-96363700D01*
X16439488Y-96349783D01*
X16159870Y-96391213D01*
X15893708Y-96486397D01*
X15768486Y-96553329D01*
X15696903Y-96797298D01*
X9703097Y-96797298D01*
X9631514Y-96553329D01*
X9376004Y-96432429D01*
X9101816Y-96363700D01*
X8819488Y-96349783D01*
X8539870Y-96391213D01*
X8273708Y-96486397D01*
X8148486Y-96553329D01*
X8076903Y-96797298D01*
X7795118Y-96797298D01*
X7779502Y-96745820D01*
X7720537Y-96635506D01*
X7641185Y-96538815D01*
X7544494Y-96459463D01*
X7434180Y-96400498D01*
X7314482Y-96364188D01*
X7190000Y-96351928D01*
X5590000Y-96351928D01*
X5465518Y-96364188D01*
X5345820Y-96400498D01*
X5235506Y-96459463D01*
X5138815Y-96538815D01*
X5059463Y-96635506D01*
X5000498Y-96745820D01*
X4964188Y-96865518D01*
X4951928Y-96990000D01*
X-1792940Y-96990000D01*
X-1754040Y-96850565D01*
X-2540000Y-96064605D01*
X-3325960Y-96850565D01*
X-3258980Y-97090656D01*
X-3123240Y-97154485D01*
X-3201727Y-97186995D01*
X-3430535Y-97339880D01*
X-3625120Y-97534465D01*
X-3778005Y-97763273D01*
X-3883314Y-98017510D01*
X-3937000Y-98287408D01*
X-29083000Y-98287408D01*
X-29136686Y-98017510D01*
X-29241995Y-97763273D01*
X-29394880Y-97534465D01*
X-29589465Y-97339880D01*
X-29818273Y-97186995D01*
X-29895515Y-97155000D01*
X-29818273Y-97123005D01*
X-29589465Y-96970120D01*
X-29394880Y-96775535D01*
X-29241995Y-96546727D01*
X-29136686Y-96292490D01*
X-29083000Y-96022592D01*
X-29083000Y-95957017D01*
X-3941910Y-95957017D01*
X-3900922Y-96229133D01*
X-3807636Y-96488023D01*
X-3745656Y-96603980D01*
X-3505565Y-96670960D01*
X-2719605Y-95885000D01*
X-2360395Y-95885000D01*
X-1574435Y-96670960D01*
X-1334344Y-96603980D01*
X-1217244Y-96354952D01*
X-1150977Y-96087865D01*
X-1138090Y-95812983D01*
X-1179078Y-95540867D01*
X-1272364Y-95281977D01*
X-1334344Y-95166020D01*
X-1574435Y-95099040D01*
X-2360395Y-95885000D01*
X-2719605Y-95885000D01*
X-3505565Y-95099040D01*
X-3745656Y-95166020D01*
X-3862756Y-95415048D01*
X-3929023Y-95682135D01*
X-3941910Y-95957017D01*
X-29083000Y-95957017D01*
X-29083000Y-95747408D01*
X-29136686Y-95477510D01*
X-29241995Y-95223273D01*
X-29394880Y-94994465D01*
X-29589465Y-94799880D01*
X-29818273Y-94646995D01*
X-29895515Y-94615000D01*
X-29818273Y-94583005D01*
X-29589465Y-94430120D01*
X-29394880Y-94235535D01*
X-29241995Y-94006727D01*
X-29136686Y-93752490D01*
X-29083000Y-93482592D01*
X-29083000Y-93207408D01*
X-29136686Y-92937510D01*
X-29241995Y-92683273D01*
X-29394880Y-92454465D01*
X-29589465Y-92259880D01*
X-29818273Y-92106995D01*
X-29895515Y-92075000D01*
X-29818273Y-92043005D01*
X-29589465Y-91890120D01*
X-29394880Y-91695535D01*
X-29241995Y-91466727D01*
X-29136686Y-91212490D01*
X-29083000Y-90942592D01*
X-29083000Y-90667408D01*
X-29136686Y-90397510D01*
X-29241995Y-90143273D01*
X-29394880Y-89914465D01*
X-29589465Y-89719880D01*
X-29818273Y-89566995D01*
X-29895515Y-89535000D01*
X-29818273Y-89503005D01*
X-29589465Y-89350120D01*
X-29394880Y-89155535D01*
X-29241995Y-88926727D01*
X-29136686Y-88672490D01*
X-29083000Y-88402592D01*
X-29083000Y-88127408D01*
X-29136686Y-87857510D01*
X-29241995Y-87603273D01*
X-29394880Y-87374465D01*
X-29589465Y-87179880D01*
X-29818273Y-87026995D01*
X-29895515Y-86995000D01*
X-29818273Y-86963005D01*
X-29589465Y-86810120D01*
X-29394880Y-86615535D01*
X-29241995Y-86386727D01*
X-29136686Y-86132490D01*
X-29083000Y-85862592D01*
X-29083000Y-85587408D01*
X-29136686Y-85317510D01*
X-29241995Y-85063273D01*
X-29394880Y-84834465D01*
X-29589465Y-84639880D01*
X-29818273Y-84486995D01*
X-29895515Y-84455000D01*
X-29818273Y-84423005D01*
X-29589465Y-84270120D01*
X-29394880Y-84075535D01*
X-29241995Y-83846727D01*
X-29136686Y-83592490D01*
X-29083000Y-83322592D01*
X-29083000Y-83047408D01*
X-29136686Y-82777510D01*
X-29241995Y-82523273D01*
X-29394880Y-82294465D01*
X-29589465Y-82099880D01*
X-29818273Y-81946995D01*
X-29895515Y-81915000D01*
X-29818273Y-81883005D01*
X-29589465Y-81730120D01*
X-29394880Y-81535535D01*
X-29241995Y-81306727D01*
X-29136686Y-81052490D01*
X-29083000Y-80782592D01*
X-29083000Y-80507408D01*
X-3937000Y-80507408D01*
X-3937000Y-80782592D01*
X-3883314Y-81052490D01*
X-3778005Y-81306727D01*
X-3625120Y-81535535D01*
X-3430535Y-81730120D01*
X-3201727Y-81883005D01*
X-3124485Y-81915000D01*
X-3201727Y-81946995D01*
X-3430535Y-82099880D01*
X-3625120Y-82294465D01*
X-3778005Y-82523273D01*
X-3883314Y-82777510D01*
X-3937000Y-83047408D01*
X-3937000Y-83322592D01*
X-3883314Y-83592490D01*
X-3778005Y-83846727D01*
X-3625120Y-84075535D01*
X-3430535Y-84270120D01*
X-3201727Y-84423005D01*
X-3124485Y-84455000D01*
X-3201727Y-84486995D01*
X-3430535Y-84639880D01*
X-3625120Y-84834465D01*
X-3778005Y-85063273D01*
X-3883314Y-85317510D01*
X-3937000Y-85587408D01*
X-3937000Y-85862592D01*
X-3883314Y-86132490D01*
X-3778005Y-86386727D01*
X-3625120Y-86615535D01*
X-3430535Y-86810120D01*
X-3201727Y-86963005D01*
X-3124485Y-86995000D01*
X-3201727Y-87026995D01*
X-3430535Y-87179880D01*
X-3625120Y-87374465D01*
X-3778005Y-87603273D01*
X-3883314Y-87857510D01*
X-3937000Y-88127408D01*
X-3937000Y-88402592D01*
X-3883314Y-88672490D01*
X-3778005Y-88926727D01*
X-3625120Y-89155535D01*
X-3430535Y-89350120D01*
X-3201727Y-89503005D01*
X-3124485Y-89535000D01*
X-3201727Y-89566995D01*
X-3430535Y-89719880D01*
X-3625120Y-89914465D01*
X-3778005Y-90143273D01*
X-3883314Y-90397510D01*
X-3937000Y-90667408D01*
X-3937000Y-90942592D01*
X-3883314Y-91212490D01*
X-3778005Y-91466727D01*
X-3625120Y-91695535D01*
X-3430535Y-91890120D01*
X-3201727Y-92043005D01*
X-3124485Y-92075000D01*
X-3201727Y-92106995D01*
X-3430535Y-92259880D01*
X-3625120Y-92454465D01*
X-3778005Y-92683273D01*
X-3883314Y-92937510D01*
X-3937000Y-93207408D01*
X-3937000Y-93482592D01*
X-3883314Y-93752490D01*
X-3778005Y-94006727D01*
X-3625120Y-94235535D01*
X-3430535Y-94430120D01*
X-3201727Y-94583005D01*
X-3130057Y-94612692D01*
X-3143023Y-94617364D01*
X-3258980Y-94679344D01*
X-3325960Y-94919435D01*
X-2540000Y-95705395D01*
X-1754040Y-94919435D01*
X-1821020Y-94679344D01*
X-1956760Y-94615515D01*
X-1878273Y-94583005D01*
X-1649465Y-94430120D01*
X-1454880Y-94235535D01*
X-1301995Y-94006727D01*
X-1196686Y-93752490D01*
X-1143000Y-93482592D01*
X-1143000Y-93207408D01*
X-1196686Y-92937510D01*
X-1301995Y-92683273D01*
X-1454880Y-92454465D01*
X-1649465Y-92259880D01*
X-1878273Y-92106995D01*
X-1955515Y-92075000D01*
X-1878273Y-92043005D01*
X-1649465Y-91890120D01*
X-1454880Y-91695535D01*
X-1301995Y-91466727D01*
X-1196686Y-91212490D01*
X-1143000Y-90942592D01*
X-1143000Y-90667408D01*
X-1196686Y-90397510D01*
X-1301995Y-90143273D01*
X-1454880Y-89914465D01*
X-1649465Y-89719880D01*
X-1858809Y-89580000D01*
X8759428Y-89580000D01*
X8759428Y-91580000D01*
X8771688Y-91704482D01*
X8807998Y-91824180D01*
X8866963Y-91934494D01*
X8946315Y-92031185D01*
X9043006Y-92110537D01*
X9153320Y-92169502D01*
X9273018Y-92205812D01*
X9397500Y-92218072D01*
X11302500Y-92218072D01*
X11426982Y-92205812D01*
X11546680Y-92169502D01*
X11656994Y-92110537D01*
X11753685Y-92031185D01*
X11833037Y-91934494D01*
X11882059Y-91842781D01*
X12023077Y-91955969D01*
X12298906Y-92099571D01*
X12517020Y-92170563D01*
X12763000Y-92050594D01*
X12763000Y-90707000D01*
X12743000Y-90707000D01*
X12743000Y-90453000D01*
X12763000Y-90453000D01*
X12763000Y-89109406D01*
X13017000Y-89109406D01*
X13017000Y-90453000D01*
X13037000Y-90453000D01*
X13037000Y-90707000D01*
X13017000Y-90707000D01*
X13017000Y-92050594D01*
X13262980Y-92170563D01*
X13481094Y-92099571D01*
X13756923Y-91955969D01*
X13999437Y-91761315D01*
X14154837Y-91576101D01*
X14302037Y-91755463D01*
X14543766Y-91953845D01*
X14819552Y-92101255D01*
X15118797Y-92192030D01*
X15430000Y-92222681D01*
X15741204Y-92192030D01*
X16040449Y-92101255D01*
X16316235Y-91953845D01*
X16557963Y-91755463D01*
X16756345Y-91513734D01*
X16903755Y-91237948D01*
X16994530Y-90938703D01*
X17017500Y-90705485D01*
X17017500Y-90454514D01*
X16994530Y-90221296D01*
X16903755Y-89922051D01*
X16756345Y-89646265D01*
X16557963Y-89404537D01*
X16316234Y-89206155D01*
X16040448Y-89058745D01*
X15741203Y-88967970D01*
X15430000Y-88937319D01*
X15118796Y-88967970D01*
X14819551Y-89058745D01*
X14543765Y-89206155D01*
X14302037Y-89404537D01*
X14154838Y-89583900D01*
X13999437Y-89398685D01*
X13756923Y-89204031D01*
X13481094Y-89060429D01*
X13262980Y-88989437D01*
X13017000Y-89109406D01*
X12763000Y-89109406D01*
X12517020Y-88989437D01*
X12298906Y-89060429D01*
X12023077Y-89204031D01*
X11882059Y-89317219D01*
X11833037Y-89225506D01*
X11753685Y-89128815D01*
X11656994Y-89049463D01*
X11546680Y-88990498D01*
X11426982Y-88954188D01*
X11302500Y-88941928D01*
X9397500Y-88941928D01*
X9273018Y-88954188D01*
X9153320Y-88990498D01*
X9043006Y-89049463D01*
X8946315Y-89128815D01*
X8866963Y-89225506D01*
X8807998Y-89335820D01*
X8771688Y-89455518D01*
X8759428Y-89580000D01*
X-1858809Y-89580000D01*
X-1878273Y-89566995D01*
X-1955515Y-89535000D01*
X-1878273Y-89503005D01*
X-1649465Y-89350120D01*
X-1454880Y-89155535D01*
X-1301995Y-88926727D01*
X-1232382Y-88758665D01*
X25235000Y-88758665D01*
X25235000Y-89041335D01*
X25290147Y-89318574D01*
X25398320Y-89579727D01*
X25555363Y-89814759D01*
X25755241Y-90014637D01*
X25987759Y-90170000D01*
X25755241Y-90325363D01*
X25555363Y-90525241D01*
X25398320Y-90760273D01*
X25290147Y-91021426D01*
X25235000Y-91298665D01*
X25235000Y-91581335D01*
X25290147Y-91858574D01*
X25398320Y-92119727D01*
X25555363Y-92354759D01*
X25755241Y-92554637D01*
X25987759Y-92710000D01*
X25755241Y-92865363D01*
X25555363Y-93065241D01*
X25398320Y-93300273D01*
X25290147Y-93561426D01*
X25235000Y-93838665D01*
X25235000Y-94121335D01*
X25290147Y-94398574D01*
X25398320Y-94659727D01*
X25555363Y-94894759D01*
X25755241Y-95094637D01*
X25987759Y-95250000D01*
X25755241Y-95405363D01*
X25555363Y-95605241D01*
X25398320Y-95840273D01*
X25290147Y-96101426D01*
X25235000Y-96378665D01*
X25235000Y-96661335D01*
X25290147Y-96938574D01*
X25398320Y-97199727D01*
X25555363Y-97434759D01*
X25755241Y-97634637D01*
X25987759Y-97790000D01*
X25755241Y-97945363D01*
X25555363Y-98145241D01*
X25398320Y-98380273D01*
X25290147Y-98641426D01*
X25235000Y-98918665D01*
X25235000Y-99201335D01*
X25290147Y-99478574D01*
X25398320Y-99739727D01*
X25555363Y-99974759D01*
X25755241Y-100174637D01*
X25987759Y-100330000D01*
X25755241Y-100485363D01*
X25555363Y-100685241D01*
X25398320Y-100920273D01*
X25290147Y-101181426D01*
X25235000Y-101458665D01*
X25235000Y-101741335D01*
X25290147Y-102018574D01*
X25398320Y-102279727D01*
X25555363Y-102514759D01*
X25755241Y-102714637D01*
X25987759Y-102870000D01*
X25755241Y-103025363D01*
X25555363Y-103225241D01*
X25398320Y-103460273D01*
X25290147Y-103721426D01*
X25235000Y-103998665D01*
X25235000Y-104281335D01*
X25290147Y-104558574D01*
X25398320Y-104819727D01*
X25555363Y-105054759D01*
X25755241Y-105254637D01*
X25987759Y-105410000D01*
X25755241Y-105565363D01*
X25555363Y-105765241D01*
X25398320Y-106000273D01*
X25290147Y-106261426D01*
X25235000Y-106538665D01*
X25235000Y-106821335D01*
X25290147Y-107098574D01*
X25398320Y-107359727D01*
X25555363Y-107594759D01*
X25755241Y-107794637D01*
X25987759Y-107950000D01*
X25755241Y-108105363D01*
X25555363Y-108305241D01*
X25398320Y-108540273D01*
X25290147Y-108801426D01*
X25235000Y-109078665D01*
X25235000Y-109361335D01*
X25290147Y-109638574D01*
X25398320Y-109899727D01*
X25555363Y-110134759D01*
X25755241Y-110334637D01*
X25987759Y-110490000D01*
X25755241Y-110645363D01*
X25555363Y-110845241D01*
X25398320Y-111080273D01*
X25290147Y-111341426D01*
X25235000Y-111618665D01*
X25235000Y-111901335D01*
X25290147Y-112178574D01*
X25398320Y-112439727D01*
X25555363Y-112674759D01*
X25755241Y-112874637D01*
X25987759Y-113030000D01*
X25755241Y-113185363D01*
X25555363Y-113385241D01*
X25398320Y-113620273D01*
X25290147Y-113881426D01*
X25235000Y-114158665D01*
X25235000Y-114441335D01*
X25290147Y-114718574D01*
X25398320Y-114979727D01*
X25555363Y-115214759D01*
X25755241Y-115414637D01*
X25987759Y-115570000D01*
X25755241Y-115725363D01*
X25555363Y-115925241D01*
X25398320Y-116160273D01*
X25290147Y-116421426D01*
X25235000Y-116698665D01*
X25235000Y-116981335D01*
X25290147Y-117258574D01*
X25398320Y-117519727D01*
X25555363Y-117754759D01*
X25755241Y-117954637D01*
X25987759Y-118110000D01*
X25755241Y-118265363D01*
X25555363Y-118465241D01*
X25398320Y-118700273D01*
X25290147Y-118961426D01*
X25235000Y-119238665D01*
X25235000Y-119521335D01*
X25290147Y-119798574D01*
X25398320Y-120059727D01*
X25555363Y-120294759D01*
X25755241Y-120494637D01*
X25987759Y-120650000D01*
X25755241Y-120805363D01*
X25555363Y-121005241D01*
X25398320Y-121240273D01*
X25290147Y-121501426D01*
X25235000Y-121778665D01*
X25235000Y-122061335D01*
X25290147Y-122338574D01*
X25398320Y-122599727D01*
X25555363Y-122834759D01*
X25755241Y-123034637D01*
X25987759Y-123190000D01*
X25755241Y-123345363D01*
X25555363Y-123545241D01*
X25398320Y-123780273D01*
X25290147Y-124041426D01*
X25235000Y-124318665D01*
X25235000Y-124601335D01*
X25290147Y-124878574D01*
X25398320Y-125139727D01*
X25555363Y-125374759D01*
X25755241Y-125574637D01*
X25990273Y-125731680D01*
X26251426Y-125839853D01*
X26528665Y-125895000D01*
X26811335Y-125895000D01*
X27088574Y-125839853D01*
X27349727Y-125731680D01*
X27584759Y-125574637D01*
X27784637Y-125374759D01*
X27941680Y-125139727D01*
X28049853Y-124878574D01*
X28105000Y-124601335D01*
X28105000Y-124318665D01*
X28049853Y-124041426D01*
X27941680Y-123780273D01*
X27861317Y-123660000D01*
X40471928Y-123660000D01*
X40471928Y-125260000D01*
X40484188Y-125384482D01*
X40520498Y-125504180D01*
X40579463Y-125614494D01*
X40658815Y-125711185D01*
X40755506Y-125790537D01*
X40865820Y-125849502D01*
X40985518Y-125885812D01*
X41110000Y-125898072D01*
X42710000Y-125898072D01*
X42834482Y-125885812D01*
X42954180Y-125849502D01*
X43064494Y-125790537D01*
X43161185Y-125711185D01*
X43240537Y-125614494D01*
X43299502Y-125504180D01*
X43335812Y-125384482D01*
X43348072Y-125260000D01*
X43348072Y-123660000D01*
X43335812Y-123535518D01*
X43299502Y-123415820D01*
X43240537Y-123305506D01*
X43161185Y-123208815D01*
X43064494Y-123129463D01*
X42954180Y-123070498D01*
X42834482Y-123034188D01*
X42826039Y-123033357D01*
X43024637Y-122834759D01*
X43181680Y-122599727D01*
X43289853Y-122338574D01*
X43345000Y-122061335D01*
X43345000Y-121778665D01*
X43289853Y-121501426D01*
X43181680Y-121240273D01*
X43024637Y-121005241D01*
X42824759Y-120805363D01*
X42592241Y-120650000D01*
X42824759Y-120494637D01*
X43024637Y-120294759D01*
X43181680Y-120059727D01*
X43289853Y-119798574D01*
X43345000Y-119521335D01*
X43345000Y-119238665D01*
X43289853Y-118961426D01*
X43181680Y-118700273D01*
X43024637Y-118465241D01*
X42824759Y-118265363D01*
X42589727Y-118108320D01*
X42579135Y-118103933D01*
X42765131Y-117992385D01*
X42973519Y-117803414D01*
X43141037Y-117577420D01*
X43261246Y-117323087D01*
X43301904Y-117189039D01*
X43179915Y-116967000D01*
X42037000Y-116967000D01*
X42037000Y-116987000D01*
X41783000Y-116987000D01*
X41783000Y-116967000D01*
X40640085Y-116967000D01*
X40518096Y-117189039D01*
X40558754Y-117323087D01*
X40678963Y-117577420D01*
X40846481Y-117803414D01*
X41054869Y-117992385D01*
X41240865Y-118103933D01*
X41230273Y-118108320D01*
X40995241Y-118265363D01*
X40795363Y-118465241D01*
X40638320Y-118700273D01*
X40530147Y-118961426D01*
X40475000Y-119238665D01*
X40475000Y-119521335D01*
X40530147Y-119798574D01*
X40638320Y-120059727D01*
X40795363Y-120294759D01*
X40995241Y-120494637D01*
X41227759Y-120650000D01*
X40995241Y-120805363D01*
X40795363Y-121005241D01*
X40638320Y-121240273D01*
X40530147Y-121501426D01*
X40475000Y-121778665D01*
X40475000Y-122061335D01*
X40530147Y-122338574D01*
X40638320Y-122599727D01*
X40795363Y-122834759D01*
X40993961Y-123033357D01*
X40985518Y-123034188D01*
X40865820Y-123070498D01*
X40755506Y-123129463D01*
X40658815Y-123208815D01*
X40579463Y-123305506D01*
X40520498Y-123415820D01*
X40484188Y-123535518D01*
X40471928Y-123660000D01*
X27861317Y-123660000D01*
X27784637Y-123545241D01*
X27584759Y-123345363D01*
X27352241Y-123190000D01*
X27584759Y-123034637D01*
X27784637Y-122834759D01*
X27941680Y-122599727D01*
X28049853Y-122338574D01*
X28105000Y-122061335D01*
X28105000Y-121778665D01*
X28049853Y-121501426D01*
X27941680Y-121240273D01*
X27784637Y-121005241D01*
X27584759Y-120805363D01*
X27352241Y-120650000D01*
X27584759Y-120494637D01*
X27784637Y-120294759D01*
X27941680Y-120059727D01*
X28049853Y-119798574D01*
X28105000Y-119521335D01*
X28105000Y-119238665D01*
X28049853Y-118961426D01*
X27941680Y-118700273D01*
X27784637Y-118465241D01*
X27584759Y-118265363D01*
X27352241Y-118110000D01*
X27584759Y-117954637D01*
X27784637Y-117754759D01*
X27941680Y-117519727D01*
X28049853Y-117258574D01*
X28105000Y-116981335D01*
X28105000Y-116698665D01*
X28049853Y-116421426D01*
X27941680Y-116160273D01*
X27784637Y-115925241D01*
X27584759Y-115725363D01*
X27352241Y-115570000D01*
X27584759Y-115414637D01*
X27784637Y-115214759D01*
X27941680Y-114979727D01*
X28049853Y-114718574D01*
X28105000Y-114441335D01*
X28105000Y-114158665D01*
X28049853Y-113881426D01*
X27941680Y-113620273D01*
X27784637Y-113385241D01*
X27584759Y-113185363D01*
X27352241Y-113030000D01*
X27584759Y-112874637D01*
X27784637Y-112674759D01*
X27941680Y-112439727D01*
X28049853Y-112178574D01*
X28105000Y-111901335D01*
X28105000Y-111618665D01*
X28049853Y-111341426D01*
X27941680Y-111080273D01*
X27784637Y-110845241D01*
X27584759Y-110645363D01*
X27352241Y-110490000D01*
X27584759Y-110334637D01*
X27784637Y-110134759D01*
X27941680Y-109899727D01*
X28049853Y-109638574D01*
X28105000Y-109361335D01*
X28105000Y-109078665D01*
X28049853Y-108801426D01*
X27941680Y-108540273D01*
X27784637Y-108305241D01*
X27584759Y-108105363D01*
X27352241Y-107950000D01*
X27584759Y-107794637D01*
X27784637Y-107594759D01*
X27941680Y-107359727D01*
X28049853Y-107098574D01*
X28105000Y-106821335D01*
X28105000Y-106538665D01*
X28049853Y-106261426D01*
X27941680Y-106000273D01*
X27784637Y-105765241D01*
X27584759Y-105565363D01*
X27352241Y-105410000D01*
X27584759Y-105254637D01*
X27784637Y-105054759D01*
X27941680Y-104819727D01*
X28049853Y-104558574D01*
X28105000Y-104281335D01*
X28105000Y-103998665D01*
X28049853Y-103721426D01*
X27941680Y-103460273D01*
X27784637Y-103225241D01*
X27584759Y-103025363D01*
X27352241Y-102870000D01*
X27584759Y-102714637D01*
X27784637Y-102514759D01*
X27941680Y-102279727D01*
X28049853Y-102018574D01*
X28105000Y-101741335D01*
X28105000Y-101458665D01*
X28049853Y-101181426D01*
X27941680Y-100920273D01*
X27784637Y-100685241D01*
X27584759Y-100485363D01*
X27352241Y-100330000D01*
X27584759Y-100174637D01*
X27784637Y-99974759D01*
X27941680Y-99739727D01*
X28049853Y-99478574D01*
X28105000Y-99201335D01*
X28105000Y-98918665D01*
X28049853Y-98641426D01*
X27941680Y-98380273D01*
X27784637Y-98145241D01*
X27584759Y-97945363D01*
X27352241Y-97790000D01*
X27584759Y-97634637D01*
X27784637Y-97434759D01*
X27941680Y-97199727D01*
X28049853Y-96938574D01*
X28105000Y-96661335D01*
X28105000Y-96378665D01*
X28049853Y-96101426D01*
X27941680Y-95840273D01*
X27784637Y-95605241D01*
X27584759Y-95405363D01*
X27352241Y-95250000D01*
X27584759Y-95094637D01*
X27784637Y-94894759D01*
X27941680Y-94659727D01*
X28049853Y-94398574D01*
X28105000Y-94121335D01*
X28105000Y-93838665D01*
X28049853Y-93561426D01*
X27941680Y-93300273D01*
X27784637Y-93065241D01*
X27584759Y-92865363D01*
X27352241Y-92710000D01*
X27584759Y-92554637D01*
X27784637Y-92354759D01*
X27941680Y-92119727D01*
X28049853Y-91858574D01*
X28105000Y-91581335D01*
X28105000Y-91298665D01*
X28049853Y-91021426D01*
X27941680Y-90760273D01*
X27784637Y-90525241D01*
X27584759Y-90325363D01*
X27352241Y-90170000D01*
X27584759Y-90014637D01*
X27784637Y-89814759D01*
X27941680Y-89579727D01*
X28049853Y-89318574D01*
X28105000Y-89041335D01*
X28105000Y-88758665D01*
X40475000Y-88758665D01*
X40475000Y-89041335D01*
X40530147Y-89318574D01*
X40638320Y-89579727D01*
X40795363Y-89814759D01*
X40995241Y-90014637D01*
X41227759Y-90170000D01*
X40995241Y-90325363D01*
X40795363Y-90525241D01*
X40638320Y-90760273D01*
X40530147Y-91021426D01*
X40475000Y-91298665D01*
X40475000Y-91581335D01*
X40530147Y-91858574D01*
X40638320Y-92119727D01*
X40795363Y-92354759D01*
X40995241Y-92554637D01*
X41227759Y-92710000D01*
X40995241Y-92865363D01*
X40795363Y-93065241D01*
X40638320Y-93300273D01*
X40530147Y-93561426D01*
X40475000Y-93838665D01*
X40475000Y-94121335D01*
X40530147Y-94398574D01*
X40638320Y-94659727D01*
X40795363Y-94894759D01*
X40995241Y-95094637D01*
X41227759Y-95250000D01*
X40995241Y-95405363D01*
X40795363Y-95605241D01*
X40638320Y-95840273D01*
X40530147Y-96101426D01*
X40475000Y-96378665D01*
X40475000Y-96661335D01*
X40530147Y-96938574D01*
X40638320Y-97199727D01*
X40795363Y-97434759D01*
X40995241Y-97634637D01*
X41227759Y-97790000D01*
X40995241Y-97945363D01*
X40795363Y-98145241D01*
X40638320Y-98380273D01*
X40530147Y-98641426D01*
X40475000Y-98918665D01*
X40475000Y-99201335D01*
X40530147Y-99478574D01*
X40638320Y-99739727D01*
X40795363Y-99974759D01*
X40995241Y-100174637D01*
X41227759Y-100330000D01*
X40995241Y-100485363D01*
X40795363Y-100685241D01*
X40638320Y-100920273D01*
X40530147Y-101181426D01*
X40475000Y-101458665D01*
X40475000Y-101741335D01*
X40530147Y-102018574D01*
X40638320Y-102279727D01*
X40795363Y-102514759D01*
X40995241Y-102714637D01*
X41227759Y-102870000D01*
X40995241Y-103025363D01*
X40795363Y-103225241D01*
X40638320Y-103460273D01*
X40530147Y-103721426D01*
X40475000Y-103998665D01*
X40475000Y-104281335D01*
X40530147Y-104558574D01*
X40638320Y-104819727D01*
X40795363Y-105054759D01*
X40995241Y-105254637D01*
X41227759Y-105410000D01*
X40995241Y-105565363D01*
X40795363Y-105765241D01*
X40638320Y-106000273D01*
X40530147Y-106261426D01*
X40475000Y-106538665D01*
X40475000Y-106821335D01*
X40530147Y-107098574D01*
X40638320Y-107359727D01*
X40795363Y-107594759D01*
X40995241Y-107794637D01*
X41227759Y-107950000D01*
X40995241Y-108105363D01*
X40795363Y-108305241D01*
X40638320Y-108540273D01*
X40530147Y-108801426D01*
X40475000Y-109078665D01*
X40475000Y-109361335D01*
X40530147Y-109638574D01*
X40638320Y-109899727D01*
X40795363Y-110134759D01*
X40995241Y-110334637D01*
X41227759Y-110490000D01*
X40995241Y-110645363D01*
X40795363Y-110845241D01*
X40638320Y-111080273D01*
X40530147Y-111341426D01*
X40475000Y-111618665D01*
X40475000Y-111901335D01*
X40530147Y-112178574D01*
X40638320Y-112439727D01*
X40795363Y-112674759D01*
X40995241Y-112874637D01*
X41227759Y-113030000D01*
X40995241Y-113185363D01*
X40795363Y-113385241D01*
X40638320Y-113620273D01*
X40530147Y-113881426D01*
X40475000Y-114158665D01*
X40475000Y-114441335D01*
X40530147Y-114718574D01*
X40638320Y-114979727D01*
X40795363Y-115214759D01*
X40995241Y-115414637D01*
X41230273Y-115571680D01*
X41240865Y-115576067D01*
X41054869Y-115687615D01*
X40846481Y-115876586D01*
X40678963Y-116102580D01*
X40558754Y-116356913D01*
X40518096Y-116490961D01*
X40640085Y-116713000D01*
X41783000Y-116713000D01*
X41783000Y-116693000D01*
X42037000Y-116693000D01*
X42037000Y-116713000D01*
X43179915Y-116713000D01*
X43301904Y-116490961D01*
X43261246Y-116356913D01*
X43141037Y-116102580D01*
X42973519Y-115876586D01*
X42765131Y-115687615D01*
X42579135Y-115576067D01*
X42589727Y-115571680D01*
X42824759Y-115414637D01*
X43024637Y-115214759D01*
X43181680Y-114979727D01*
X43289853Y-114718574D01*
X43345000Y-114441335D01*
X43345000Y-114158665D01*
X43289853Y-113881426D01*
X43181680Y-113620273D01*
X43024637Y-113385241D01*
X42824759Y-113185363D01*
X42592241Y-113030000D01*
X42824759Y-112874637D01*
X43024637Y-112674759D01*
X43181680Y-112439727D01*
X43289853Y-112178574D01*
X43345000Y-111901335D01*
X43345000Y-111618665D01*
X43289853Y-111341426D01*
X43181680Y-111080273D01*
X43024637Y-110845241D01*
X42824759Y-110645363D01*
X42592241Y-110490000D01*
X42824759Y-110334637D01*
X43024637Y-110134759D01*
X43181680Y-109899727D01*
X43289853Y-109638574D01*
X43345000Y-109361335D01*
X43345000Y-109078665D01*
X43344021Y-109073740D01*
X49315000Y-109073740D01*
X49315000Y-109366260D01*
X49372068Y-109653158D01*
X49484010Y-109923411D01*
X49646525Y-110166632D01*
X49853368Y-110373475D01*
X50027760Y-110490000D01*
X49853368Y-110606525D01*
X49646525Y-110813368D01*
X49484010Y-111056589D01*
X49372068Y-111326842D01*
X49315000Y-111613740D01*
X49315000Y-111906260D01*
X49372068Y-112193158D01*
X49484010Y-112463411D01*
X49646525Y-112706632D01*
X49853368Y-112913475D01*
X50027760Y-113030000D01*
X49853368Y-113146525D01*
X49646525Y-113353368D01*
X49484010Y-113596589D01*
X49372068Y-113866842D01*
X49315000Y-114153740D01*
X49315000Y-114446260D01*
X49372068Y-114733158D01*
X49484010Y-115003411D01*
X49646525Y-115246632D01*
X49853368Y-115453475D01*
X50096589Y-115615990D01*
X50366842Y-115727932D01*
X50653740Y-115785000D01*
X50946260Y-115785000D01*
X51233158Y-115727932D01*
X51503411Y-115615990D01*
X51746632Y-115453475D01*
X51953475Y-115246632D01*
X52115990Y-115003411D01*
X52227932Y-114733158D01*
X52285000Y-114446260D01*
X52285000Y-114153740D01*
X52227932Y-113866842D01*
X52115990Y-113596589D01*
X51953475Y-113353368D01*
X51746632Y-113146525D01*
X51572240Y-113030000D01*
X51746632Y-112913475D01*
X51953475Y-112706632D01*
X52115990Y-112463411D01*
X52227932Y-112193158D01*
X52285000Y-111906260D01*
X52285000Y-111613740D01*
X52227932Y-111326842D01*
X52115990Y-111056589D01*
X51953475Y-110813368D01*
X51746632Y-110606525D01*
X51572240Y-110490000D01*
X51746632Y-110373475D01*
X51953475Y-110166632D01*
X52115990Y-109923411D01*
X52227932Y-109653158D01*
X52285000Y-109366260D01*
X52285000Y-109073740D01*
X52227932Y-108786842D01*
X52115990Y-108516589D01*
X51953475Y-108273368D01*
X51746632Y-108066525D01*
X51564466Y-107944805D01*
X51681355Y-107875178D01*
X51897588Y-107680269D01*
X52071641Y-107446920D01*
X52196825Y-107184099D01*
X52241476Y-107036890D01*
X52120155Y-106807000D01*
X50927000Y-106807000D01*
X50927000Y-106827000D01*
X50673000Y-106827000D01*
X50673000Y-106807000D01*
X49479845Y-106807000D01*
X49358524Y-107036890D01*
X49403175Y-107184099D01*
X49528359Y-107446920D01*
X49702412Y-107680269D01*
X49918645Y-107875178D01*
X50035534Y-107944805D01*
X49853368Y-108066525D01*
X49646525Y-108273368D01*
X49484010Y-108516589D01*
X49372068Y-108786842D01*
X49315000Y-109073740D01*
X43344021Y-109073740D01*
X43289853Y-108801426D01*
X43181680Y-108540273D01*
X43024637Y-108305241D01*
X42824759Y-108105363D01*
X42592241Y-107950000D01*
X42824759Y-107794637D01*
X43024637Y-107594759D01*
X43181680Y-107359727D01*
X43289853Y-107098574D01*
X43345000Y-106821335D01*
X43345000Y-106538665D01*
X43289853Y-106261426D01*
X43181680Y-106000273D01*
X43024637Y-105765241D01*
X42824759Y-105565363D01*
X42592241Y-105410000D01*
X42824759Y-105254637D01*
X43024637Y-105054759D01*
X43181680Y-104819727D01*
X43289853Y-104558574D01*
X43345000Y-104281335D01*
X43345000Y-103998665D01*
X43289853Y-103721426D01*
X43181680Y-103460273D01*
X43067908Y-103290000D01*
X49311928Y-103290000D01*
X49311928Y-104990000D01*
X49324188Y-105114482D01*
X49360498Y-105234180D01*
X49419463Y-105344494D01*
X49498815Y-105441185D01*
X49595506Y-105520537D01*
X49705820Y-105579502D01*
X49786466Y-105603966D01*
X49702412Y-105679731D01*
X49528359Y-105913080D01*
X49403175Y-106175901D01*
X49358524Y-106323110D01*
X49479845Y-106553000D01*
X50673000Y-106553000D01*
X50673000Y-106533000D01*
X50927000Y-106533000D01*
X50927000Y-106553000D01*
X52120155Y-106553000D01*
X52169301Y-106459872D01*
X73330000Y-106459872D01*
X73330000Y-106900128D01*
X73415890Y-107331925D01*
X73584369Y-107738669D01*
X73828962Y-108104729D01*
X74140271Y-108416038D01*
X74506331Y-108660631D01*
X74913075Y-108829110D01*
X75344872Y-108915000D01*
X75785128Y-108915000D01*
X76216925Y-108829110D01*
X76623669Y-108660631D01*
X76989729Y-108416038D01*
X77301038Y-108104729D01*
X77545631Y-107738669D01*
X77714110Y-107331925D01*
X77800000Y-106900128D01*
X77800000Y-106459872D01*
X198425000Y-106459872D01*
X198425000Y-106900128D01*
X198510890Y-107331925D01*
X198679369Y-107738669D01*
X198923962Y-108104729D01*
X199235271Y-108416038D01*
X199601331Y-108660631D01*
X200008075Y-108829110D01*
X200439872Y-108915000D01*
X200880128Y-108915000D01*
X201311925Y-108829110D01*
X201718669Y-108660631D01*
X202084729Y-108416038D01*
X202396038Y-108104729D01*
X202640631Y-107738669D01*
X202809110Y-107331925D01*
X202895000Y-106900128D01*
X202895000Y-106459872D01*
X205410000Y-106459872D01*
X205410000Y-106900128D01*
X205495890Y-107331925D01*
X205664369Y-107738669D01*
X205908962Y-108104729D01*
X206220271Y-108416038D01*
X206586331Y-108660631D01*
X206993075Y-108829110D01*
X207424872Y-108915000D01*
X207865128Y-108915000D01*
X208296925Y-108829110D01*
X208703669Y-108660631D01*
X209069729Y-108416038D01*
X209381038Y-108104729D01*
X209625631Y-107738669D01*
X209794110Y-107331925D01*
X209880000Y-106900128D01*
X209880000Y-106459872D01*
X330505000Y-106459872D01*
X330505000Y-106900128D01*
X330590890Y-107331925D01*
X330759369Y-107738669D01*
X331003962Y-108104729D01*
X331315271Y-108416038D01*
X331681331Y-108660631D01*
X332088075Y-108829110D01*
X332519872Y-108915000D01*
X332960128Y-108915000D01*
X333391925Y-108829110D01*
X333798669Y-108660631D01*
X334164729Y-108416038D01*
X334476038Y-108104729D01*
X334720631Y-107738669D01*
X334889110Y-107331925D01*
X334975000Y-106900128D01*
X334975000Y-106459872D01*
X334889110Y-106028075D01*
X334720631Y-105621331D01*
X334476038Y-105255271D01*
X334164729Y-104943962D01*
X333798669Y-104699369D01*
X333391925Y-104530890D01*
X332960128Y-104445000D01*
X332519872Y-104445000D01*
X332088075Y-104530890D01*
X331681331Y-104699369D01*
X331315271Y-104943962D01*
X331003962Y-105255271D01*
X330759369Y-105621331D01*
X330590890Y-106028075D01*
X330505000Y-106459872D01*
X209880000Y-106459872D01*
X209794110Y-106028075D01*
X209625631Y-105621331D01*
X209381038Y-105255271D01*
X209069729Y-104943962D01*
X208703669Y-104699369D01*
X208296925Y-104530890D01*
X207865128Y-104445000D01*
X207424872Y-104445000D01*
X206993075Y-104530890D01*
X206586331Y-104699369D01*
X206220271Y-104943962D01*
X205908962Y-105255271D01*
X205664369Y-105621331D01*
X205495890Y-106028075D01*
X205410000Y-106459872D01*
X202895000Y-106459872D01*
X202809110Y-106028075D01*
X202640631Y-105621331D01*
X202396038Y-105255271D01*
X202084729Y-104943962D01*
X201718669Y-104699369D01*
X201311925Y-104530890D01*
X200880128Y-104445000D01*
X200439872Y-104445000D01*
X200008075Y-104530890D01*
X199601331Y-104699369D01*
X199235271Y-104943962D01*
X198923962Y-105255271D01*
X198679369Y-105621331D01*
X198510890Y-106028075D01*
X198425000Y-106459872D01*
X77800000Y-106459872D01*
X77714110Y-106028075D01*
X77545631Y-105621331D01*
X77301038Y-105255271D01*
X76989729Y-104943962D01*
X76623669Y-104699369D01*
X76216925Y-104530890D01*
X75785128Y-104445000D01*
X75344872Y-104445000D01*
X74913075Y-104530890D01*
X74506331Y-104699369D01*
X74140271Y-104943962D01*
X73828962Y-105255271D01*
X73584369Y-105621331D01*
X73415890Y-106028075D01*
X73330000Y-106459872D01*
X52169301Y-106459872D01*
X52241476Y-106323110D01*
X52196825Y-106175901D01*
X52071641Y-105913080D01*
X51897588Y-105679731D01*
X51813534Y-105603966D01*
X51894180Y-105579502D01*
X52004494Y-105520537D01*
X52101185Y-105441185D01*
X52180537Y-105344494D01*
X52239502Y-105234180D01*
X52275812Y-105114482D01*
X52288072Y-104990000D01*
X52288072Y-103290000D01*
X52275812Y-103165518D01*
X52239502Y-103045820D01*
X52180537Y-102935506D01*
X52101185Y-102838815D01*
X52004494Y-102759463D01*
X51894180Y-102700498D01*
X51774482Y-102664188D01*
X51650000Y-102651928D01*
X49950000Y-102651928D01*
X49825518Y-102664188D01*
X49705820Y-102700498D01*
X49595506Y-102759463D01*
X49498815Y-102838815D01*
X49419463Y-102935506D01*
X49360498Y-103045820D01*
X49324188Y-103165518D01*
X49311928Y-103290000D01*
X43067908Y-103290000D01*
X43024637Y-103225241D01*
X42824759Y-103025363D01*
X42592241Y-102870000D01*
X42824759Y-102714637D01*
X43024637Y-102514759D01*
X43181680Y-102279727D01*
X43289853Y-102018574D01*
X43345000Y-101741335D01*
X43345000Y-101458665D01*
X43289853Y-101181426D01*
X43181680Y-100920273D01*
X43024637Y-100685241D01*
X42824759Y-100485363D01*
X42592241Y-100330000D01*
X42824759Y-100174637D01*
X43024637Y-99974759D01*
X43181680Y-99739727D01*
X43289853Y-99478574D01*
X43345000Y-99201335D01*
X43345000Y-98918665D01*
X43289853Y-98641426D01*
X43181680Y-98380273D01*
X43024637Y-98145241D01*
X42824759Y-97945363D01*
X42592241Y-97790000D01*
X42824759Y-97634637D01*
X43024637Y-97434759D01*
X43181680Y-97199727D01*
X43289853Y-96938574D01*
X43345000Y-96661335D01*
X43345000Y-96378665D01*
X43289853Y-96101426D01*
X43181680Y-95840273D01*
X43024637Y-95605241D01*
X42824759Y-95405363D01*
X42592241Y-95250000D01*
X42824759Y-95094637D01*
X43024637Y-94894759D01*
X43181680Y-94659727D01*
X43289853Y-94398574D01*
X43345000Y-94121335D01*
X43345000Y-93838665D01*
X43329327Y-93759872D01*
X73330000Y-93759872D01*
X73330000Y-94200128D01*
X73415890Y-94631925D01*
X73584369Y-95038669D01*
X73828962Y-95404729D01*
X74140271Y-95716038D01*
X74506331Y-95960631D01*
X74913075Y-96129110D01*
X75344872Y-96215000D01*
X75785128Y-96215000D01*
X76216925Y-96129110D01*
X76623669Y-95960631D01*
X76989729Y-95716038D01*
X77301038Y-95404729D01*
X77545631Y-95038669D01*
X77714110Y-94631925D01*
X77800000Y-94200128D01*
X77800000Y-93759872D01*
X198425000Y-93759872D01*
X198425000Y-94200128D01*
X198510890Y-94631925D01*
X198679369Y-95038669D01*
X198923962Y-95404729D01*
X199235271Y-95716038D01*
X199601331Y-95960631D01*
X200008075Y-96129110D01*
X200439872Y-96215000D01*
X200880128Y-96215000D01*
X201311925Y-96129110D01*
X201718669Y-95960631D01*
X202084729Y-95716038D01*
X202396038Y-95404729D01*
X202640631Y-95038669D01*
X202809110Y-94631925D01*
X202895000Y-94200128D01*
X202895000Y-93759872D01*
X205410000Y-93759872D01*
X205410000Y-94200128D01*
X205495890Y-94631925D01*
X205664369Y-95038669D01*
X205908962Y-95404729D01*
X206220271Y-95716038D01*
X206586331Y-95960631D01*
X206993075Y-96129110D01*
X207424872Y-96215000D01*
X207865128Y-96215000D01*
X208296925Y-96129110D01*
X208703669Y-95960631D01*
X209069729Y-95716038D01*
X209381038Y-95404729D01*
X209625631Y-95038669D01*
X209794110Y-94631925D01*
X209880000Y-94200128D01*
X209880000Y-93759872D01*
X330505000Y-93759872D01*
X330505000Y-94200128D01*
X330590890Y-94631925D01*
X330759369Y-95038669D01*
X331003962Y-95404729D01*
X331315271Y-95716038D01*
X331681331Y-95960631D01*
X332088075Y-96129110D01*
X332519872Y-96215000D01*
X332960128Y-96215000D01*
X333391925Y-96129110D01*
X333798669Y-95960631D01*
X334164729Y-95716038D01*
X334476038Y-95404729D01*
X334720631Y-95038669D01*
X334889110Y-94631925D01*
X334975000Y-94200128D01*
X334975000Y-93759872D01*
X334889110Y-93328075D01*
X334720631Y-92921331D01*
X334476038Y-92555271D01*
X334164729Y-92243962D01*
X333798669Y-91999369D01*
X333391925Y-91830890D01*
X332960128Y-91745000D01*
X332519872Y-91745000D01*
X332088075Y-91830890D01*
X331681331Y-91999369D01*
X331315271Y-92243962D01*
X331003962Y-92555271D01*
X330759369Y-92921331D01*
X330590890Y-93328075D01*
X330505000Y-93759872D01*
X209880000Y-93759872D01*
X209794110Y-93328075D01*
X209625631Y-92921331D01*
X209381038Y-92555271D01*
X209069729Y-92243962D01*
X208703669Y-91999369D01*
X208296925Y-91830890D01*
X207865128Y-91745000D01*
X207424872Y-91745000D01*
X206993075Y-91830890D01*
X206586331Y-91999369D01*
X206220271Y-92243962D01*
X205908962Y-92555271D01*
X205664369Y-92921331D01*
X205495890Y-93328075D01*
X205410000Y-93759872D01*
X202895000Y-93759872D01*
X202809110Y-93328075D01*
X202640631Y-92921331D01*
X202396038Y-92555271D01*
X202084729Y-92243962D01*
X201718669Y-91999369D01*
X201311925Y-91830890D01*
X200880128Y-91745000D01*
X200439872Y-91745000D01*
X200008075Y-91830890D01*
X199601331Y-91999369D01*
X199235271Y-92243962D01*
X198923962Y-92555271D01*
X198679369Y-92921331D01*
X198510890Y-93328075D01*
X198425000Y-93759872D01*
X77800000Y-93759872D01*
X77714110Y-93328075D01*
X77545631Y-92921331D01*
X77301038Y-92555271D01*
X76989729Y-92243962D01*
X76623669Y-91999369D01*
X76216925Y-91830890D01*
X75785128Y-91745000D01*
X75344872Y-91745000D01*
X74913075Y-91830890D01*
X74506331Y-91999369D01*
X74140271Y-92243962D01*
X73828962Y-92555271D01*
X73584369Y-92921331D01*
X73415890Y-93328075D01*
X73330000Y-93759872D01*
X43329327Y-93759872D01*
X43289853Y-93561426D01*
X43181680Y-93300273D01*
X43024637Y-93065241D01*
X42824759Y-92865363D01*
X42592241Y-92710000D01*
X42824759Y-92554637D01*
X43024637Y-92354759D01*
X43181680Y-92119727D01*
X43289853Y-91858574D01*
X43345000Y-91581335D01*
X43345000Y-91298665D01*
X43289853Y-91021426D01*
X43181680Y-90760273D01*
X43024637Y-90525241D01*
X42824759Y-90325363D01*
X42592241Y-90170000D01*
X42824759Y-90014637D01*
X43024637Y-89814759D01*
X43181680Y-89579727D01*
X43289853Y-89318574D01*
X43345000Y-89041335D01*
X43345000Y-88758665D01*
X43289853Y-88481426D01*
X43181680Y-88220273D01*
X43024637Y-87985241D01*
X42824759Y-87785363D01*
X42589727Y-87628320D01*
X42328574Y-87520147D01*
X42051335Y-87465000D01*
X41768665Y-87465000D01*
X41491426Y-87520147D01*
X41230273Y-87628320D01*
X40995241Y-87785363D01*
X40795363Y-87985241D01*
X40638320Y-88220273D01*
X40530147Y-88481426D01*
X40475000Y-88758665D01*
X28105000Y-88758665D01*
X28049853Y-88481426D01*
X27941680Y-88220273D01*
X27784637Y-87985241D01*
X27584759Y-87785363D01*
X27349727Y-87628320D01*
X27088574Y-87520147D01*
X26811335Y-87465000D01*
X26528665Y-87465000D01*
X26251426Y-87520147D01*
X25990273Y-87628320D01*
X25755241Y-87785363D01*
X25555363Y-87985241D01*
X25398320Y-88220273D01*
X25290147Y-88481426D01*
X25235000Y-88758665D01*
X-1232382Y-88758665D01*
X-1196686Y-88672490D01*
X-1143000Y-88402592D01*
X-1143000Y-88127408D01*
X-1196686Y-87857510D01*
X-1301995Y-87603273D01*
X-1454880Y-87374465D01*
X-1649465Y-87179880D01*
X-1878273Y-87026995D01*
X-1955515Y-86995000D01*
X-1878273Y-86963005D01*
X-1649465Y-86810120D01*
X-1454880Y-86615535D01*
X-1301995Y-86386727D01*
X-1196686Y-86132490D01*
X-1143000Y-85862592D01*
X-1143000Y-85587408D01*
X-1196686Y-85317510D01*
X-1301995Y-85063273D01*
X-1454880Y-84834465D01*
X-1649465Y-84639880D01*
X-1878273Y-84486995D01*
X-1955515Y-84455000D01*
X-1878273Y-84423005D01*
X-1649465Y-84270120D01*
X-1454880Y-84075535D01*
X-1301995Y-83846727D01*
X-1230342Y-83673740D01*
X352845000Y-83673740D01*
X352845000Y-83966260D01*
X352902068Y-84253158D01*
X353014010Y-84523411D01*
X353176525Y-84766632D01*
X353383368Y-84973475D01*
X353557760Y-85090000D01*
X353383368Y-85206525D01*
X353176525Y-85413368D01*
X353014010Y-85656589D01*
X352902068Y-85926842D01*
X352845000Y-86213740D01*
X352845000Y-86506260D01*
X352902068Y-86793158D01*
X353014010Y-87063411D01*
X353176525Y-87306632D01*
X353383368Y-87513475D01*
X353557760Y-87630000D01*
X353383368Y-87746525D01*
X353176525Y-87953368D01*
X353014010Y-88196589D01*
X352902068Y-88466842D01*
X352845000Y-88753740D01*
X352845000Y-89046260D01*
X352902068Y-89333158D01*
X353014010Y-89603411D01*
X353176525Y-89846632D01*
X353383368Y-90053475D01*
X353626589Y-90215990D01*
X353896842Y-90327932D01*
X354183740Y-90385000D01*
X354476260Y-90385000D01*
X354763158Y-90327932D01*
X355033411Y-90215990D01*
X355276632Y-90053475D01*
X355483475Y-89846632D01*
X355645990Y-89603411D01*
X355757932Y-89333158D01*
X355815000Y-89046260D01*
X355815000Y-88753740D01*
X355757932Y-88466842D01*
X355645990Y-88196589D01*
X355483475Y-87953368D01*
X355276632Y-87746525D01*
X355102240Y-87630000D01*
X355276632Y-87513475D01*
X355483475Y-87306632D01*
X355645990Y-87063411D01*
X355757932Y-86793158D01*
X355815000Y-86506260D01*
X355815000Y-86213740D01*
X355757932Y-85926842D01*
X355645990Y-85656589D01*
X355483475Y-85413368D01*
X355276632Y-85206525D01*
X355102240Y-85090000D01*
X355276632Y-84973475D01*
X355483475Y-84766632D01*
X355645990Y-84523411D01*
X355757932Y-84253158D01*
X355815000Y-83966260D01*
X355815000Y-83673740D01*
X355757932Y-83386842D01*
X355645990Y-83116589D01*
X355483475Y-82873368D01*
X355276632Y-82666525D01*
X355094466Y-82544805D01*
X355211355Y-82475178D01*
X355427588Y-82280269D01*
X355601641Y-82046920D01*
X355726825Y-81784099D01*
X355771476Y-81636890D01*
X355650155Y-81407000D01*
X354457000Y-81407000D01*
X354457000Y-81427000D01*
X354203000Y-81427000D01*
X354203000Y-81407000D01*
X353009845Y-81407000D01*
X352888524Y-81636890D01*
X352933175Y-81784099D01*
X353058359Y-82046920D01*
X353232412Y-82280269D01*
X353448645Y-82475178D01*
X353565534Y-82544805D01*
X353383368Y-82666525D01*
X353176525Y-82873368D01*
X353014010Y-83116589D01*
X352902068Y-83386842D01*
X352845000Y-83673740D01*
X-1230342Y-83673740D01*
X-1196686Y-83592490D01*
X-1143000Y-83322592D01*
X-1143000Y-83047408D01*
X-1196686Y-82777510D01*
X-1301995Y-82523273D01*
X-1454880Y-82294465D01*
X-1649465Y-82099880D01*
X-1878273Y-81946995D01*
X-1955515Y-81915000D01*
X-1878273Y-81883005D01*
X-1649465Y-81730120D01*
X-1454880Y-81535535D01*
X-1301995Y-81306727D01*
X-1196686Y-81052490D01*
X-1143000Y-80782592D01*
X-1143000Y-80507408D01*
X-1196686Y-80237510D01*
X-1301995Y-79983273D01*
X-1454880Y-79754465D01*
X-1649465Y-79559880D01*
X-1878273Y-79406995D01*
X-2132510Y-79301686D01*
X-2402408Y-79248000D01*
X-2677592Y-79248000D01*
X-2947490Y-79301686D01*
X-3201727Y-79406995D01*
X-3430535Y-79559880D01*
X-3625120Y-79754465D01*
X-3778005Y-79983273D01*
X-3883314Y-80237510D01*
X-3937000Y-80507408D01*
X-29083000Y-80507408D01*
X-29136686Y-80237510D01*
X-29241995Y-79983273D01*
X-29394880Y-79754465D01*
X-29589465Y-79559880D01*
X-29818273Y-79406995D01*
X-30072510Y-79301686D01*
X-30342408Y-79248000D01*
X-30617592Y-79248000D01*
X-30887490Y-79301686D01*
X-31141727Y-79406995D01*
X-31370535Y-79559880D01*
X-31565120Y-79754465D01*
X-31718005Y-79983273D01*
X-31823314Y-80237510D01*
X-31877000Y-80507408D01*
X-40513000Y-80507408D01*
X-40513000Y-70899872D01*
X-37795000Y-70899872D01*
X-37795000Y-71340128D01*
X-37709110Y-71771925D01*
X-37540631Y-72178669D01*
X-37296038Y-72544729D01*
X-36984729Y-72856038D01*
X-36618669Y-73100631D01*
X-36211925Y-73269110D01*
X-35780128Y-73355000D01*
X-35339872Y-73355000D01*
X-34908075Y-73269110D01*
X-34501331Y-73100631D01*
X-34135271Y-72856038D01*
X-33823962Y-72544729D01*
X-33579369Y-72178669D01*
X-33410890Y-71771925D01*
X-33364758Y-71540000D01*
X1051928Y-71540000D01*
X1051928Y-73240000D01*
X1064188Y-73364482D01*
X1100498Y-73484180D01*
X1159463Y-73594494D01*
X1238815Y-73691185D01*
X1335506Y-73770537D01*
X1445820Y-73829502D01*
X1565518Y-73865812D01*
X1690000Y-73878072D01*
X3390000Y-73878072D01*
X3514482Y-73865812D01*
X3634180Y-73829502D01*
X3744494Y-73770537D01*
X3841185Y-73691185D01*
X3920537Y-73594494D01*
X3979502Y-73484180D01*
X4003966Y-73403534D01*
X4079731Y-73487588D01*
X4313080Y-73661641D01*
X4575901Y-73786825D01*
X4723110Y-73831476D01*
X4953000Y-73710155D01*
X4953000Y-72517000D01*
X5207000Y-72517000D01*
X5207000Y-73710155D01*
X5436890Y-73831476D01*
X5584099Y-73786825D01*
X5797672Y-73685098D01*
X10505000Y-73685098D01*
X10505000Y-74154902D01*
X10596654Y-74615679D01*
X10776440Y-75049721D01*
X11037450Y-75440349D01*
X11369651Y-75772550D01*
X11760279Y-76033560D01*
X12194321Y-76213346D01*
X12655098Y-76305000D01*
X13124902Y-76305000D01*
X13585679Y-76213346D01*
X14019721Y-76033560D01*
X14410349Y-75772550D01*
X14742550Y-75440349D01*
X15003560Y-75049721D01*
X15183346Y-74615679D01*
X15275000Y-74154902D01*
X15275000Y-73685098D01*
X15240915Y-73513740D01*
X49315000Y-73513740D01*
X49315000Y-73806260D01*
X49372068Y-74093158D01*
X49484010Y-74363411D01*
X49646525Y-74606632D01*
X49853368Y-74813475D01*
X50027760Y-74930000D01*
X49853368Y-75046525D01*
X49646525Y-75253368D01*
X49484010Y-75496589D01*
X49372068Y-75766842D01*
X49315000Y-76053740D01*
X49315000Y-76346260D01*
X49372068Y-76633158D01*
X49484010Y-76903411D01*
X49646525Y-77146632D01*
X49853368Y-77353475D01*
X50027760Y-77470000D01*
X49853368Y-77586525D01*
X49646525Y-77793368D01*
X49484010Y-78036589D01*
X49372068Y-78306842D01*
X49315000Y-78593740D01*
X49315000Y-78886260D01*
X49372068Y-79173158D01*
X49484010Y-79443411D01*
X49646525Y-79686632D01*
X49853368Y-79893475D01*
X50096589Y-80055990D01*
X50366842Y-80167932D01*
X50653740Y-80225000D01*
X50946260Y-80225000D01*
X51233158Y-80167932D01*
X51503411Y-80055990D01*
X51746632Y-79893475D01*
X51953475Y-79686632D01*
X52115990Y-79443411D01*
X52227932Y-79173158D01*
X52285000Y-78886260D01*
X52285000Y-78593740D01*
X52227932Y-78306842D01*
X52115990Y-78036589D01*
X52018043Y-77890000D01*
X352841928Y-77890000D01*
X352841928Y-79590000D01*
X352854188Y-79714482D01*
X352890498Y-79834180D01*
X352949463Y-79944494D01*
X353028815Y-80041185D01*
X353125506Y-80120537D01*
X353235820Y-80179502D01*
X353316466Y-80203966D01*
X353232412Y-80279731D01*
X353058359Y-80513080D01*
X352933175Y-80775901D01*
X352888524Y-80923110D01*
X353009845Y-81153000D01*
X354203000Y-81153000D01*
X354203000Y-81133000D01*
X354457000Y-81133000D01*
X354457000Y-81153000D01*
X355650155Y-81153000D01*
X355771476Y-80923110D01*
X355726825Y-80775901D01*
X355601641Y-80513080D01*
X355427588Y-80279731D01*
X355343534Y-80203966D01*
X355424180Y-80179502D01*
X355534494Y-80120537D01*
X355631185Y-80041185D01*
X355710537Y-79944494D01*
X355769502Y-79834180D01*
X355805812Y-79714482D01*
X355818072Y-79590000D01*
X355818072Y-77890000D01*
X355805812Y-77765518D01*
X355769502Y-77645820D01*
X355710537Y-77535506D01*
X355631185Y-77438815D01*
X355534494Y-77359463D01*
X355424180Y-77300498D01*
X355304482Y-77264188D01*
X355180000Y-77251928D01*
X353480000Y-77251928D01*
X353355518Y-77264188D01*
X353235820Y-77300498D01*
X353125506Y-77359463D01*
X353028815Y-77438815D01*
X352949463Y-77535506D01*
X352890498Y-77645820D01*
X352854188Y-77765518D01*
X352841928Y-77890000D01*
X52018043Y-77890000D01*
X51953475Y-77793368D01*
X51746632Y-77586525D01*
X51572240Y-77470000D01*
X51746632Y-77353475D01*
X51953475Y-77146632D01*
X52115990Y-76903411D01*
X52227932Y-76633158D01*
X52285000Y-76346260D01*
X52285000Y-76053740D01*
X52227932Y-75766842D01*
X52115990Y-75496589D01*
X51953475Y-75253368D01*
X51746632Y-75046525D01*
X51572240Y-74930000D01*
X51746632Y-74813475D01*
X51953475Y-74606632D01*
X52115990Y-74363411D01*
X52227932Y-74093158D01*
X52285000Y-73806260D01*
X52285000Y-73513740D01*
X52227932Y-73226842D01*
X52115990Y-72956589D01*
X51953475Y-72713368D01*
X51746632Y-72506525D01*
X51564466Y-72384805D01*
X51681355Y-72315178D01*
X51842558Y-72169872D01*
X73330000Y-72169872D01*
X73330000Y-72610128D01*
X73415890Y-73041925D01*
X73584369Y-73448669D01*
X73828962Y-73814729D01*
X74140271Y-74126038D01*
X74506331Y-74370631D01*
X74913075Y-74539110D01*
X75344872Y-74625000D01*
X75785128Y-74625000D01*
X76216925Y-74539110D01*
X76623669Y-74370631D01*
X76989729Y-74126038D01*
X77301038Y-73814729D01*
X77545631Y-73448669D01*
X77714110Y-73041925D01*
X77800000Y-72610128D01*
X77800000Y-72169872D01*
X198425000Y-72169872D01*
X198425000Y-72610128D01*
X198510890Y-73041925D01*
X198679369Y-73448669D01*
X198923962Y-73814729D01*
X199235271Y-74126038D01*
X199601331Y-74370631D01*
X200008075Y-74539110D01*
X200439872Y-74625000D01*
X200880128Y-74625000D01*
X201311925Y-74539110D01*
X201718669Y-74370631D01*
X202084729Y-74126038D01*
X202396038Y-73814729D01*
X202640631Y-73448669D01*
X202809110Y-73041925D01*
X202895000Y-72610128D01*
X202895000Y-72169872D01*
X205410000Y-72169872D01*
X205410000Y-72610128D01*
X205495890Y-73041925D01*
X205664369Y-73448669D01*
X205908962Y-73814729D01*
X206220271Y-74126038D01*
X206586331Y-74370631D01*
X206993075Y-74539110D01*
X207424872Y-74625000D01*
X207865128Y-74625000D01*
X208296925Y-74539110D01*
X208703669Y-74370631D01*
X209069729Y-74126038D01*
X209381038Y-73814729D01*
X209625631Y-73448669D01*
X209794110Y-73041925D01*
X209880000Y-72610128D01*
X209880000Y-72169872D01*
X330505000Y-72169872D01*
X330505000Y-72610128D01*
X330590890Y-73041925D01*
X330759369Y-73448669D01*
X331003962Y-73814729D01*
X331315271Y-74126038D01*
X331681331Y-74370631D01*
X332088075Y-74539110D01*
X332519872Y-74625000D01*
X332960128Y-74625000D01*
X333391925Y-74539110D01*
X333798669Y-74370631D01*
X334164729Y-74126038D01*
X334476038Y-73814729D01*
X334720631Y-73448669D01*
X334889110Y-73041925D01*
X334975000Y-72610128D01*
X334975000Y-72169872D01*
X334889110Y-71738075D01*
X334720631Y-71331331D01*
X334476038Y-70965271D01*
X334410639Y-70899872D01*
X350825000Y-70899872D01*
X350825000Y-71340128D01*
X350910890Y-71771925D01*
X351079369Y-72178669D01*
X351323962Y-72544729D01*
X351635271Y-72856038D01*
X352001331Y-73100631D01*
X352408075Y-73269110D01*
X352839872Y-73355000D01*
X353280128Y-73355000D01*
X353711925Y-73269110D01*
X354118669Y-73100631D01*
X354484729Y-72856038D01*
X354796038Y-72544729D01*
X355040631Y-72178669D01*
X355209110Y-71771925D01*
X355295000Y-71340128D01*
X355295000Y-70899872D01*
X355209110Y-70468075D01*
X355040631Y-70061331D01*
X354796038Y-69695271D01*
X354484729Y-69383962D01*
X354118669Y-69139369D01*
X353711925Y-68970890D01*
X353280128Y-68885000D01*
X352839872Y-68885000D01*
X352408075Y-68970890D01*
X352001331Y-69139369D01*
X351635271Y-69383962D01*
X351323962Y-69695271D01*
X351079369Y-70061331D01*
X350910890Y-70468075D01*
X350825000Y-70899872D01*
X334410639Y-70899872D01*
X334164729Y-70653962D01*
X333798669Y-70409369D01*
X333391925Y-70240890D01*
X332960128Y-70155000D01*
X332519872Y-70155000D01*
X332088075Y-70240890D01*
X331681331Y-70409369D01*
X331315271Y-70653962D01*
X331003962Y-70965271D01*
X330759369Y-71331331D01*
X330590890Y-71738075D01*
X330505000Y-72169872D01*
X209880000Y-72169872D01*
X209794110Y-71738075D01*
X209625631Y-71331331D01*
X209381038Y-70965271D01*
X209069729Y-70653962D01*
X208703669Y-70409369D01*
X208296925Y-70240890D01*
X207865128Y-70155000D01*
X207424872Y-70155000D01*
X206993075Y-70240890D01*
X206586331Y-70409369D01*
X206220271Y-70653962D01*
X205908962Y-70965271D01*
X205664369Y-71331331D01*
X205495890Y-71738075D01*
X205410000Y-72169872D01*
X202895000Y-72169872D01*
X202809110Y-71738075D01*
X202640631Y-71331331D01*
X202396038Y-70965271D01*
X202084729Y-70653962D01*
X201718669Y-70409369D01*
X201311925Y-70240890D01*
X200880128Y-70155000D01*
X200439872Y-70155000D01*
X200008075Y-70240890D01*
X199601331Y-70409369D01*
X199235271Y-70653962D01*
X198923962Y-70965271D01*
X198679369Y-71331331D01*
X198510890Y-71738075D01*
X198425000Y-72169872D01*
X77800000Y-72169872D01*
X77714110Y-71738075D01*
X77545631Y-71331331D01*
X77301038Y-70965271D01*
X76989729Y-70653962D01*
X76623669Y-70409369D01*
X76216925Y-70240890D01*
X75785128Y-70155000D01*
X75344872Y-70155000D01*
X74913075Y-70240890D01*
X74506331Y-70409369D01*
X74140271Y-70653962D01*
X73828962Y-70965271D01*
X73584369Y-71331331D01*
X73415890Y-71738075D01*
X73330000Y-72169872D01*
X51842558Y-72169872D01*
X51897588Y-72120269D01*
X52071641Y-71886920D01*
X52196825Y-71624099D01*
X52241476Y-71476890D01*
X52120155Y-71247000D01*
X50927000Y-71247000D01*
X50927000Y-71267000D01*
X50673000Y-71267000D01*
X50673000Y-71247000D01*
X49479845Y-71247000D01*
X49358524Y-71476890D01*
X49403175Y-71624099D01*
X49528359Y-71886920D01*
X49702412Y-72120269D01*
X49918645Y-72315178D01*
X50035534Y-72384805D01*
X49853368Y-72506525D01*
X49646525Y-72713368D01*
X49484010Y-72956589D01*
X49372068Y-73226842D01*
X49315000Y-73513740D01*
X15240915Y-73513740D01*
X15183346Y-73224321D01*
X15003560Y-72790279D01*
X14742550Y-72399651D01*
X14410349Y-72067450D01*
X14019721Y-71806440D01*
X13585679Y-71626654D01*
X13124902Y-71535000D01*
X12655098Y-71535000D01*
X12194321Y-71626654D01*
X11760279Y-71806440D01*
X11369651Y-72067450D01*
X11037450Y-72399651D01*
X10776440Y-72790279D01*
X10596654Y-73224321D01*
X10505000Y-73685098D01*
X5797672Y-73685098D01*
X5846920Y-73661641D01*
X6080269Y-73487588D01*
X6275178Y-73271355D01*
X6424157Y-73021252D01*
X6521481Y-72746891D01*
X6400814Y-72517000D01*
X5207000Y-72517000D01*
X4953000Y-72517000D01*
X4933000Y-72517000D01*
X4933000Y-72263000D01*
X4953000Y-72263000D01*
X4953000Y-71069845D01*
X5207000Y-71069845D01*
X5207000Y-72263000D01*
X6400814Y-72263000D01*
X6521481Y-72033109D01*
X6424157Y-71758748D01*
X6275178Y-71508645D01*
X6080269Y-71292412D01*
X5846920Y-71118359D01*
X5584099Y-70993175D01*
X5436890Y-70948524D01*
X5207000Y-71069845D01*
X4953000Y-71069845D01*
X4723110Y-70948524D01*
X4575901Y-70993175D01*
X4313080Y-71118359D01*
X4079731Y-71292412D01*
X4003966Y-71376466D01*
X3979502Y-71295820D01*
X3920537Y-71185506D01*
X3841185Y-71088815D01*
X3744494Y-71009463D01*
X3634180Y-70950498D01*
X3514482Y-70914188D01*
X3390000Y-70901928D01*
X1690000Y-70901928D01*
X1565518Y-70914188D01*
X1445820Y-70950498D01*
X1335506Y-71009463D01*
X1238815Y-71088815D01*
X1159463Y-71185506D01*
X1100498Y-71295820D01*
X1064188Y-71415518D01*
X1051928Y-71540000D01*
X-33364758Y-71540000D01*
X-33325000Y-71340128D01*
X-33325000Y-70899872D01*
X-33410890Y-70468075D01*
X-33579369Y-70061331D01*
X-33823962Y-69695271D01*
X-34135271Y-69383962D01*
X-34501331Y-69139369D01*
X-34908075Y-68970890D01*
X-35339872Y-68885000D01*
X-35780128Y-68885000D01*
X-36211925Y-68970890D01*
X-36618669Y-69139369D01*
X-36984729Y-69383962D01*
X-37296038Y-69695271D01*
X-37540631Y-70061331D01*
X-37709110Y-70468075D01*
X-37795000Y-70899872D01*
X-40513000Y-70899872D01*
X-40513000Y-67730000D01*
X49311928Y-67730000D01*
X49311928Y-69430000D01*
X49324188Y-69554482D01*
X49360498Y-69674180D01*
X49419463Y-69784494D01*
X49498815Y-69881185D01*
X49595506Y-69960537D01*
X49705820Y-70019502D01*
X49786466Y-70043966D01*
X49702412Y-70119731D01*
X49528359Y-70353080D01*
X49403175Y-70615901D01*
X49358524Y-70763110D01*
X49479845Y-70993000D01*
X50673000Y-70993000D01*
X50673000Y-70973000D01*
X50927000Y-70973000D01*
X50927000Y-70993000D01*
X52120155Y-70993000D01*
X52241476Y-70763110D01*
X52196825Y-70615901D01*
X52071641Y-70353080D01*
X51897588Y-70119731D01*
X51813534Y-70043966D01*
X51894180Y-70019502D01*
X52004494Y-69960537D01*
X52101185Y-69881185D01*
X52180537Y-69784494D01*
X52239502Y-69674180D01*
X52275812Y-69554482D01*
X52288072Y-69430000D01*
X52288072Y-67730000D01*
X52275812Y-67605518D01*
X52239502Y-67485820D01*
X52180537Y-67375506D01*
X52101185Y-67278815D01*
X52004494Y-67199463D01*
X51894180Y-67140498D01*
X51774482Y-67104188D01*
X51650000Y-67091928D01*
X49950000Y-67091928D01*
X49825518Y-67104188D01*
X49705820Y-67140498D01*
X49595506Y-67199463D01*
X49498815Y-67278815D01*
X49419463Y-67375506D01*
X49360498Y-67485820D01*
X49324188Y-67605518D01*
X49311928Y-67730000D01*
X-40513000Y-67730000D01*
X-40513000Y-66167000D01*
X358013000Y-66167000D01*
X358013000Y-135763000D01*
M02*
