M48
; DRILL file {KiCad (5.1.5)-3} date 10/07/2020 12:58:58
; FORMAT={-:-/ absolute / inch / decimal}
; #@! TF.CreationDate,2020-07-10T12:58:58+02:00
; #@! TF.GenerationSoftware,Kicad,Pcbnew,(5.1.5)-3
FMAT,2
INCH
T1C0.0276
T2C0.0295
T3C0.0300
T4C0.0315
T5C0.0394
T6C0.0433
T7C0.1260
T8C0.1378
%
G90
G05
T1
X0.25Y-4.05
X0.5Y-4.15
T2
X0.65Y-4.9
X0.7Y-4.9
X0.75Y-4.9
X0.2Y-4.9
X0.25Y-4.9
X0.3Y-4.9
T3
X-1.2Y-3.175
X-1.2Y-3.275
X-1.2Y-3.375
X-1.2Y-3.475
X-1.2Y-3.575
X-1.2Y-3.675
X-1.2Y-3.775
X-1.2Y-3.875
X-1.2Y-3.975
X-1.2Y-4.075
X-1.2Y-4.175
X-1.2Y-4.275
X-1.2Y-4.375
X-1.2Y-4.475
X-1.2Y-4.575
X-0.1Y-3.175
X-0.1Y-3.275
X-0.1Y-3.375
X-0.1Y-3.475
X-0.1Y-3.575
X-0.1Y-3.675
X-0.1Y-3.775
X-0.1Y-3.875
X-0.1Y-3.975
X-0.1Y-4.075
X-0.1Y-4.175
X-0.1Y-4.275
X-0.1Y-4.375
X-0.1Y-4.475
X-0.1Y-4.575
T4
X0.2516Y-3.85
X0.35Y-3.85
X0.8Y-4.35
X0.8Y-4.65
X0.35Y-4.35
X0.35Y-4.65
X1.05Y-3.5
X1.05Y-3.6
X1.05Y-3.7
X1.05Y-3.8
X1.05Y-3.9
X1.05Y-4.0
X1.05Y-4.1
X1.05Y-4.2
X1.05Y-4.3
X1.05Y-4.4
X1.05Y-4.5
X1.05Y-4.6
X1.05Y-4.7
X1.05Y-4.8
X1.05Y-4.9
X1.65Y-3.5
X1.65Y-3.6
X1.65Y-3.7
X1.65Y-3.8
X1.65Y-3.9
X1.65Y-4.0
X1.65Y-4.1
X1.65Y-4.2
X1.65Y-4.3
X1.65Y-4.4
X1.65Y-4.5
X1.65Y-4.6
X1.65Y-4.7
X1.65Y-4.8
X1.65Y-4.9
X0.15Y-4.35
X0.15Y-4.65
X0.65Y-3.85
X0.7484Y-3.85
X0.6Y-4.35
X0.6Y-4.65
T5
X0.1Y-2.85
X0.2Y-2.85
X2.0Y-4.1
X2.0Y-4.2
X2.0Y-4.3
X2.0Y-4.4
X2.0Y-4.5
X2.0Y-2.7
X2.0Y-2.8
X2.0Y-2.9
X2.0Y-3.0
X2.0Y-3.1
X13.95Y-3.1
X13.95Y-3.2
X13.95Y-3.3
X13.95Y-3.4
X13.95Y-3.5
T6
X0.4075Y-3.5661
X0.5075Y-3.5661
X0.6075Y-3.5661
T7
X13.9Y-2.8
X7.9Y-2.85
X13.9Y-5.15
X7.9Y-4.2
X8.175Y-4.2
X2.975Y-4.2
X8.175Y-5.05
X13.1Y-3.7
X-1.4Y-5.15
X13.1Y-5.05
X7.9Y-5.05
X13.1Y-2.85
X13.1Y-4.2
X7.9Y-3.7
X8.175Y-3.7
X2.975Y-2.85
X-1.4Y-2.8
X2.975Y-3.7
X8.175Y-2.85
X2.975Y-5.05
T8
X0.5075Y-2.9102
T0
M30
