G04 #@! TF.GenerationSoftware,KiCad,Pcbnew,(5.1.5)-3*
G04 #@! TF.CreationDate,2020-07-10T12:59:04+02:00*
G04 #@! TF.ProjectId,twitchdisplay,74776974-6368-4646-9973-706c61792e6b,rev?*
G04 #@! TF.SameCoordinates,Original*
G04 #@! TF.FileFunction,Soldermask,Bot*
G04 #@! TF.FilePolarity,Negative*
%FSLAX46Y46*%
G04 Gerber Fmt 4.6, Leading zero omitted, Abs format (unit mm)*
G04 Created by KiCad (PCBNEW (5.1.5)-3) date 2020-07-10 12:59:04*
%MOMM*%
%LPD*%
G04 APERTURE LIST*
%ADD10C,0.100000*%
G04 APERTURE END LIST*
D10*
G36*
X353435256Y-129201298D02*
G01*
X353541579Y-129222447D01*
X353842042Y-129346903D01*
X354112451Y-129527585D01*
X354342415Y-129757549D01*
X354523097Y-130027958D01*
X354647553Y-130328421D01*
X354711000Y-130647391D01*
X354711000Y-130972609D01*
X354647553Y-131291579D01*
X354523097Y-131592042D01*
X354342415Y-131862451D01*
X354112451Y-132092415D01*
X353842042Y-132273097D01*
X353541579Y-132397553D01*
X353435256Y-132418702D01*
X353222611Y-132461000D01*
X352897389Y-132461000D01*
X352684744Y-132418702D01*
X352578421Y-132397553D01*
X352277958Y-132273097D01*
X352007549Y-132092415D01*
X351777585Y-131862451D01*
X351596903Y-131592042D01*
X351472447Y-131291579D01*
X351409000Y-130972609D01*
X351409000Y-130647391D01*
X351472447Y-130328421D01*
X351596903Y-130027958D01*
X351777585Y-129757549D01*
X352007549Y-129527585D01*
X352277958Y-129346903D01*
X352578421Y-129222447D01*
X352684744Y-129201298D01*
X352897389Y-129159000D01*
X353222611Y-129159000D01*
X353435256Y-129201298D01*
G37*
G36*
X-35184744Y-129201298D02*
G01*
X-35078421Y-129222447D01*
X-34777958Y-129346903D01*
X-34507549Y-129527585D01*
X-34277585Y-129757549D01*
X-34096903Y-130027958D01*
X-33972447Y-130328421D01*
X-33909000Y-130647391D01*
X-33909000Y-130972609D01*
X-33972447Y-131291579D01*
X-34096903Y-131592042D01*
X-34277585Y-131862451D01*
X-34507549Y-132092415D01*
X-34777958Y-132273097D01*
X-35078421Y-132397553D01*
X-35184744Y-132418702D01*
X-35397389Y-132461000D01*
X-35722611Y-132461000D01*
X-35935256Y-132418702D01*
X-36041579Y-132397553D01*
X-36342042Y-132273097D01*
X-36612451Y-132092415D01*
X-36842415Y-131862451D01*
X-37023097Y-131592042D01*
X-37147553Y-131291579D01*
X-37211000Y-130972609D01*
X-37211000Y-130647391D01*
X-37147553Y-130328421D01*
X-37023097Y-130027958D01*
X-36842415Y-129757549D01*
X-36612451Y-129527585D01*
X-36342042Y-129346903D01*
X-36041579Y-129222447D01*
X-35935256Y-129201298D01*
X-35722611Y-129159000D01*
X-35397389Y-129159000D01*
X-35184744Y-129201298D01*
G37*
G36*
X208020256Y-126661298D02*
G01*
X208126579Y-126682447D01*
X208427042Y-126806903D01*
X208697451Y-126987585D01*
X208927415Y-127217549D01*
X209108097Y-127487958D01*
X209232553Y-127788421D01*
X209296000Y-128107391D01*
X209296000Y-128432609D01*
X209232553Y-128751579D01*
X209108097Y-129052042D01*
X208927415Y-129322451D01*
X208697451Y-129552415D01*
X208427042Y-129733097D01*
X208126579Y-129857553D01*
X208020256Y-129878702D01*
X207807611Y-129921000D01*
X207482389Y-129921000D01*
X207269744Y-129878702D01*
X207163421Y-129857553D01*
X206862958Y-129733097D01*
X206592549Y-129552415D01*
X206362585Y-129322451D01*
X206181903Y-129052042D01*
X206057447Y-128751579D01*
X205994000Y-128432609D01*
X205994000Y-128107391D01*
X206057447Y-127788421D01*
X206181903Y-127487958D01*
X206362585Y-127217549D01*
X206592549Y-126987585D01*
X206862958Y-126806903D01*
X207163421Y-126682447D01*
X207269744Y-126661298D01*
X207482389Y-126619000D01*
X207807611Y-126619000D01*
X208020256Y-126661298D01*
G37*
G36*
X333115256Y-126661298D02*
G01*
X333221579Y-126682447D01*
X333522042Y-126806903D01*
X333792451Y-126987585D01*
X334022415Y-127217549D01*
X334203097Y-127487958D01*
X334327553Y-127788421D01*
X334391000Y-128107391D01*
X334391000Y-128432609D01*
X334327553Y-128751579D01*
X334203097Y-129052042D01*
X334022415Y-129322451D01*
X333792451Y-129552415D01*
X333522042Y-129733097D01*
X333221579Y-129857553D01*
X333115256Y-129878702D01*
X332902611Y-129921000D01*
X332577389Y-129921000D01*
X332364744Y-129878702D01*
X332258421Y-129857553D01*
X331957958Y-129733097D01*
X331687549Y-129552415D01*
X331457585Y-129322451D01*
X331276903Y-129052042D01*
X331152447Y-128751579D01*
X331089000Y-128432609D01*
X331089000Y-128107391D01*
X331152447Y-127788421D01*
X331276903Y-127487958D01*
X331457585Y-127217549D01*
X331687549Y-126987585D01*
X331957958Y-126806903D01*
X332258421Y-126682447D01*
X332364744Y-126661298D01*
X332577389Y-126619000D01*
X332902611Y-126619000D01*
X333115256Y-126661298D01*
G37*
G36*
X75940256Y-126661298D02*
G01*
X76046579Y-126682447D01*
X76347042Y-126806903D01*
X76617451Y-126987585D01*
X76847415Y-127217549D01*
X77028097Y-127487958D01*
X77152553Y-127788421D01*
X77216000Y-128107391D01*
X77216000Y-128432609D01*
X77152553Y-128751579D01*
X77028097Y-129052042D01*
X76847415Y-129322451D01*
X76617451Y-129552415D01*
X76347042Y-129733097D01*
X76046579Y-129857553D01*
X75940256Y-129878702D01*
X75727611Y-129921000D01*
X75402389Y-129921000D01*
X75189744Y-129878702D01*
X75083421Y-129857553D01*
X74782958Y-129733097D01*
X74512549Y-129552415D01*
X74282585Y-129322451D01*
X74101903Y-129052042D01*
X73977447Y-128751579D01*
X73914000Y-128432609D01*
X73914000Y-128107391D01*
X73977447Y-127788421D01*
X74101903Y-127487958D01*
X74282585Y-127217549D01*
X74512549Y-126987585D01*
X74782958Y-126806903D01*
X75083421Y-126682447D01*
X75189744Y-126661298D01*
X75402389Y-126619000D01*
X75727611Y-126619000D01*
X75940256Y-126661298D01*
G37*
G36*
X201035256Y-126661298D02*
G01*
X201141579Y-126682447D01*
X201442042Y-126806903D01*
X201712451Y-126987585D01*
X201942415Y-127217549D01*
X202123097Y-127487958D01*
X202247553Y-127788421D01*
X202311000Y-128107391D01*
X202311000Y-128432609D01*
X202247553Y-128751579D01*
X202123097Y-129052042D01*
X201942415Y-129322451D01*
X201712451Y-129552415D01*
X201442042Y-129733097D01*
X201141579Y-129857553D01*
X201035256Y-129878702D01*
X200822611Y-129921000D01*
X200497389Y-129921000D01*
X200284744Y-129878702D01*
X200178421Y-129857553D01*
X199877958Y-129733097D01*
X199607549Y-129552415D01*
X199377585Y-129322451D01*
X199196903Y-129052042D01*
X199072447Y-128751579D01*
X199009000Y-128432609D01*
X199009000Y-128107391D01*
X199072447Y-127788421D01*
X199196903Y-127487958D01*
X199377585Y-127217549D01*
X199607549Y-126987585D01*
X199877958Y-126806903D01*
X200178421Y-126682447D01*
X200284744Y-126661298D01*
X200497389Y-126619000D01*
X200822611Y-126619000D01*
X201035256Y-126661298D01*
G37*
G36*
X42761000Y-125311000D02*
G01*
X41059000Y-125311000D01*
X41059000Y-123609000D01*
X42761000Y-123609000D01*
X42761000Y-125311000D01*
G37*
G36*
X26918228Y-123641703D02*
G01*
X27073100Y-123705853D01*
X27212481Y-123798985D01*
X27331015Y-123917519D01*
X27424147Y-124056900D01*
X27488297Y-124211772D01*
X27521000Y-124376184D01*
X27521000Y-124543816D01*
X27488297Y-124708228D01*
X27424147Y-124863100D01*
X27331015Y-125002481D01*
X27212481Y-125121015D01*
X27073100Y-125214147D01*
X26918228Y-125278297D01*
X26753816Y-125311000D01*
X26586184Y-125311000D01*
X26421772Y-125278297D01*
X26266900Y-125214147D01*
X26127519Y-125121015D01*
X26008985Y-125002481D01*
X25915853Y-124863100D01*
X25851703Y-124708228D01*
X25819000Y-124543816D01*
X25819000Y-124376184D01*
X25851703Y-124211772D01*
X25915853Y-124056900D01*
X26008985Y-123917519D01*
X26127519Y-123798985D01*
X26266900Y-123705853D01*
X26421772Y-123641703D01*
X26586184Y-123609000D01*
X26753816Y-123609000D01*
X26918228Y-123641703D01*
G37*
G36*
X17892916Y-123667334D02*
G01*
X18001492Y-123700271D01*
X18001495Y-123700272D01*
X18037601Y-123719571D01*
X18101557Y-123753756D01*
X18189264Y-123825736D01*
X18252383Y-123902646D01*
X18269702Y-123919965D01*
X18290077Y-123933579D01*
X18312716Y-123942957D01*
X18336749Y-123947737D01*
X18361253Y-123947737D01*
X18385286Y-123942957D01*
X18407925Y-123933579D01*
X18428299Y-123919966D01*
X18445626Y-123902639D01*
X18459240Y-123882264D01*
X18468618Y-123859625D01*
X18473398Y-123835592D01*
X18474000Y-123823340D01*
X18474000Y-123659000D01*
X19626000Y-123659000D01*
X19626000Y-125261000D01*
X18474000Y-125261000D01*
X18474000Y-125096660D01*
X18471598Y-125072274D01*
X18464485Y-125048825D01*
X18452934Y-125027214D01*
X18437389Y-125008272D01*
X18418447Y-124992727D01*
X18396836Y-124981176D01*
X18373387Y-124974063D01*
X18349001Y-124971661D01*
X18324615Y-124974063D01*
X18301166Y-124981176D01*
X18279555Y-124992727D01*
X18252381Y-125017356D01*
X18189264Y-125094264D01*
X18101556Y-125166244D01*
X18037600Y-125200429D01*
X18001494Y-125219728D01*
X18001491Y-125219729D01*
X17892915Y-125252666D01*
X17780000Y-125263787D01*
X17667084Y-125252666D01*
X17558508Y-125219729D01*
X17558505Y-125219728D01*
X17522399Y-125200429D01*
X17458443Y-125166244D01*
X17370736Y-125094264D01*
X17298756Y-125006556D01*
X17255239Y-124925140D01*
X17241625Y-124904766D01*
X17224298Y-124887439D01*
X17203924Y-124873825D01*
X17181285Y-124864448D01*
X17157251Y-124859668D01*
X17132747Y-124859668D01*
X17108714Y-124864449D01*
X17086075Y-124873826D01*
X17065701Y-124887440D01*
X17048374Y-124904767D01*
X17034762Y-124925140D01*
X16991244Y-125006557D01*
X16919264Y-125094264D01*
X16831556Y-125166244D01*
X16767600Y-125200429D01*
X16731494Y-125219728D01*
X16731491Y-125219729D01*
X16622915Y-125252666D01*
X16510000Y-125263787D01*
X16397084Y-125252666D01*
X16288508Y-125219729D01*
X16288505Y-125219728D01*
X16252399Y-125200429D01*
X16188443Y-125166244D01*
X16100736Y-125094264D01*
X16028756Y-125006556D01*
X15985239Y-124925140D01*
X15975272Y-124906494D01*
X15969492Y-124887440D01*
X15942334Y-124797915D01*
X15934000Y-124713297D01*
X15934000Y-124206702D01*
X15942334Y-124122084D01*
X15975271Y-124013508D01*
X15975272Y-124013505D01*
X16028756Y-123913445D01*
X16028757Y-123913443D01*
X16100737Y-123825736D01*
X16188444Y-123753756D01*
X16252400Y-123719571D01*
X16288506Y-123700272D01*
X16288509Y-123700271D01*
X16397085Y-123667334D01*
X16510000Y-123656213D01*
X16622916Y-123667334D01*
X16731492Y-123700271D01*
X16731495Y-123700272D01*
X16767601Y-123719571D01*
X16831557Y-123753756D01*
X16919264Y-123825736D01*
X16991244Y-123913443D01*
X17007019Y-123942957D01*
X17034761Y-123994859D01*
X17048375Y-124015234D01*
X17065702Y-124032561D01*
X17086076Y-124046174D01*
X17108715Y-124055552D01*
X17132748Y-124060332D01*
X17157252Y-124060332D01*
X17181285Y-124055552D01*
X17203924Y-124046174D01*
X17224299Y-124032560D01*
X17241626Y-124015233D01*
X17255239Y-123994859D01*
X17298756Y-123913445D01*
X17298757Y-123913443D01*
X17370737Y-123825736D01*
X17458444Y-123753756D01*
X17522400Y-123719571D01*
X17558506Y-123700272D01*
X17558509Y-123700271D01*
X17667085Y-123667334D01*
X17780000Y-123656213D01*
X17892916Y-123667334D01*
G37*
G36*
X6462916Y-123667334D02*
G01*
X6571492Y-123700271D01*
X6571495Y-123700272D01*
X6607601Y-123719571D01*
X6671557Y-123753756D01*
X6759264Y-123825736D01*
X6822383Y-123902646D01*
X6839702Y-123919965D01*
X6860077Y-123933579D01*
X6882716Y-123942957D01*
X6906749Y-123947737D01*
X6931253Y-123947737D01*
X6955286Y-123942957D01*
X6977925Y-123933579D01*
X6998299Y-123919966D01*
X7015626Y-123902639D01*
X7029240Y-123882264D01*
X7038618Y-123859625D01*
X7043398Y-123835592D01*
X7044000Y-123823340D01*
X7044000Y-123659000D01*
X8196000Y-123659000D01*
X8196000Y-125261000D01*
X7044000Y-125261000D01*
X7044000Y-125096660D01*
X7041598Y-125072274D01*
X7034485Y-125048825D01*
X7022934Y-125027214D01*
X7007389Y-125008272D01*
X6988447Y-124992727D01*
X6966836Y-124981176D01*
X6943387Y-124974063D01*
X6919001Y-124971661D01*
X6894615Y-124974063D01*
X6871166Y-124981176D01*
X6849555Y-124992727D01*
X6822381Y-125017356D01*
X6759264Y-125094264D01*
X6671556Y-125166244D01*
X6607600Y-125200429D01*
X6571494Y-125219728D01*
X6571491Y-125219729D01*
X6462915Y-125252666D01*
X6350000Y-125263787D01*
X6237084Y-125252666D01*
X6128508Y-125219729D01*
X6128505Y-125219728D01*
X6092399Y-125200429D01*
X6028443Y-125166244D01*
X5940736Y-125094264D01*
X5868756Y-125006556D01*
X5825239Y-124925140D01*
X5811625Y-124904766D01*
X5794298Y-124887439D01*
X5773924Y-124873825D01*
X5751285Y-124864448D01*
X5727251Y-124859668D01*
X5702747Y-124859668D01*
X5678714Y-124864449D01*
X5656075Y-124873826D01*
X5635701Y-124887440D01*
X5618374Y-124904767D01*
X5604762Y-124925140D01*
X5561244Y-125006557D01*
X5489264Y-125094264D01*
X5401556Y-125166244D01*
X5337600Y-125200429D01*
X5301494Y-125219728D01*
X5301491Y-125219729D01*
X5192915Y-125252666D01*
X5080000Y-125263787D01*
X4967084Y-125252666D01*
X4858508Y-125219729D01*
X4858505Y-125219728D01*
X4822399Y-125200429D01*
X4758443Y-125166244D01*
X4670736Y-125094264D01*
X4598756Y-125006556D01*
X4555239Y-124925140D01*
X4545272Y-124906494D01*
X4539492Y-124887440D01*
X4512334Y-124797915D01*
X4504000Y-124713297D01*
X4504000Y-124206702D01*
X4512334Y-124122084D01*
X4545271Y-124013508D01*
X4545272Y-124013505D01*
X4598756Y-123913445D01*
X4598757Y-123913443D01*
X4670737Y-123825736D01*
X4758444Y-123753756D01*
X4822400Y-123719571D01*
X4858506Y-123700272D01*
X4858509Y-123700271D01*
X4967085Y-123667334D01*
X5080000Y-123656213D01*
X5192916Y-123667334D01*
X5301492Y-123700271D01*
X5301495Y-123700272D01*
X5337601Y-123719571D01*
X5401557Y-123753756D01*
X5489264Y-123825736D01*
X5561244Y-123913443D01*
X5577019Y-123942957D01*
X5604761Y-123994859D01*
X5618375Y-124015234D01*
X5635702Y-124032561D01*
X5656076Y-124046174D01*
X5678715Y-124055552D01*
X5702748Y-124060332D01*
X5727252Y-124060332D01*
X5751285Y-124055552D01*
X5773924Y-124046174D01*
X5794299Y-124032560D01*
X5811626Y-124015233D01*
X5825239Y-123994859D01*
X5868756Y-123913445D01*
X5868757Y-123913443D01*
X5940737Y-123825736D01*
X6028444Y-123753756D01*
X6092400Y-123719571D01*
X6128506Y-123700272D01*
X6128509Y-123700271D01*
X6237085Y-123667334D01*
X6350000Y-123656213D01*
X6462916Y-123667334D01*
G37*
G36*
X42158228Y-121101703D02*
G01*
X42313100Y-121165853D01*
X42452481Y-121258985D01*
X42571015Y-121377519D01*
X42664147Y-121516900D01*
X42728297Y-121671772D01*
X42761000Y-121836184D01*
X42761000Y-122003816D01*
X42728297Y-122168228D01*
X42664147Y-122323100D01*
X42571015Y-122462481D01*
X42452481Y-122581015D01*
X42313100Y-122674147D01*
X42158228Y-122738297D01*
X41993816Y-122771000D01*
X41826184Y-122771000D01*
X41661772Y-122738297D01*
X41506900Y-122674147D01*
X41367519Y-122581015D01*
X41248985Y-122462481D01*
X41155853Y-122323100D01*
X41091703Y-122168228D01*
X41059000Y-122003816D01*
X41059000Y-121836184D01*
X41091703Y-121671772D01*
X41155853Y-121516900D01*
X41248985Y-121377519D01*
X41367519Y-121258985D01*
X41506900Y-121165853D01*
X41661772Y-121101703D01*
X41826184Y-121069000D01*
X41993816Y-121069000D01*
X42158228Y-121101703D01*
G37*
G36*
X26918228Y-121101703D02*
G01*
X27073100Y-121165853D01*
X27212481Y-121258985D01*
X27331015Y-121377519D01*
X27424147Y-121516900D01*
X27488297Y-121671772D01*
X27521000Y-121836184D01*
X27521000Y-122003816D01*
X27488297Y-122168228D01*
X27424147Y-122323100D01*
X27331015Y-122462481D01*
X27212481Y-122581015D01*
X27073100Y-122674147D01*
X26918228Y-122738297D01*
X26753816Y-122771000D01*
X26586184Y-122771000D01*
X26421772Y-122738297D01*
X26266900Y-122674147D01*
X26127519Y-122581015D01*
X26008985Y-122462481D01*
X25915853Y-122323100D01*
X25851703Y-122168228D01*
X25819000Y-122003816D01*
X25819000Y-121836184D01*
X25851703Y-121671772D01*
X25915853Y-121516900D01*
X26008985Y-121377519D01*
X26127519Y-121258985D01*
X26266900Y-121165853D01*
X26421772Y-121101703D01*
X26586184Y-121069000D01*
X26753816Y-121069000D01*
X26918228Y-121101703D01*
G37*
G36*
X42158228Y-118561703D02*
G01*
X42313100Y-118625853D01*
X42452481Y-118718985D01*
X42571015Y-118837519D01*
X42664147Y-118976900D01*
X42728297Y-119131772D01*
X42761000Y-119296184D01*
X42761000Y-119463816D01*
X42728297Y-119628228D01*
X42664147Y-119783100D01*
X42571015Y-119922481D01*
X42452481Y-120041015D01*
X42313100Y-120134147D01*
X42158228Y-120198297D01*
X41993816Y-120231000D01*
X41826184Y-120231000D01*
X41661772Y-120198297D01*
X41506900Y-120134147D01*
X41367519Y-120041015D01*
X41248985Y-119922481D01*
X41155853Y-119783100D01*
X41091703Y-119628228D01*
X41059000Y-119463816D01*
X41059000Y-119296184D01*
X41091703Y-119131772D01*
X41155853Y-118976900D01*
X41248985Y-118837519D01*
X41367519Y-118718985D01*
X41506900Y-118625853D01*
X41661772Y-118561703D01*
X41826184Y-118529000D01*
X41993816Y-118529000D01*
X42158228Y-118561703D01*
G37*
G36*
X26918228Y-118561703D02*
G01*
X27073100Y-118625853D01*
X27212481Y-118718985D01*
X27331015Y-118837519D01*
X27424147Y-118976900D01*
X27488297Y-119131772D01*
X27521000Y-119296184D01*
X27521000Y-119463816D01*
X27488297Y-119628228D01*
X27424147Y-119783100D01*
X27331015Y-119922481D01*
X27212481Y-120041015D01*
X27073100Y-120134147D01*
X26918228Y-120198297D01*
X26753816Y-120231000D01*
X26586184Y-120231000D01*
X26421772Y-120198297D01*
X26266900Y-120134147D01*
X26127519Y-120041015D01*
X26008985Y-119922481D01*
X25915853Y-119783100D01*
X25851703Y-119628228D01*
X25819000Y-119463816D01*
X25819000Y-119296184D01*
X25851703Y-119131772D01*
X25915853Y-118976900D01*
X26008985Y-118837519D01*
X26127519Y-118718985D01*
X26266900Y-118625853D01*
X26421772Y-118561703D01*
X26586184Y-118529000D01*
X26753816Y-118529000D01*
X26918228Y-118561703D01*
G37*
G36*
X20568228Y-117291703D02*
G01*
X20723100Y-117355853D01*
X20862481Y-117448985D01*
X20981015Y-117567519D01*
X21074147Y-117706900D01*
X21138297Y-117861772D01*
X21171000Y-118026184D01*
X21171000Y-118193816D01*
X21138297Y-118358228D01*
X21074147Y-118513100D01*
X20981015Y-118652481D01*
X20862481Y-118771015D01*
X20723100Y-118864147D01*
X20568228Y-118928297D01*
X20403816Y-118961000D01*
X20236184Y-118961000D01*
X20071772Y-118928297D01*
X19916900Y-118864147D01*
X19777519Y-118771015D01*
X19658985Y-118652481D01*
X19565853Y-118513100D01*
X19501703Y-118358228D01*
X19469000Y-118193816D01*
X19469000Y-118026184D01*
X19501703Y-117861772D01*
X19565853Y-117706900D01*
X19658985Y-117567519D01*
X19777519Y-117448985D01*
X19916900Y-117355853D01*
X20071772Y-117291703D01*
X20236184Y-117259000D01*
X20403816Y-117259000D01*
X20568228Y-117291703D01*
G37*
G36*
X9138228Y-117291703D02*
G01*
X9293100Y-117355853D01*
X9432481Y-117448985D01*
X9551015Y-117567519D01*
X9644147Y-117706900D01*
X9708297Y-117861772D01*
X9741000Y-118026184D01*
X9741000Y-118193816D01*
X9708297Y-118358228D01*
X9644147Y-118513100D01*
X9551015Y-118652481D01*
X9432481Y-118771015D01*
X9293100Y-118864147D01*
X9138228Y-118928297D01*
X8973816Y-118961000D01*
X8806184Y-118961000D01*
X8641772Y-118928297D01*
X8486900Y-118864147D01*
X8347519Y-118771015D01*
X8228985Y-118652481D01*
X8135853Y-118513100D01*
X8071703Y-118358228D01*
X8039000Y-118193816D01*
X8039000Y-118026184D01*
X8071703Y-117861772D01*
X8135853Y-117706900D01*
X8228985Y-117567519D01*
X8347519Y-117448985D01*
X8486900Y-117355853D01*
X8641772Y-117291703D01*
X8806184Y-117259000D01*
X8973816Y-117259000D01*
X9138228Y-117291703D01*
G37*
G36*
X15488228Y-117291703D02*
G01*
X15643100Y-117355853D01*
X15782481Y-117448985D01*
X15901015Y-117567519D01*
X15994147Y-117706900D01*
X16058297Y-117861772D01*
X16091000Y-118026184D01*
X16091000Y-118193816D01*
X16058297Y-118358228D01*
X15994147Y-118513100D01*
X15901015Y-118652481D01*
X15782481Y-118771015D01*
X15643100Y-118864147D01*
X15488228Y-118928297D01*
X15323816Y-118961000D01*
X15156184Y-118961000D01*
X14991772Y-118928297D01*
X14836900Y-118864147D01*
X14697519Y-118771015D01*
X14578985Y-118652481D01*
X14485853Y-118513100D01*
X14421703Y-118358228D01*
X14389000Y-118193816D01*
X14389000Y-118026184D01*
X14421703Y-117861772D01*
X14485853Y-117706900D01*
X14578985Y-117567519D01*
X14697519Y-117448985D01*
X14836900Y-117355853D01*
X14991772Y-117291703D01*
X15156184Y-117259000D01*
X15323816Y-117259000D01*
X15488228Y-117291703D01*
G37*
G36*
X4058228Y-117291703D02*
G01*
X4213100Y-117355853D01*
X4352481Y-117448985D01*
X4471015Y-117567519D01*
X4564147Y-117706900D01*
X4628297Y-117861772D01*
X4661000Y-118026184D01*
X4661000Y-118193816D01*
X4628297Y-118358228D01*
X4564147Y-118513100D01*
X4471015Y-118652481D01*
X4352481Y-118771015D01*
X4213100Y-118864147D01*
X4058228Y-118928297D01*
X3893816Y-118961000D01*
X3726184Y-118961000D01*
X3561772Y-118928297D01*
X3406900Y-118864147D01*
X3267519Y-118771015D01*
X3148985Y-118652481D01*
X3055853Y-118513100D01*
X2991703Y-118358228D01*
X2959000Y-118193816D01*
X2959000Y-118026184D01*
X2991703Y-117861772D01*
X3055853Y-117706900D01*
X3148985Y-117567519D01*
X3267519Y-117448985D01*
X3406900Y-117355853D01*
X3561772Y-117291703D01*
X3726184Y-117259000D01*
X3893816Y-117259000D01*
X4058228Y-117291703D01*
G37*
G36*
X42158228Y-116021703D02*
G01*
X42313100Y-116085853D01*
X42452481Y-116178985D01*
X42571015Y-116297519D01*
X42664147Y-116436900D01*
X42728297Y-116591772D01*
X42761000Y-116756184D01*
X42761000Y-116923816D01*
X42728297Y-117088228D01*
X42664147Y-117243100D01*
X42571015Y-117382481D01*
X42452481Y-117501015D01*
X42313100Y-117594147D01*
X42158228Y-117658297D01*
X41993816Y-117691000D01*
X41826184Y-117691000D01*
X41661772Y-117658297D01*
X41506900Y-117594147D01*
X41367519Y-117501015D01*
X41248985Y-117382481D01*
X41155853Y-117243100D01*
X41091703Y-117088228D01*
X41059000Y-116923816D01*
X41059000Y-116756184D01*
X41091703Y-116591772D01*
X41155853Y-116436900D01*
X41248985Y-116297519D01*
X41367519Y-116178985D01*
X41506900Y-116085853D01*
X41661772Y-116021703D01*
X41826184Y-115989000D01*
X41993816Y-115989000D01*
X42158228Y-116021703D01*
G37*
G36*
X26918228Y-116021703D02*
G01*
X27073100Y-116085853D01*
X27212481Y-116178985D01*
X27331015Y-116297519D01*
X27424147Y-116436900D01*
X27488297Y-116591772D01*
X27521000Y-116756184D01*
X27521000Y-116923816D01*
X27488297Y-117088228D01*
X27424147Y-117243100D01*
X27331015Y-117382481D01*
X27212481Y-117501015D01*
X27073100Y-117594147D01*
X26918228Y-117658297D01*
X26753816Y-117691000D01*
X26586184Y-117691000D01*
X26421772Y-117658297D01*
X26266900Y-117594147D01*
X26127519Y-117501015D01*
X26008985Y-117382481D01*
X25915853Y-117243100D01*
X25851703Y-117088228D01*
X25819000Y-116923816D01*
X25819000Y-116756184D01*
X25851703Y-116591772D01*
X25915853Y-116436900D01*
X26008985Y-116297519D01*
X26127519Y-116178985D01*
X26266900Y-116085853D01*
X26421772Y-116021703D01*
X26586184Y-115989000D01*
X26753816Y-115989000D01*
X26918228Y-116021703D01*
G37*
G36*
X-30242858Y-115423242D02*
G01*
X-30094899Y-115484529D01*
X-29961745Y-115573499D01*
X-29848499Y-115686745D01*
X-29759529Y-115819899D01*
X-29698242Y-115967858D01*
X-29667000Y-116124925D01*
X-29667000Y-116285075D01*
X-29698242Y-116442142D01*
X-29759529Y-116590101D01*
X-29848499Y-116723255D01*
X-29961745Y-116836501D01*
X-30094899Y-116925471D01*
X-30242858Y-116986758D01*
X-30399925Y-117018000D01*
X-30560075Y-117018000D01*
X-30717142Y-116986758D01*
X-30865101Y-116925471D01*
X-30998255Y-116836501D01*
X-31111501Y-116723255D01*
X-31200471Y-116590101D01*
X-31261758Y-116442142D01*
X-31293000Y-116285075D01*
X-31293000Y-116124925D01*
X-31261758Y-115967858D01*
X-31200471Y-115819899D01*
X-31111501Y-115686745D01*
X-30998255Y-115573499D01*
X-30865101Y-115484529D01*
X-30717142Y-115423242D01*
X-30560075Y-115392000D01*
X-30399925Y-115392000D01*
X-30242858Y-115423242D01*
G37*
G36*
X-2302858Y-115423242D02*
G01*
X-2154899Y-115484529D01*
X-2021745Y-115573499D01*
X-1908499Y-115686745D01*
X-1819529Y-115819899D01*
X-1758242Y-115967858D01*
X-1727000Y-116124925D01*
X-1727000Y-116285075D01*
X-1758242Y-116442142D01*
X-1819529Y-116590101D01*
X-1908499Y-116723255D01*
X-2021745Y-116836501D01*
X-2154899Y-116925471D01*
X-2302858Y-116986758D01*
X-2459925Y-117018000D01*
X-2620075Y-117018000D01*
X-2777142Y-116986758D01*
X-2925101Y-116925471D01*
X-3058255Y-116836501D01*
X-3171501Y-116723255D01*
X-3260471Y-116590101D01*
X-3321758Y-116442142D01*
X-3353000Y-116285075D01*
X-3353000Y-116124925D01*
X-3321758Y-115967858D01*
X-3260471Y-115819899D01*
X-3171501Y-115686745D01*
X-3058255Y-115573499D01*
X-2925101Y-115484529D01*
X-2777142Y-115423242D01*
X-2620075Y-115392000D01*
X-2459925Y-115392000D01*
X-2302858Y-115423242D01*
G37*
G36*
X50913512Y-113403927D02*
G01*
X51062812Y-113433624D01*
X51226784Y-113501544D01*
X51374354Y-113600147D01*
X51499853Y-113725646D01*
X51598456Y-113873216D01*
X51666376Y-114037188D01*
X51701000Y-114211259D01*
X51701000Y-114388741D01*
X51666376Y-114562812D01*
X51598456Y-114726784D01*
X51499853Y-114874354D01*
X51374354Y-114999853D01*
X51226784Y-115098456D01*
X51062812Y-115166376D01*
X50913512Y-115196073D01*
X50888742Y-115201000D01*
X50711258Y-115201000D01*
X50686488Y-115196073D01*
X50537188Y-115166376D01*
X50373216Y-115098456D01*
X50225646Y-114999853D01*
X50100147Y-114874354D01*
X50001544Y-114726784D01*
X49933624Y-114562812D01*
X49899000Y-114388741D01*
X49899000Y-114211259D01*
X49933624Y-114037188D01*
X50001544Y-113873216D01*
X50100147Y-113725646D01*
X50225646Y-113600147D01*
X50373216Y-113501544D01*
X50537188Y-113433624D01*
X50686488Y-113403927D01*
X50711258Y-113399000D01*
X50888742Y-113399000D01*
X50913512Y-113403927D01*
G37*
G36*
X42158228Y-113481703D02*
G01*
X42313100Y-113545853D01*
X42452481Y-113638985D01*
X42571015Y-113757519D01*
X42664147Y-113896900D01*
X42728297Y-114051772D01*
X42761000Y-114216184D01*
X42761000Y-114383816D01*
X42728297Y-114548228D01*
X42664147Y-114703100D01*
X42571015Y-114842481D01*
X42452481Y-114961015D01*
X42313100Y-115054147D01*
X42158228Y-115118297D01*
X41993816Y-115151000D01*
X41826184Y-115151000D01*
X41661772Y-115118297D01*
X41506900Y-115054147D01*
X41367519Y-114961015D01*
X41248985Y-114842481D01*
X41155853Y-114703100D01*
X41091703Y-114548228D01*
X41059000Y-114383816D01*
X41059000Y-114216184D01*
X41091703Y-114051772D01*
X41155853Y-113896900D01*
X41248985Y-113757519D01*
X41367519Y-113638985D01*
X41506900Y-113545853D01*
X41661772Y-113481703D01*
X41826184Y-113449000D01*
X41993816Y-113449000D01*
X42158228Y-113481703D01*
G37*
G36*
X26918228Y-113481703D02*
G01*
X27073100Y-113545853D01*
X27212481Y-113638985D01*
X27331015Y-113757519D01*
X27424147Y-113896900D01*
X27488297Y-114051772D01*
X27521000Y-114216184D01*
X27521000Y-114383816D01*
X27488297Y-114548228D01*
X27424147Y-114703100D01*
X27331015Y-114842481D01*
X27212481Y-114961015D01*
X27073100Y-115054147D01*
X26918228Y-115118297D01*
X26753816Y-115151000D01*
X26586184Y-115151000D01*
X26421772Y-115118297D01*
X26266900Y-115054147D01*
X26127519Y-114961015D01*
X26008985Y-114842481D01*
X25915853Y-114703100D01*
X25851703Y-114548228D01*
X25819000Y-114383816D01*
X25819000Y-114216184D01*
X25851703Y-114051772D01*
X25915853Y-113896900D01*
X26008985Y-113757519D01*
X26127519Y-113638985D01*
X26266900Y-113545853D01*
X26421772Y-113481703D01*
X26586184Y-113449000D01*
X26753816Y-113449000D01*
X26918228Y-113481703D01*
G37*
G36*
X-2302858Y-112883242D02*
G01*
X-2154899Y-112944529D01*
X-2021745Y-113033499D01*
X-1908499Y-113146745D01*
X-1819529Y-113279899D01*
X-1758242Y-113427858D01*
X-1727000Y-113584925D01*
X-1727000Y-113745075D01*
X-1758242Y-113902142D01*
X-1819529Y-114050101D01*
X-1908499Y-114183255D01*
X-2021745Y-114296501D01*
X-2154899Y-114385471D01*
X-2302858Y-114446758D01*
X-2459925Y-114478000D01*
X-2620075Y-114478000D01*
X-2777142Y-114446758D01*
X-2925101Y-114385471D01*
X-3058255Y-114296501D01*
X-3171501Y-114183255D01*
X-3260471Y-114050101D01*
X-3321758Y-113902142D01*
X-3353000Y-113745075D01*
X-3353000Y-113584925D01*
X-3321758Y-113427858D01*
X-3260471Y-113279899D01*
X-3171501Y-113146745D01*
X-3058255Y-113033499D01*
X-2925101Y-112944529D01*
X-2777142Y-112883242D01*
X-2620075Y-112852000D01*
X-2459925Y-112852000D01*
X-2302858Y-112883242D01*
G37*
G36*
X-30242858Y-112883242D02*
G01*
X-30094899Y-112944529D01*
X-29961745Y-113033499D01*
X-29848499Y-113146745D01*
X-29759529Y-113279899D01*
X-29698242Y-113427858D01*
X-29667000Y-113584925D01*
X-29667000Y-113745075D01*
X-29698242Y-113902142D01*
X-29759529Y-114050101D01*
X-29848499Y-114183255D01*
X-29961745Y-114296501D01*
X-30094899Y-114385471D01*
X-30242858Y-114446758D01*
X-30399925Y-114478000D01*
X-30560075Y-114478000D01*
X-30717142Y-114446758D01*
X-30865101Y-114385471D01*
X-30998255Y-114296501D01*
X-31111501Y-114183255D01*
X-31200471Y-114050101D01*
X-31261758Y-113902142D01*
X-31293000Y-113745075D01*
X-31293000Y-113584925D01*
X-31261758Y-113427858D01*
X-31200471Y-113279899D01*
X-31111501Y-113146745D01*
X-30998255Y-113033499D01*
X-30865101Y-112944529D01*
X-30717142Y-112883242D01*
X-30560075Y-112852000D01*
X-30399925Y-112852000D01*
X-30242858Y-112883242D01*
G37*
G36*
X50913512Y-110863927D02*
G01*
X51062812Y-110893624D01*
X51226784Y-110961544D01*
X51374354Y-111060147D01*
X51499853Y-111185646D01*
X51598456Y-111333216D01*
X51666376Y-111497188D01*
X51701000Y-111671259D01*
X51701000Y-111848741D01*
X51666376Y-112022812D01*
X51598456Y-112186784D01*
X51499853Y-112334354D01*
X51374354Y-112459853D01*
X51226784Y-112558456D01*
X51062812Y-112626376D01*
X50913512Y-112656073D01*
X50888742Y-112661000D01*
X50711258Y-112661000D01*
X50686488Y-112656073D01*
X50537188Y-112626376D01*
X50373216Y-112558456D01*
X50225646Y-112459853D01*
X50100147Y-112334354D01*
X50001544Y-112186784D01*
X49933624Y-112022812D01*
X49899000Y-111848741D01*
X49899000Y-111671259D01*
X49933624Y-111497188D01*
X50001544Y-111333216D01*
X50100147Y-111185646D01*
X50225646Y-111060147D01*
X50373216Y-110961544D01*
X50537188Y-110893624D01*
X50686488Y-110863927D01*
X50711258Y-110859000D01*
X50888742Y-110859000D01*
X50913512Y-110863927D01*
G37*
G36*
X42158228Y-110941703D02*
G01*
X42313100Y-111005853D01*
X42452481Y-111098985D01*
X42571015Y-111217519D01*
X42664147Y-111356900D01*
X42728297Y-111511772D01*
X42761000Y-111676184D01*
X42761000Y-111843816D01*
X42728297Y-112008228D01*
X42664147Y-112163100D01*
X42571015Y-112302481D01*
X42452481Y-112421015D01*
X42313100Y-112514147D01*
X42158228Y-112578297D01*
X41993816Y-112611000D01*
X41826184Y-112611000D01*
X41661772Y-112578297D01*
X41506900Y-112514147D01*
X41367519Y-112421015D01*
X41248985Y-112302481D01*
X41155853Y-112163100D01*
X41091703Y-112008228D01*
X41059000Y-111843816D01*
X41059000Y-111676184D01*
X41091703Y-111511772D01*
X41155853Y-111356900D01*
X41248985Y-111217519D01*
X41367519Y-111098985D01*
X41506900Y-111005853D01*
X41661772Y-110941703D01*
X41826184Y-110909000D01*
X41993816Y-110909000D01*
X42158228Y-110941703D01*
G37*
G36*
X26918228Y-110941703D02*
G01*
X27073100Y-111005853D01*
X27212481Y-111098985D01*
X27331015Y-111217519D01*
X27424147Y-111356900D01*
X27488297Y-111511772D01*
X27521000Y-111676184D01*
X27521000Y-111843816D01*
X27488297Y-112008228D01*
X27424147Y-112163100D01*
X27331015Y-112302481D01*
X27212481Y-112421015D01*
X27073100Y-112514147D01*
X26918228Y-112578297D01*
X26753816Y-112611000D01*
X26586184Y-112611000D01*
X26421772Y-112578297D01*
X26266900Y-112514147D01*
X26127519Y-112421015D01*
X26008985Y-112302481D01*
X25915853Y-112163100D01*
X25851703Y-112008228D01*
X25819000Y-111843816D01*
X25819000Y-111676184D01*
X25851703Y-111511772D01*
X25915853Y-111356900D01*
X26008985Y-111217519D01*
X26127519Y-111098985D01*
X26266900Y-111005853D01*
X26421772Y-110941703D01*
X26586184Y-110909000D01*
X26753816Y-110909000D01*
X26918228Y-110941703D01*
G37*
G36*
X-2302858Y-110343242D02*
G01*
X-2154899Y-110404529D01*
X-2021745Y-110493499D01*
X-1908499Y-110606745D01*
X-1819529Y-110739899D01*
X-1758242Y-110887858D01*
X-1727000Y-111044925D01*
X-1727000Y-111205075D01*
X-1758242Y-111362142D01*
X-1819529Y-111510101D01*
X-1908499Y-111643255D01*
X-2021745Y-111756501D01*
X-2154899Y-111845471D01*
X-2302858Y-111906758D01*
X-2459925Y-111938000D01*
X-2620075Y-111938000D01*
X-2777142Y-111906758D01*
X-2925101Y-111845471D01*
X-3058255Y-111756501D01*
X-3171501Y-111643255D01*
X-3260471Y-111510101D01*
X-3321758Y-111362142D01*
X-3353000Y-111205075D01*
X-3353000Y-111044925D01*
X-3321758Y-110887858D01*
X-3260471Y-110739899D01*
X-3171501Y-110606745D01*
X-3058255Y-110493499D01*
X-2925101Y-110404529D01*
X-2777142Y-110343242D01*
X-2620075Y-110312000D01*
X-2459925Y-110312000D01*
X-2302858Y-110343242D01*
G37*
G36*
X-30242858Y-110343242D02*
G01*
X-30094899Y-110404529D01*
X-29961745Y-110493499D01*
X-29848499Y-110606745D01*
X-29759529Y-110739899D01*
X-29698242Y-110887858D01*
X-29667000Y-111044925D01*
X-29667000Y-111205075D01*
X-29698242Y-111362142D01*
X-29759529Y-111510101D01*
X-29848499Y-111643255D01*
X-29961745Y-111756501D01*
X-30094899Y-111845471D01*
X-30242858Y-111906758D01*
X-30399925Y-111938000D01*
X-30560075Y-111938000D01*
X-30717142Y-111906758D01*
X-30865101Y-111845471D01*
X-30998255Y-111756501D01*
X-31111501Y-111643255D01*
X-31200471Y-111510101D01*
X-31261758Y-111362142D01*
X-31293000Y-111205075D01*
X-31293000Y-111044925D01*
X-31261758Y-110887858D01*
X-31200471Y-110739899D01*
X-31111501Y-110606745D01*
X-30998255Y-110493499D01*
X-30865101Y-110404529D01*
X-30717142Y-110343242D01*
X-30560075Y-110312000D01*
X-30399925Y-110312000D01*
X-30242858Y-110343242D01*
G37*
G36*
X15488228Y-109671703D02*
G01*
X15643100Y-109735853D01*
X15782481Y-109828985D01*
X15901015Y-109947519D01*
X15994147Y-110086900D01*
X16058297Y-110241772D01*
X16091000Y-110406184D01*
X16091000Y-110573816D01*
X16058297Y-110738228D01*
X15994147Y-110893100D01*
X15901015Y-111032481D01*
X15782481Y-111151015D01*
X15643100Y-111244147D01*
X15488228Y-111308297D01*
X15323816Y-111341000D01*
X15156184Y-111341000D01*
X14991772Y-111308297D01*
X14836900Y-111244147D01*
X14697519Y-111151015D01*
X14578985Y-111032481D01*
X14485853Y-110893100D01*
X14421703Y-110738228D01*
X14389000Y-110573816D01*
X14389000Y-110406184D01*
X14421703Y-110241772D01*
X14485853Y-110086900D01*
X14578985Y-109947519D01*
X14697519Y-109828985D01*
X14836900Y-109735853D01*
X14991772Y-109671703D01*
X15156184Y-109639000D01*
X15323816Y-109639000D01*
X15488228Y-109671703D01*
G37*
G36*
X20568228Y-109671703D02*
G01*
X20723100Y-109735853D01*
X20862481Y-109828985D01*
X20981015Y-109947519D01*
X21074147Y-110086900D01*
X21138297Y-110241772D01*
X21171000Y-110406184D01*
X21171000Y-110573816D01*
X21138297Y-110738228D01*
X21074147Y-110893100D01*
X20981015Y-111032481D01*
X20862481Y-111151015D01*
X20723100Y-111244147D01*
X20568228Y-111308297D01*
X20403816Y-111341000D01*
X20236184Y-111341000D01*
X20071772Y-111308297D01*
X19916900Y-111244147D01*
X19777519Y-111151015D01*
X19658985Y-111032481D01*
X19565853Y-110893100D01*
X19501703Y-110738228D01*
X19469000Y-110573816D01*
X19469000Y-110406184D01*
X19501703Y-110241772D01*
X19565853Y-110086900D01*
X19658985Y-109947519D01*
X19777519Y-109828985D01*
X19916900Y-109735853D01*
X20071772Y-109671703D01*
X20236184Y-109639000D01*
X20403816Y-109639000D01*
X20568228Y-109671703D01*
G37*
G36*
X4058228Y-109671703D02*
G01*
X4213100Y-109735853D01*
X4352481Y-109828985D01*
X4471015Y-109947519D01*
X4564147Y-110086900D01*
X4628297Y-110241772D01*
X4661000Y-110406184D01*
X4661000Y-110573816D01*
X4628297Y-110738228D01*
X4564147Y-110893100D01*
X4471015Y-111032481D01*
X4352481Y-111151015D01*
X4213100Y-111244147D01*
X4058228Y-111308297D01*
X3893816Y-111341000D01*
X3726184Y-111341000D01*
X3561772Y-111308297D01*
X3406900Y-111244147D01*
X3267519Y-111151015D01*
X3148985Y-111032481D01*
X3055853Y-110893100D01*
X2991703Y-110738228D01*
X2959000Y-110573816D01*
X2959000Y-110406184D01*
X2991703Y-110241772D01*
X3055853Y-110086900D01*
X3148985Y-109947519D01*
X3267519Y-109828985D01*
X3406900Y-109735853D01*
X3561772Y-109671703D01*
X3726184Y-109639000D01*
X3893816Y-109639000D01*
X4058228Y-109671703D01*
G37*
G36*
X9138228Y-109671703D02*
G01*
X9293100Y-109735853D01*
X9432481Y-109828985D01*
X9551015Y-109947519D01*
X9644147Y-110086900D01*
X9708297Y-110241772D01*
X9741000Y-110406184D01*
X9741000Y-110573816D01*
X9708297Y-110738228D01*
X9644147Y-110893100D01*
X9551015Y-111032481D01*
X9432481Y-111151015D01*
X9293100Y-111244147D01*
X9138228Y-111308297D01*
X8973816Y-111341000D01*
X8806184Y-111341000D01*
X8641772Y-111308297D01*
X8486900Y-111244147D01*
X8347519Y-111151015D01*
X8228985Y-111032481D01*
X8135853Y-110893100D01*
X8071703Y-110738228D01*
X8039000Y-110573816D01*
X8039000Y-110406184D01*
X8071703Y-110241772D01*
X8135853Y-110086900D01*
X8228985Y-109947519D01*
X8347519Y-109828985D01*
X8486900Y-109735853D01*
X8641772Y-109671703D01*
X8806184Y-109639000D01*
X8973816Y-109639000D01*
X9138228Y-109671703D01*
G37*
G36*
X50913512Y-108323927D02*
G01*
X51062812Y-108353624D01*
X51226784Y-108421544D01*
X51374354Y-108520147D01*
X51499853Y-108645646D01*
X51598456Y-108793216D01*
X51666376Y-108957188D01*
X51701000Y-109131259D01*
X51701000Y-109308741D01*
X51666376Y-109482812D01*
X51598456Y-109646784D01*
X51499853Y-109794354D01*
X51374354Y-109919853D01*
X51226784Y-110018456D01*
X51062812Y-110086376D01*
X50913512Y-110116073D01*
X50888742Y-110121000D01*
X50711258Y-110121000D01*
X50686488Y-110116073D01*
X50537188Y-110086376D01*
X50373216Y-110018456D01*
X50225646Y-109919853D01*
X50100147Y-109794354D01*
X50001544Y-109646784D01*
X49933624Y-109482812D01*
X49899000Y-109308741D01*
X49899000Y-109131259D01*
X49933624Y-108957188D01*
X50001544Y-108793216D01*
X50100147Y-108645646D01*
X50225646Y-108520147D01*
X50373216Y-108421544D01*
X50537188Y-108353624D01*
X50686488Y-108323927D01*
X50711258Y-108319000D01*
X50888742Y-108319000D01*
X50913512Y-108323927D01*
G37*
G36*
X42158228Y-108401703D02*
G01*
X42313100Y-108465853D01*
X42452481Y-108558985D01*
X42571015Y-108677519D01*
X42664147Y-108816900D01*
X42728297Y-108971772D01*
X42761000Y-109136184D01*
X42761000Y-109303816D01*
X42728297Y-109468228D01*
X42664147Y-109623100D01*
X42571015Y-109762481D01*
X42452481Y-109881015D01*
X42313100Y-109974147D01*
X42158228Y-110038297D01*
X41993816Y-110071000D01*
X41826184Y-110071000D01*
X41661772Y-110038297D01*
X41506900Y-109974147D01*
X41367519Y-109881015D01*
X41248985Y-109762481D01*
X41155853Y-109623100D01*
X41091703Y-109468228D01*
X41059000Y-109303816D01*
X41059000Y-109136184D01*
X41091703Y-108971772D01*
X41155853Y-108816900D01*
X41248985Y-108677519D01*
X41367519Y-108558985D01*
X41506900Y-108465853D01*
X41661772Y-108401703D01*
X41826184Y-108369000D01*
X41993816Y-108369000D01*
X42158228Y-108401703D01*
G37*
G36*
X26918228Y-108401703D02*
G01*
X27073100Y-108465853D01*
X27212481Y-108558985D01*
X27331015Y-108677519D01*
X27424147Y-108816900D01*
X27488297Y-108971772D01*
X27521000Y-109136184D01*
X27521000Y-109303816D01*
X27488297Y-109468228D01*
X27424147Y-109623100D01*
X27331015Y-109762481D01*
X27212481Y-109881015D01*
X27073100Y-109974147D01*
X26918228Y-110038297D01*
X26753816Y-110071000D01*
X26586184Y-110071000D01*
X26421772Y-110038297D01*
X26266900Y-109974147D01*
X26127519Y-109881015D01*
X26008985Y-109762481D01*
X25915853Y-109623100D01*
X25851703Y-109468228D01*
X25819000Y-109303816D01*
X25819000Y-109136184D01*
X25851703Y-108971772D01*
X25915853Y-108816900D01*
X26008985Y-108677519D01*
X26127519Y-108558985D01*
X26266900Y-108465853D01*
X26421772Y-108401703D01*
X26586184Y-108369000D01*
X26753816Y-108369000D01*
X26918228Y-108401703D01*
G37*
G36*
X-2302858Y-107803242D02*
G01*
X-2154899Y-107864529D01*
X-2021745Y-107953499D01*
X-1908499Y-108066745D01*
X-1819529Y-108199899D01*
X-1758242Y-108347858D01*
X-1727000Y-108504925D01*
X-1727000Y-108665075D01*
X-1758242Y-108822142D01*
X-1819529Y-108970101D01*
X-1908499Y-109103255D01*
X-2021745Y-109216501D01*
X-2154899Y-109305471D01*
X-2302858Y-109366758D01*
X-2459925Y-109398000D01*
X-2620075Y-109398000D01*
X-2777142Y-109366758D01*
X-2925101Y-109305471D01*
X-3058255Y-109216501D01*
X-3171501Y-109103255D01*
X-3260471Y-108970101D01*
X-3321758Y-108822142D01*
X-3353000Y-108665075D01*
X-3353000Y-108504925D01*
X-3321758Y-108347858D01*
X-3260471Y-108199899D01*
X-3171501Y-108066745D01*
X-3058255Y-107953499D01*
X-2925101Y-107864529D01*
X-2777142Y-107803242D01*
X-2620075Y-107772000D01*
X-2459925Y-107772000D01*
X-2302858Y-107803242D01*
G37*
G36*
X-30242858Y-107803242D02*
G01*
X-30094899Y-107864529D01*
X-29961745Y-107953499D01*
X-29848499Y-108066745D01*
X-29759529Y-108199899D01*
X-29698242Y-108347858D01*
X-29667000Y-108504925D01*
X-29667000Y-108665075D01*
X-29698242Y-108822142D01*
X-29759529Y-108970101D01*
X-29848499Y-109103255D01*
X-29961745Y-109216501D01*
X-30094899Y-109305471D01*
X-30242858Y-109366758D01*
X-30399925Y-109398000D01*
X-30560075Y-109398000D01*
X-30717142Y-109366758D01*
X-30865101Y-109305471D01*
X-30998255Y-109216501D01*
X-31111501Y-109103255D01*
X-31200471Y-108970101D01*
X-31261758Y-108822142D01*
X-31293000Y-108665075D01*
X-31293000Y-108504925D01*
X-31261758Y-108347858D01*
X-31200471Y-108199899D01*
X-31111501Y-108066745D01*
X-30998255Y-107953499D01*
X-30865101Y-107864529D01*
X-30717142Y-107803242D01*
X-30560075Y-107772000D01*
X-30399925Y-107772000D01*
X-30242858Y-107803242D01*
G37*
G36*
X333115256Y-105071298D02*
G01*
X333221579Y-105092447D01*
X333522042Y-105216903D01*
X333792451Y-105397585D01*
X334022415Y-105627549D01*
X334203097Y-105897958D01*
X334302327Y-106137519D01*
X334327553Y-106198422D01*
X334391000Y-106517389D01*
X334391000Y-106842611D01*
X334348702Y-107055256D01*
X334327553Y-107161579D01*
X334203097Y-107462042D01*
X334022415Y-107732451D01*
X333792451Y-107962415D01*
X333522042Y-108143097D01*
X333221579Y-108267553D01*
X333115256Y-108288702D01*
X332902611Y-108331000D01*
X332577389Y-108331000D01*
X332364744Y-108288702D01*
X332258421Y-108267553D01*
X331957958Y-108143097D01*
X331687549Y-107962415D01*
X331457585Y-107732451D01*
X331276903Y-107462042D01*
X331152447Y-107161579D01*
X331131298Y-107055256D01*
X331089000Y-106842611D01*
X331089000Y-106517389D01*
X331152447Y-106198422D01*
X331177674Y-106137519D01*
X331276903Y-105897958D01*
X331457585Y-105627549D01*
X331687549Y-105397585D01*
X331957958Y-105216903D01*
X332258421Y-105092447D01*
X332364744Y-105071298D01*
X332577389Y-105029000D01*
X332902611Y-105029000D01*
X333115256Y-105071298D01*
G37*
G36*
X208020256Y-105071298D02*
G01*
X208126579Y-105092447D01*
X208427042Y-105216903D01*
X208697451Y-105397585D01*
X208927415Y-105627549D01*
X209108097Y-105897958D01*
X209207327Y-106137519D01*
X209232553Y-106198422D01*
X209296000Y-106517389D01*
X209296000Y-106842611D01*
X209253702Y-107055256D01*
X209232553Y-107161579D01*
X209108097Y-107462042D01*
X208927415Y-107732451D01*
X208697451Y-107962415D01*
X208427042Y-108143097D01*
X208126579Y-108267553D01*
X208020256Y-108288702D01*
X207807611Y-108331000D01*
X207482389Y-108331000D01*
X207269744Y-108288702D01*
X207163421Y-108267553D01*
X206862958Y-108143097D01*
X206592549Y-107962415D01*
X206362585Y-107732451D01*
X206181903Y-107462042D01*
X206057447Y-107161579D01*
X206036298Y-107055256D01*
X205994000Y-106842611D01*
X205994000Y-106517389D01*
X206057447Y-106198422D01*
X206082674Y-106137519D01*
X206181903Y-105897958D01*
X206362585Y-105627549D01*
X206592549Y-105397585D01*
X206862958Y-105216903D01*
X207163421Y-105092447D01*
X207269744Y-105071298D01*
X207482389Y-105029000D01*
X207807611Y-105029000D01*
X208020256Y-105071298D01*
G37*
G36*
X201035256Y-105071298D02*
G01*
X201141579Y-105092447D01*
X201442042Y-105216903D01*
X201712451Y-105397585D01*
X201942415Y-105627549D01*
X202123097Y-105897958D01*
X202222327Y-106137519D01*
X202247553Y-106198422D01*
X202311000Y-106517389D01*
X202311000Y-106842611D01*
X202268702Y-107055256D01*
X202247553Y-107161579D01*
X202123097Y-107462042D01*
X201942415Y-107732451D01*
X201712451Y-107962415D01*
X201442042Y-108143097D01*
X201141579Y-108267553D01*
X201035256Y-108288702D01*
X200822611Y-108331000D01*
X200497389Y-108331000D01*
X200284744Y-108288702D01*
X200178421Y-108267553D01*
X199877958Y-108143097D01*
X199607549Y-107962415D01*
X199377585Y-107732451D01*
X199196903Y-107462042D01*
X199072447Y-107161579D01*
X199051298Y-107055256D01*
X199009000Y-106842611D01*
X199009000Y-106517389D01*
X199072447Y-106198422D01*
X199097674Y-106137519D01*
X199196903Y-105897958D01*
X199377585Y-105627549D01*
X199607549Y-105397585D01*
X199877958Y-105216903D01*
X200178421Y-105092447D01*
X200284744Y-105071298D01*
X200497389Y-105029000D01*
X200822611Y-105029000D01*
X201035256Y-105071298D01*
G37*
G36*
X75940256Y-105071298D02*
G01*
X76046579Y-105092447D01*
X76347042Y-105216903D01*
X76617451Y-105397585D01*
X76847415Y-105627549D01*
X77028097Y-105897958D01*
X77127327Y-106137519D01*
X77152553Y-106198422D01*
X77216000Y-106517389D01*
X77216000Y-106842611D01*
X77173702Y-107055256D01*
X77152553Y-107161579D01*
X77028097Y-107462042D01*
X76847415Y-107732451D01*
X76617451Y-107962415D01*
X76347042Y-108143097D01*
X76046579Y-108267553D01*
X75940256Y-108288702D01*
X75727611Y-108331000D01*
X75402389Y-108331000D01*
X75189744Y-108288702D01*
X75083421Y-108267553D01*
X74782958Y-108143097D01*
X74512549Y-107962415D01*
X74282585Y-107732451D01*
X74101903Y-107462042D01*
X73977447Y-107161579D01*
X73956298Y-107055256D01*
X73914000Y-106842611D01*
X73914000Y-106517389D01*
X73977447Y-106198422D01*
X74002674Y-106137519D01*
X74101903Y-105897958D01*
X74282585Y-105627549D01*
X74512549Y-105397585D01*
X74782958Y-105216903D01*
X75083421Y-105092447D01*
X75189744Y-105071298D01*
X75402389Y-105029000D01*
X75727611Y-105029000D01*
X75940256Y-105071298D01*
G37*
G36*
X50913512Y-105783927D02*
G01*
X51062812Y-105813624D01*
X51226784Y-105881544D01*
X51374354Y-105980147D01*
X51499853Y-106105646D01*
X51598456Y-106253216D01*
X51666376Y-106417188D01*
X51701000Y-106591259D01*
X51701000Y-106768741D01*
X51666376Y-106942812D01*
X51598456Y-107106784D01*
X51499853Y-107254354D01*
X51374354Y-107379853D01*
X51226784Y-107478456D01*
X51062812Y-107546376D01*
X50913512Y-107576073D01*
X50888742Y-107581000D01*
X50711258Y-107581000D01*
X50686488Y-107576073D01*
X50537188Y-107546376D01*
X50373216Y-107478456D01*
X50225646Y-107379853D01*
X50100147Y-107254354D01*
X50001544Y-107106784D01*
X49933624Y-106942812D01*
X49899000Y-106768741D01*
X49899000Y-106591259D01*
X49933624Y-106417188D01*
X50001544Y-106253216D01*
X50100147Y-106105646D01*
X50225646Y-105980147D01*
X50373216Y-105881544D01*
X50537188Y-105813624D01*
X50686488Y-105783927D01*
X50711258Y-105779000D01*
X50888742Y-105779000D01*
X50913512Y-105783927D01*
G37*
G36*
X42158228Y-105861703D02*
G01*
X42313100Y-105925853D01*
X42452481Y-106018985D01*
X42571015Y-106137519D01*
X42664147Y-106276900D01*
X42728297Y-106431772D01*
X42761000Y-106596184D01*
X42761000Y-106763816D01*
X42728297Y-106928228D01*
X42664147Y-107083100D01*
X42571015Y-107222481D01*
X42452481Y-107341015D01*
X42313100Y-107434147D01*
X42158228Y-107498297D01*
X41993816Y-107531000D01*
X41826184Y-107531000D01*
X41661772Y-107498297D01*
X41506900Y-107434147D01*
X41367519Y-107341015D01*
X41248985Y-107222481D01*
X41155853Y-107083100D01*
X41091703Y-106928228D01*
X41059000Y-106763816D01*
X41059000Y-106596184D01*
X41091703Y-106431772D01*
X41155853Y-106276900D01*
X41248985Y-106137519D01*
X41367519Y-106018985D01*
X41506900Y-105925853D01*
X41661772Y-105861703D01*
X41826184Y-105829000D01*
X41993816Y-105829000D01*
X42158228Y-105861703D01*
G37*
G36*
X26918228Y-105861703D02*
G01*
X27073100Y-105925853D01*
X27212481Y-106018985D01*
X27331015Y-106137519D01*
X27424147Y-106276900D01*
X27488297Y-106431772D01*
X27521000Y-106596184D01*
X27521000Y-106763816D01*
X27488297Y-106928228D01*
X27424147Y-107083100D01*
X27331015Y-107222481D01*
X27212481Y-107341015D01*
X27073100Y-107434147D01*
X26918228Y-107498297D01*
X26753816Y-107531000D01*
X26586184Y-107531000D01*
X26421772Y-107498297D01*
X26266900Y-107434147D01*
X26127519Y-107341015D01*
X26008985Y-107222481D01*
X25915853Y-107083100D01*
X25851703Y-106928228D01*
X25819000Y-106763816D01*
X25819000Y-106596184D01*
X25851703Y-106431772D01*
X25915853Y-106276900D01*
X26008985Y-106137519D01*
X26127519Y-106018985D01*
X26266900Y-105925853D01*
X26421772Y-105861703D01*
X26586184Y-105829000D01*
X26753816Y-105829000D01*
X26918228Y-105861703D01*
G37*
G36*
X-2302858Y-105263242D02*
G01*
X-2154899Y-105324529D01*
X-2021745Y-105413499D01*
X-1908499Y-105526745D01*
X-1819529Y-105659899D01*
X-1758242Y-105807858D01*
X-1727000Y-105964925D01*
X-1727000Y-106125075D01*
X-1758242Y-106282142D01*
X-1819529Y-106430101D01*
X-1908499Y-106563255D01*
X-2021745Y-106676501D01*
X-2154899Y-106765471D01*
X-2302858Y-106826758D01*
X-2459925Y-106858000D01*
X-2620075Y-106858000D01*
X-2777142Y-106826758D01*
X-2925101Y-106765471D01*
X-3058255Y-106676501D01*
X-3171501Y-106563255D01*
X-3260471Y-106430101D01*
X-3321758Y-106282142D01*
X-3353000Y-106125075D01*
X-3353000Y-105964925D01*
X-3321758Y-105807858D01*
X-3260471Y-105659899D01*
X-3171501Y-105526745D01*
X-3058255Y-105413499D01*
X-2925101Y-105324529D01*
X-2777142Y-105263242D01*
X-2620075Y-105232000D01*
X-2459925Y-105232000D01*
X-2302858Y-105263242D01*
G37*
G36*
X-30242858Y-105263242D02*
G01*
X-30094899Y-105324529D01*
X-29961745Y-105413499D01*
X-29848499Y-105526745D01*
X-29759529Y-105659899D01*
X-29698242Y-105807858D01*
X-29667000Y-105964925D01*
X-29667000Y-106125075D01*
X-29698242Y-106282142D01*
X-29759529Y-106430101D01*
X-29848499Y-106563255D01*
X-29961745Y-106676501D01*
X-30094899Y-106765471D01*
X-30242858Y-106826758D01*
X-30399925Y-106858000D01*
X-30560075Y-106858000D01*
X-30717142Y-106826758D01*
X-30865101Y-106765471D01*
X-30998255Y-106676501D01*
X-31111501Y-106563255D01*
X-31200471Y-106430101D01*
X-31261758Y-106282142D01*
X-31293000Y-106125075D01*
X-31293000Y-105964925D01*
X-31261758Y-105807858D01*
X-31200471Y-105659899D01*
X-31111501Y-105526745D01*
X-30998255Y-105413499D01*
X-30865101Y-105324529D01*
X-30717142Y-105263242D01*
X-30560075Y-105232000D01*
X-30399925Y-105232000D01*
X-30242858Y-105263242D01*
G37*
G36*
X51701000Y-105041000D02*
G01*
X49899000Y-105041000D01*
X49899000Y-103239000D01*
X51701000Y-103239000D01*
X51701000Y-105041000D01*
G37*
G36*
X42158228Y-103321703D02*
G01*
X42313100Y-103385853D01*
X42452481Y-103478985D01*
X42571015Y-103597519D01*
X42664147Y-103736900D01*
X42728297Y-103891772D01*
X42761000Y-104056184D01*
X42761000Y-104223816D01*
X42728297Y-104388228D01*
X42664147Y-104543100D01*
X42571015Y-104682481D01*
X42452481Y-104801015D01*
X42313100Y-104894147D01*
X42158228Y-104958297D01*
X41993816Y-104991000D01*
X41826184Y-104991000D01*
X41661772Y-104958297D01*
X41506900Y-104894147D01*
X41367519Y-104801015D01*
X41248985Y-104682481D01*
X41155853Y-104543100D01*
X41091703Y-104388228D01*
X41059000Y-104223816D01*
X41059000Y-104056184D01*
X41091703Y-103891772D01*
X41155853Y-103736900D01*
X41248985Y-103597519D01*
X41367519Y-103478985D01*
X41506900Y-103385853D01*
X41661772Y-103321703D01*
X41826184Y-103289000D01*
X41993816Y-103289000D01*
X42158228Y-103321703D01*
G37*
G36*
X26918228Y-103321703D02*
G01*
X27073100Y-103385853D01*
X27212481Y-103478985D01*
X27331015Y-103597519D01*
X27424147Y-103736900D01*
X27488297Y-103891772D01*
X27521000Y-104056184D01*
X27521000Y-104223816D01*
X27488297Y-104388228D01*
X27424147Y-104543100D01*
X27331015Y-104682481D01*
X27212481Y-104801015D01*
X27073100Y-104894147D01*
X26918228Y-104958297D01*
X26753816Y-104991000D01*
X26586184Y-104991000D01*
X26421772Y-104958297D01*
X26266900Y-104894147D01*
X26127519Y-104801015D01*
X26008985Y-104682481D01*
X25915853Y-104543100D01*
X25851703Y-104388228D01*
X25819000Y-104223816D01*
X25819000Y-104056184D01*
X25851703Y-103891772D01*
X25915853Y-103736900D01*
X26008985Y-103597519D01*
X26127519Y-103478985D01*
X26266900Y-103385853D01*
X26421772Y-103321703D01*
X26586184Y-103289000D01*
X26753816Y-103289000D01*
X26918228Y-103321703D01*
G37*
G36*
X-30242858Y-102723242D02*
G01*
X-30094899Y-102784529D01*
X-29961745Y-102873499D01*
X-29848499Y-102986745D01*
X-29759529Y-103119899D01*
X-29698242Y-103267858D01*
X-29667000Y-103424925D01*
X-29667000Y-103585075D01*
X-29698242Y-103742142D01*
X-29759529Y-103890101D01*
X-29848499Y-104023255D01*
X-29961745Y-104136501D01*
X-30094899Y-104225471D01*
X-30242858Y-104286758D01*
X-30399925Y-104318000D01*
X-30560075Y-104318000D01*
X-30717142Y-104286758D01*
X-30865101Y-104225471D01*
X-30998255Y-104136501D01*
X-31111501Y-104023255D01*
X-31200471Y-103890101D01*
X-31261758Y-103742142D01*
X-31293000Y-103585075D01*
X-31293000Y-103424925D01*
X-31261758Y-103267858D01*
X-31200471Y-103119899D01*
X-31111501Y-102986745D01*
X-30998255Y-102873499D01*
X-30865101Y-102784529D01*
X-30717142Y-102723242D01*
X-30560075Y-102692000D01*
X-30399925Y-102692000D01*
X-30242858Y-102723242D01*
G37*
G36*
X-2302858Y-102723242D02*
G01*
X-2154899Y-102784529D01*
X-2021745Y-102873499D01*
X-1908499Y-102986745D01*
X-1819529Y-103119899D01*
X-1758242Y-103267858D01*
X-1727000Y-103424925D01*
X-1727000Y-103585075D01*
X-1758242Y-103742142D01*
X-1819529Y-103890101D01*
X-1908499Y-104023255D01*
X-2021745Y-104136501D01*
X-2154899Y-104225471D01*
X-2302858Y-104286758D01*
X-2459925Y-104318000D01*
X-2620075Y-104318000D01*
X-2777142Y-104286758D01*
X-2925101Y-104225471D01*
X-3058255Y-104136501D01*
X-3171501Y-104023255D01*
X-3260471Y-103890101D01*
X-3321758Y-103742142D01*
X-3353000Y-103585075D01*
X-3353000Y-103424925D01*
X-3321758Y-103267858D01*
X-3260471Y-103119899D01*
X-3171501Y-102986745D01*
X-3058255Y-102873499D01*
X-2925101Y-102784529D01*
X-2777142Y-102723242D01*
X-2620075Y-102692000D01*
X-2459925Y-102692000D01*
X-2302858Y-102723242D01*
G37*
G36*
X26918228Y-100781703D02*
G01*
X27073100Y-100845853D01*
X27212481Y-100938985D01*
X27331015Y-101057519D01*
X27424147Y-101196900D01*
X27488297Y-101351772D01*
X27521000Y-101516184D01*
X27521000Y-101683816D01*
X27488297Y-101848228D01*
X27424147Y-102003100D01*
X27331015Y-102142481D01*
X27212481Y-102261015D01*
X27073100Y-102354147D01*
X26918228Y-102418297D01*
X26753816Y-102451000D01*
X26586184Y-102451000D01*
X26421772Y-102418297D01*
X26266900Y-102354147D01*
X26127519Y-102261015D01*
X26008985Y-102142481D01*
X25915853Y-102003100D01*
X25851703Y-101848228D01*
X25819000Y-101683816D01*
X25819000Y-101516184D01*
X25851703Y-101351772D01*
X25915853Y-101196900D01*
X26008985Y-101057519D01*
X26127519Y-100938985D01*
X26266900Y-100845853D01*
X26421772Y-100781703D01*
X26586184Y-100749000D01*
X26753816Y-100749000D01*
X26918228Y-100781703D01*
G37*
G36*
X42158228Y-100781703D02*
G01*
X42313100Y-100845853D01*
X42452481Y-100938985D01*
X42571015Y-101057519D01*
X42664147Y-101196900D01*
X42728297Y-101351772D01*
X42761000Y-101516184D01*
X42761000Y-101683816D01*
X42728297Y-101848228D01*
X42664147Y-102003100D01*
X42571015Y-102142481D01*
X42452481Y-102261015D01*
X42313100Y-102354147D01*
X42158228Y-102418297D01*
X41993816Y-102451000D01*
X41826184Y-102451000D01*
X41661772Y-102418297D01*
X41506900Y-102354147D01*
X41367519Y-102261015D01*
X41248985Y-102142481D01*
X41155853Y-102003100D01*
X41091703Y-101848228D01*
X41059000Y-101683816D01*
X41059000Y-101516184D01*
X41091703Y-101351772D01*
X41155853Y-101196900D01*
X41248985Y-101057519D01*
X41367519Y-100938985D01*
X41506900Y-100845853D01*
X41661772Y-100781703D01*
X41826184Y-100749000D01*
X41993816Y-100749000D01*
X42158228Y-100781703D01*
G37*
G36*
X-30242858Y-100183242D02*
G01*
X-30094899Y-100244529D01*
X-29961745Y-100333499D01*
X-29848499Y-100446745D01*
X-29759529Y-100579899D01*
X-29698242Y-100727858D01*
X-29667000Y-100884925D01*
X-29667000Y-101045075D01*
X-29698242Y-101202142D01*
X-29759529Y-101350101D01*
X-29848499Y-101483255D01*
X-29961745Y-101596501D01*
X-30094899Y-101685471D01*
X-30242858Y-101746758D01*
X-30399925Y-101778000D01*
X-30560075Y-101778000D01*
X-30717142Y-101746758D01*
X-30865101Y-101685471D01*
X-30998255Y-101596501D01*
X-31111501Y-101483255D01*
X-31200471Y-101350101D01*
X-31261758Y-101202142D01*
X-31293000Y-101045075D01*
X-31293000Y-100884925D01*
X-31261758Y-100727858D01*
X-31200471Y-100579899D01*
X-31111501Y-100446745D01*
X-30998255Y-100333499D01*
X-30865101Y-100244529D01*
X-30717142Y-100183242D01*
X-30560075Y-100152000D01*
X-30399925Y-100152000D01*
X-30242858Y-100183242D01*
G37*
G36*
X-2302858Y-100183242D02*
G01*
X-2154899Y-100244529D01*
X-2021745Y-100333499D01*
X-1908499Y-100446745D01*
X-1819529Y-100579899D01*
X-1758242Y-100727858D01*
X-1727000Y-100884925D01*
X-1727000Y-101045075D01*
X-1758242Y-101202142D01*
X-1819529Y-101350101D01*
X-1908499Y-101483255D01*
X-2021745Y-101596501D01*
X-2154899Y-101685471D01*
X-2302858Y-101746758D01*
X-2459925Y-101778000D01*
X-2620075Y-101778000D01*
X-2777142Y-101746758D01*
X-2925101Y-101685471D01*
X-3058255Y-101596501D01*
X-3171501Y-101483255D01*
X-3260471Y-101350101D01*
X-3321758Y-101202142D01*
X-3353000Y-101045075D01*
X-3353000Y-100884925D01*
X-3321758Y-100727858D01*
X-3260471Y-100579899D01*
X-3171501Y-100446745D01*
X-3058255Y-100333499D01*
X-2925101Y-100244529D01*
X-2777142Y-100183242D01*
X-2620075Y-100152000D01*
X-2459925Y-100152000D01*
X-2302858Y-100183242D01*
G37*
G36*
X26918228Y-98241703D02*
G01*
X27073100Y-98305853D01*
X27212481Y-98398985D01*
X27331015Y-98517519D01*
X27424147Y-98656900D01*
X27488297Y-98811772D01*
X27521000Y-98976184D01*
X27521000Y-99143816D01*
X27488297Y-99308228D01*
X27424147Y-99463100D01*
X27331015Y-99602481D01*
X27212481Y-99721015D01*
X27073100Y-99814147D01*
X26918228Y-99878297D01*
X26753816Y-99911000D01*
X26586184Y-99911000D01*
X26421772Y-99878297D01*
X26266900Y-99814147D01*
X26127519Y-99721015D01*
X26008985Y-99602481D01*
X25915853Y-99463100D01*
X25851703Y-99308228D01*
X25819000Y-99143816D01*
X25819000Y-98976184D01*
X25851703Y-98811772D01*
X25915853Y-98656900D01*
X26008985Y-98517519D01*
X26127519Y-98398985D01*
X26266900Y-98305853D01*
X26421772Y-98241703D01*
X26586184Y-98209000D01*
X26753816Y-98209000D01*
X26918228Y-98241703D01*
G37*
G36*
X42158228Y-98241703D02*
G01*
X42313100Y-98305853D01*
X42452481Y-98398985D01*
X42571015Y-98517519D01*
X42664147Y-98656900D01*
X42728297Y-98811772D01*
X42761000Y-98976184D01*
X42761000Y-99143816D01*
X42728297Y-99308228D01*
X42664147Y-99463100D01*
X42571015Y-99602481D01*
X42452481Y-99721015D01*
X42313100Y-99814147D01*
X42158228Y-99878297D01*
X41993816Y-99911000D01*
X41826184Y-99911000D01*
X41661772Y-99878297D01*
X41506900Y-99814147D01*
X41367519Y-99721015D01*
X41248985Y-99602481D01*
X41155853Y-99463100D01*
X41091703Y-99308228D01*
X41059000Y-99143816D01*
X41059000Y-98976184D01*
X41091703Y-98811772D01*
X41155853Y-98656900D01*
X41248985Y-98517519D01*
X41367519Y-98398985D01*
X41506900Y-98305853D01*
X41661772Y-98241703D01*
X41826184Y-98209000D01*
X41993816Y-98209000D01*
X42158228Y-98241703D01*
G37*
G36*
X-30242858Y-97643242D02*
G01*
X-30094899Y-97704529D01*
X-29961745Y-97793499D01*
X-29848499Y-97906745D01*
X-29759529Y-98039899D01*
X-29698242Y-98187858D01*
X-29667000Y-98344925D01*
X-29667000Y-98505075D01*
X-29698242Y-98662142D01*
X-29759529Y-98810101D01*
X-29848499Y-98943255D01*
X-29961745Y-99056501D01*
X-30094899Y-99145471D01*
X-30242858Y-99206758D01*
X-30399925Y-99238000D01*
X-30560075Y-99238000D01*
X-30717142Y-99206758D01*
X-30865101Y-99145471D01*
X-30998255Y-99056501D01*
X-31111501Y-98943255D01*
X-31200471Y-98810101D01*
X-31261758Y-98662142D01*
X-31293000Y-98505075D01*
X-31293000Y-98344925D01*
X-31261758Y-98187858D01*
X-31200471Y-98039899D01*
X-31111501Y-97906745D01*
X-30998255Y-97793499D01*
X-30865101Y-97704529D01*
X-30717142Y-97643242D01*
X-30560075Y-97612000D01*
X-30399925Y-97612000D01*
X-30242858Y-97643242D01*
G37*
G36*
X-2302858Y-97643242D02*
G01*
X-2154899Y-97704529D01*
X-2021745Y-97793499D01*
X-1908499Y-97906745D01*
X-1819529Y-98039899D01*
X-1758242Y-98187858D01*
X-1727000Y-98344925D01*
X-1727000Y-98505075D01*
X-1758242Y-98662142D01*
X-1819529Y-98810101D01*
X-1908499Y-98943255D01*
X-2021745Y-99056501D01*
X-2154899Y-99145471D01*
X-2302858Y-99206758D01*
X-2459925Y-99238000D01*
X-2620075Y-99238000D01*
X-2777142Y-99206758D01*
X-2925101Y-99145471D01*
X-3058255Y-99056501D01*
X-3171501Y-98943255D01*
X-3260471Y-98810101D01*
X-3321758Y-98662142D01*
X-3353000Y-98505075D01*
X-3353000Y-98344925D01*
X-3321758Y-98187858D01*
X-3260471Y-98039899D01*
X-3171501Y-97906745D01*
X-3058255Y-97793499D01*
X-2925101Y-97704529D01*
X-2777142Y-97643242D01*
X-2620075Y-97612000D01*
X-2459925Y-97612000D01*
X-2302858Y-97643242D01*
G37*
G36*
X19861000Y-98641000D02*
G01*
X18159000Y-98641000D01*
X18159000Y-96939000D01*
X19861000Y-96939000D01*
X19861000Y-98641000D01*
G37*
G36*
X16758228Y-96971703D02*
G01*
X16913100Y-97035853D01*
X17052481Y-97128985D01*
X17171015Y-97247519D01*
X17264147Y-97386900D01*
X17328297Y-97541772D01*
X17361000Y-97706184D01*
X17361000Y-97873816D01*
X17328297Y-98038228D01*
X17264147Y-98193100D01*
X17171015Y-98332481D01*
X17052481Y-98451015D01*
X16913100Y-98544147D01*
X16758228Y-98608297D01*
X16593816Y-98641000D01*
X16426184Y-98641000D01*
X16261772Y-98608297D01*
X16106900Y-98544147D01*
X15967519Y-98451015D01*
X15848985Y-98332481D01*
X15755853Y-98193100D01*
X15691703Y-98038228D01*
X15659000Y-97873816D01*
X15659000Y-97706184D01*
X15691703Y-97541772D01*
X15755853Y-97386900D01*
X15848985Y-97247519D01*
X15967519Y-97128985D01*
X16106900Y-97035853D01*
X16261772Y-96971703D01*
X16426184Y-96939000D01*
X16593816Y-96939000D01*
X16758228Y-96971703D01*
G37*
G36*
X9138228Y-96971703D02*
G01*
X9293100Y-97035853D01*
X9432481Y-97128985D01*
X9551015Y-97247519D01*
X9644147Y-97386900D01*
X9708297Y-97541772D01*
X9741000Y-97706184D01*
X9741000Y-97873816D01*
X9708297Y-98038228D01*
X9644147Y-98193100D01*
X9551015Y-98332481D01*
X9432481Y-98451015D01*
X9293100Y-98544147D01*
X9138228Y-98608297D01*
X8973816Y-98641000D01*
X8806184Y-98641000D01*
X8641772Y-98608297D01*
X8486900Y-98544147D01*
X8347519Y-98451015D01*
X8228985Y-98332481D01*
X8135853Y-98193100D01*
X8071703Y-98038228D01*
X8039000Y-97873816D01*
X8039000Y-97706184D01*
X8071703Y-97541772D01*
X8135853Y-97386900D01*
X8228985Y-97247519D01*
X8347519Y-97128985D01*
X8486900Y-97035853D01*
X8641772Y-96971703D01*
X8806184Y-96939000D01*
X8973816Y-96939000D01*
X9138228Y-96971703D01*
G37*
G36*
X7241000Y-98641000D02*
G01*
X5539000Y-98641000D01*
X5539000Y-96939000D01*
X7241000Y-96939000D01*
X7241000Y-98641000D01*
G37*
G36*
X42158228Y-95701703D02*
G01*
X42313100Y-95765853D01*
X42452481Y-95858985D01*
X42571015Y-95977519D01*
X42664147Y-96116900D01*
X42728297Y-96271772D01*
X42761000Y-96436184D01*
X42761000Y-96603816D01*
X42728297Y-96768228D01*
X42664147Y-96923100D01*
X42571015Y-97062481D01*
X42452481Y-97181015D01*
X42313100Y-97274147D01*
X42158228Y-97338297D01*
X41993816Y-97371000D01*
X41826184Y-97371000D01*
X41661772Y-97338297D01*
X41506900Y-97274147D01*
X41367519Y-97181015D01*
X41248985Y-97062481D01*
X41155853Y-96923100D01*
X41091703Y-96768228D01*
X41059000Y-96603816D01*
X41059000Y-96436184D01*
X41091703Y-96271772D01*
X41155853Y-96116900D01*
X41248985Y-95977519D01*
X41367519Y-95858985D01*
X41506900Y-95765853D01*
X41661772Y-95701703D01*
X41826184Y-95669000D01*
X41993816Y-95669000D01*
X42158228Y-95701703D01*
G37*
G36*
X26918228Y-95701703D02*
G01*
X27073100Y-95765853D01*
X27212481Y-95858985D01*
X27331015Y-95977519D01*
X27424147Y-96116900D01*
X27488297Y-96271772D01*
X27521000Y-96436184D01*
X27521000Y-96603816D01*
X27488297Y-96768228D01*
X27424147Y-96923100D01*
X27331015Y-97062481D01*
X27212481Y-97181015D01*
X27073100Y-97274147D01*
X26918228Y-97338297D01*
X26753816Y-97371000D01*
X26586184Y-97371000D01*
X26421772Y-97338297D01*
X26266900Y-97274147D01*
X26127519Y-97181015D01*
X26008985Y-97062481D01*
X25915853Y-96923100D01*
X25851703Y-96768228D01*
X25819000Y-96603816D01*
X25819000Y-96436184D01*
X25851703Y-96271772D01*
X25915853Y-96116900D01*
X26008985Y-95977519D01*
X26127519Y-95858985D01*
X26266900Y-95765853D01*
X26421772Y-95701703D01*
X26586184Y-95669000D01*
X26753816Y-95669000D01*
X26918228Y-95701703D01*
G37*
G36*
X-2302858Y-95103242D02*
G01*
X-2154899Y-95164529D01*
X-2021745Y-95253499D01*
X-1908499Y-95366745D01*
X-1819529Y-95499899D01*
X-1758242Y-95647858D01*
X-1727000Y-95804925D01*
X-1727000Y-95965075D01*
X-1758242Y-96122142D01*
X-1819529Y-96270101D01*
X-1908499Y-96403255D01*
X-2021745Y-96516501D01*
X-2154899Y-96605471D01*
X-2302858Y-96666758D01*
X-2459925Y-96698000D01*
X-2620075Y-96698000D01*
X-2777142Y-96666758D01*
X-2925101Y-96605471D01*
X-3058255Y-96516501D01*
X-3171501Y-96403255D01*
X-3260471Y-96270101D01*
X-3321758Y-96122142D01*
X-3353000Y-95965075D01*
X-3353000Y-95804925D01*
X-3321758Y-95647858D01*
X-3260471Y-95499899D01*
X-3171501Y-95366745D01*
X-3058255Y-95253499D01*
X-2925101Y-95164529D01*
X-2777142Y-95103242D01*
X-2620075Y-95072000D01*
X-2459925Y-95072000D01*
X-2302858Y-95103242D01*
G37*
G36*
X-30242858Y-95103242D02*
G01*
X-30094899Y-95164529D01*
X-29961745Y-95253499D01*
X-29848499Y-95366745D01*
X-29759529Y-95499899D01*
X-29698242Y-95647858D01*
X-29667000Y-95804925D01*
X-29667000Y-95965075D01*
X-29698242Y-96122142D01*
X-29759529Y-96270101D01*
X-29848499Y-96403255D01*
X-29961745Y-96516501D01*
X-30094899Y-96605471D01*
X-30242858Y-96666758D01*
X-30399925Y-96698000D01*
X-30560075Y-96698000D01*
X-30717142Y-96666758D01*
X-30865101Y-96605471D01*
X-30998255Y-96516501D01*
X-31111501Y-96403255D01*
X-31200471Y-96270101D01*
X-31261758Y-96122142D01*
X-31293000Y-95965075D01*
X-31293000Y-95804925D01*
X-31261758Y-95647858D01*
X-31200471Y-95499899D01*
X-31111501Y-95366745D01*
X-30998255Y-95253499D01*
X-30865101Y-95164529D01*
X-30717142Y-95103242D01*
X-30560075Y-95072000D01*
X-30399925Y-95072000D01*
X-30242858Y-95103242D01*
G37*
G36*
X333115256Y-92371298D02*
G01*
X333221579Y-92392447D01*
X333522042Y-92516903D01*
X333792451Y-92697585D01*
X334022415Y-92927549D01*
X334203097Y-93197958D01*
X334302327Y-93437519D01*
X334327553Y-93498422D01*
X334391000Y-93817389D01*
X334391000Y-94142611D01*
X334373969Y-94228229D01*
X334327553Y-94461579D01*
X334203097Y-94762042D01*
X334022415Y-95032451D01*
X333792451Y-95262415D01*
X333522042Y-95443097D01*
X333221579Y-95567553D01*
X333115256Y-95588702D01*
X332902611Y-95631000D01*
X332577389Y-95631000D01*
X332364744Y-95588702D01*
X332258421Y-95567553D01*
X331957958Y-95443097D01*
X331687549Y-95262415D01*
X331457585Y-95032451D01*
X331276903Y-94762042D01*
X331152447Y-94461579D01*
X331106031Y-94228229D01*
X331089000Y-94142611D01*
X331089000Y-93817389D01*
X331152447Y-93498422D01*
X331177674Y-93437519D01*
X331276903Y-93197958D01*
X331457585Y-92927549D01*
X331687549Y-92697585D01*
X331957958Y-92516903D01*
X332258421Y-92392447D01*
X332364744Y-92371298D01*
X332577389Y-92329000D01*
X332902611Y-92329000D01*
X333115256Y-92371298D01*
G37*
G36*
X75940256Y-92371298D02*
G01*
X76046579Y-92392447D01*
X76347042Y-92516903D01*
X76617451Y-92697585D01*
X76847415Y-92927549D01*
X77028097Y-93197958D01*
X77127327Y-93437519D01*
X77152553Y-93498422D01*
X77216000Y-93817389D01*
X77216000Y-94142611D01*
X77198969Y-94228229D01*
X77152553Y-94461579D01*
X77028097Y-94762042D01*
X76847415Y-95032451D01*
X76617451Y-95262415D01*
X76347042Y-95443097D01*
X76046579Y-95567553D01*
X75940256Y-95588702D01*
X75727611Y-95631000D01*
X75402389Y-95631000D01*
X75189744Y-95588702D01*
X75083421Y-95567553D01*
X74782958Y-95443097D01*
X74512549Y-95262415D01*
X74282585Y-95032451D01*
X74101903Y-94762042D01*
X73977447Y-94461579D01*
X73931031Y-94228229D01*
X73914000Y-94142611D01*
X73914000Y-93817389D01*
X73977447Y-93498422D01*
X74002674Y-93437519D01*
X74101903Y-93197958D01*
X74282585Y-92927549D01*
X74512549Y-92697585D01*
X74782958Y-92516903D01*
X75083421Y-92392447D01*
X75189744Y-92371298D01*
X75402389Y-92329000D01*
X75727611Y-92329000D01*
X75940256Y-92371298D01*
G37*
G36*
X201035256Y-92371298D02*
G01*
X201141579Y-92392447D01*
X201442042Y-92516903D01*
X201712451Y-92697585D01*
X201942415Y-92927549D01*
X202123097Y-93197958D01*
X202222327Y-93437519D01*
X202247553Y-93498422D01*
X202311000Y-93817389D01*
X202311000Y-94142611D01*
X202293969Y-94228229D01*
X202247553Y-94461579D01*
X202123097Y-94762042D01*
X201942415Y-95032451D01*
X201712451Y-95262415D01*
X201442042Y-95443097D01*
X201141579Y-95567553D01*
X201035256Y-95588702D01*
X200822611Y-95631000D01*
X200497389Y-95631000D01*
X200284744Y-95588702D01*
X200178421Y-95567553D01*
X199877958Y-95443097D01*
X199607549Y-95262415D01*
X199377585Y-95032451D01*
X199196903Y-94762042D01*
X199072447Y-94461579D01*
X199026031Y-94228229D01*
X199009000Y-94142611D01*
X199009000Y-93817389D01*
X199072447Y-93498422D01*
X199097674Y-93437519D01*
X199196903Y-93197958D01*
X199377585Y-92927549D01*
X199607549Y-92697585D01*
X199877958Y-92516903D01*
X200178421Y-92392447D01*
X200284744Y-92371298D01*
X200497389Y-92329000D01*
X200822611Y-92329000D01*
X201035256Y-92371298D01*
G37*
G36*
X208020256Y-92371298D02*
G01*
X208126579Y-92392447D01*
X208427042Y-92516903D01*
X208697451Y-92697585D01*
X208927415Y-92927549D01*
X209108097Y-93197958D01*
X209207327Y-93437519D01*
X209232553Y-93498422D01*
X209296000Y-93817389D01*
X209296000Y-94142611D01*
X209278969Y-94228229D01*
X209232553Y-94461579D01*
X209108097Y-94762042D01*
X208927415Y-95032451D01*
X208697451Y-95262415D01*
X208427042Y-95443097D01*
X208126579Y-95567553D01*
X208020256Y-95588702D01*
X207807611Y-95631000D01*
X207482389Y-95631000D01*
X207269744Y-95588702D01*
X207163421Y-95567553D01*
X206862958Y-95443097D01*
X206592549Y-95262415D01*
X206362585Y-95032451D01*
X206181903Y-94762042D01*
X206057447Y-94461579D01*
X206011031Y-94228229D01*
X205994000Y-94142611D01*
X205994000Y-93817389D01*
X206057447Y-93498422D01*
X206082674Y-93437519D01*
X206181903Y-93197958D01*
X206362585Y-92927549D01*
X206592549Y-92697585D01*
X206862958Y-92516903D01*
X207163421Y-92392447D01*
X207269744Y-92371298D01*
X207482389Y-92329000D01*
X207807611Y-92329000D01*
X208020256Y-92371298D01*
G37*
G36*
X42158228Y-93161703D02*
G01*
X42313100Y-93225853D01*
X42452481Y-93318985D01*
X42571015Y-93437519D01*
X42664147Y-93576900D01*
X42728297Y-93731772D01*
X42761000Y-93896184D01*
X42761000Y-94063816D01*
X42728297Y-94228228D01*
X42664147Y-94383100D01*
X42571015Y-94522481D01*
X42452481Y-94641015D01*
X42313100Y-94734147D01*
X42158228Y-94798297D01*
X41993816Y-94831000D01*
X41826184Y-94831000D01*
X41661772Y-94798297D01*
X41506900Y-94734147D01*
X41367519Y-94641015D01*
X41248985Y-94522481D01*
X41155853Y-94383100D01*
X41091703Y-94228228D01*
X41059000Y-94063816D01*
X41059000Y-93896184D01*
X41091703Y-93731772D01*
X41155853Y-93576900D01*
X41248985Y-93437519D01*
X41367519Y-93318985D01*
X41506900Y-93225853D01*
X41661772Y-93161703D01*
X41826184Y-93129000D01*
X41993816Y-93129000D01*
X42158228Y-93161703D01*
G37*
G36*
X26918228Y-93161703D02*
G01*
X27073100Y-93225853D01*
X27212481Y-93318985D01*
X27331015Y-93437519D01*
X27424147Y-93576900D01*
X27488297Y-93731772D01*
X27521000Y-93896184D01*
X27521000Y-94063816D01*
X27488297Y-94228228D01*
X27424147Y-94383100D01*
X27331015Y-94522481D01*
X27212481Y-94641015D01*
X27073100Y-94734147D01*
X26918228Y-94798297D01*
X26753816Y-94831000D01*
X26586184Y-94831000D01*
X26421772Y-94798297D01*
X26266900Y-94734147D01*
X26127519Y-94641015D01*
X26008985Y-94522481D01*
X25915853Y-94383100D01*
X25851703Y-94228228D01*
X25819000Y-94063816D01*
X25819000Y-93896184D01*
X25851703Y-93731772D01*
X25915853Y-93576900D01*
X26008985Y-93437519D01*
X26127519Y-93318985D01*
X26266900Y-93225853D01*
X26421772Y-93161703D01*
X26586184Y-93129000D01*
X26753816Y-93129000D01*
X26918228Y-93161703D01*
G37*
G36*
X-30242858Y-92563242D02*
G01*
X-30094899Y-92624529D01*
X-29961745Y-92713499D01*
X-29848499Y-92826745D01*
X-29759529Y-92959899D01*
X-29698242Y-93107858D01*
X-29667000Y-93264925D01*
X-29667000Y-93425075D01*
X-29698242Y-93582142D01*
X-29759529Y-93730101D01*
X-29848499Y-93863255D01*
X-29961745Y-93976501D01*
X-30094899Y-94065471D01*
X-30242858Y-94126758D01*
X-30399925Y-94158000D01*
X-30560075Y-94158000D01*
X-30717142Y-94126758D01*
X-30865101Y-94065471D01*
X-30998255Y-93976501D01*
X-31111501Y-93863255D01*
X-31200471Y-93730101D01*
X-31261758Y-93582142D01*
X-31293000Y-93425075D01*
X-31293000Y-93264925D01*
X-31261758Y-93107858D01*
X-31200471Y-92959899D01*
X-31111501Y-92826745D01*
X-30998255Y-92713499D01*
X-30865101Y-92624529D01*
X-30717142Y-92563242D01*
X-30560075Y-92532000D01*
X-30399925Y-92532000D01*
X-30242858Y-92563242D01*
G37*
G36*
X-2302858Y-92563242D02*
G01*
X-2154899Y-92624529D01*
X-2021745Y-92713499D01*
X-1908499Y-92826745D01*
X-1819529Y-92959899D01*
X-1758242Y-93107858D01*
X-1727000Y-93264925D01*
X-1727000Y-93425075D01*
X-1758242Y-93582142D01*
X-1819529Y-93730101D01*
X-1908499Y-93863255D01*
X-2021745Y-93976501D01*
X-2154899Y-94065471D01*
X-2302858Y-94126758D01*
X-2459925Y-94158000D01*
X-2620075Y-94158000D01*
X-2777142Y-94126758D01*
X-2925101Y-94065471D01*
X-3058255Y-93976501D01*
X-3171501Y-93863255D01*
X-3260471Y-93730101D01*
X-3321758Y-93582142D01*
X-3353000Y-93425075D01*
X-3353000Y-93264925D01*
X-3321758Y-93107858D01*
X-3260471Y-92959899D01*
X-3171501Y-92826745D01*
X-3058255Y-92713499D01*
X-2925101Y-92624529D01*
X-2777142Y-92563242D01*
X-2620075Y-92532000D01*
X-2459925Y-92532000D01*
X-2302858Y-92563242D01*
G37*
G36*
X42158228Y-90621703D02*
G01*
X42313100Y-90685853D01*
X42452481Y-90778985D01*
X42571015Y-90897519D01*
X42664147Y-91036900D01*
X42728297Y-91191772D01*
X42761000Y-91356184D01*
X42761000Y-91523816D01*
X42728297Y-91688228D01*
X42664147Y-91843100D01*
X42571015Y-91982481D01*
X42452481Y-92101015D01*
X42313100Y-92194147D01*
X42158228Y-92258297D01*
X41993816Y-92291000D01*
X41826184Y-92291000D01*
X41661772Y-92258297D01*
X41506900Y-92194147D01*
X41367519Y-92101015D01*
X41248985Y-91982481D01*
X41155853Y-91843100D01*
X41091703Y-91688228D01*
X41059000Y-91523816D01*
X41059000Y-91356184D01*
X41091703Y-91191772D01*
X41155853Y-91036900D01*
X41248985Y-90897519D01*
X41367519Y-90778985D01*
X41506900Y-90685853D01*
X41661772Y-90621703D01*
X41826184Y-90589000D01*
X41993816Y-90589000D01*
X42158228Y-90621703D01*
G37*
G36*
X26918228Y-90621703D02*
G01*
X27073100Y-90685853D01*
X27212481Y-90778985D01*
X27331015Y-90897519D01*
X27424147Y-91036900D01*
X27488297Y-91191772D01*
X27521000Y-91356184D01*
X27521000Y-91523816D01*
X27488297Y-91688228D01*
X27424147Y-91843100D01*
X27331015Y-91982481D01*
X27212481Y-92101015D01*
X27073100Y-92194147D01*
X26918228Y-92258297D01*
X26753816Y-92291000D01*
X26586184Y-92291000D01*
X26421772Y-92258297D01*
X26266900Y-92194147D01*
X26127519Y-92101015D01*
X26008985Y-91982481D01*
X25915853Y-91843100D01*
X25851703Y-91688228D01*
X25819000Y-91523816D01*
X25819000Y-91356184D01*
X25851703Y-91191772D01*
X25915853Y-91036900D01*
X26008985Y-90897519D01*
X26127519Y-90778985D01*
X26266900Y-90685853D01*
X26421772Y-90621703D01*
X26586184Y-90589000D01*
X26753816Y-90589000D01*
X26918228Y-90621703D01*
G37*
G36*
X13086719Y-89543520D02*
G01*
X13272422Y-89599852D01*
X13275883Y-89600902D01*
X13368333Y-89650318D01*
X13450212Y-89694083D01*
X13603015Y-89819485D01*
X13728417Y-89972288D01*
X13821599Y-90146619D01*
X13878980Y-90335780D01*
X13893500Y-90483206D01*
X13893500Y-90676793D01*
X13878980Y-90824219D01*
X13821599Y-91013380D01*
X13821598Y-91013383D01*
X13806225Y-91042143D01*
X13728417Y-91187712D01*
X13603015Y-91340515D01*
X13450212Y-91465917D01*
X13275881Y-91559099D01*
X13086720Y-91616480D01*
X12890000Y-91635855D01*
X12693281Y-91616480D01*
X12504120Y-91559099D01*
X12329788Y-91465917D01*
X12176985Y-91340515D01*
X12051583Y-91187712D01*
X11958401Y-91013381D01*
X11901020Y-90824220D01*
X11886500Y-90676794D01*
X11886500Y-90483207D01*
X11901020Y-90335781D01*
X11958401Y-90146620D01*
X11958402Y-90146617D01*
X12041047Y-89992000D01*
X12051583Y-89972288D01*
X12176985Y-89819485D01*
X12329788Y-89694083D01*
X12504119Y-89600901D01*
X12693280Y-89543520D01*
X12890000Y-89524145D01*
X13086719Y-89543520D01*
G37*
G36*
X15626719Y-89543520D02*
G01*
X15812422Y-89599852D01*
X15815883Y-89600902D01*
X15908333Y-89650318D01*
X15990212Y-89694083D01*
X16143015Y-89819485D01*
X16268417Y-89972288D01*
X16361599Y-90146619D01*
X16418980Y-90335780D01*
X16433500Y-90483206D01*
X16433500Y-90676793D01*
X16418980Y-90824219D01*
X16361599Y-91013380D01*
X16361598Y-91013383D01*
X16346225Y-91042143D01*
X16268417Y-91187712D01*
X16143015Y-91340515D01*
X15990212Y-91465917D01*
X15815881Y-91559099D01*
X15626720Y-91616480D01*
X15430000Y-91635855D01*
X15233281Y-91616480D01*
X15044120Y-91559099D01*
X14869788Y-91465917D01*
X14716985Y-91340515D01*
X14591583Y-91187712D01*
X14498401Y-91013381D01*
X14441020Y-90824220D01*
X14426500Y-90676794D01*
X14426500Y-90483207D01*
X14441020Y-90335781D01*
X14498401Y-90146620D01*
X14498402Y-90146617D01*
X14581047Y-89992000D01*
X14591583Y-89972288D01*
X14716985Y-89819485D01*
X14869788Y-89694083D01*
X15044119Y-89600901D01*
X15233280Y-89543520D01*
X15430000Y-89524145D01*
X15626719Y-89543520D01*
G37*
G36*
X11353500Y-91631000D02*
G01*
X9346500Y-91631000D01*
X9346500Y-89529000D01*
X11353500Y-89529000D01*
X11353500Y-91631000D01*
G37*
G36*
X-2302858Y-90023242D02*
G01*
X-2154899Y-90084529D01*
X-2021745Y-90173499D01*
X-1908499Y-90286745D01*
X-1819529Y-90419899D01*
X-1758242Y-90567858D01*
X-1727000Y-90724925D01*
X-1727000Y-90885075D01*
X-1758242Y-91042142D01*
X-1819529Y-91190101D01*
X-1908499Y-91323255D01*
X-2021745Y-91436501D01*
X-2154899Y-91525471D01*
X-2302858Y-91586758D01*
X-2459925Y-91618000D01*
X-2620075Y-91618000D01*
X-2777142Y-91586758D01*
X-2925101Y-91525471D01*
X-3058255Y-91436501D01*
X-3171501Y-91323255D01*
X-3260471Y-91190101D01*
X-3321758Y-91042142D01*
X-3353000Y-90885075D01*
X-3353000Y-90724925D01*
X-3321758Y-90567858D01*
X-3260471Y-90419899D01*
X-3171501Y-90286745D01*
X-3058255Y-90173499D01*
X-2925101Y-90084529D01*
X-2777142Y-90023242D01*
X-2620075Y-89992000D01*
X-2459925Y-89992000D01*
X-2302858Y-90023242D01*
G37*
G36*
X-30242858Y-90023242D02*
G01*
X-30094899Y-90084529D01*
X-29961745Y-90173499D01*
X-29848499Y-90286745D01*
X-29759529Y-90419899D01*
X-29698242Y-90567858D01*
X-29667000Y-90724925D01*
X-29667000Y-90885075D01*
X-29698242Y-91042142D01*
X-29759529Y-91190101D01*
X-29848499Y-91323255D01*
X-29961745Y-91436501D01*
X-30094899Y-91525471D01*
X-30242858Y-91586758D01*
X-30399925Y-91618000D01*
X-30560075Y-91618000D01*
X-30717142Y-91586758D01*
X-30865101Y-91525471D01*
X-30998255Y-91436501D01*
X-31111501Y-91323255D01*
X-31200471Y-91190101D01*
X-31261758Y-91042142D01*
X-31293000Y-90885075D01*
X-31293000Y-90724925D01*
X-31261758Y-90567858D01*
X-31200471Y-90419899D01*
X-31111501Y-90286745D01*
X-30998255Y-90173499D01*
X-30865101Y-90084529D01*
X-30717142Y-90023242D01*
X-30560075Y-89992000D01*
X-30399925Y-89992000D01*
X-30242858Y-90023242D01*
G37*
G36*
X354443512Y-88003927D02*
G01*
X354592812Y-88033624D01*
X354756784Y-88101544D01*
X354904354Y-88200147D01*
X355029853Y-88325646D01*
X355128456Y-88473216D01*
X355196376Y-88637188D01*
X355231000Y-88811259D01*
X355231000Y-88988741D01*
X355196376Y-89162812D01*
X355128456Y-89326784D01*
X355029853Y-89474354D01*
X354904354Y-89599853D01*
X354756784Y-89698456D01*
X354592812Y-89766376D01*
X354443512Y-89796073D01*
X354418742Y-89801000D01*
X354241258Y-89801000D01*
X354216488Y-89796073D01*
X354067188Y-89766376D01*
X353903216Y-89698456D01*
X353755646Y-89599853D01*
X353630147Y-89474354D01*
X353531544Y-89326784D01*
X353463624Y-89162812D01*
X353429000Y-88988741D01*
X353429000Y-88811259D01*
X353463624Y-88637188D01*
X353531544Y-88473216D01*
X353630147Y-88325646D01*
X353755646Y-88200147D01*
X353903216Y-88101544D01*
X354067188Y-88033624D01*
X354216488Y-88003927D01*
X354241258Y-87999000D01*
X354418742Y-87999000D01*
X354443512Y-88003927D01*
G37*
G36*
X42158228Y-88081703D02*
G01*
X42313100Y-88145853D01*
X42452481Y-88238985D01*
X42571015Y-88357519D01*
X42664147Y-88496900D01*
X42728297Y-88651772D01*
X42761000Y-88816184D01*
X42761000Y-88983816D01*
X42728297Y-89148228D01*
X42664147Y-89303100D01*
X42571015Y-89442481D01*
X42452481Y-89561015D01*
X42313100Y-89654147D01*
X42158228Y-89718297D01*
X41993816Y-89751000D01*
X41826184Y-89751000D01*
X41661772Y-89718297D01*
X41506900Y-89654147D01*
X41367519Y-89561015D01*
X41248985Y-89442481D01*
X41155853Y-89303100D01*
X41091703Y-89148228D01*
X41059000Y-88983816D01*
X41059000Y-88816184D01*
X41091703Y-88651772D01*
X41155853Y-88496900D01*
X41248985Y-88357519D01*
X41367519Y-88238985D01*
X41506900Y-88145853D01*
X41661772Y-88081703D01*
X41826184Y-88049000D01*
X41993816Y-88049000D01*
X42158228Y-88081703D01*
G37*
G36*
X26918228Y-88081703D02*
G01*
X27073100Y-88145853D01*
X27212481Y-88238985D01*
X27331015Y-88357519D01*
X27424147Y-88496900D01*
X27488297Y-88651772D01*
X27521000Y-88816184D01*
X27521000Y-88983816D01*
X27488297Y-89148228D01*
X27424147Y-89303100D01*
X27331015Y-89442481D01*
X27212481Y-89561015D01*
X27073100Y-89654147D01*
X26918228Y-89718297D01*
X26753816Y-89751000D01*
X26586184Y-89751000D01*
X26421772Y-89718297D01*
X26266900Y-89654147D01*
X26127519Y-89561015D01*
X26008985Y-89442481D01*
X25915853Y-89303100D01*
X25851703Y-89148228D01*
X25819000Y-88983816D01*
X25819000Y-88816184D01*
X25851703Y-88651772D01*
X25915853Y-88496900D01*
X26008985Y-88357519D01*
X26127519Y-88238985D01*
X26266900Y-88145853D01*
X26421772Y-88081703D01*
X26586184Y-88049000D01*
X26753816Y-88049000D01*
X26918228Y-88081703D01*
G37*
G36*
X-30242858Y-87483242D02*
G01*
X-30094899Y-87544529D01*
X-29961745Y-87633499D01*
X-29848499Y-87746745D01*
X-29759529Y-87879899D01*
X-29698242Y-88027858D01*
X-29667000Y-88184925D01*
X-29667000Y-88345075D01*
X-29698242Y-88502142D01*
X-29759529Y-88650101D01*
X-29848499Y-88783255D01*
X-29961745Y-88896501D01*
X-30094899Y-88985471D01*
X-30242858Y-89046758D01*
X-30399925Y-89078000D01*
X-30560075Y-89078000D01*
X-30717142Y-89046758D01*
X-30865101Y-88985471D01*
X-30998255Y-88896501D01*
X-31111501Y-88783255D01*
X-31200471Y-88650101D01*
X-31261758Y-88502142D01*
X-31293000Y-88345075D01*
X-31293000Y-88184925D01*
X-31261758Y-88027858D01*
X-31200471Y-87879899D01*
X-31111501Y-87746745D01*
X-30998255Y-87633499D01*
X-30865101Y-87544529D01*
X-30717142Y-87483242D01*
X-30560075Y-87452000D01*
X-30399925Y-87452000D01*
X-30242858Y-87483242D01*
G37*
G36*
X-2302858Y-87483242D02*
G01*
X-2154899Y-87544529D01*
X-2021745Y-87633499D01*
X-1908499Y-87746745D01*
X-1819529Y-87879899D01*
X-1758242Y-88027858D01*
X-1727000Y-88184925D01*
X-1727000Y-88345075D01*
X-1758242Y-88502142D01*
X-1819529Y-88650101D01*
X-1908499Y-88783255D01*
X-2021745Y-88896501D01*
X-2154899Y-88985471D01*
X-2302858Y-89046758D01*
X-2459925Y-89078000D01*
X-2620075Y-89078000D01*
X-2777142Y-89046758D01*
X-2925101Y-88985471D01*
X-3058255Y-88896501D01*
X-3171501Y-88783255D01*
X-3260471Y-88650101D01*
X-3321758Y-88502142D01*
X-3353000Y-88345075D01*
X-3353000Y-88184925D01*
X-3321758Y-88027858D01*
X-3260471Y-87879899D01*
X-3171501Y-87746745D01*
X-3058255Y-87633499D01*
X-2925101Y-87544529D01*
X-2777142Y-87483242D01*
X-2620075Y-87452000D01*
X-2459925Y-87452000D01*
X-2302858Y-87483242D01*
G37*
G36*
X354443512Y-85463927D02*
G01*
X354592812Y-85493624D01*
X354756784Y-85561544D01*
X354904354Y-85660147D01*
X355029853Y-85785646D01*
X355128456Y-85933216D01*
X355196376Y-86097188D01*
X355231000Y-86271259D01*
X355231000Y-86448741D01*
X355196376Y-86622812D01*
X355128456Y-86786784D01*
X355029853Y-86934354D01*
X354904354Y-87059853D01*
X354756784Y-87158456D01*
X354592812Y-87226376D01*
X354443512Y-87256073D01*
X354418742Y-87261000D01*
X354241258Y-87261000D01*
X354216488Y-87256073D01*
X354067188Y-87226376D01*
X353903216Y-87158456D01*
X353755646Y-87059853D01*
X353630147Y-86934354D01*
X353531544Y-86786784D01*
X353463624Y-86622812D01*
X353429000Y-86448741D01*
X353429000Y-86271259D01*
X353463624Y-86097188D01*
X353531544Y-85933216D01*
X353630147Y-85785646D01*
X353755646Y-85660147D01*
X353903216Y-85561544D01*
X354067188Y-85493624D01*
X354216488Y-85463927D01*
X354241258Y-85459000D01*
X354418742Y-85459000D01*
X354443512Y-85463927D01*
G37*
G36*
X-2302858Y-84943242D02*
G01*
X-2154899Y-85004529D01*
X-2021745Y-85093499D01*
X-1908499Y-85206745D01*
X-1819529Y-85339899D01*
X-1758242Y-85487858D01*
X-1727000Y-85644925D01*
X-1727000Y-85805075D01*
X-1758242Y-85962142D01*
X-1819529Y-86110101D01*
X-1908499Y-86243255D01*
X-2021745Y-86356501D01*
X-2154899Y-86445471D01*
X-2302858Y-86506758D01*
X-2459925Y-86538000D01*
X-2620075Y-86538000D01*
X-2777142Y-86506758D01*
X-2925101Y-86445471D01*
X-3058255Y-86356501D01*
X-3171501Y-86243255D01*
X-3260471Y-86110101D01*
X-3321758Y-85962142D01*
X-3353000Y-85805075D01*
X-3353000Y-85644925D01*
X-3321758Y-85487858D01*
X-3260471Y-85339899D01*
X-3171501Y-85206745D01*
X-3058255Y-85093499D01*
X-2925101Y-85004529D01*
X-2777142Y-84943242D01*
X-2620075Y-84912000D01*
X-2459925Y-84912000D01*
X-2302858Y-84943242D01*
G37*
G36*
X-30242858Y-84943242D02*
G01*
X-30094899Y-85004529D01*
X-29961745Y-85093499D01*
X-29848499Y-85206745D01*
X-29759529Y-85339899D01*
X-29698242Y-85487858D01*
X-29667000Y-85644925D01*
X-29667000Y-85805075D01*
X-29698242Y-85962142D01*
X-29759529Y-86110101D01*
X-29848499Y-86243255D01*
X-29961745Y-86356501D01*
X-30094899Y-86445471D01*
X-30242858Y-86506758D01*
X-30399925Y-86538000D01*
X-30560075Y-86538000D01*
X-30717142Y-86506758D01*
X-30865101Y-86445471D01*
X-30998255Y-86356501D01*
X-31111501Y-86243255D01*
X-31200471Y-86110101D01*
X-31261758Y-85962142D01*
X-31293000Y-85805075D01*
X-31293000Y-85644925D01*
X-31261758Y-85487858D01*
X-31200471Y-85339899D01*
X-31111501Y-85206745D01*
X-30998255Y-85093499D01*
X-30865101Y-85004529D01*
X-30717142Y-84943242D01*
X-30560075Y-84912000D01*
X-30399925Y-84912000D01*
X-30242858Y-84943242D01*
G37*
G36*
X354443512Y-82923927D02*
G01*
X354592812Y-82953624D01*
X354756784Y-83021544D01*
X354904354Y-83120147D01*
X355029853Y-83245646D01*
X355128456Y-83393216D01*
X355196376Y-83557188D01*
X355231000Y-83731259D01*
X355231000Y-83908741D01*
X355196376Y-84082812D01*
X355128456Y-84246784D01*
X355029853Y-84394354D01*
X354904354Y-84519853D01*
X354756784Y-84618456D01*
X354592812Y-84686376D01*
X354443512Y-84716073D01*
X354418742Y-84721000D01*
X354241258Y-84721000D01*
X354216488Y-84716073D01*
X354067188Y-84686376D01*
X353903216Y-84618456D01*
X353755646Y-84519853D01*
X353630147Y-84394354D01*
X353531544Y-84246784D01*
X353463624Y-84082812D01*
X353429000Y-83908741D01*
X353429000Y-83731259D01*
X353463624Y-83557188D01*
X353531544Y-83393216D01*
X353630147Y-83245646D01*
X353755646Y-83120147D01*
X353903216Y-83021544D01*
X354067188Y-82953624D01*
X354216488Y-82923927D01*
X354241258Y-82919000D01*
X354418742Y-82919000D01*
X354443512Y-82923927D01*
G37*
G36*
X-2302858Y-82403242D02*
G01*
X-2154899Y-82464529D01*
X-2021745Y-82553499D01*
X-1908499Y-82666745D01*
X-1819529Y-82799899D01*
X-1758242Y-82947858D01*
X-1727000Y-83104925D01*
X-1727000Y-83265075D01*
X-1758242Y-83422142D01*
X-1819529Y-83570101D01*
X-1908499Y-83703255D01*
X-2021745Y-83816501D01*
X-2154899Y-83905471D01*
X-2302858Y-83966758D01*
X-2459925Y-83998000D01*
X-2620075Y-83998000D01*
X-2777142Y-83966758D01*
X-2925101Y-83905471D01*
X-3058255Y-83816501D01*
X-3171501Y-83703255D01*
X-3260471Y-83570101D01*
X-3321758Y-83422142D01*
X-3353000Y-83265075D01*
X-3353000Y-83104925D01*
X-3321758Y-82947858D01*
X-3260471Y-82799899D01*
X-3171501Y-82666745D01*
X-3058255Y-82553499D01*
X-2925101Y-82464529D01*
X-2777142Y-82403242D01*
X-2620075Y-82372000D01*
X-2459925Y-82372000D01*
X-2302858Y-82403242D01*
G37*
G36*
X-30242858Y-82403242D02*
G01*
X-30094899Y-82464529D01*
X-29961745Y-82553499D01*
X-29848499Y-82666745D01*
X-29759529Y-82799899D01*
X-29698242Y-82947858D01*
X-29667000Y-83104925D01*
X-29667000Y-83265075D01*
X-29698242Y-83422142D01*
X-29759529Y-83570101D01*
X-29848499Y-83703255D01*
X-29961745Y-83816501D01*
X-30094899Y-83905471D01*
X-30242858Y-83966758D01*
X-30399925Y-83998000D01*
X-30560075Y-83998000D01*
X-30717142Y-83966758D01*
X-30865101Y-83905471D01*
X-30998255Y-83816501D01*
X-31111501Y-83703255D01*
X-31200471Y-83570101D01*
X-31261758Y-83422142D01*
X-31293000Y-83265075D01*
X-31293000Y-83104925D01*
X-31261758Y-82947858D01*
X-31200471Y-82799899D01*
X-31111501Y-82666745D01*
X-30998255Y-82553499D01*
X-30865101Y-82464529D01*
X-30717142Y-82403242D01*
X-30560075Y-82372000D01*
X-30399925Y-82372000D01*
X-30242858Y-82403242D01*
G37*
G36*
X354443512Y-80383927D02*
G01*
X354592812Y-80413624D01*
X354756784Y-80481544D01*
X354904354Y-80580147D01*
X355029853Y-80705646D01*
X355128456Y-80853216D01*
X355196376Y-81017188D01*
X355231000Y-81191259D01*
X355231000Y-81368741D01*
X355196376Y-81542812D01*
X355128456Y-81706784D01*
X355029853Y-81854354D01*
X354904354Y-81979853D01*
X354756784Y-82078456D01*
X354592812Y-82146376D01*
X354443512Y-82176073D01*
X354418742Y-82181000D01*
X354241258Y-82181000D01*
X354216488Y-82176073D01*
X354067188Y-82146376D01*
X353903216Y-82078456D01*
X353755646Y-81979853D01*
X353630147Y-81854354D01*
X353531544Y-81706784D01*
X353463624Y-81542812D01*
X353429000Y-81368741D01*
X353429000Y-81191259D01*
X353463624Y-81017188D01*
X353531544Y-80853216D01*
X353630147Y-80705646D01*
X353755646Y-80580147D01*
X353903216Y-80481544D01*
X354067188Y-80413624D01*
X354216488Y-80383927D01*
X354241258Y-80379000D01*
X354418742Y-80379000D01*
X354443512Y-80383927D01*
G37*
G36*
X-30242858Y-79863242D02*
G01*
X-30094899Y-79924529D01*
X-29961745Y-80013499D01*
X-29848499Y-80126745D01*
X-29759529Y-80259899D01*
X-29698242Y-80407858D01*
X-29667000Y-80564925D01*
X-29667000Y-80725075D01*
X-29698242Y-80882142D01*
X-29759529Y-81030101D01*
X-29848499Y-81163255D01*
X-29961745Y-81276501D01*
X-30094899Y-81365471D01*
X-30242858Y-81426758D01*
X-30399925Y-81458000D01*
X-30560075Y-81458000D01*
X-30717142Y-81426758D01*
X-30865101Y-81365471D01*
X-30998255Y-81276501D01*
X-31111501Y-81163255D01*
X-31200471Y-81030101D01*
X-31261758Y-80882142D01*
X-31293000Y-80725075D01*
X-31293000Y-80564925D01*
X-31261758Y-80407858D01*
X-31200471Y-80259899D01*
X-31111501Y-80126745D01*
X-30998255Y-80013499D01*
X-30865101Y-79924529D01*
X-30717142Y-79863242D01*
X-30560075Y-79832000D01*
X-30399925Y-79832000D01*
X-30242858Y-79863242D01*
G37*
G36*
X-2302858Y-79863242D02*
G01*
X-2154899Y-79924529D01*
X-2021745Y-80013499D01*
X-1908499Y-80126745D01*
X-1819529Y-80259899D01*
X-1758242Y-80407858D01*
X-1727000Y-80564925D01*
X-1727000Y-80725075D01*
X-1758242Y-80882142D01*
X-1819529Y-81030101D01*
X-1908499Y-81163255D01*
X-2021745Y-81276501D01*
X-2154899Y-81365471D01*
X-2302858Y-81426758D01*
X-2459925Y-81458000D01*
X-2620075Y-81458000D01*
X-2777142Y-81426758D01*
X-2925101Y-81365471D01*
X-3058255Y-81276501D01*
X-3171501Y-81163255D01*
X-3260471Y-81030101D01*
X-3321758Y-80882142D01*
X-3353000Y-80725075D01*
X-3353000Y-80564925D01*
X-3321758Y-80407858D01*
X-3260471Y-80259899D01*
X-3171501Y-80126745D01*
X-3058255Y-80013499D01*
X-2925101Y-79924529D01*
X-2777142Y-79863242D01*
X-2620075Y-79832000D01*
X-2459925Y-79832000D01*
X-2302858Y-79863242D01*
G37*
G36*
X355231000Y-79641000D02*
G01*
X353429000Y-79641000D01*
X353429000Y-77839000D01*
X355231000Y-77839000D01*
X355231000Y-79641000D01*
G37*
G36*
X50913512Y-77843927D02*
G01*
X51062812Y-77873624D01*
X51226784Y-77941544D01*
X51374354Y-78040147D01*
X51499853Y-78165646D01*
X51598456Y-78313216D01*
X51666376Y-78477188D01*
X51701000Y-78651259D01*
X51701000Y-78828741D01*
X51666376Y-79002812D01*
X51598456Y-79166784D01*
X51499853Y-79314354D01*
X51374354Y-79439853D01*
X51226784Y-79538456D01*
X51062812Y-79606376D01*
X50913512Y-79636073D01*
X50888742Y-79641000D01*
X50711258Y-79641000D01*
X50686488Y-79636073D01*
X50537188Y-79606376D01*
X50373216Y-79538456D01*
X50225646Y-79439853D01*
X50100147Y-79314354D01*
X50001544Y-79166784D01*
X49933624Y-79002812D01*
X49899000Y-78828741D01*
X49899000Y-78651259D01*
X49933624Y-78477188D01*
X50001544Y-78313216D01*
X50100147Y-78165646D01*
X50225646Y-78040147D01*
X50373216Y-77941544D01*
X50537188Y-77873624D01*
X50686488Y-77843927D01*
X50711258Y-77839000D01*
X50888742Y-77839000D01*
X50913512Y-77843927D01*
G37*
G36*
X50913512Y-75303927D02*
G01*
X51062812Y-75333624D01*
X51226784Y-75401544D01*
X51374354Y-75500147D01*
X51499853Y-75625646D01*
X51598456Y-75773216D01*
X51666376Y-75937188D01*
X51701000Y-76111259D01*
X51701000Y-76288741D01*
X51666376Y-76462812D01*
X51598456Y-76626784D01*
X51499853Y-76774354D01*
X51374354Y-76899853D01*
X51226784Y-76998456D01*
X51062812Y-77066376D01*
X50913512Y-77096073D01*
X50888742Y-77101000D01*
X50711258Y-77101000D01*
X50686488Y-77096073D01*
X50537188Y-77066376D01*
X50373216Y-76998456D01*
X50225646Y-76899853D01*
X50100147Y-76774354D01*
X50001544Y-76626784D01*
X49933624Y-76462812D01*
X49899000Y-76288741D01*
X49899000Y-76111259D01*
X49933624Y-75937188D01*
X50001544Y-75773216D01*
X50100147Y-75625646D01*
X50225646Y-75500147D01*
X50373216Y-75401544D01*
X50537188Y-75333624D01*
X50686488Y-75303927D01*
X50711258Y-75299000D01*
X50888742Y-75299000D01*
X50913512Y-75303927D01*
G37*
G36*
X13415331Y-72188211D02*
G01*
X13743092Y-72323974D01*
X14038070Y-72521072D01*
X14288928Y-72771930D01*
X14486026Y-73066908D01*
X14621789Y-73394669D01*
X14691000Y-73742616D01*
X14691000Y-74097384D01*
X14621789Y-74445331D01*
X14486026Y-74773092D01*
X14288928Y-75068070D01*
X14038070Y-75318928D01*
X13743092Y-75516026D01*
X13415331Y-75651789D01*
X13067384Y-75721000D01*
X12712616Y-75721000D01*
X12364669Y-75651789D01*
X12036908Y-75516026D01*
X11741930Y-75318928D01*
X11491072Y-75068070D01*
X11293974Y-74773092D01*
X11158211Y-74445331D01*
X11089000Y-74097384D01*
X11089000Y-73742616D01*
X11158211Y-73394669D01*
X11293974Y-73066908D01*
X11491072Y-72771930D01*
X11741930Y-72521072D01*
X12036908Y-72323974D01*
X12364669Y-72188211D01*
X12712616Y-72119000D01*
X13067384Y-72119000D01*
X13415331Y-72188211D01*
G37*
G36*
X50913512Y-72763927D02*
G01*
X51062812Y-72793624D01*
X51226784Y-72861544D01*
X51374354Y-72960147D01*
X51499853Y-73085646D01*
X51598456Y-73233216D01*
X51666376Y-73397188D01*
X51701000Y-73571259D01*
X51701000Y-73748741D01*
X51666376Y-73922812D01*
X51598456Y-74086784D01*
X51499853Y-74234354D01*
X51374354Y-74359853D01*
X51226784Y-74458456D01*
X51062812Y-74526376D01*
X50913512Y-74556073D01*
X50888742Y-74561000D01*
X50711258Y-74561000D01*
X50686488Y-74556073D01*
X50537188Y-74526376D01*
X50373216Y-74458456D01*
X50225646Y-74359853D01*
X50100147Y-74234354D01*
X50001544Y-74086784D01*
X49933624Y-73922812D01*
X49899000Y-73748741D01*
X49899000Y-73571259D01*
X49933624Y-73397188D01*
X50001544Y-73233216D01*
X50100147Y-73085646D01*
X50225646Y-72960147D01*
X50373216Y-72861544D01*
X50537188Y-72793624D01*
X50686488Y-72763927D01*
X50711258Y-72759000D01*
X50888742Y-72759000D01*
X50913512Y-72763927D01*
G37*
G36*
X333115256Y-70781298D02*
G01*
X333221579Y-70802447D01*
X333522042Y-70926903D01*
X333792451Y-71107585D01*
X334022415Y-71337549D01*
X334203097Y-71607958D01*
X334324911Y-71902042D01*
X334327553Y-71908422D01*
X334391000Y-72227389D01*
X334391000Y-72552611D01*
X334360180Y-72707553D01*
X334327553Y-72871579D01*
X334203097Y-73172042D01*
X334022415Y-73442451D01*
X333792451Y-73672415D01*
X333522042Y-73853097D01*
X333221579Y-73977553D01*
X333115256Y-73998702D01*
X332902611Y-74041000D01*
X332577389Y-74041000D01*
X332364744Y-73998702D01*
X332258421Y-73977553D01*
X331957958Y-73853097D01*
X331687549Y-73672415D01*
X331457585Y-73442451D01*
X331276903Y-73172042D01*
X331152447Y-72871579D01*
X331119820Y-72707553D01*
X331089000Y-72552611D01*
X331089000Y-72227389D01*
X331152447Y-71908422D01*
X331155090Y-71902042D01*
X331276903Y-71607958D01*
X331457585Y-71337549D01*
X331687549Y-71107585D01*
X331957958Y-70926903D01*
X332258421Y-70802447D01*
X332364744Y-70781298D01*
X332577389Y-70739000D01*
X332902611Y-70739000D01*
X333115256Y-70781298D01*
G37*
G36*
X208020256Y-70781298D02*
G01*
X208126579Y-70802447D01*
X208427042Y-70926903D01*
X208697451Y-71107585D01*
X208927415Y-71337549D01*
X209108097Y-71607958D01*
X209229911Y-71902042D01*
X209232553Y-71908422D01*
X209296000Y-72227389D01*
X209296000Y-72552611D01*
X209265180Y-72707553D01*
X209232553Y-72871579D01*
X209108097Y-73172042D01*
X208927415Y-73442451D01*
X208697451Y-73672415D01*
X208427042Y-73853097D01*
X208126579Y-73977553D01*
X208020256Y-73998702D01*
X207807611Y-74041000D01*
X207482389Y-74041000D01*
X207269744Y-73998702D01*
X207163421Y-73977553D01*
X206862958Y-73853097D01*
X206592549Y-73672415D01*
X206362585Y-73442451D01*
X206181903Y-73172042D01*
X206057447Y-72871579D01*
X206024820Y-72707553D01*
X205994000Y-72552611D01*
X205994000Y-72227389D01*
X206057447Y-71908422D01*
X206060090Y-71902042D01*
X206181903Y-71607958D01*
X206362585Y-71337549D01*
X206592549Y-71107585D01*
X206862958Y-70926903D01*
X207163421Y-70802447D01*
X207269744Y-70781298D01*
X207482389Y-70739000D01*
X207807611Y-70739000D01*
X208020256Y-70781298D01*
G37*
G36*
X201035256Y-70781298D02*
G01*
X201141579Y-70802447D01*
X201442042Y-70926903D01*
X201712451Y-71107585D01*
X201942415Y-71337549D01*
X202123097Y-71607958D01*
X202244911Y-71902042D01*
X202247553Y-71908422D01*
X202311000Y-72227389D01*
X202311000Y-72552611D01*
X202280180Y-72707553D01*
X202247553Y-72871579D01*
X202123097Y-73172042D01*
X201942415Y-73442451D01*
X201712451Y-73672415D01*
X201442042Y-73853097D01*
X201141579Y-73977553D01*
X201035256Y-73998702D01*
X200822611Y-74041000D01*
X200497389Y-74041000D01*
X200284744Y-73998702D01*
X200178421Y-73977553D01*
X199877958Y-73853097D01*
X199607549Y-73672415D01*
X199377585Y-73442451D01*
X199196903Y-73172042D01*
X199072447Y-72871579D01*
X199039820Y-72707553D01*
X199009000Y-72552611D01*
X199009000Y-72227389D01*
X199072447Y-71908422D01*
X199075090Y-71902042D01*
X199196903Y-71607958D01*
X199377585Y-71337549D01*
X199607549Y-71107585D01*
X199877958Y-70926903D01*
X200178421Y-70802447D01*
X200284744Y-70781298D01*
X200497389Y-70739000D01*
X200822611Y-70739000D01*
X201035256Y-70781298D01*
G37*
G36*
X75940256Y-70781298D02*
G01*
X76046579Y-70802447D01*
X76347042Y-70926903D01*
X76617451Y-71107585D01*
X76847415Y-71337549D01*
X77028097Y-71607958D01*
X77149911Y-71902042D01*
X77152553Y-71908422D01*
X77216000Y-72227389D01*
X77216000Y-72552611D01*
X77185180Y-72707553D01*
X77152553Y-72871579D01*
X77028097Y-73172042D01*
X76847415Y-73442451D01*
X76617451Y-73672415D01*
X76347042Y-73853097D01*
X76046579Y-73977553D01*
X75940256Y-73998702D01*
X75727611Y-74041000D01*
X75402389Y-74041000D01*
X75189744Y-73998702D01*
X75083421Y-73977553D01*
X74782958Y-73853097D01*
X74512549Y-73672415D01*
X74282585Y-73442451D01*
X74101903Y-73172042D01*
X73977447Y-72871579D01*
X73944820Y-72707553D01*
X73914000Y-72552611D01*
X73914000Y-72227389D01*
X73977447Y-71908422D01*
X73980090Y-71902042D01*
X74101903Y-71607958D01*
X74282585Y-71337549D01*
X74512549Y-71107585D01*
X74782958Y-70926903D01*
X75083421Y-70802447D01*
X75189744Y-70781298D01*
X75402389Y-70739000D01*
X75727611Y-70739000D01*
X75940256Y-70781298D01*
G37*
G36*
X5193512Y-71493927D02*
G01*
X5342812Y-71523624D01*
X5506784Y-71591544D01*
X5654354Y-71690147D01*
X5779853Y-71815646D01*
X5878456Y-71963216D01*
X5946376Y-72127188D01*
X5981000Y-72301259D01*
X5981000Y-72478741D01*
X5946376Y-72652812D01*
X5878456Y-72816784D01*
X5779853Y-72964354D01*
X5654354Y-73089853D01*
X5506784Y-73188456D01*
X5342812Y-73256376D01*
X5193512Y-73286073D01*
X5168742Y-73291000D01*
X4991258Y-73291000D01*
X4966488Y-73286073D01*
X4817188Y-73256376D01*
X4653216Y-73188456D01*
X4505646Y-73089853D01*
X4380147Y-72964354D01*
X4281544Y-72816784D01*
X4213624Y-72652812D01*
X4179000Y-72478741D01*
X4179000Y-72301259D01*
X4213624Y-72127188D01*
X4281544Y-71963216D01*
X4380147Y-71815646D01*
X4505646Y-71690147D01*
X4653216Y-71591544D01*
X4817188Y-71523624D01*
X4966488Y-71493927D01*
X4991258Y-71489000D01*
X5168742Y-71489000D01*
X5193512Y-71493927D01*
G37*
G36*
X3441000Y-73291000D02*
G01*
X1639000Y-73291000D01*
X1639000Y-71489000D01*
X3441000Y-71489000D01*
X3441000Y-73291000D01*
G37*
G36*
X353435256Y-69511298D02*
G01*
X353541579Y-69532447D01*
X353842042Y-69656903D01*
X354112451Y-69837585D01*
X354342415Y-70067549D01*
X354523097Y-70337958D01*
X354609125Y-70545647D01*
X354647553Y-70638422D01*
X354711000Y-70957389D01*
X354711000Y-71282611D01*
X354669946Y-71489000D01*
X354647553Y-71601579D01*
X354523097Y-71902042D01*
X354342415Y-72172451D01*
X354112451Y-72402415D01*
X353842042Y-72583097D01*
X353541579Y-72707553D01*
X353435256Y-72728702D01*
X353222611Y-72771000D01*
X352897389Y-72771000D01*
X352684744Y-72728702D01*
X352578421Y-72707553D01*
X352277958Y-72583097D01*
X352007549Y-72402415D01*
X351777585Y-72172451D01*
X351596903Y-71902042D01*
X351472447Y-71601579D01*
X351450054Y-71489000D01*
X351409000Y-71282611D01*
X351409000Y-70957389D01*
X351472447Y-70638422D01*
X351510876Y-70545647D01*
X351596903Y-70337958D01*
X351777585Y-70067549D01*
X352007549Y-69837585D01*
X352277958Y-69656903D01*
X352578421Y-69532447D01*
X352684744Y-69511298D01*
X352897389Y-69469000D01*
X353222611Y-69469000D01*
X353435256Y-69511298D01*
G37*
G36*
X-35184744Y-69511298D02*
G01*
X-35078421Y-69532447D01*
X-34777958Y-69656903D01*
X-34507549Y-69837585D01*
X-34277585Y-70067549D01*
X-34096903Y-70337958D01*
X-34010875Y-70545647D01*
X-33972447Y-70638422D01*
X-33909000Y-70957389D01*
X-33909000Y-71282611D01*
X-33950054Y-71489000D01*
X-33972447Y-71601579D01*
X-34096903Y-71902042D01*
X-34277585Y-72172451D01*
X-34507549Y-72402415D01*
X-34777958Y-72583097D01*
X-35078421Y-72707553D01*
X-35184744Y-72728702D01*
X-35397389Y-72771000D01*
X-35722611Y-72771000D01*
X-35935256Y-72728702D01*
X-36041579Y-72707553D01*
X-36342042Y-72583097D01*
X-36612451Y-72402415D01*
X-36842415Y-72172451D01*
X-37023097Y-71902042D01*
X-37147553Y-71601579D01*
X-37169946Y-71489000D01*
X-37211000Y-71282611D01*
X-37211000Y-70957389D01*
X-37147553Y-70638422D01*
X-37109124Y-70545647D01*
X-37023097Y-70337958D01*
X-36842415Y-70067549D01*
X-36612451Y-69837585D01*
X-36342042Y-69656903D01*
X-36041579Y-69532447D01*
X-35935256Y-69511298D01*
X-35722611Y-69469000D01*
X-35397389Y-69469000D01*
X-35184744Y-69511298D01*
G37*
G36*
X50913512Y-70223927D02*
G01*
X51062812Y-70253624D01*
X51226784Y-70321544D01*
X51374354Y-70420147D01*
X51499853Y-70545646D01*
X51598456Y-70693216D01*
X51666376Y-70857188D01*
X51701000Y-71031259D01*
X51701000Y-71208741D01*
X51666376Y-71382812D01*
X51598456Y-71546784D01*
X51499853Y-71694354D01*
X51374354Y-71819853D01*
X51226784Y-71918456D01*
X51062812Y-71986376D01*
X50913512Y-72016073D01*
X50888742Y-72021000D01*
X50711258Y-72021000D01*
X50686488Y-72016073D01*
X50537188Y-71986376D01*
X50373216Y-71918456D01*
X50225646Y-71819853D01*
X50100147Y-71694354D01*
X50001544Y-71546784D01*
X49933624Y-71382812D01*
X49899000Y-71208741D01*
X49899000Y-71031259D01*
X49933624Y-70857188D01*
X50001544Y-70693216D01*
X50100147Y-70545646D01*
X50225646Y-70420147D01*
X50373216Y-70321544D01*
X50537188Y-70253624D01*
X50686488Y-70223927D01*
X50711258Y-70219000D01*
X50888742Y-70219000D01*
X50913512Y-70223927D01*
G37*
G36*
X51701000Y-69481000D02*
G01*
X49899000Y-69481000D01*
X49899000Y-67679000D01*
X51701000Y-67679000D01*
X51701000Y-69481000D01*
G37*
M02*
