G04 #@! TF.GenerationSoftware,KiCad,Pcbnew,(5.1.5)-3*
G04 #@! TF.CreationDate,2020-07-10T12:59:04+02:00*
G04 #@! TF.ProjectId,twitchdisplay,74776974-6368-4646-9973-706c61792e6b,rev?*
G04 #@! TF.SameCoordinates,Original*
G04 #@! TF.FileFunction,Copper,L2,Bot*
G04 #@! TF.FilePolarity,Positive*
%FSLAX46Y46*%
G04 Gerber Fmt 4.6, Leading zero omitted, Abs format (unit mm)*
G04 Created by KiCad (PCBNEW (5.1.5)-3) date 2020-07-10 12:59:04*
%MOMM*%
%LPD*%
G04 APERTURE LIST*
%ADD10C,1.524000*%
%ADD11O,1.905000X2.000000*%
%ADD12R,1.905000X2.000000*%
%ADD13O,1.600000X1.600000*%
%ADD14C,1.600000*%
%ADD15R,1.050000X1.500000*%
%ADD16O,1.050000X1.500000*%
%ADD17O,1.700000X1.700000*%
%ADD18R,1.700000X1.700000*%
%ADD19R,1.600000X1.600000*%
%ADD20C,1.270000*%
%ADD21C,1.270000*%
%ADD22C,0.800000*%
%ADD23C,0.254000*%
G04 APERTURE END LIST*
D10*
X-2540000Y-80645000D03*
X-2540000Y-83185000D03*
X-2540000Y-85725000D03*
X-2540000Y-88265000D03*
X-2540000Y-90805000D03*
X-2540000Y-93345000D03*
X-2540000Y-95885000D03*
X-2540000Y-98425000D03*
X-2540000Y-100965000D03*
X-2540000Y-103505000D03*
X-2540000Y-106045000D03*
X-2540000Y-108585000D03*
X-2540000Y-111125000D03*
X-2540000Y-113665000D03*
X-2540000Y-116205000D03*
X-30480000Y-116205000D03*
X-30480000Y-113665000D03*
X-30480000Y-111125000D03*
X-30480000Y-108585000D03*
X-30480000Y-106045000D03*
X-30480000Y-103505000D03*
X-30480000Y-100965000D03*
X-30480000Y-98425000D03*
X-30480000Y-95885000D03*
X-30480000Y-93345000D03*
X-30480000Y-90805000D03*
X-30480000Y-88265000D03*
X-30480000Y-85725000D03*
X-30480000Y-83185000D03*
X-30480000Y-80645000D03*
D11*
X15430000Y-90580000D03*
X12890000Y-90580000D03*
D12*
X10350000Y-90580000D03*
D13*
X3810000Y-118110000D03*
D14*
X3810000Y-110490000D03*
D13*
X15240000Y-118110000D03*
D14*
X15240000Y-110490000D03*
D13*
X8890000Y-118110000D03*
D14*
X8890000Y-110490000D03*
D13*
X20320000Y-118110000D03*
D14*
X20320000Y-110490000D03*
D15*
X7620000Y-124460000D03*
D16*
X5080000Y-124460000D03*
X6350000Y-124460000D03*
D15*
X19050000Y-124460000D03*
D16*
X16510000Y-124460000D03*
X17780000Y-124460000D03*
D17*
X50800000Y-78740000D03*
X50800000Y-76200000D03*
X50800000Y-73660000D03*
X50800000Y-71120000D03*
D18*
X50800000Y-68580000D03*
D17*
X354330000Y-88900000D03*
X354330000Y-86360000D03*
X354330000Y-83820000D03*
X354330000Y-81280000D03*
D18*
X354330000Y-78740000D03*
D17*
X50800000Y-114300000D03*
X50800000Y-111760000D03*
X50800000Y-109220000D03*
X50800000Y-106680000D03*
D18*
X50800000Y-104140000D03*
D17*
X5080000Y-72390000D03*
D18*
X2540000Y-72390000D03*
D14*
X16510000Y-97790000D03*
D19*
X19010000Y-97790000D03*
D14*
X8890000Y-97790000D03*
D19*
X6390000Y-97790000D03*
D13*
X26670000Y-88900000D03*
X41910000Y-88900000D03*
X26670000Y-124460000D03*
X41910000Y-91440000D03*
X26670000Y-121920000D03*
X41910000Y-93980000D03*
X26670000Y-119380000D03*
X41910000Y-96520000D03*
X26670000Y-116840000D03*
X41910000Y-99060000D03*
X26670000Y-114300000D03*
X41910000Y-101600000D03*
X26670000Y-111760000D03*
X41910000Y-104140000D03*
X26670000Y-109220000D03*
X41910000Y-106680000D03*
X26670000Y-106680000D03*
X41910000Y-109220000D03*
X26670000Y-104140000D03*
X41910000Y-111760000D03*
X26670000Y-101600000D03*
X41910000Y-114300000D03*
X26670000Y-99060000D03*
X41910000Y-116840000D03*
X26670000Y-96520000D03*
X41910000Y-119380000D03*
X26670000Y-93980000D03*
X41910000Y-121920000D03*
X26670000Y-91440000D03*
D19*
X41910000Y-124460000D03*
D20*
X12700000Y-105410000D03*
X6350000Y-102870000D03*
D21*
X50800000Y-78740000D02*
X27940000Y-78740000D01*
X26670000Y-80010000D02*
X26670000Y-88900000D01*
X27940000Y-78740000D02*
X26670000Y-80010000D01*
X53340000Y-91440000D02*
X41910000Y-91440000D01*
X55880000Y-73660000D02*
X57150000Y-74930000D01*
X50800000Y-73660000D02*
X55880000Y-73660000D01*
X57150000Y-74930000D02*
X57150000Y-90170000D01*
X57150000Y-90170000D02*
X55880000Y-91440000D01*
X55880000Y-91440000D02*
X53340000Y-91440000D01*
X53340000Y-76200000D02*
X50800000Y-76200000D01*
X54610000Y-77470000D02*
X53340000Y-76200000D01*
X54610000Y-85090000D02*
X54610000Y-77470000D01*
X53340000Y-86360000D02*
X54610000Y-85090000D01*
X39370000Y-93980000D02*
X38100000Y-92710000D01*
X38100000Y-92710000D02*
X38100000Y-87630000D01*
X41910000Y-93980000D02*
X39370000Y-93980000D01*
X39370000Y-86360000D02*
X53340000Y-86360000D01*
X38100000Y-87630000D02*
X39370000Y-86360000D01*
X8890000Y-110490000D02*
X8890000Y-109220000D01*
X8890000Y-109220000D02*
X10160000Y-107950000D01*
X10160000Y-107950000D02*
X19050000Y-107950000D01*
X20320000Y-109220000D02*
X20320000Y-110490000D01*
X19050000Y-107950000D02*
X20320000Y-109220000D01*
X17652500Y-90580000D02*
X19050000Y-91977500D01*
X15430000Y-90580000D02*
X17652500Y-90580000D01*
X19010000Y-92017500D02*
X19010000Y-97790000D01*
X19050000Y-91977500D02*
X19010000Y-92017500D01*
X19050000Y-99900000D02*
X19050000Y-107950000D01*
X19010000Y-99860000D02*
X19050000Y-99900000D01*
X19010000Y-97790000D02*
X19010000Y-99860000D01*
X20320000Y-110490000D02*
X22860000Y-110490000D01*
X22860000Y-110490000D02*
X24130000Y-111760000D01*
X24130000Y-111760000D02*
X24130000Y-115570000D01*
X25400000Y-116840000D02*
X26670000Y-116840000D01*
X24130000Y-115570000D02*
X25400000Y-116840000D01*
X-26035000Y-116205000D02*
X-30480000Y-116205000D01*
X17652500Y-90580000D02*
X19050000Y-89182500D01*
X19050000Y-69850000D02*
X17780000Y-68580000D01*
X17780000Y-68580000D02*
X-24130000Y-68580000D01*
X-24130000Y-68580000D02*
X-25400000Y-69850000D01*
X50800000Y-68580000D02*
X17780000Y-68580000D01*
X19050000Y-89182500D02*
X19050000Y-86360000D01*
X19050000Y-86360000D02*
X19050000Y-69850000D01*
X-26035000Y-116205000D02*
X-25400000Y-115570000D01*
X-25400000Y-115570000D02*
X-25400000Y-69850000D01*
X57150000Y-68580000D02*
X50800000Y-68580000D01*
X47410000Y-105410000D02*
X48680000Y-104140000D01*
X-26035000Y-131445000D02*
X-24130000Y-133350000D01*
X-26035000Y-116205000D02*
X-26035000Y-131445000D01*
X-24130000Y-133350000D02*
X45720000Y-133350000D01*
X45720000Y-133350000D02*
X47410000Y-131660000D01*
X48680000Y-104140000D02*
X50800000Y-104140000D01*
X47410000Y-131660000D02*
X47410000Y-105410000D01*
X57150000Y-68580000D02*
X67310000Y-78740000D01*
X67310000Y-78740000D02*
X354330000Y-78740000D01*
X8890000Y-123280010D02*
X7710010Y-124460000D01*
X8890000Y-118110000D02*
X8890000Y-123280010D01*
X8890000Y-116840000D02*
X8890000Y-118110000D01*
X22860000Y-116840000D02*
X21590000Y-115570000D01*
X10160000Y-115570000D02*
X8890000Y-116840000D01*
X21590000Y-115570000D02*
X10160000Y-115570000D01*
X22860000Y-127000000D02*
X22860000Y-116840000D01*
X29210000Y-109220000D02*
X30480000Y-110490000D01*
X24130000Y-128270000D02*
X22860000Y-127000000D01*
X30480000Y-110490000D02*
X30480000Y-127000000D01*
X26670000Y-109220000D02*
X29210000Y-109220000D01*
X30480000Y-127000000D02*
X29210000Y-128270000D01*
X29210000Y-128270000D02*
X24130000Y-128270000D01*
X19140010Y-124460000D02*
X19140010Y-124369990D01*
X29210000Y-106680000D02*
X26670000Y-106680000D01*
X20320000Y-118110000D02*
X20320000Y-123280010D01*
X19730005Y-123870005D02*
X19140010Y-124460000D01*
X19730005Y-123870005D02*
X19730005Y-127680005D01*
X20320000Y-123280010D02*
X19730005Y-123870005D01*
X19730005Y-127680005D02*
X22860000Y-130810000D01*
X22860000Y-130810000D02*
X30480000Y-130810000D01*
X30480000Y-130810000D02*
X33020000Y-128270000D01*
X33020000Y-128270000D02*
X33020000Y-109220000D01*
X33020000Y-109220000D02*
X30480000Y-106680000D01*
X30480000Y-106680000D02*
X29210000Y-106680000D01*
X10350000Y-90580000D02*
X7210000Y-90580000D01*
X6390000Y-91400000D02*
X6390000Y-97790000D01*
X7210000Y-90580000D02*
X6390000Y-91400000D01*
X2540000Y-72390000D02*
X2540000Y-88900000D01*
X4220000Y-90580000D02*
X10350000Y-90580000D01*
X2540000Y-88900000D02*
X4220000Y-90580000D01*
X50800000Y-114300000D02*
X297180000Y-114300000D01*
X322580000Y-88900000D02*
X354330000Y-88900000D01*
X297180000Y-114300000D02*
X322580000Y-88900000D01*
X50800000Y-111760000D02*
X295910000Y-111760000D01*
X321310000Y-86360000D02*
X354330000Y-86360000D01*
X295910000Y-111760000D02*
X321310000Y-86360000D01*
X354283802Y-83820000D02*
X354330000Y-83820000D01*
X62230000Y-109220000D02*
X72390000Y-99060000D01*
X50800000Y-109220000D02*
X62023802Y-109220000D01*
X72183802Y-99060000D02*
X304800000Y-99060000D01*
X304800000Y-99060000D02*
X320040000Y-83820000D01*
X320040000Y-83820000D02*
X354283802Y-83820000D01*
X15240000Y-118110000D02*
X15240000Y-123190000D01*
X16419990Y-124369990D02*
X16419990Y-124460000D01*
X15240000Y-123190000D02*
X16419990Y-124369990D01*
X-2540000Y-100965000D02*
X10795000Y-100965000D01*
X12700000Y-102870000D02*
X12700000Y-105410000D01*
X10795000Y-100965000D02*
X12700000Y-102870000D01*
D22*
X17780000Y-127000000D02*
X17780000Y-124460000D01*
D21*
X15240000Y-110490000D02*
X15240000Y-111760000D01*
X13970000Y-113030000D02*
X3810000Y-113030000D01*
X15240000Y-111760000D02*
X13970000Y-113030000D01*
X3810000Y-110490000D02*
X3810000Y-113030000D01*
X-3617630Y-93345000D02*
X-5080000Y-94807370D01*
X-2540000Y-93345000D02*
X-3617630Y-93345000D01*
X-5080000Y-94807370D02*
X-5080000Y-115570000D01*
X-4445000Y-116205000D02*
X-2540000Y-116205000D01*
X-5080000Y-115570000D02*
X-4445000Y-116205000D01*
D22*
X2540000Y-127000000D02*
X6350000Y-127000000D01*
X6350000Y-127000000D02*
X6350000Y-124460000D01*
X1270000Y-125730000D02*
X2540000Y-127000000D01*
X1270000Y-119380000D02*
X1270000Y-125730000D01*
X6350000Y-127000000D02*
X17780000Y-127000000D01*
X1270000Y-119380000D02*
X1270000Y-116840000D01*
D21*
X3810000Y-115570000D02*
X3810000Y-113030000D01*
X-2540000Y-116205000D02*
X3175000Y-116205000D01*
X3175000Y-116205000D02*
X3810000Y-115570000D01*
X3810000Y-118110000D02*
X3810000Y-123190000D01*
X4989990Y-124369990D02*
X4989990Y-124460000D01*
X3810000Y-123190000D02*
X4989990Y-124369990D01*
X5715000Y-103505000D02*
X6350000Y-102870000D01*
X-2540000Y-103505000D02*
X5715000Y-103505000D01*
D23*
G36*
X358013000Y-135714387D02*
G01*
X-40513000Y-135811614D01*
X-40513000Y-130589872D01*
X-37795000Y-130589872D01*
X-37795000Y-131030128D01*
X-37709110Y-131461925D01*
X-37540631Y-131868669D01*
X-37296038Y-132234729D01*
X-36984729Y-132546038D01*
X-36618669Y-132790631D01*
X-36211925Y-132959110D01*
X-35780128Y-133045000D01*
X-35339872Y-133045000D01*
X-34908075Y-132959110D01*
X-34501331Y-132790631D01*
X-34135271Y-132546038D01*
X-33823962Y-132234729D01*
X-33579369Y-131868669D01*
X-33410890Y-131461925D01*
X-33325000Y-131030128D01*
X-33325000Y-130589872D01*
X-33410890Y-130158075D01*
X-33579369Y-129751331D01*
X-33823962Y-129385271D01*
X-34135271Y-129073962D01*
X-34501331Y-128829369D01*
X-34908075Y-128660890D01*
X-35339872Y-128575000D01*
X-35780128Y-128575000D01*
X-36211925Y-128660890D01*
X-36618669Y-128829369D01*
X-36984729Y-129073962D01*
X-37296038Y-129385271D01*
X-37540631Y-129751331D01*
X-37709110Y-130158075D01*
X-37795000Y-130589872D01*
X-40513000Y-130589872D01*
X-40513000Y-116067408D01*
X-31877000Y-116067408D01*
X-31877000Y-116342592D01*
X-31823314Y-116612490D01*
X-31718005Y-116866727D01*
X-31565120Y-117095535D01*
X-31370535Y-117290120D01*
X-31141727Y-117443005D01*
X-30887490Y-117548314D01*
X-30617592Y-117602000D01*
X-30342408Y-117602000D01*
X-30072510Y-117548314D01*
X-29895515Y-117475000D01*
X-27305000Y-117475000D01*
X-27304999Y-131382617D01*
X-27311143Y-131445000D01*
X-27286623Y-131693963D01*
X-27221402Y-131908964D01*
X-27214002Y-131933359D01*
X-27096074Y-132153988D01*
X-26937369Y-132347370D01*
X-26888914Y-132387136D01*
X-25072132Y-134203919D01*
X-25032370Y-134252370D01*
X-24983920Y-134292132D01*
X-24983917Y-134292135D01*
X-24933914Y-134333171D01*
X-24838988Y-134411075D01*
X-24618361Y-134529002D01*
X-24618359Y-134529003D01*
X-24378963Y-134601623D01*
X-24130000Y-134626144D01*
X-24067620Y-134620000D01*
X45657627Y-134620000D01*
X45720000Y-134626143D01*
X45782373Y-134620000D01*
X45782380Y-134620000D01*
X45968963Y-134601623D01*
X46208359Y-134529003D01*
X46428988Y-134411075D01*
X46622370Y-134252370D01*
X46662141Y-134203909D01*
X48263915Y-132602136D01*
X48312370Y-132562370D01*
X48471075Y-132368988D01*
X48589003Y-132148359D01*
X48607876Y-132086143D01*
X48661623Y-131908964D01*
X48677069Y-131752134D01*
X48680000Y-131722380D01*
X48680000Y-131722373D01*
X48686143Y-131660000D01*
X48680000Y-131597627D01*
X48680000Y-130589872D01*
X350825000Y-130589872D01*
X350825000Y-131030128D01*
X350910890Y-131461925D01*
X351079369Y-131868669D01*
X351323962Y-132234729D01*
X351635271Y-132546038D01*
X352001331Y-132790631D01*
X352408075Y-132959110D01*
X352839872Y-133045000D01*
X353280128Y-133045000D01*
X353711925Y-132959110D01*
X354118669Y-132790631D01*
X354484729Y-132546038D01*
X354796038Y-132234729D01*
X355040631Y-131868669D01*
X355209110Y-131461925D01*
X355295000Y-131030128D01*
X355295000Y-130589872D01*
X355209110Y-130158075D01*
X355040631Y-129751331D01*
X354796038Y-129385271D01*
X354484729Y-129073962D01*
X354118669Y-128829369D01*
X353711925Y-128660890D01*
X353280128Y-128575000D01*
X352839872Y-128575000D01*
X352408075Y-128660890D01*
X352001331Y-128829369D01*
X351635271Y-129073962D01*
X351323962Y-129385271D01*
X351079369Y-129751331D01*
X350910890Y-130158075D01*
X350825000Y-130589872D01*
X48680000Y-130589872D01*
X48680000Y-128049872D01*
X73330000Y-128049872D01*
X73330000Y-128490128D01*
X73415890Y-128921925D01*
X73584369Y-129328669D01*
X73828962Y-129694729D01*
X74140271Y-130006038D01*
X74506331Y-130250631D01*
X74913075Y-130419110D01*
X75344872Y-130505000D01*
X75785128Y-130505000D01*
X76216925Y-130419110D01*
X76623669Y-130250631D01*
X76989729Y-130006038D01*
X77301038Y-129694729D01*
X77545631Y-129328669D01*
X77714110Y-128921925D01*
X77800000Y-128490128D01*
X77800000Y-128049872D01*
X198425000Y-128049872D01*
X198425000Y-128490128D01*
X198510890Y-128921925D01*
X198679369Y-129328669D01*
X198923962Y-129694729D01*
X199235271Y-130006038D01*
X199601331Y-130250631D01*
X200008075Y-130419110D01*
X200439872Y-130505000D01*
X200880128Y-130505000D01*
X201311925Y-130419110D01*
X201718669Y-130250631D01*
X202084729Y-130006038D01*
X202396038Y-129694729D01*
X202640631Y-129328669D01*
X202809110Y-128921925D01*
X202895000Y-128490128D01*
X202895000Y-128049872D01*
X205410000Y-128049872D01*
X205410000Y-128490128D01*
X205495890Y-128921925D01*
X205664369Y-129328669D01*
X205908962Y-129694729D01*
X206220271Y-130006038D01*
X206586331Y-130250631D01*
X206993075Y-130419110D01*
X207424872Y-130505000D01*
X207865128Y-130505000D01*
X208296925Y-130419110D01*
X208703669Y-130250631D01*
X209069729Y-130006038D01*
X209381038Y-129694729D01*
X209625631Y-129328669D01*
X209794110Y-128921925D01*
X209880000Y-128490128D01*
X209880000Y-128049872D01*
X330505000Y-128049872D01*
X330505000Y-128490128D01*
X330590890Y-128921925D01*
X330759369Y-129328669D01*
X331003962Y-129694729D01*
X331315271Y-130006038D01*
X331681331Y-130250631D01*
X332088075Y-130419110D01*
X332519872Y-130505000D01*
X332960128Y-130505000D01*
X333391925Y-130419110D01*
X333798669Y-130250631D01*
X334164729Y-130006038D01*
X334476038Y-129694729D01*
X334720631Y-129328669D01*
X334889110Y-128921925D01*
X334975000Y-128490128D01*
X334975000Y-128049872D01*
X334889110Y-127618075D01*
X334720631Y-127211331D01*
X334476038Y-126845271D01*
X334164729Y-126533962D01*
X333798669Y-126289369D01*
X333391925Y-126120890D01*
X332960128Y-126035000D01*
X332519872Y-126035000D01*
X332088075Y-126120890D01*
X331681331Y-126289369D01*
X331315271Y-126533962D01*
X331003962Y-126845271D01*
X330759369Y-127211331D01*
X330590890Y-127618075D01*
X330505000Y-128049872D01*
X209880000Y-128049872D01*
X209794110Y-127618075D01*
X209625631Y-127211331D01*
X209381038Y-126845271D01*
X209069729Y-126533962D01*
X208703669Y-126289369D01*
X208296925Y-126120890D01*
X207865128Y-126035000D01*
X207424872Y-126035000D01*
X206993075Y-126120890D01*
X206586331Y-126289369D01*
X206220271Y-126533962D01*
X205908962Y-126845271D01*
X205664369Y-127211331D01*
X205495890Y-127618075D01*
X205410000Y-128049872D01*
X202895000Y-128049872D01*
X202809110Y-127618075D01*
X202640631Y-127211331D01*
X202396038Y-126845271D01*
X202084729Y-126533962D01*
X201718669Y-126289369D01*
X201311925Y-126120890D01*
X200880128Y-126035000D01*
X200439872Y-126035000D01*
X200008075Y-126120890D01*
X199601331Y-126289369D01*
X199235271Y-126533962D01*
X198923962Y-126845271D01*
X198679369Y-127211331D01*
X198510890Y-127618075D01*
X198425000Y-128049872D01*
X77800000Y-128049872D01*
X77714110Y-127618075D01*
X77545631Y-127211331D01*
X77301038Y-126845271D01*
X76989729Y-126533962D01*
X76623669Y-126289369D01*
X76216925Y-126120890D01*
X75785128Y-126035000D01*
X75344872Y-126035000D01*
X74913075Y-126120890D01*
X74506331Y-126289369D01*
X74140271Y-126533962D01*
X73828962Y-126845271D01*
X73584369Y-127211331D01*
X73415890Y-127618075D01*
X73330000Y-128049872D01*
X48680000Y-128049872D01*
X48680000Y-109073740D01*
X49315000Y-109073740D01*
X49315000Y-109366260D01*
X49372068Y-109653158D01*
X49484010Y-109923411D01*
X49646525Y-110166632D01*
X49853368Y-110373475D01*
X50027760Y-110490000D01*
X49853368Y-110606525D01*
X49646525Y-110813368D01*
X49484010Y-111056589D01*
X49372068Y-111326842D01*
X49315000Y-111613740D01*
X49315000Y-111906260D01*
X49372068Y-112193158D01*
X49484010Y-112463411D01*
X49646525Y-112706632D01*
X49853368Y-112913475D01*
X50027760Y-113030000D01*
X49853368Y-113146525D01*
X49646525Y-113353368D01*
X49484010Y-113596589D01*
X49372068Y-113866842D01*
X49315000Y-114153740D01*
X49315000Y-114446260D01*
X49372068Y-114733158D01*
X49484010Y-115003411D01*
X49646525Y-115246632D01*
X49853368Y-115453475D01*
X50096589Y-115615990D01*
X50366842Y-115727932D01*
X50653740Y-115785000D01*
X50946260Y-115785000D01*
X51233158Y-115727932D01*
X51503411Y-115615990D01*
X51572240Y-115570000D01*
X297117627Y-115570000D01*
X297180000Y-115576143D01*
X297242373Y-115570000D01*
X297242380Y-115570000D01*
X297428963Y-115551623D01*
X297668359Y-115479003D01*
X297888988Y-115361075D01*
X298082370Y-115202370D01*
X298122141Y-115153909D01*
X306816178Y-106459872D01*
X330505000Y-106459872D01*
X330505000Y-106900128D01*
X330590890Y-107331925D01*
X330759369Y-107738669D01*
X331003962Y-108104729D01*
X331315271Y-108416038D01*
X331681331Y-108660631D01*
X332088075Y-108829110D01*
X332519872Y-108915000D01*
X332960128Y-108915000D01*
X333391925Y-108829110D01*
X333798669Y-108660631D01*
X334164729Y-108416038D01*
X334476038Y-108104729D01*
X334720631Y-107738669D01*
X334889110Y-107331925D01*
X334975000Y-106900128D01*
X334975000Y-106459872D01*
X334889110Y-106028075D01*
X334720631Y-105621331D01*
X334476038Y-105255271D01*
X334164729Y-104943962D01*
X333798669Y-104699369D01*
X333391925Y-104530890D01*
X332960128Y-104445000D01*
X332519872Y-104445000D01*
X332088075Y-104530890D01*
X331681331Y-104699369D01*
X331315271Y-104943962D01*
X331003962Y-105255271D01*
X330759369Y-105621331D01*
X330590890Y-106028075D01*
X330505000Y-106459872D01*
X306816178Y-106459872D01*
X319516178Y-93759872D01*
X330505000Y-93759872D01*
X330505000Y-94200128D01*
X330590890Y-94631925D01*
X330759369Y-95038669D01*
X331003962Y-95404729D01*
X331315271Y-95716038D01*
X331681331Y-95960631D01*
X332088075Y-96129110D01*
X332519872Y-96215000D01*
X332960128Y-96215000D01*
X333391925Y-96129110D01*
X333798669Y-95960631D01*
X334164729Y-95716038D01*
X334476038Y-95404729D01*
X334720631Y-95038669D01*
X334889110Y-94631925D01*
X334975000Y-94200128D01*
X334975000Y-93759872D01*
X334889110Y-93328075D01*
X334720631Y-92921331D01*
X334476038Y-92555271D01*
X334164729Y-92243962D01*
X333798669Y-91999369D01*
X333391925Y-91830890D01*
X332960128Y-91745000D01*
X332519872Y-91745000D01*
X332088075Y-91830890D01*
X331681331Y-91999369D01*
X331315271Y-92243962D01*
X331003962Y-92555271D01*
X330759369Y-92921331D01*
X330590890Y-93328075D01*
X330505000Y-93759872D01*
X319516178Y-93759872D01*
X323106051Y-90170000D01*
X353557760Y-90170000D01*
X353626589Y-90215990D01*
X353896842Y-90327932D01*
X354183740Y-90385000D01*
X354476260Y-90385000D01*
X354763158Y-90327932D01*
X355033411Y-90215990D01*
X355276632Y-90053475D01*
X355483475Y-89846632D01*
X355645990Y-89603411D01*
X355757932Y-89333158D01*
X355815000Y-89046260D01*
X355815000Y-88753740D01*
X355757932Y-88466842D01*
X355645990Y-88196589D01*
X355483475Y-87953368D01*
X355276632Y-87746525D01*
X355102240Y-87630000D01*
X355276632Y-87513475D01*
X355483475Y-87306632D01*
X355645990Y-87063411D01*
X355757932Y-86793158D01*
X355815000Y-86506260D01*
X355815000Y-86213740D01*
X355757932Y-85926842D01*
X355645990Y-85656589D01*
X355483475Y-85413368D01*
X355276632Y-85206525D01*
X355102240Y-85090000D01*
X355276632Y-84973475D01*
X355483475Y-84766632D01*
X355645990Y-84523411D01*
X355757932Y-84253158D01*
X355815000Y-83966260D01*
X355815000Y-83673740D01*
X355757932Y-83386842D01*
X355645990Y-83116589D01*
X355483475Y-82873368D01*
X355276632Y-82666525D01*
X355094466Y-82544805D01*
X355211355Y-82475178D01*
X355427588Y-82280269D01*
X355601641Y-82046920D01*
X355726825Y-81784099D01*
X355771476Y-81636890D01*
X355650155Y-81407000D01*
X354457000Y-81407000D01*
X354457000Y-81427000D01*
X354203000Y-81427000D01*
X354203000Y-81407000D01*
X353009845Y-81407000D01*
X352888524Y-81636890D01*
X352933175Y-81784099D01*
X353058359Y-82046920D01*
X353232412Y-82280269D01*
X353448645Y-82475178D01*
X353565534Y-82544805D01*
X353557760Y-82550000D01*
X320102380Y-82550000D01*
X320040000Y-82543856D01*
X319977620Y-82550000D01*
X319791037Y-82568377D01*
X319551641Y-82640997D01*
X319331012Y-82758925D01*
X319236086Y-82836829D01*
X319186083Y-82877865D01*
X319186080Y-82877868D01*
X319137630Y-82917630D01*
X319097868Y-82966080D01*
X304273950Y-97790000D01*
X72452380Y-97790000D01*
X72390000Y-97783856D01*
X72327620Y-97790000D01*
X72121422Y-97790000D01*
X71934839Y-97808377D01*
X71695443Y-97880997D01*
X71474814Y-97998925D01*
X71281432Y-98157630D01*
X71122727Y-98351012D01*
X71004799Y-98571641D01*
X70971049Y-98682899D01*
X61703950Y-107950000D01*
X51572240Y-107950000D01*
X51564466Y-107944805D01*
X51681355Y-107875178D01*
X51897588Y-107680269D01*
X52071641Y-107446920D01*
X52196825Y-107184099D01*
X52241476Y-107036890D01*
X52120155Y-106807000D01*
X50927000Y-106807000D01*
X50927000Y-106827000D01*
X50673000Y-106827000D01*
X50673000Y-106807000D01*
X49479845Y-106807000D01*
X49358524Y-107036890D01*
X49403175Y-107184099D01*
X49528359Y-107446920D01*
X49702412Y-107680269D01*
X49918645Y-107875178D01*
X50035534Y-107944805D01*
X49853368Y-108066525D01*
X49646525Y-108273368D01*
X49484010Y-108516589D01*
X49372068Y-108786842D01*
X49315000Y-109073740D01*
X48680000Y-109073740D01*
X48680000Y-105936050D01*
X49206051Y-105410000D01*
X49473222Y-105410000D01*
X49498815Y-105441185D01*
X49595506Y-105520537D01*
X49705820Y-105579502D01*
X49786466Y-105603966D01*
X49702412Y-105679731D01*
X49528359Y-105913080D01*
X49403175Y-106175901D01*
X49358524Y-106323110D01*
X49479845Y-106553000D01*
X50673000Y-106553000D01*
X50673000Y-106533000D01*
X50927000Y-106533000D01*
X50927000Y-106553000D01*
X52120155Y-106553000D01*
X52241476Y-106323110D01*
X52196825Y-106175901D01*
X52071641Y-105913080D01*
X51897588Y-105679731D01*
X51813534Y-105603966D01*
X51894180Y-105579502D01*
X52004494Y-105520537D01*
X52101185Y-105441185D01*
X52180537Y-105344494D01*
X52239502Y-105234180D01*
X52275812Y-105114482D01*
X52288072Y-104990000D01*
X52288072Y-103290000D01*
X52275812Y-103165518D01*
X52239502Y-103045820D01*
X52180537Y-102935506D01*
X52101185Y-102838815D01*
X52004494Y-102759463D01*
X51894180Y-102700498D01*
X51774482Y-102664188D01*
X51650000Y-102651928D01*
X49950000Y-102651928D01*
X49825518Y-102664188D01*
X49705820Y-102700498D01*
X49595506Y-102759463D01*
X49498815Y-102838815D01*
X49473222Y-102870000D01*
X48742372Y-102870000D01*
X48679999Y-102863857D01*
X48617626Y-102870000D01*
X48617620Y-102870000D01*
X48456755Y-102885844D01*
X48431036Y-102888377D01*
X48358416Y-102910406D01*
X48191641Y-102960997D01*
X47971012Y-103078925D01*
X47777630Y-103237630D01*
X47737863Y-103286086D01*
X46556086Y-104467864D01*
X46507631Y-104507630D01*
X46348926Y-104701012D01*
X46270192Y-104848314D01*
X46230998Y-104921641D01*
X46158377Y-105161037D01*
X46133857Y-105410000D01*
X46140001Y-105472380D01*
X46140000Y-131133949D01*
X45193950Y-132080000D01*
X30542380Y-132080000D01*
X30728963Y-132061623D01*
X30968359Y-131989003D01*
X31188988Y-131871075D01*
X31382370Y-131712370D01*
X31422141Y-131663909D01*
X33873917Y-129212134D01*
X33922370Y-129172370D01*
X34081075Y-128978988D01*
X34199003Y-128758359D01*
X34271623Y-128518963D01*
X34290000Y-128332380D01*
X34290000Y-128332374D01*
X34296143Y-128270001D01*
X34290000Y-128207628D01*
X34290000Y-123660000D01*
X40471928Y-123660000D01*
X40471928Y-125260000D01*
X40484188Y-125384482D01*
X40520498Y-125504180D01*
X40579463Y-125614494D01*
X40658815Y-125711185D01*
X40755506Y-125790537D01*
X40865820Y-125849502D01*
X40985518Y-125885812D01*
X41110000Y-125898072D01*
X42710000Y-125898072D01*
X42834482Y-125885812D01*
X42954180Y-125849502D01*
X43064494Y-125790537D01*
X43161185Y-125711185D01*
X43240537Y-125614494D01*
X43299502Y-125504180D01*
X43335812Y-125384482D01*
X43348072Y-125260000D01*
X43348072Y-123660000D01*
X43335812Y-123535518D01*
X43299502Y-123415820D01*
X43240537Y-123305506D01*
X43161185Y-123208815D01*
X43064494Y-123129463D01*
X42954180Y-123070498D01*
X42834482Y-123034188D01*
X42826039Y-123033357D01*
X43024637Y-122834759D01*
X43181680Y-122599727D01*
X43289853Y-122338574D01*
X43345000Y-122061335D01*
X43345000Y-121778665D01*
X43289853Y-121501426D01*
X43181680Y-121240273D01*
X43024637Y-121005241D01*
X42824759Y-120805363D01*
X42592241Y-120650000D01*
X42824759Y-120494637D01*
X43024637Y-120294759D01*
X43181680Y-120059727D01*
X43289853Y-119798574D01*
X43345000Y-119521335D01*
X43345000Y-119238665D01*
X43289853Y-118961426D01*
X43181680Y-118700273D01*
X43024637Y-118465241D01*
X42824759Y-118265363D01*
X42589727Y-118108320D01*
X42579135Y-118103933D01*
X42765131Y-117992385D01*
X42973519Y-117803414D01*
X43141037Y-117577420D01*
X43261246Y-117323087D01*
X43301904Y-117189039D01*
X43179915Y-116967000D01*
X42037000Y-116967000D01*
X42037000Y-116987000D01*
X41783000Y-116987000D01*
X41783000Y-116967000D01*
X40640085Y-116967000D01*
X40518096Y-117189039D01*
X40558754Y-117323087D01*
X40678963Y-117577420D01*
X40846481Y-117803414D01*
X41054869Y-117992385D01*
X41240865Y-118103933D01*
X41230273Y-118108320D01*
X40995241Y-118265363D01*
X40795363Y-118465241D01*
X40638320Y-118700273D01*
X40530147Y-118961426D01*
X40475000Y-119238665D01*
X40475000Y-119521335D01*
X40530147Y-119798574D01*
X40638320Y-120059727D01*
X40795363Y-120294759D01*
X40995241Y-120494637D01*
X41227759Y-120650000D01*
X40995241Y-120805363D01*
X40795363Y-121005241D01*
X40638320Y-121240273D01*
X40530147Y-121501426D01*
X40475000Y-121778665D01*
X40475000Y-122061335D01*
X40530147Y-122338574D01*
X40638320Y-122599727D01*
X40795363Y-122834759D01*
X40993961Y-123033357D01*
X40985518Y-123034188D01*
X40865820Y-123070498D01*
X40755506Y-123129463D01*
X40658815Y-123208815D01*
X40579463Y-123305506D01*
X40520498Y-123415820D01*
X40484188Y-123535518D01*
X40471928Y-123660000D01*
X34290000Y-123660000D01*
X34290000Y-109282372D01*
X34296143Y-109219999D01*
X34290000Y-109157626D01*
X34290000Y-109157620D01*
X34271623Y-108971037D01*
X34199003Y-108731641D01*
X34081075Y-108511012D01*
X33922370Y-108317630D01*
X33873914Y-108277863D01*
X31422141Y-105826091D01*
X31382370Y-105777630D01*
X31188988Y-105618925D01*
X30968359Y-105500997D01*
X30728963Y-105428377D01*
X30542380Y-105410000D01*
X30542373Y-105410000D01*
X30480000Y-105403857D01*
X30417627Y-105410000D01*
X27352241Y-105410000D01*
X27584759Y-105254637D01*
X27784637Y-105054759D01*
X27941680Y-104819727D01*
X28049853Y-104558574D01*
X28105000Y-104281335D01*
X28105000Y-103998665D01*
X28049853Y-103721426D01*
X27941680Y-103460273D01*
X27784637Y-103225241D01*
X27584759Y-103025363D01*
X27352241Y-102870000D01*
X27584759Y-102714637D01*
X27784637Y-102514759D01*
X27941680Y-102279727D01*
X28049853Y-102018574D01*
X28105000Y-101741335D01*
X28105000Y-101458665D01*
X28049853Y-101181426D01*
X27941680Y-100920273D01*
X27784637Y-100685241D01*
X27584759Y-100485363D01*
X27352241Y-100330000D01*
X27584759Y-100174637D01*
X27784637Y-99974759D01*
X27941680Y-99739727D01*
X28049853Y-99478574D01*
X28105000Y-99201335D01*
X28105000Y-98918665D01*
X28049853Y-98641426D01*
X27941680Y-98380273D01*
X27784637Y-98145241D01*
X27584759Y-97945363D01*
X27352241Y-97790000D01*
X27584759Y-97634637D01*
X27784637Y-97434759D01*
X27941680Y-97199727D01*
X28049853Y-96938574D01*
X28105000Y-96661335D01*
X28105000Y-96378665D01*
X28049853Y-96101426D01*
X27941680Y-95840273D01*
X27784637Y-95605241D01*
X27584759Y-95405363D01*
X27352241Y-95250000D01*
X27584759Y-95094637D01*
X27784637Y-94894759D01*
X27941680Y-94659727D01*
X28049853Y-94398574D01*
X28105000Y-94121335D01*
X28105000Y-93838665D01*
X28049853Y-93561426D01*
X27941680Y-93300273D01*
X27784637Y-93065241D01*
X27584759Y-92865363D01*
X27352241Y-92710000D01*
X27584759Y-92554637D01*
X27784637Y-92354759D01*
X27941680Y-92119727D01*
X28049853Y-91858574D01*
X28105000Y-91581335D01*
X28105000Y-91298665D01*
X28049853Y-91021426D01*
X27941680Y-90760273D01*
X27784637Y-90525241D01*
X27584759Y-90325363D01*
X27352241Y-90170000D01*
X27584759Y-90014637D01*
X27784637Y-89814759D01*
X27941680Y-89579727D01*
X28049853Y-89318574D01*
X28105000Y-89041335D01*
X28105000Y-88758665D01*
X28049853Y-88481426D01*
X27941680Y-88220273D01*
X27940000Y-88217759D01*
X27940000Y-80536050D01*
X28466051Y-80010000D01*
X50027760Y-80010000D01*
X50096589Y-80055990D01*
X50366842Y-80167932D01*
X50653740Y-80225000D01*
X50946260Y-80225000D01*
X51233158Y-80167932D01*
X51503411Y-80055990D01*
X51746632Y-79893475D01*
X51953475Y-79686632D01*
X52115990Y-79443411D01*
X52227932Y-79173158D01*
X52285000Y-78886260D01*
X52285000Y-78593740D01*
X52227932Y-78306842D01*
X52115990Y-78036589D01*
X51953475Y-77793368D01*
X51746632Y-77586525D01*
X51572240Y-77470000D01*
X52813950Y-77470000D01*
X53340001Y-77996052D01*
X53340000Y-84563949D01*
X52813950Y-85090000D01*
X39432372Y-85090000D01*
X39369999Y-85083857D01*
X39307626Y-85090000D01*
X39307620Y-85090000D01*
X39146755Y-85105844D01*
X39121036Y-85108377D01*
X39048416Y-85130406D01*
X38881641Y-85180997D01*
X38661012Y-85298925D01*
X38467630Y-85457630D01*
X38427865Y-85506084D01*
X37246086Y-86687864D01*
X37197631Y-86727630D01*
X37038926Y-86921012D01*
X36982277Y-87026995D01*
X36920998Y-87141641D01*
X36848377Y-87381037D01*
X36823857Y-87630000D01*
X36830001Y-87692383D01*
X36830000Y-92647627D01*
X36823857Y-92710000D01*
X36830000Y-92772373D01*
X36830000Y-92772379D01*
X36848377Y-92958962D01*
X36920997Y-93198358D01*
X37038925Y-93418987D01*
X37197630Y-93612370D01*
X37246091Y-93652141D01*
X38427863Y-94833914D01*
X38467630Y-94882370D01*
X38661012Y-95041075D01*
X38881641Y-95159003D01*
X39048416Y-95209594D01*
X39121036Y-95231623D01*
X39146755Y-95234156D01*
X39307620Y-95250000D01*
X39307626Y-95250000D01*
X39369999Y-95256143D01*
X39432372Y-95250000D01*
X41227759Y-95250000D01*
X40995241Y-95405363D01*
X40795363Y-95605241D01*
X40638320Y-95840273D01*
X40530147Y-96101426D01*
X40475000Y-96378665D01*
X40475000Y-96661335D01*
X40530147Y-96938574D01*
X40638320Y-97199727D01*
X40795363Y-97434759D01*
X40995241Y-97634637D01*
X41227759Y-97790000D01*
X40995241Y-97945363D01*
X40795363Y-98145241D01*
X40638320Y-98380273D01*
X40530147Y-98641426D01*
X40475000Y-98918665D01*
X40475000Y-99201335D01*
X40530147Y-99478574D01*
X40638320Y-99739727D01*
X40795363Y-99974759D01*
X40995241Y-100174637D01*
X41227759Y-100330000D01*
X40995241Y-100485363D01*
X40795363Y-100685241D01*
X40638320Y-100920273D01*
X40530147Y-101181426D01*
X40475000Y-101458665D01*
X40475000Y-101741335D01*
X40530147Y-102018574D01*
X40638320Y-102279727D01*
X40795363Y-102514759D01*
X40995241Y-102714637D01*
X41227759Y-102870000D01*
X40995241Y-103025363D01*
X40795363Y-103225241D01*
X40638320Y-103460273D01*
X40530147Y-103721426D01*
X40475000Y-103998665D01*
X40475000Y-104281335D01*
X40530147Y-104558574D01*
X40638320Y-104819727D01*
X40795363Y-105054759D01*
X40995241Y-105254637D01*
X41227759Y-105410000D01*
X40995241Y-105565363D01*
X40795363Y-105765241D01*
X40638320Y-106000273D01*
X40530147Y-106261426D01*
X40475000Y-106538665D01*
X40475000Y-106821335D01*
X40530147Y-107098574D01*
X40638320Y-107359727D01*
X40795363Y-107594759D01*
X40995241Y-107794637D01*
X41227759Y-107950000D01*
X40995241Y-108105363D01*
X40795363Y-108305241D01*
X40638320Y-108540273D01*
X40530147Y-108801426D01*
X40475000Y-109078665D01*
X40475000Y-109361335D01*
X40530147Y-109638574D01*
X40638320Y-109899727D01*
X40795363Y-110134759D01*
X40995241Y-110334637D01*
X41227759Y-110490000D01*
X40995241Y-110645363D01*
X40795363Y-110845241D01*
X40638320Y-111080273D01*
X40530147Y-111341426D01*
X40475000Y-111618665D01*
X40475000Y-111901335D01*
X40530147Y-112178574D01*
X40638320Y-112439727D01*
X40795363Y-112674759D01*
X40995241Y-112874637D01*
X41227759Y-113030000D01*
X40995241Y-113185363D01*
X40795363Y-113385241D01*
X40638320Y-113620273D01*
X40530147Y-113881426D01*
X40475000Y-114158665D01*
X40475000Y-114441335D01*
X40530147Y-114718574D01*
X40638320Y-114979727D01*
X40795363Y-115214759D01*
X40995241Y-115414637D01*
X41230273Y-115571680D01*
X41240865Y-115576067D01*
X41054869Y-115687615D01*
X40846481Y-115876586D01*
X40678963Y-116102580D01*
X40558754Y-116356913D01*
X40518096Y-116490961D01*
X40640085Y-116713000D01*
X41783000Y-116713000D01*
X41783000Y-116693000D01*
X42037000Y-116693000D01*
X42037000Y-116713000D01*
X43179915Y-116713000D01*
X43301904Y-116490961D01*
X43261246Y-116356913D01*
X43141037Y-116102580D01*
X42973519Y-115876586D01*
X42765131Y-115687615D01*
X42579135Y-115576067D01*
X42589727Y-115571680D01*
X42824759Y-115414637D01*
X43024637Y-115214759D01*
X43181680Y-114979727D01*
X43289853Y-114718574D01*
X43345000Y-114441335D01*
X43345000Y-114158665D01*
X43289853Y-113881426D01*
X43181680Y-113620273D01*
X43024637Y-113385241D01*
X42824759Y-113185363D01*
X42592241Y-113030000D01*
X42824759Y-112874637D01*
X43024637Y-112674759D01*
X43181680Y-112439727D01*
X43289853Y-112178574D01*
X43345000Y-111901335D01*
X43345000Y-111618665D01*
X43289853Y-111341426D01*
X43181680Y-111080273D01*
X43024637Y-110845241D01*
X42824759Y-110645363D01*
X42592241Y-110490000D01*
X42824759Y-110334637D01*
X43024637Y-110134759D01*
X43181680Y-109899727D01*
X43289853Y-109638574D01*
X43345000Y-109361335D01*
X43345000Y-109078665D01*
X43289853Y-108801426D01*
X43181680Y-108540273D01*
X43024637Y-108305241D01*
X42824759Y-108105363D01*
X42592241Y-107950000D01*
X42824759Y-107794637D01*
X43024637Y-107594759D01*
X43181680Y-107359727D01*
X43289853Y-107098574D01*
X43345000Y-106821335D01*
X43345000Y-106538665D01*
X43289853Y-106261426D01*
X43181680Y-106000273D01*
X43024637Y-105765241D01*
X42824759Y-105565363D01*
X42592241Y-105410000D01*
X42824759Y-105254637D01*
X43024637Y-105054759D01*
X43181680Y-104819727D01*
X43289853Y-104558574D01*
X43345000Y-104281335D01*
X43345000Y-103998665D01*
X43289853Y-103721426D01*
X43181680Y-103460273D01*
X43024637Y-103225241D01*
X42824759Y-103025363D01*
X42592241Y-102870000D01*
X42824759Y-102714637D01*
X43024637Y-102514759D01*
X43181680Y-102279727D01*
X43289853Y-102018574D01*
X43345000Y-101741335D01*
X43345000Y-101458665D01*
X43289853Y-101181426D01*
X43181680Y-100920273D01*
X43024637Y-100685241D01*
X42824759Y-100485363D01*
X42592241Y-100330000D01*
X42824759Y-100174637D01*
X43024637Y-99974759D01*
X43181680Y-99739727D01*
X43289853Y-99478574D01*
X43345000Y-99201335D01*
X43345000Y-98918665D01*
X43289853Y-98641426D01*
X43181680Y-98380273D01*
X43024637Y-98145241D01*
X42824759Y-97945363D01*
X42592241Y-97790000D01*
X42824759Y-97634637D01*
X43024637Y-97434759D01*
X43181680Y-97199727D01*
X43289853Y-96938574D01*
X43345000Y-96661335D01*
X43345000Y-96378665D01*
X43289853Y-96101426D01*
X43181680Y-95840273D01*
X43024637Y-95605241D01*
X42824759Y-95405363D01*
X42592241Y-95250000D01*
X42824759Y-95094637D01*
X43024637Y-94894759D01*
X43181680Y-94659727D01*
X43289853Y-94398574D01*
X43345000Y-94121335D01*
X43345000Y-93838665D01*
X43329327Y-93759872D01*
X73330000Y-93759872D01*
X73330000Y-94200128D01*
X73415890Y-94631925D01*
X73584369Y-95038669D01*
X73828962Y-95404729D01*
X74140271Y-95716038D01*
X74506331Y-95960631D01*
X74913075Y-96129110D01*
X75344872Y-96215000D01*
X75785128Y-96215000D01*
X76216925Y-96129110D01*
X76623669Y-95960631D01*
X76989729Y-95716038D01*
X77301038Y-95404729D01*
X77545631Y-95038669D01*
X77714110Y-94631925D01*
X77800000Y-94200128D01*
X77800000Y-93759872D01*
X198425000Y-93759872D01*
X198425000Y-94200128D01*
X198510890Y-94631925D01*
X198679369Y-95038669D01*
X198923962Y-95404729D01*
X199235271Y-95716038D01*
X199601331Y-95960631D01*
X200008075Y-96129110D01*
X200439872Y-96215000D01*
X200880128Y-96215000D01*
X201311925Y-96129110D01*
X201718669Y-95960631D01*
X202084729Y-95716038D01*
X202396038Y-95404729D01*
X202640631Y-95038669D01*
X202809110Y-94631925D01*
X202895000Y-94200128D01*
X202895000Y-93759872D01*
X205410000Y-93759872D01*
X205410000Y-94200128D01*
X205495890Y-94631925D01*
X205664369Y-95038669D01*
X205908962Y-95404729D01*
X206220271Y-95716038D01*
X206586331Y-95960631D01*
X206993075Y-96129110D01*
X207424872Y-96215000D01*
X207865128Y-96215000D01*
X208296925Y-96129110D01*
X208703669Y-95960631D01*
X209069729Y-95716038D01*
X209381038Y-95404729D01*
X209625631Y-95038669D01*
X209794110Y-94631925D01*
X209880000Y-94200128D01*
X209880000Y-93759872D01*
X209794110Y-93328075D01*
X209625631Y-92921331D01*
X209381038Y-92555271D01*
X209069729Y-92243962D01*
X208703669Y-91999369D01*
X208296925Y-91830890D01*
X207865128Y-91745000D01*
X207424872Y-91745000D01*
X206993075Y-91830890D01*
X206586331Y-91999369D01*
X206220271Y-92243962D01*
X205908962Y-92555271D01*
X205664369Y-92921331D01*
X205495890Y-93328075D01*
X205410000Y-93759872D01*
X202895000Y-93759872D01*
X202809110Y-93328075D01*
X202640631Y-92921331D01*
X202396038Y-92555271D01*
X202084729Y-92243962D01*
X201718669Y-91999369D01*
X201311925Y-91830890D01*
X200880128Y-91745000D01*
X200439872Y-91745000D01*
X200008075Y-91830890D01*
X199601331Y-91999369D01*
X199235271Y-92243962D01*
X198923962Y-92555271D01*
X198679369Y-92921331D01*
X198510890Y-93328075D01*
X198425000Y-93759872D01*
X77800000Y-93759872D01*
X77714110Y-93328075D01*
X77545631Y-92921331D01*
X77301038Y-92555271D01*
X76989729Y-92243962D01*
X76623669Y-91999369D01*
X76216925Y-91830890D01*
X75785128Y-91745000D01*
X75344872Y-91745000D01*
X74913075Y-91830890D01*
X74506331Y-91999369D01*
X74140271Y-92243962D01*
X73828962Y-92555271D01*
X73584369Y-92921331D01*
X73415890Y-93328075D01*
X73330000Y-93759872D01*
X43329327Y-93759872D01*
X43289853Y-93561426D01*
X43181680Y-93300273D01*
X43024637Y-93065241D01*
X42824759Y-92865363D01*
X42592241Y-92710000D01*
X55817627Y-92710000D01*
X55880000Y-92716143D01*
X55942373Y-92710000D01*
X55942380Y-92710000D01*
X56128963Y-92691623D01*
X56368359Y-92619003D01*
X56588988Y-92501075D01*
X56782370Y-92342370D01*
X56822141Y-92293909D01*
X58003914Y-91112137D01*
X58052370Y-91072370D01*
X58211075Y-90878988D01*
X58329003Y-90658359D01*
X58389586Y-90458644D01*
X58401623Y-90418964D01*
X58409506Y-90338925D01*
X58420000Y-90232380D01*
X58420000Y-90232374D01*
X58426143Y-90170001D01*
X58420000Y-90107628D01*
X58420000Y-74992372D01*
X58426143Y-74929999D01*
X58420000Y-74867626D01*
X58420000Y-74867620D01*
X58401623Y-74681037D01*
X58329003Y-74441641D01*
X58211075Y-74221012D01*
X58052370Y-74027630D01*
X58003915Y-73987864D01*
X56822141Y-72806091D01*
X56782370Y-72757630D01*
X56588988Y-72598925D01*
X56368359Y-72480997D01*
X56128963Y-72408377D01*
X55942380Y-72390000D01*
X55942373Y-72390000D01*
X55880000Y-72383857D01*
X55817627Y-72390000D01*
X51572240Y-72390000D01*
X51564466Y-72384805D01*
X51681355Y-72315178D01*
X51897588Y-72120269D01*
X52071641Y-71886920D01*
X52196825Y-71624099D01*
X52241476Y-71476890D01*
X52120155Y-71247000D01*
X50927000Y-71247000D01*
X50927000Y-71267000D01*
X50673000Y-71267000D01*
X50673000Y-71247000D01*
X49479845Y-71247000D01*
X49358524Y-71476890D01*
X49403175Y-71624099D01*
X49528359Y-71886920D01*
X49702412Y-72120269D01*
X49918645Y-72315178D01*
X50035534Y-72384805D01*
X49853368Y-72506525D01*
X49646525Y-72713368D01*
X49484010Y-72956589D01*
X49372068Y-73226842D01*
X49315000Y-73513740D01*
X49315000Y-73806260D01*
X49372068Y-74093158D01*
X49484010Y-74363411D01*
X49646525Y-74606632D01*
X49853368Y-74813475D01*
X50027760Y-74930000D01*
X49853368Y-75046525D01*
X49646525Y-75253368D01*
X49484010Y-75496589D01*
X49372068Y-75766842D01*
X49315000Y-76053740D01*
X49315000Y-76346260D01*
X49372068Y-76633158D01*
X49484010Y-76903411D01*
X49646525Y-77146632D01*
X49853368Y-77353475D01*
X50027760Y-77470000D01*
X28002372Y-77470000D01*
X27939999Y-77463857D01*
X27877626Y-77470000D01*
X27877620Y-77470000D01*
X27716755Y-77485844D01*
X27691036Y-77488377D01*
X27618416Y-77510406D01*
X27451641Y-77560997D01*
X27231012Y-77678925D01*
X27037630Y-77837630D01*
X26997866Y-77886083D01*
X25816091Y-79067859D01*
X25767630Y-79107630D01*
X25608925Y-79301013D01*
X25490997Y-79521642D01*
X25418377Y-79761038D01*
X25400000Y-79947621D01*
X25400000Y-79947627D01*
X25393857Y-80010000D01*
X25400000Y-80072373D01*
X25400001Y-88217757D01*
X25398320Y-88220273D01*
X25290147Y-88481426D01*
X25235000Y-88758665D01*
X25235000Y-89041335D01*
X25290147Y-89318574D01*
X25398320Y-89579727D01*
X25555363Y-89814759D01*
X25755241Y-90014637D01*
X25987759Y-90170000D01*
X25755241Y-90325363D01*
X25555363Y-90525241D01*
X25398320Y-90760273D01*
X25290147Y-91021426D01*
X25235000Y-91298665D01*
X25235000Y-91581335D01*
X25290147Y-91858574D01*
X25398320Y-92119727D01*
X25555363Y-92354759D01*
X25755241Y-92554637D01*
X25987759Y-92710000D01*
X25755241Y-92865363D01*
X25555363Y-93065241D01*
X25398320Y-93300273D01*
X25290147Y-93561426D01*
X25235000Y-93838665D01*
X25235000Y-94121335D01*
X25290147Y-94398574D01*
X25398320Y-94659727D01*
X25555363Y-94894759D01*
X25755241Y-95094637D01*
X25987759Y-95250000D01*
X25755241Y-95405363D01*
X25555363Y-95605241D01*
X25398320Y-95840273D01*
X25290147Y-96101426D01*
X25235000Y-96378665D01*
X25235000Y-96661335D01*
X25290147Y-96938574D01*
X25398320Y-97199727D01*
X25555363Y-97434759D01*
X25755241Y-97634637D01*
X25987759Y-97790000D01*
X25755241Y-97945363D01*
X25555363Y-98145241D01*
X25398320Y-98380273D01*
X25290147Y-98641426D01*
X25235000Y-98918665D01*
X25235000Y-99201335D01*
X25290147Y-99478574D01*
X25398320Y-99739727D01*
X25555363Y-99974759D01*
X25755241Y-100174637D01*
X25987759Y-100330000D01*
X25755241Y-100485363D01*
X25555363Y-100685241D01*
X25398320Y-100920273D01*
X25290147Y-101181426D01*
X25235000Y-101458665D01*
X25235000Y-101741335D01*
X25290147Y-102018574D01*
X25398320Y-102279727D01*
X25555363Y-102514759D01*
X25755241Y-102714637D01*
X25987759Y-102870000D01*
X25755241Y-103025363D01*
X25555363Y-103225241D01*
X25398320Y-103460273D01*
X25290147Y-103721426D01*
X25235000Y-103998665D01*
X25235000Y-104281335D01*
X25290147Y-104558574D01*
X25398320Y-104819727D01*
X25555363Y-105054759D01*
X25755241Y-105254637D01*
X25987759Y-105410000D01*
X25755241Y-105565363D01*
X25555363Y-105765241D01*
X25398320Y-106000273D01*
X25290147Y-106261426D01*
X25235000Y-106538665D01*
X25235000Y-106821335D01*
X25290147Y-107098574D01*
X25398320Y-107359727D01*
X25555363Y-107594759D01*
X25755241Y-107794637D01*
X25987759Y-107950000D01*
X25755241Y-108105363D01*
X25555363Y-108305241D01*
X25398320Y-108540273D01*
X25290147Y-108801426D01*
X25235000Y-109078665D01*
X25235000Y-109361335D01*
X25290147Y-109638574D01*
X25398320Y-109899727D01*
X25555363Y-110134759D01*
X25755241Y-110334637D01*
X25987759Y-110490000D01*
X25755241Y-110645363D01*
X25555363Y-110845241D01*
X25398320Y-111080273D01*
X25313252Y-111285647D01*
X25309003Y-111271641D01*
X25191075Y-111051012D01*
X25032370Y-110857630D01*
X24983915Y-110817864D01*
X23802141Y-109636091D01*
X23762370Y-109587630D01*
X23568988Y-109428925D01*
X23348359Y-109310997D01*
X23108963Y-109238377D01*
X22922380Y-109220000D01*
X22922373Y-109220000D01*
X22860000Y-109213857D01*
X22797627Y-109220000D01*
X21596143Y-109220000D01*
X21596143Y-109219999D01*
X21590000Y-109157626D01*
X21590000Y-109157620D01*
X21571623Y-108971037D01*
X21499003Y-108731641D01*
X21381075Y-108511012D01*
X21222370Y-108317630D01*
X21173915Y-108277864D01*
X20320000Y-107423950D01*
X20320000Y-99962380D01*
X20326144Y-99900000D01*
X20301623Y-99651038D01*
X20280000Y-99579757D01*
X20280000Y-99018259D01*
X20340537Y-98944494D01*
X20399502Y-98834180D01*
X20435812Y-98714482D01*
X20448072Y-98590000D01*
X20448072Y-96990000D01*
X20435812Y-96865518D01*
X20399502Y-96745820D01*
X20340537Y-96635506D01*
X20280000Y-96561741D01*
X20280000Y-92297743D01*
X20301623Y-92226462D01*
X20326144Y-91977500D01*
X20304038Y-91753057D01*
X20301623Y-91728536D01*
X20275091Y-91641074D01*
X20229003Y-91489141D01*
X20174108Y-91386440D01*
X20111074Y-91268511D01*
X19992134Y-91123583D01*
X19952370Y-91075130D01*
X19903915Y-91035364D01*
X19448551Y-90580000D01*
X19903915Y-90124636D01*
X19952370Y-90084870D01*
X20111075Y-89891488D01*
X20229003Y-89670859D01*
X20301623Y-89431463D01*
X20320000Y-89244880D01*
X20320000Y-89244874D01*
X20326143Y-89182501D01*
X20320000Y-89120128D01*
X20320000Y-69912372D01*
X20326143Y-69850000D01*
X49473222Y-69850000D01*
X49498815Y-69881185D01*
X49595506Y-69960537D01*
X49705820Y-70019502D01*
X49786466Y-70043966D01*
X49702412Y-70119731D01*
X49528359Y-70353080D01*
X49403175Y-70615901D01*
X49358524Y-70763110D01*
X49479845Y-70993000D01*
X50673000Y-70993000D01*
X50673000Y-70973000D01*
X50927000Y-70973000D01*
X50927000Y-70993000D01*
X52120155Y-70993000D01*
X52241476Y-70763110D01*
X52196825Y-70615901D01*
X52071641Y-70353080D01*
X51897588Y-70119731D01*
X51813534Y-70043966D01*
X51894180Y-70019502D01*
X52004494Y-69960537D01*
X52101185Y-69881185D01*
X52126778Y-69850000D01*
X56623950Y-69850000D01*
X66367868Y-79593920D01*
X66407630Y-79642370D01*
X66456080Y-79682132D01*
X66456083Y-79682135D01*
X66461563Y-79686632D01*
X66601012Y-79801075D01*
X66821641Y-79919003D01*
X67061037Y-79991623D01*
X67310000Y-80016144D01*
X67372380Y-80010000D01*
X353003222Y-80010000D01*
X353028815Y-80041185D01*
X353125506Y-80120537D01*
X353235820Y-80179502D01*
X353316466Y-80203966D01*
X353232412Y-80279731D01*
X353058359Y-80513080D01*
X352933175Y-80775901D01*
X352888524Y-80923110D01*
X353009845Y-81153000D01*
X354203000Y-81153000D01*
X354203000Y-81133000D01*
X354457000Y-81133000D01*
X354457000Y-81153000D01*
X355650155Y-81153000D01*
X355771476Y-80923110D01*
X355726825Y-80775901D01*
X355601641Y-80513080D01*
X355427588Y-80279731D01*
X355343534Y-80203966D01*
X355424180Y-80179502D01*
X355534494Y-80120537D01*
X355631185Y-80041185D01*
X355710537Y-79944494D01*
X355769502Y-79834180D01*
X355805812Y-79714482D01*
X355818072Y-79590000D01*
X355818072Y-77890000D01*
X355805812Y-77765518D01*
X355769502Y-77645820D01*
X355710537Y-77535506D01*
X355631185Y-77438815D01*
X355534494Y-77359463D01*
X355424180Y-77300498D01*
X355304482Y-77264188D01*
X355180000Y-77251928D01*
X353480000Y-77251928D01*
X353355518Y-77264188D01*
X353235820Y-77300498D01*
X353125506Y-77359463D01*
X353028815Y-77438815D01*
X353003222Y-77470000D01*
X67836052Y-77470000D01*
X62535923Y-72169872D01*
X73330000Y-72169872D01*
X73330000Y-72610128D01*
X73415890Y-73041925D01*
X73584369Y-73448669D01*
X73828962Y-73814729D01*
X74140271Y-74126038D01*
X74506331Y-74370631D01*
X74913075Y-74539110D01*
X75344872Y-74625000D01*
X75785128Y-74625000D01*
X76216925Y-74539110D01*
X76623669Y-74370631D01*
X76989729Y-74126038D01*
X77301038Y-73814729D01*
X77545631Y-73448669D01*
X77714110Y-73041925D01*
X77800000Y-72610128D01*
X77800000Y-72169872D01*
X198425000Y-72169872D01*
X198425000Y-72610128D01*
X198510890Y-73041925D01*
X198679369Y-73448669D01*
X198923962Y-73814729D01*
X199235271Y-74126038D01*
X199601331Y-74370631D01*
X200008075Y-74539110D01*
X200439872Y-74625000D01*
X200880128Y-74625000D01*
X201311925Y-74539110D01*
X201718669Y-74370631D01*
X202084729Y-74126038D01*
X202396038Y-73814729D01*
X202640631Y-73448669D01*
X202809110Y-73041925D01*
X202895000Y-72610128D01*
X202895000Y-72169872D01*
X205410000Y-72169872D01*
X205410000Y-72610128D01*
X205495890Y-73041925D01*
X205664369Y-73448669D01*
X205908962Y-73814729D01*
X206220271Y-74126038D01*
X206586331Y-74370631D01*
X206993075Y-74539110D01*
X207424872Y-74625000D01*
X207865128Y-74625000D01*
X208296925Y-74539110D01*
X208703669Y-74370631D01*
X209069729Y-74126038D01*
X209381038Y-73814729D01*
X209625631Y-73448669D01*
X209794110Y-73041925D01*
X209880000Y-72610128D01*
X209880000Y-72169872D01*
X330505000Y-72169872D01*
X330505000Y-72610128D01*
X330590890Y-73041925D01*
X330759369Y-73448669D01*
X331003962Y-73814729D01*
X331315271Y-74126038D01*
X331681331Y-74370631D01*
X332088075Y-74539110D01*
X332519872Y-74625000D01*
X332960128Y-74625000D01*
X333391925Y-74539110D01*
X333798669Y-74370631D01*
X334164729Y-74126038D01*
X334476038Y-73814729D01*
X334720631Y-73448669D01*
X334889110Y-73041925D01*
X334975000Y-72610128D01*
X334975000Y-72169872D01*
X334889110Y-71738075D01*
X334720631Y-71331331D01*
X334476038Y-70965271D01*
X334410639Y-70899872D01*
X350825000Y-70899872D01*
X350825000Y-71340128D01*
X350910890Y-71771925D01*
X351079369Y-72178669D01*
X351323962Y-72544729D01*
X351635271Y-72856038D01*
X352001331Y-73100631D01*
X352408075Y-73269110D01*
X352839872Y-73355000D01*
X353280128Y-73355000D01*
X353711925Y-73269110D01*
X354118669Y-73100631D01*
X354484729Y-72856038D01*
X354796038Y-72544729D01*
X355040631Y-72178669D01*
X355209110Y-71771925D01*
X355295000Y-71340128D01*
X355295000Y-70899872D01*
X355209110Y-70468075D01*
X355040631Y-70061331D01*
X354796038Y-69695271D01*
X354484729Y-69383962D01*
X354118669Y-69139369D01*
X353711925Y-68970890D01*
X353280128Y-68885000D01*
X352839872Y-68885000D01*
X352408075Y-68970890D01*
X352001331Y-69139369D01*
X351635271Y-69383962D01*
X351323962Y-69695271D01*
X351079369Y-70061331D01*
X350910890Y-70468075D01*
X350825000Y-70899872D01*
X334410639Y-70899872D01*
X334164729Y-70653962D01*
X333798669Y-70409369D01*
X333391925Y-70240890D01*
X332960128Y-70155000D01*
X332519872Y-70155000D01*
X332088075Y-70240890D01*
X331681331Y-70409369D01*
X331315271Y-70653962D01*
X331003962Y-70965271D01*
X330759369Y-71331331D01*
X330590890Y-71738075D01*
X330505000Y-72169872D01*
X209880000Y-72169872D01*
X209794110Y-71738075D01*
X209625631Y-71331331D01*
X209381038Y-70965271D01*
X209069729Y-70653962D01*
X208703669Y-70409369D01*
X208296925Y-70240890D01*
X207865128Y-70155000D01*
X207424872Y-70155000D01*
X206993075Y-70240890D01*
X206586331Y-70409369D01*
X206220271Y-70653962D01*
X205908962Y-70965271D01*
X205664369Y-71331331D01*
X205495890Y-71738075D01*
X205410000Y-72169872D01*
X202895000Y-72169872D01*
X202809110Y-71738075D01*
X202640631Y-71331331D01*
X202396038Y-70965271D01*
X202084729Y-70653962D01*
X201718669Y-70409369D01*
X201311925Y-70240890D01*
X200880128Y-70155000D01*
X200439872Y-70155000D01*
X200008075Y-70240890D01*
X199601331Y-70409369D01*
X199235271Y-70653962D01*
X198923962Y-70965271D01*
X198679369Y-71331331D01*
X198510890Y-71738075D01*
X198425000Y-72169872D01*
X77800000Y-72169872D01*
X77714110Y-71738075D01*
X77545631Y-71331331D01*
X77301038Y-70965271D01*
X76989729Y-70653962D01*
X76623669Y-70409369D01*
X76216925Y-70240890D01*
X75785128Y-70155000D01*
X75344872Y-70155000D01*
X74913075Y-70240890D01*
X74506331Y-70409369D01*
X74140271Y-70653962D01*
X73828962Y-70965271D01*
X73584369Y-71331331D01*
X73415890Y-71738075D01*
X73330000Y-72169872D01*
X62535923Y-72169872D01*
X58092141Y-67726091D01*
X58052370Y-67677630D01*
X57858988Y-67518925D01*
X57638359Y-67400997D01*
X57398963Y-67328377D01*
X57212380Y-67310000D01*
X57212373Y-67310000D01*
X57150000Y-67303857D01*
X57087627Y-67310000D01*
X52126778Y-67310000D01*
X52101185Y-67278815D01*
X52004494Y-67199463D01*
X51894180Y-67140498D01*
X51774482Y-67104188D01*
X51650000Y-67091928D01*
X49950000Y-67091928D01*
X49825518Y-67104188D01*
X49705820Y-67140498D01*
X49595506Y-67199463D01*
X49498815Y-67278815D01*
X49473222Y-67310000D01*
X17842373Y-67310000D01*
X17780000Y-67303857D01*
X17717627Y-67310000D01*
X-24067628Y-67310000D01*
X-24130001Y-67303857D01*
X-24192374Y-67310000D01*
X-24192380Y-67310000D01*
X-24353245Y-67325844D01*
X-24378964Y-67328377D01*
X-24451584Y-67350406D01*
X-24618359Y-67400997D01*
X-24838988Y-67518925D01*
X-25032370Y-67677630D01*
X-25072137Y-67726086D01*
X-26253914Y-68907864D01*
X-26302369Y-68947630D01*
X-26461074Y-69141012D01*
X-26540168Y-69288987D01*
X-26579002Y-69361641D01*
X-26651623Y-69601037D01*
X-26676143Y-69850000D01*
X-26669999Y-69912383D01*
X-26670000Y-114935000D01*
X-29883538Y-114935000D01*
X-29876977Y-114932636D01*
X-29761020Y-114870656D01*
X-29694040Y-114630565D01*
X-30480000Y-113844605D01*
X-31265960Y-114630565D01*
X-31198980Y-114870656D01*
X-31063240Y-114934485D01*
X-31141727Y-114966995D01*
X-31370535Y-115119880D01*
X-31565120Y-115314465D01*
X-31718005Y-115543273D01*
X-31823314Y-115797510D01*
X-31877000Y-116067408D01*
X-40513000Y-116067408D01*
X-40513000Y-113737017D01*
X-31881910Y-113737017D01*
X-31840922Y-114009133D01*
X-31747636Y-114268023D01*
X-31685656Y-114383980D01*
X-31445565Y-114450960D01*
X-30659605Y-113665000D01*
X-30300395Y-113665000D01*
X-29514435Y-114450960D01*
X-29274344Y-114383980D01*
X-29157244Y-114134952D01*
X-29090977Y-113867865D01*
X-29078090Y-113592983D01*
X-29119078Y-113320867D01*
X-29212364Y-113061977D01*
X-29274344Y-112946020D01*
X-29514435Y-112879040D01*
X-30300395Y-113665000D01*
X-30659605Y-113665000D01*
X-31445565Y-112879040D01*
X-31685656Y-112946020D01*
X-31802756Y-113195048D01*
X-31869023Y-113462135D01*
X-31881910Y-113737017D01*
X-40513000Y-113737017D01*
X-40513000Y-105907408D01*
X-31877000Y-105907408D01*
X-31877000Y-106182592D01*
X-31823314Y-106452490D01*
X-31718005Y-106706727D01*
X-31565120Y-106935535D01*
X-31370535Y-107130120D01*
X-31141727Y-107283005D01*
X-31064485Y-107315000D01*
X-31141727Y-107346995D01*
X-31370535Y-107499880D01*
X-31565120Y-107694465D01*
X-31718005Y-107923273D01*
X-31823314Y-108177510D01*
X-31877000Y-108447408D01*
X-31877000Y-108722592D01*
X-31823314Y-108992490D01*
X-31718005Y-109246727D01*
X-31565120Y-109475535D01*
X-31370535Y-109670120D01*
X-31141727Y-109823005D01*
X-31064485Y-109855000D01*
X-31141727Y-109886995D01*
X-31370535Y-110039880D01*
X-31565120Y-110234465D01*
X-31718005Y-110463273D01*
X-31823314Y-110717510D01*
X-31877000Y-110987408D01*
X-31877000Y-111262592D01*
X-31823314Y-111532490D01*
X-31718005Y-111786727D01*
X-31565120Y-112015535D01*
X-31370535Y-112210120D01*
X-31141727Y-112363005D01*
X-31070057Y-112392692D01*
X-31083023Y-112397364D01*
X-31198980Y-112459344D01*
X-31265960Y-112699435D01*
X-30480000Y-113485395D01*
X-29694040Y-112699435D01*
X-29761020Y-112459344D01*
X-29896760Y-112395515D01*
X-29818273Y-112363005D01*
X-29589465Y-112210120D01*
X-29394880Y-112015535D01*
X-29241995Y-111786727D01*
X-29136686Y-111532490D01*
X-29083000Y-111262592D01*
X-29083000Y-110987408D01*
X-29136686Y-110717510D01*
X-29241995Y-110463273D01*
X-29394880Y-110234465D01*
X-29589465Y-110039880D01*
X-29818273Y-109886995D01*
X-29895515Y-109855000D01*
X-29818273Y-109823005D01*
X-29589465Y-109670120D01*
X-29394880Y-109475535D01*
X-29241995Y-109246727D01*
X-29136686Y-108992490D01*
X-29083000Y-108722592D01*
X-29083000Y-108447408D01*
X-29136686Y-108177510D01*
X-29241995Y-107923273D01*
X-29394880Y-107694465D01*
X-29589465Y-107499880D01*
X-29818273Y-107346995D01*
X-29895515Y-107315000D01*
X-29818273Y-107283005D01*
X-29589465Y-107130120D01*
X-29394880Y-106935535D01*
X-29241995Y-106706727D01*
X-29136686Y-106452490D01*
X-29083000Y-106182592D01*
X-29083000Y-105907408D01*
X-29136686Y-105637510D01*
X-29241995Y-105383273D01*
X-29394880Y-105154465D01*
X-29589465Y-104959880D01*
X-29818273Y-104806995D01*
X-29889943Y-104777308D01*
X-29876977Y-104772636D01*
X-29761020Y-104710656D01*
X-29694040Y-104470565D01*
X-30480000Y-103684605D01*
X-31265960Y-104470565D01*
X-31198980Y-104710656D01*
X-31063240Y-104774485D01*
X-31141727Y-104806995D01*
X-31370535Y-104959880D01*
X-31565120Y-105154465D01*
X-31718005Y-105383273D01*
X-31823314Y-105637510D01*
X-31877000Y-105907408D01*
X-40513000Y-105907408D01*
X-40513000Y-103577017D01*
X-31881910Y-103577017D01*
X-31840922Y-103849133D01*
X-31747636Y-104108023D01*
X-31685656Y-104223980D01*
X-31445565Y-104290960D01*
X-30659605Y-103505000D01*
X-30300395Y-103505000D01*
X-29514435Y-104290960D01*
X-29274344Y-104223980D01*
X-29157244Y-103974952D01*
X-29090977Y-103707865D01*
X-29078090Y-103432983D01*
X-29119078Y-103160867D01*
X-29212364Y-102901977D01*
X-29274344Y-102786020D01*
X-29514435Y-102719040D01*
X-30300395Y-103505000D01*
X-30659605Y-103505000D01*
X-31445565Y-102719040D01*
X-31685656Y-102786020D01*
X-31802756Y-103035048D01*
X-31869023Y-103302135D01*
X-31881910Y-103577017D01*
X-40513000Y-103577017D01*
X-40513000Y-80507408D01*
X-31877000Y-80507408D01*
X-31877000Y-80782592D01*
X-31823314Y-81052490D01*
X-31718005Y-81306727D01*
X-31565120Y-81535535D01*
X-31370535Y-81730120D01*
X-31141727Y-81883005D01*
X-31064485Y-81915000D01*
X-31141727Y-81946995D01*
X-31370535Y-82099880D01*
X-31565120Y-82294465D01*
X-31718005Y-82523273D01*
X-31823314Y-82777510D01*
X-31877000Y-83047408D01*
X-31877000Y-83322592D01*
X-31823314Y-83592490D01*
X-31718005Y-83846727D01*
X-31565120Y-84075535D01*
X-31370535Y-84270120D01*
X-31141727Y-84423005D01*
X-31064485Y-84455000D01*
X-31141727Y-84486995D01*
X-31370535Y-84639880D01*
X-31565120Y-84834465D01*
X-31718005Y-85063273D01*
X-31823314Y-85317510D01*
X-31877000Y-85587408D01*
X-31877000Y-85862592D01*
X-31823314Y-86132490D01*
X-31718005Y-86386727D01*
X-31565120Y-86615535D01*
X-31370535Y-86810120D01*
X-31141727Y-86963005D01*
X-31064485Y-86995000D01*
X-31141727Y-87026995D01*
X-31370535Y-87179880D01*
X-31565120Y-87374465D01*
X-31718005Y-87603273D01*
X-31823314Y-87857510D01*
X-31877000Y-88127408D01*
X-31877000Y-88402592D01*
X-31823314Y-88672490D01*
X-31718005Y-88926727D01*
X-31565120Y-89155535D01*
X-31370535Y-89350120D01*
X-31141727Y-89503005D01*
X-31064485Y-89535000D01*
X-31141727Y-89566995D01*
X-31370535Y-89719880D01*
X-31565120Y-89914465D01*
X-31718005Y-90143273D01*
X-31823314Y-90397510D01*
X-31877000Y-90667408D01*
X-31877000Y-90942592D01*
X-31823314Y-91212490D01*
X-31718005Y-91466727D01*
X-31565120Y-91695535D01*
X-31370535Y-91890120D01*
X-31141727Y-92043005D01*
X-31064485Y-92075000D01*
X-31141727Y-92106995D01*
X-31370535Y-92259880D01*
X-31565120Y-92454465D01*
X-31718005Y-92683273D01*
X-31823314Y-92937510D01*
X-31877000Y-93207408D01*
X-31877000Y-93482592D01*
X-31823314Y-93752490D01*
X-31718005Y-94006727D01*
X-31565120Y-94235535D01*
X-31370535Y-94430120D01*
X-31141727Y-94583005D01*
X-31064485Y-94615000D01*
X-31141727Y-94646995D01*
X-31370535Y-94799880D01*
X-31565120Y-94994465D01*
X-31718005Y-95223273D01*
X-31823314Y-95477510D01*
X-31877000Y-95747408D01*
X-31877000Y-96022592D01*
X-31823314Y-96292490D01*
X-31718005Y-96546727D01*
X-31565120Y-96775535D01*
X-31370535Y-96970120D01*
X-31141727Y-97123005D01*
X-31064485Y-97155000D01*
X-31141727Y-97186995D01*
X-31370535Y-97339880D01*
X-31565120Y-97534465D01*
X-31718005Y-97763273D01*
X-31823314Y-98017510D01*
X-31877000Y-98287408D01*
X-31877000Y-98562592D01*
X-31823314Y-98832490D01*
X-31718005Y-99086727D01*
X-31565120Y-99315535D01*
X-31370535Y-99510120D01*
X-31141727Y-99663005D01*
X-31064485Y-99695000D01*
X-31141727Y-99726995D01*
X-31370535Y-99879880D01*
X-31565120Y-100074465D01*
X-31718005Y-100303273D01*
X-31823314Y-100557510D01*
X-31877000Y-100827408D01*
X-31877000Y-101102592D01*
X-31823314Y-101372490D01*
X-31718005Y-101626727D01*
X-31565120Y-101855535D01*
X-31370535Y-102050120D01*
X-31141727Y-102203005D01*
X-31070057Y-102232692D01*
X-31083023Y-102237364D01*
X-31198980Y-102299344D01*
X-31265960Y-102539435D01*
X-30480000Y-103325395D01*
X-29694040Y-102539435D01*
X-29761020Y-102299344D01*
X-29896760Y-102235515D01*
X-29818273Y-102203005D01*
X-29589465Y-102050120D01*
X-29394880Y-101855535D01*
X-29241995Y-101626727D01*
X-29136686Y-101372490D01*
X-29083000Y-101102592D01*
X-29083000Y-100827408D01*
X-29136686Y-100557510D01*
X-29241995Y-100303273D01*
X-29394880Y-100074465D01*
X-29589465Y-99879880D01*
X-29818273Y-99726995D01*
X-29895515Y-99695000D01*
X-29818273Y-99663005D01*
X-29589465Y-99510120D01*
X-29394880Y-99315535D01*
X-29241995Y-99086727D01*
X-29136686Y-98832490D01*
X-29083000Y-98562592D01*
X-29083000Y-98287408D01*
X-29136686Y-98017510D01*
X-29241995Y-97763273D01*
X-29394880Y-97534465D01*
X-29589465Y-97339880D01*
X-29818273Y-97186995D01*
X-29895515Y-97155000D01*
X-29818273Y-97123005D01*
X-29589465Y-96970120D01*
X-29394880Y-96775535D01*
X-29241995Y-96546727D01*
X-29136686Y-96292490D01*
X-29083000Y-96022592D01*
X-29083000Y-95747408D01*
X-29136686Y-95477510D01*
X-29241995Y-95223273D01*
X-29394880Y-94994465D01*
X-29589465Y-94799880D01*
X-29818273Y-94646995D01*
X-29895515Y-94615000D01*
X-29818273Y-94583005D01*
X-29589465Y-94430120D01*
X-29394880Y-94235535D01*
X-29241995Y-94006727D01*
X-29136686Y-93752490D01*
X-29083000Y-93482592D01*
X-29083000Y-93207408D01*
X-29136686Y-92937510D01*
X-29241995Y-92683273D01*
X-29394880Y-92454465D01*
X-29589465Y-92259880D01*
X-29818273Y-92106995D01*
X-29895515Y-92075000D01*
X-29818273Y-92043005D01*
X-29589465Y-91890120D01*
X-29394880Y-91695535D01*
X-29241995Y-91466727D01*
X-29136686Y-91212490D01*
X-29083000Y-90942592D01*
X-29083000Y-90667408D01*
X-29136686Y-90397510D01*
X-29241995Y-90143273D01*
X-29394880Y-89914465D01*
X-29589465Y-89719880D01*
X-29818273Y-89566995D01*
X-29895515Y-89535000D01*
X-29818273Y-89503005D01*
X-29589465Y-89350120D01*
X-29394880Y-89155535D01*
X-29241995Y-88926727D01*
X-29136686Y-88672490D01*
X-29083000Y-88402592D01*
X-29083000Y-88127408D01*
X-29136686Y-87857510D01*
X-29241995Y-87603273D01*
X-29394880Y-87374465D01*
X-29589465Y-87179880D01*
X-29818273Y-87026995D01*
X-29895515Y-86995000D01*
X-29818273Y-86963005D01*
X-29589465Y-86810120D01*
X-29394880Y-86615535D01*
X-29241995Y-86386727D01*
X-29136686Y-86132490D01*
X-29083000Y-85862592D01*
X-29083000Y-85587408D01*
X-29136686Y-85317510D01*
X-29241995Y-85063273D01*
X-29394880Y-84834465D01*
X-29589465Y-84639880D01*
X-29818273Y-84486995D01*
X-29895515Y-84455000D01*
X-29818273Y-84423005D01*
X-29589465Y-84270120D01*
X-29394880Y-84075535D01*
X-29241995Y-83846727D01*
X-29136686Y-83592490D01*
X-29083000Y-83322592D01*
X-29083000Y-83047408D01*
X-29136686Y-82777510D01*
X-29241995Y-82523273D01*
X-29394880Y-82294465D01*
X-29589465Y-82099880D01*
X-29818273Y-81946995D01*
X-29895515Y-81915000D01*
X-29818273Y-81883005D01*
X-29589465Y-81730120D01*
X-29394880Y-81535535D01*
X-29241995Y-81306727D01*
X-29136686Y-81052490D01*
X-29083000Y-80782592D01*
X-29083000Y-80507408D01*
X-29136686Y-80237510D01*
X-29241995Y-79983273D01*
X-29394880Y-79754465D01*
X-29589465Y-79559880D01*
X-29818273Y-79406995D01*
X-30072510Y-79301686D01*
X-30342408Y-79248000D01*
X-30617592Y-79248000D01*
X-30887490Y-79301686D01*
X-31141727Y-79406995D01*
X-31370535Y-79559880D01*
X-31565120Y-79754465D01*
X-31718005Y-79983273D01*
X-31823314Y-80237510D01*
X-31877000Y-80507408D01*
X-40513000Y-80507408D01*
X-40513000Y-70899872D01*
X-37795000Y-70899872D01*
X-37795000Y-71340128D01*
X-37709110Y-71771925D01*
X-37540631Y-72178669D01*
X-37296038Y-72544729D01*
X-36984729Y-72856038D01*
X-36618669Y-73100631D01*
X-36211925Y-73269110D01*
X-35780128Y-73355000D01*
X-35339872Y-73355000D01*
X-34908075Y-73269110D01*
X-34501331Y-73100631D01*
X-34135271Y-72856038D01*
X-33823962Y-72544729D01*
X-33579369Y-72178669D01*
X-33410890Y-71771925D01*
X-33325000Y-71340128D01*
X-33325000Y-70899872D01*
X-33410890Y-70468075D01*
X-33579369Y-70061331D01*
X-33823962Y-69695271D01*
X-34135271Y-69383962D01*
X-34501331Y-69139369D01*
X-34908075Y-68970890D01*
X-35339872Y-68885000D01*
X-35780128Y-68885000D01*
X-36211925Y-68970890D01*
X-36618669Y-69139369D01*
X-36984729Y-69383962D01*
X-37296038Y-69695271D01*
X-37540631Y-70061331D01*
X-37709110Y-70468075D01*
X-37795000Y-70899872D01*
X-40513000Y-70899872D01*
X-40513000Y-66167000D01*
X358013000Y-66167000D01*
X358013000Y-135714387D01*
G37*
X358013000Y-135714387D02*
X-40513000Y-135811614D01*
X-40513000Y-130589872D01*
X-37795000Y-130589872D01*
X-37795000Y-131030128D01*
X-37709110Y-131461925D01*
X-37540631Y-131868669D01*
X-37296038Y-132234729D01*
X-36984729Y-132546038D01*
X-36618669Y-132790631D01*
X-36211925Y-132959110D01*
X-35780128Y-133045000D01*
X-35339872Y-133045000D01*
X-34908075Y-132959110D01*
X-34501331Y-132790631D01*
X-34135271Y-132546038D01*
X-33823962Y-132234729D01*
X-33579369Y-131868669D01*
X-33410890Y-131461925D01*
X-33325000Y-131030128D01*
X-33325000Y-130589872D01*
X-33410890Y-130158075D01*
X-33579369Y-129751331D01*
X-33823962Y-129385271D01*
X-34135271Y-129073962D01*
X-34501331Y-128829369D01*
X-34908075Y-128660890D01*
X-35339872Y-128575000D01*
X-35780128Y-128575000D01*
X-36211925Y-128660890D01*
X-36618669Y-128829369D01*
X-36984729Y-129073962D01*
X-37296038Y-129385271D01*
X-37540631Y-129751331D01*
X-37709110Y-130158075D01*
X-37795000Y-130589872D01*
X-40513000Y-130589872D01*
X-40513000Y-116067408D01*
X-31877000Y-116067408D01*
X-31877000Y-116342592D01*
X-31823314Y-116612490D01*
X-31718005Y-116866727D01*
X-31565120Y-117095535D01*
X-31370535Y-117290120D01*
X-31141727Y-117443005D01*
X-30887490Y-117548314D01*
X-30617592Y-117602000D01*
X-30342408Y-117602000D01*
X-30072510Y-117548314D01*
X-29895515Y-117475000D01*
X-27305000Y-117475000D01*
X-27304999Y-131382617D01*
X-27311143Y-131445000D01*
X-27286623Y-131693963D01*
X-27221402Y-131908964D01*
X-27214002Y-131933359D01*
X-27096074Y-132153988D01*
X-26937369Y-132347370D01*
X-26888914Y-132387136D01*
X-25072132Y-134203919D01*
X-25032370Y-134252370D01*
X-24983920Y-134292132D01*
X-24983917Y-134292135D01*
X-24933914Y-134333171D01*
X-24838988Y-134411075D01*
X-24618361Y-134529002D01*
X-24618359Y-134529003D01*
X-24378963Y-134601623D01*
X-24130000Y-134626144D01*
X-24067620Y-134620000D01*
X45657627Y-134620000D01*
X45720000Y-134626143D01*
X45782373Y-134620000D01*
X45782380Y-134620000D01*
X45968963Y-134601623D01*
X46208359Y-134529003D01*
X46428988Y-134411075D01*
X46622370Y-134252370D01*
X46662141Y-134203909D01*
X48263915Y-132602136D01*
X48312370Y-132562370D01*
X48471075Y-132368988D01*
X48589003Y-132148359D01*
X48607876Y-132086143D01*
X48661623Y-131908964D01*
X48677069Y-131752134D01*
X48680000Y-131722380D01*
X48680000Y-131722373D01*
X48686143Y-131660000D01*
X48680000Y-131597627D01*
X48680000Y-130589872D01*
X350825000Y-130589872D01*
X350825000Y-131030128D01*
X350910890Y-131461925D01*
X351079369Y-131868669D01*
X351323962Y-132234729D01*
X351635271Y-132546038D01*
X352001331Y-132790631D01*
X352408075Y-132959110D01*
X352839872Y-133045000D01*
X353280128Y-133045000D01*
X353711925Y-132959110D01*
X354118669Y-132790631D01*
X354484729Y-132546038D01*
X354796038Y-132234729D01*
X355040631Y-131868669D01*
X355209110Y-131461925D01*
X355295000Y-131030128D01*
X355295000Y-130589872D01*
X355209110Y-130158075D01*
X355040631Y-129751331D01*
X354796038Y-129385271D01*
X354484729Y-129073962D01*
X354118669Y-128829369D01*
X353711925Y-128660890D01*
X353280128Y-128575000D01*
X352839872Y-128575000D01*
X352408075Y-128660890D01*
X352001331Y-128829369D01*
X351635271Y-129073962D01*
X351323962Y-129385271D01*
X351079369Y-129751331D01*
X350910890Y-130158075D01*
X350825000Y-130589872D01*
X48680000Y-130589872D01*
X48680000Y-128049872D01*
X73330000Y-128049872D01*
X73330000Y-128490128D01*
X73415890Y-128921925D01*
X73584369Y-129328669D01*
X73828962Y-129694729D01*
X74140271Y-130006038D01*
X74506331Y-130250631D01*
X74913075Y-130419110D01*
X75344872Y-130505000D01*
X75785128Y-130505000D01*
X76216925Y-130419110D01*
X76623669Y-130250631D01*
X76989729Y-130006038D01*
X77301038Y-129694729D01*
X77545631Y-129328669D01*
X77714110Y-128921925D01*
X77800000Y-128490128D01*
X77800000Y-128049872D01*
X198425000Y-128049872D01*
X198425000Y-128490128D01*
X198510890Y-128921925D01*
X198679369Y-129328669D01*
X198923962Y-129694729D01*
X199235271Y-130006038D01*
X199601331Y-130250631D01*
X200008075Y-130419110D01*
X200439872Y-130505000D01*
X200880128Y-130505000D01*
X201311925Y-130419110D01*
X201718669Y-130250631D01*
X202084729Y-130006038D01*
X202396038Y-129694729D01*
X202640631Y-129328669D01*
X202809110Y-128921925D01*
X202895000Y-128490128D01*
X202895000Y-128049872D01*
X205410000Y-128049872D01*
X205410000Y-128490128D01*
X205495890Y-128921925D01*
X205664369Y-129328669D01*
X205908962Y-129694729D01*
X206220271Y-130006038D01*
X206586331Y-130250631D01*
X206993075Y-130419110D01*
X207424872Y-130505000D01*
X207865128Y-130505000D01*
X208296925Y-130419110D01*
X208703669Y-130250631D01*
X209069729Y-130006038D01*
X209381038Y-129694729D01*
X209625631Y-129328669D01*
X209794110Y-128921925D01*
X209880000Y-128490128D01*
X209880000Y-128049872D01*
X330505000Y-128049872D01*
X330505000Y-128490128D01*
X330590890Y-128921925D01*
X330759369Y-129328669D01*
X331003962Y-129694729D01*
X331315271Y-130006038D01*
X331681331Y-130250631D01*
X332088075Y-130419110D01*
X332519872Y-130505000D01*
X332960128Y-130505000D01*
X333391925Y-130419110D01*
X333798669Y-130250631D01*
X334164729Y-130006038D01*
X334476038Y-129694729D01*
X334720631Y-129328669D01*
X334889110Y-128921925D01*
X334975000Y-128490128D01*
X334975000Y-128049872D01*
X334889110Y-127618075D01*
X334720631Y-127211331D01*
X334476038Y-126845271D01*
X334164729Y-126533962D01*
X333798669Y-126289369D01*
X333391925Y-126120890D01*
X332960128Y-126035000D01*
X332519872Y-126035000D01*
X332088075Y-126120890D01*
X331681331Y-126289369D01*
X331315271Y-126533962D01*
X331003962Y-126845271D01*
X330759369Y-127211331D01*
X330590890Y-127618075D01*
X330505000Y-128049872D01*
X209880000Y-128049872D01*
X209794110Y-127618075D01*
X209625631Y-127211331D01*
X209381038Y-126845271D01*
X209069729Y-126533962D01*
X208703669Y-126289369D01*
X208296925Y-126120890D01*
X207865128Y-126035000D01*
X207424872Y-126035000D01*
X206993075Y-126120890D01*
X206586331Y-126289369D01*
X206220271Y-126533962D01*
X205908962Y-126845271D01*
X205664369Y-127211331D01*
X205495890Y-127618075D01*
X205410000Y-128049872D01*
X202895000Y-128049872D01*
X202809110Y-127618075D01*
X202640631Y-127211331D01*
X202396038Y-126845271D01*
X202084729Y-126533962D01*
X201718669Y-126289369D01*
X201311925Y-126120890D01*
X200880128Y-126035000D01*
X200439872Y-126035000D01*
X200008075Y-126120890D01*
X199601331Y-126289369D01*
X199235271Y-126533962D01*
X198923962Y-126845271D01*
X198679369Y-127211331D01*
X198510890Y-127618075D01*
X198425000Y-128049872D01*
X77800000Y-128049872D01*
X77714110Y-127618075D01*
X77545631Y-127211331D01*
X77301038Y-126845271D01*
X76989729Y-126533962D01*
X76623669Y-126289369D01*
X76216925Y-126120890D01*
X75785128Y-126035000D01*
X75344872Y-126035000D01*
X74913075Y-126120890D01*
X74506331Y-126289369D01*
X74140271Y-126533962D01*
X73828962Y-126845271D01*
X73584369Y-127211331D01*
X73415890Y-127618075D01*
X73330000Y-128049872D01*
X48680000Y-128049872D01*
X48680000Y-109073740D01*
X49315000Y-109073740D01*
X49315000Y-109366260D01*
X49372068Y-109653158D01*
X49484010Y-109923411D01*
X49646525Y-110166632D01*
X49853368Y-110373475D01*
X50027760Y-110490000D01*
X49853368Y-110606525D01*
X49646525Y-110813368D01*
X49484010Y-111056589D01*
X49372068Y-111326842D01*
X49315000Y-111613740D01*
X49315000Y-111906260D01*
X49372068Y-112193158D01*
X49484010Y-112463411D01*
X49646525Y-112706632D01*
X49853368Y-112913475D01*
X50027760Y-113030000D01*
X49853368Y-113146525D01*
X49646525Y-113353368D01*
X49484010Y-113596589D01*
X49372068Y-113866842D01*
X49315000Y-114153740D01*
X49315000Y-114446260D01*
X49372068Y-114733158D01*
X49484010Y-115003411D01*
X49646525Y-115246632D01*
X49853368Y-115453475D01*
X50096589Y-115615990D01*
X50366842Y-115727932D01*
X50653740Y-115785000D01*
X50946260Y-115785000D01*
X51233158Y-115727932D01*
X51503411Y-115615990D01*
X51572240Y-115570000D01*
X297117627Y-115570000D01*
X297180000Y-115576143D01*
X297242373Y-115570000D01*
X297242380Y-115570000D01*
X297428963Y-115551623D01*
X297668359Y-115479003D01*
X297888988Y-115361075D01*
X298082370Y-115202370D01*
X298122141Y-115153909D01*
X306816178Y-106459872D01*
X330505000Y-106459872D01*
X330505000Y-106900128D01*
X330590890Y-107331925D01*
X330759369Y-107738669D01*
X331003962Y-108104729D01*
X331315271Y-108416038D01*
X331681331Y-108660631D01*
X332088075Y-108829110D01*
X332519872Y-108915000D01*
X332960128Y-108915000D01*
X333391925Y-108829110D01*
X333798669Y-108660631D01*
X334164729Y-108416038D01*
X334476038Y-108104729D01*
X334720631Y-107738669D01*
X334889110Y-107331925D01*
X334975000Y-106900128D01*
X334975000Y-106459872D01*
X334889110Y-106028075D01*
X334720631Y-105621331D01*
X334476038Y-105255271D01*
X334164729Y-104943962D01*
X333798669Y-104699369D01*
X333391925Y-104530890D01*
X332960128Y-104445000D01*
X332519872Y-104445000D01*
X332088075Y-104530890D01*
X331681331Y-104699369D01*
X331315271Y-104943962D01*
X331003962Y-105255271D01*
X330759369Y-105621331D01*
X330590890Y-106028075D01*
X330505000Y-106459872D01*
X306816178Y-106459872D01*
X319516178Y-93759872D01*
X330505000Y-93759872D01*
X330505000Y-94200128D01*
X330590890Y-94631925D01*
X330759369Y-95038669D01*
X331003962Y-95404729D01*
X331315271Y-95716038D01*
X331681331Y-95960631D01*
X332088075Y-96129110D01*
X332519872Y-96215000D01*
X332960128Y-96215000D01*
X333391925Y-96129110D01*
X333798669Y-95960631D01*
X334164729Y-95716038D01*
X334476038Y-95404729D01*
X334720631Y-95038669D01*
X334889110Y-94631925D01*
X334975000Y-94200128D01*
X334975000Y-93759872D01*
X334889110Y-93328075D01*
X334720631Y-92921331D01*
X334476038Y-92555271D01*
X334164729Y-92243962D01*
X333798669Y-91999369D01*
X333391925Y-91830890D01*
X332960128Y-91745000D01*
X332519872Y-91745000D01*
X332088075Y-91830890D01*
X331681331Y-91999369D01*
X331315271Y-92243962D01*
X331003962Y-92555271D01*
X330759369Y-92921331D01*
X330590890Y-93328075D01*
X330505000Y-93759872D01*
X319516178Y-93759872D01*
X323106051Y-90170000D01*
X353557760Y-90170000D01*
X353626589Y-90215990D01*
X353896842Y-90327932D01*
X354183740Y-90385000D01*
X354476260Y-90385000D01*
X354763158Y-90327932D01*
X355033411Y-90215990D01*
X355276632Y-90053475D01*
X355483475Y-89846632D01*
X355645990Y-89603411D01*
X355757932Y-89333158D01*
X355815000Y-89046260D01*
X355815000Y-88753740D01*
X355757932Y-88466842D01*
X355645990Y-88196589D01*
X355483475Y-87953368D01*
X355276632Y-87746525D01*
X355102240Y-87630000D01*
X355276632Y-87513475D01*
X355483475Y-87306632D01*
X355645990Y-87063411D01*
X355757932Y-86793158D01*
X355815000Y-86506260D01*
X355815000Y-86213740D01*
X355757932Y-85926842D01*
X355645990Y-85656589D01*
X355483475Y-85413368D01*
X355276632Y-85206525D01*
X355102240Y-85090000D01*
X355276632Y-84973475D01*
X355483475Y-84766632D01*
X355645990Y-84523411D01*
X355757932Y-84253158D01*
X355815000Y-83966260D01*
X355815000Y-83673740D01*
X355757932Y-83386842D01*
X355645990Y-83116589D01*
X355483475Y-82873368D01*
X355276632Y-82666525D01*
X355094466Y-82544805D01*
X355211355Y-82475178D01*
X355427588Y-82280269D01*
X355601641Y-82046920D01*
X355726825Y-81784099D01*
X355771476Y-81636890D01*
X355650155Y-81407000D01*
X354457000Y-81407000D01*
X354457000Y-81427000D01*
X354203000Y-81427000D01*
X354203000Y-81407000D01*
X353009845Y-81407000D01*
X352888524Y-81636890D01*
X352933175Y-81784099D01*
X353058359Y-82046920D01*
X353232412Y-82280269D01*
X353448645Y-82475178D01*
X353565534Y-82544805D01*
X353557760Y-82550000D01*
X320102380Y-82550000D01*
X320040000Y-82543856D01*
X319977620Y-82550000D01*
X319791037Y-82568377D01*
X319551641Y-82640997D01*
X319331012Y-82758925D01*
X319236086Y-82836829D01*
X319186083Y-82877865D01*
X319186080Y-82877868D01*
X319137630Y-82917630D01*
X319097868Y-82966080D01*
X304273950Y-97790000D01*
X72452380Y-97790000D01*
X72390000Y-97783856D01*
X72327620Y-97790000D01*
X72121422Y-97790000D01*
X71934839Y-97808377D01*
X71695443Y-97880997D01*
X71474814Y-97998925D01*
X71281432Y-98157630D01*
X71122727Y-98351012D01*
X71004799Y-98571641D01*
X70971049Y-98682899D01*
X61703950Y-107950000D01*
X51572240Y-107950000D01*
X51564466Y-107944805D01*
X51681355Y-107875178D01*
X51897588Y-107680269D01*
X52071641Y-107446920D01*
X52196825Y-107184099D01*
X52241476Y-107036890D01*
X52120155Y-106807000D01*
X50927000Y-106807000D01*
X50927000Y-106827000D01*
X50673000Y-106827000D01*
X50673000Y-106807000D01*
X49479845Y-106807000D01*
X49358524Y-107036890D01*
X49403175Y-107184099D01*
X49528359Y-107446920D01*
X49702412Y-107680269D01*
X49918645Y-107875178D01*
X50035534Y-107944805D01*
X49853368Y-108066525D01*
X49646525Y-108273368D01*
X49484010Y-108516589D01*
X49372068Y-108786842D01*
X49315000Y-109073740D01*
X48680000Y-109073740D01*
X48680000Y-105936050D01*
X49206051Y-105410000D01*
X49473222Y-105410000D01*
X49498815Y-105441185D01*
X49595506Y-105520537D01*
X49705820Y-105579502D01*
X49786466Y-105603966D01*
X49702412Y-105679731D01*
X49528359Y-105913080D01*
X49403175Y-106175901D01*
X49358524Y-106323110D01*
X49479845Y-106553000D01*
X50673000Y-106553000D01*
X50673000Y-106533000D01*
X50927000Y-106533000D01*
X50927000Y-106553000D01*
X52120155Y-106553000D01*
X52241476Y-106323110D01*
X52196825Y-106175901D01*
X52071641Y-105913080D01*
X51897588Y-105679731D01*
X51813534Y-105603966D01*
X51894180Y-105579502D01*
X52004494Y-105520537D01*
X52101185Y-105441185D01*
X52180537Y-105344494D01*
X52239502Y-105234180D01*
X52275812Y-105114482D01*
X52288072Y-104990000D01*
X52288072Y-103290000D01*
X52275812Y-103165518D01*
X52239502Y-103045820D01*
X52180537Y-102935506D01*
X52101185Y-102838815D01*
X52004494Y-102759463D01*
X51894180Y-102700498D01*
X51774482Y-102664188D01*
X51650000Y-102651928D01*
X49950000Y-102651928D01*
X49825518Y-102664188D01*
X49705820Y-102700498D01*
X49595506Y-102759463D01*
X49498815Y-102838815D01*
X49473222Y-102870000D01*
X48742372Y-102870000D01*
X48679999Y-102863857D01*
X48617626Y-102870000D01*
X48617620Y-102870000D01*
X48456755Y-102885844D01*
X48431036Y-102888377D01*
X48358416Y-102910406D01*
X48191641Y-102960997D01*
X47971012Y-103078925D01*
X47777630Y-103237630D01*
X47737863Y-103286086D01*
X46556086Y-104467864D01*
X46507631Y-104507630D01*
X46348926Y-104701012D01*
X46270192Y-104848314D01*
X46230998Y-104921641D01*
X46158377Y-105161037D01*
X46133857Y-105410000D01*
X46140001Y-105472380D01*
X46140000Y-131133949D01*
X45193950Y-132080000D01*
X30542380Y-132080000D01*
X30728963Y-132061623D01*
X30968359Y-131989003D01*
X31188988Y-131871075D01*
X31382370Y-131712370D01*
X31422141Y-131663909D01*
X33873917Y-129212134D01*
X33922370Y-129172370D01*
X34081075Y-128978988D01*
X34199003Y-128758359D01*
X34271623Y-128518963D01*
X34290000Y-128332380D01*
X34290000Y-128332374D01*
X34296143Y-128270001D01*
X34290000Y-128207628D01*
X34290000Y-123660000D01*
X40471928Y-123660000D01*
X40471928Y-125260000D01*
X40484188Y-125384482D01*
X40520498Y-125504180D01*
X40579463Y-125614494D01*
X40658815Y-125711185D01*
X40755506Y-125790537D01*
X40865820Y-125849502D01*
X40985518Y-125885812D01*
X41110000Y-125898072D01*
X42710000Y-125898072D01*
X42834482Y-125885812D01*
X42954180Y-125849502D01*
X43064494Y-125790537D01*
X43161185Y-125711185D01*
X43240537Y-125614494D01*
X43299502Y-125504180D01*
X43335812Y-125384482D01*
X43348072Y-125260000D01*
X43348072Y-123660000D01*
X43335812Y-123535518D01*
X43299502Y-123415820D01*
X43240537Y-123305506D01*
X43161185Y-123208815D01*
X43064494Y-123129463D01*
X42954180Y-123070498D01*
X42834482Y-123034188D01*
X42826039Y-123033357D01*
X43024637Y-122834759D01*
X43181680Y-122599727D01*
X43289853Y-122338574D01*
X43345000Y-122061335D01*
X43345000Y-121778665D01*
X43289853Y-121501426D01*
X43181680Y-121240273D01*
X43024637Y-121005241D01*
X42824759Y-120805363D01*
X42592241Y-120650000D01*
X42824759Y-120494637D01*
X43024637Y-120294759D01*
X43181680Y-120059727D01*
X43289853Y-119798574D01*
X43345000Y-119521335D01*
X43345000Y-119238665D01*
X43289853Y-118961426D01*
X43181680Y-118700273D01*
X43024637Y-118465241D01*
X42824759Y-118265363D01*
X42589727Y-118108320D01*
X42579135Y-118103933D01*
X42765131Y-117992385D01*
X42973519Y-117803414D01*
X43141037Y-117577420D01*
X43261246Y-117323087D01*
X43301904Y-117189039D01*
X43179915Y-116967000D01*
X42037000Y-116967000D01*
X42037000Y-116987000D01*
X41783000Y-116987000D01*
X41783000Y-116967000D01*
X40640085Y-116967000D01*
X40518096Y-117189039D01*
X40558754Y-117323087D01*
X40678963Y-117577420D01*
X40846481Y-117803414D01*
X41054869Y-117992385D01*
X41240865Y-118103933D01*
X41230273Y-118108320D01*
X40995241Y-118265363D01*
X40795363Y-118465241D01*
X40638320Y-118700273D01*
X40530147Y-118961426D01*
X40475000Y-119238665D01*
X40475000Y-119521335D01*
X40530147Y-119798574D01*
X40638320Y-120059727D01*
X40795363Y-120294759D01*
X40995241Y-120494637D01*
X41227759Y-120650000D01*
X40995241Y-120805363D01*
X40795363Y-121005241D01*
X40638320Y-121240273D01*
X40530147Y-121501426D01*
X40475000Y-121778665D01*
X40475000Y-122061335D01*
X40530147Y-122338574D01*
X40638320Y-122599727D01*
X40795363Y-122834759D01*
X40993961Y-123033357D01*
X40985518Y-123034188D01*
X40865820Y-123070498D01*
X40755506Y-123129463D01*
X40658815Y-123208815D01*
X40579463Y-123305506D01*
X40520498Y-123415820D01*
X40484188Y-123535518D01*
X40471928Y-123660000D01*
X34290000Y-123660000D01*
X34290000Y-109282372D01*
X34296143Y-109219999D01*
X34290000Y-109157626D01*
X34290000Y-109157620D01*
X34271623Y-108971037D01*
X34199003Y-108731641D01*
X34081075Y-108511012D01*
X33922370Y-108317630D01*
X33873914Y-108277863D01*
X31422141Y-105826091D01*
X31382370Y-105777630D01*
X31188988Y-105618925D01*
X30968359Y-105500997D01*
X30728963Y-105428377D01*
X30542380Y-105410000D01*
X30542373Y-105410000D01*
X30480000Y-105403857D01*
X30417627Y-105410000D01*
X27352241Y-105410000D01*
X27584759Y-105254637D01*
X27784637Y-105054759D01*
X27941680Y-104819727D01*
X28049853Y-104558574D01*
X28105000Y-104281335D01*
X28105000Y-103998665D01*
X28049853Y-103721426D01*
X27941680Y-103460273D01*
X27784637Y-103225241D01*
X27584759Y-103025363D01*
X27352241Y-102870000D01*
X27584759Y-102714637D01*
X27784637Y-102514759D01*
X27941680Y-102279727D01*
X28049853Y-102018574D01*
X28105000Y-101741335D01*
X28105000Y-101458665D01*
X28049853Y-101181426D01*
X27941680Y-100920273D01*
X27784637Y-100685241D01*
X27584759Y-100485363D01*
X27352241Y-100330000D01*
X27584759Y-100174637D01*
X27784637Y-99974759D01*
X27941680Y-99739727D01*
X28049853Y-99478574D01*
X28105000Y-99201335D01*
X28105000Y-98918665D01*
X28049853Y-98641426D01*
X27941680Y-98380273D01*
X27784637Y-98145241D01*
X27584759Y-97945363D01*
X27352241Y-97790000D01*
X27584759Y-97634637D01*
X27784637Y-97434759D01*
X27941680Y-97199727D01*
X28049853Y-96938574D01*
X28105000Y-96661335D01*
X28105000Y-96378665D01*
X28049853Y-96101426D01*
X27941680Y-95840273D01*
X27784637Y-95605241D01*
X27584759Y-95405363D01*
X27352241Y-95250000D01*
X27584759Y-95094637D01*
X27784637Y-94894759D01*
X27941680Y-94659727D01*
X28049853Y-94398574D01*
X28105000Y-94121335D01*
X28105000Y-93838665D01*
X28049853Y-93561426D01*
X27941680Y-93300273D01*
X27784637Y-93065241D01*
X27584759Y-92865363D01*
X27352241Y-92710000D01*
X27584759Y-92554637D01*
X27784637Y-92354759D01*
X27941680Y-92119727D01*
X28049853Y-91858574D01*
X28105000Y-91581335D01*
X28105000Y-91298665D01*
X28049853Y-91021426D01*
X27941680Y-90760273D01*
X27784637Y-90525241D01*
X27584759Y-90325363D01*
X27352241Y-90170000D01*
X27584759Y-90014637D01*
X27784637Y-89814759D01*
X27941680Y-89579727D01*
X28049853Y-89318574D01*
X28105000Y-89041335D01*
X28105000Y-88758665D01*
X28049853Y-88481426D01*
X27941680Y-88220273D01*
X27940000Y-88217759D01*
X27940000Y-80536050D01*
X28466051Y-80010000D01*
X50027760Y-80010000D01*
X50096589Y-80055990D01*
X50366842Y-80167932D01*
X50653740Y-80225000D01*
X50946260Y-80225000D01*
X51233158Y-80167932D01*
X51503411Y-80055990D01*
X51746632Y-79893475D01*
X51953475Y-79686632D01*
X52115990Y-79443411D01*
X52227932Y-79173158D01*
X52285000Y-78886260D01*
X52285000Y-78593740D01*
X52227932Y-78306842D01*
X52115990Y-78036589D01*
X51953475Y-77793368D01*
X51746632Y-77586525D01*
X51572240Y-77470000D01*
X52813950Y-77470000D01*
X53340001Y-77996052D01*
X53340000Y-84563949D01*
X52813950Y-85090000D01*
X39432372Y-85090000D01*
X39369999Y-85083857D01*
X39307626Y-85090000D01*
X39307620Y-85090000D01*
X39146755Y-85105844D01*
X39121036Y-85108377D01*
X39048416Y-85130406D01*
X38881641Y-85180997D01*
X38661012Y-85298925D01*
X38467630Y-85457630D01*
X38427865Y-85506084D01*
X37246086Y-86687864D01*
X37197631Y-86727630D01*
X37038926Y-86921012D01*
X36982277Y-87026995D01*
X36920998Y-87141641D01*
X36848377Y-87381037D01*
X36823857Y-87630000D01*
X36830001Y-87692383D01*
X36830000Y-92647627D01*
X36823857Y-92710000D01*
X36830000Y-92772373D01*
X36830000Y-92772379D01*
X36848377Y-92958962D01*
X36920997Y-93198358D01*
X37038925Y-93418987D01*
X37197630Y-93612370D01*
X37246091Y-93652141D01*
X38427863Y-94833914D01*
X38467630Y-94882370D01*
X38661012Y-95041075D01*
X38881641Y-95159003D01*
X39048416Y-95209594D01*
X39121036Y-95231623D01*
X39146755Y-95234156D01*
X39307620Y-95250000D01*
X39307626Y-95250000D01*
X39369999Y-95256143D01*
X39432372Y-95250000D01*
X41227759Y-95250000D01*
X40995241Y-95405363D01*
X40795363Y-95605241D01*
X40638320Y-95840273D01*
X40530147Y-96101426D01*
X40475000Y-96378665D01*
X40475000Y-96661335D01*
X40530147Y-96938574D01*
X40638320Y-97199727D01*
X40795363Y-97434759D01*
X40995241Y-97634637D01*
X41227759Y-97790000D01*
X40995241Y-97945363D01*
X40795363Y-98145241D01*
X40638320Y-98380273D01*
X40530147Y-98641426D01*
X40475000Y-98918665D01*
X40475000Y-99201335D01*
X40530147Y-99478574D01*
X40638320Y-99739727D01*
X40795363Y-99974759D01*
X40995241Y-100174637D01*
X41227759Y-100330000D01*
X40995241Y-100485363D01*
X40795363Y-100685241D01*
X40638320Y-100920273D01*
X40530147Y-101181426D01*
X40475000Y-101458665D01*
X40475000Y-101741335D01*
X40530147Y-102018574D01*
X40638320Y-102279727D01*
X40795363Y-102514759D01*
X40995241Y-102714637D01*
X41227759Y-102870000D01*
X40995241Y-103025363D01*
X40795363Y-103225241D01*
X40638320Y-103460273D01*
X40530147Y-103721426D01*
X40475000Y-103998665D01*
X40475000Y-104281335D01*
X40530147Y-104558574D01*
X40638320Y-104819727D01*
X40795363Y-105054759D01*
X40995241Y-105254637D01*
X41227759Y-105410000D01*
X40995241Y-105565363D01*
X40795363Y-105765241D01*
X40638320Y-106000273D01*
X40530147Y-106261426D01*
X40475000Y-106538665D01*
X40475000Y-106821335D01*
X40530147Y-107098574D01*
X40638320Y-107359727D01*
X40795363Y-107594759D01*
X40995241Y-107794637D01*
X41227759Y-107950000D01*
X40995241Y-108105363D01*
X40795363Y-108305241D01*
X40638320Y-108540273D01*
X40530147Y-108801426D01*
X40475000Y-109078665D01*
X40475000Y-109361335D01*
X40530147Y-109638574D01*
X40638320Y-109899727D01*
X40795363Y-110134759D01*
X40995241Y-110334637D01*
X41227759Y-110490000D01*
X40995241Y-110645363D01*
X40795363Y-110845241D01*
X40638320Y-111080273D01*
X40530147Y-111341426D01*
X40475000Y-111618665D01*
X40475000Y-111901335D01*
X40530147Y-112178574D01*
X40638320Y-112439727D01*
X40795363Y-112674759D01*
X40995241Y-112874637D01*
X41227759Y-113030000D01*
X40995241Y-113185363D01*
X40795363Y-113385241D01*
X40638320Y-113620273D01*
X40530147Y-113881426D01*
X40475000Y-114158665D01*
X40475000Y-114441335D01*
X40530147Y-114718574D01*
X40638320Y-114979727D01*
X40795363Y-115214759D01*
X40995241Y-115414637D01*
X41230273Y-115571680D01*
X41240865Y-115576067D01*
X41054869Y-115687615D01*
X40846481Y-115876586D01*
X40678963Y-116102580D01*
X40558754Y-116356913D01*
X40518096Y-116490961D01*
X40640085Y-116713000D01*
X41783000Y-116713000D01*
X41783000Y-116693000D01*
X42037000Y-116693000D01*
X42037000Y-116713000D01*
X43179915Y-116713000D01*
X43301904Y-116490961D01*
X43261246Y-116356913D01*
X43141037Y-116102580D01*
X42973519Y-115876586D01*
X42765131Y-115687615D01*
X42579135Y-115576067D01*
X42589727Y-115571680D01*
X42824759Y-115414637D01*
X43024637Y-115214759D01*
X43181680Y-114979727D01*
X43289853Y-114718574D01*
X43345000Y-114441335D01*
X43345000Y-114158665D01*
X43289853Y-113881426D01*
X43181680Y-113620273D01*
X43024637Y-113385241D01*
X42824759Y-113185363D01*
X42592241Y-113030000D01*
X42824759Y-112874637D01*
X43024637Y-112674759D01*
X43181680Y-112439727D01*
X43289853Y-112178574D01*
X43345000Y-111901335D01*
X43345000Y-111618665D01*
X43289853Y-111341426D01*
X43181680Y-111080273D01*
X43024637Y-110845241D01*
X42824759Y-110645363D01*
X42592241Y-110490000D01*
X42824759Y-110334637D01*
X43024637Y-110134759D01*
X43181680Y-109899727D01*
X43289853Y-109638574D01*
X43345000Y-109361335D01*
X43345000Y-109078665D01*
X43289853Y-108801426D01*
X43181680Y-108540273D01*
X43024637Y-108305241D01*
X42824759Y-108105363D01*
X42592241Y-107950000D01*
X42824759Y-107794637D01*
X43024637Y-107594759D01*
X43181680Y-107359727D01*
X43289853Y-107098574D01*
X43345000Y-106821335D01*
X43345000Y-106538665D01*
X43289853Y-106261426D01*
X43181680Y-106000273D01*
X43024637Y-105765241D01*
X42824759Y-105565363D01*
X42592241Y-105410000D01*
X42824759Y-105254637D01*
X43024637Y-105054759D01*
X43181680Y-104819727D01*
X43289853Y-104558574D01*
X43345000Y-104281335D01*
X43345000Y-103998665D01*
X43289853Y-103721426D01*
X43181680Y-103460273D01*
X43024637Y-103225241D01*
X42824759Y-103025363D01*
X42592241Y-102870000D01*
X42824759Y-102714637D01*
X43024637Y-102514759D01*
X43181680Y-102279727D01*
X43289853Y-102018574D01*
X43345000Y-101741335D01*
X43345000Y-101458665D01*
X43289853Y-101181426D01*
X43181680Y-100920273D01*
X43024637Y-100685241D01*
X42824759Y-100485363D01*
X42592241Y-100330000D01*
X42824759Y-100174637D01*
X43024637Y-99974759D01*
X43181680Y-99739727D01*
X43289853Y-99478574D01*
X43345000Y-99201335D01*
X43345000Y-98918665D01*
X43289853Y-98641426D01*
X43181680Y-98380273D01*
X43024637Y-98145241D01*
X42824759Y-97945363D01*
X42592241Y-97790000D01*
X42824759Y-97634637D01*
X43024637Y-97434759D01*
X43181680Y-97199727D01*
X43289853Y-96938574D01*
X43345000Y-96661335D01*
X43345000Y-96378665D01*
X43289853Y-96101426D01*
X43181680Y-95840273D01*
X43024637Y-95605241D01*
X42824759Y-95405363D01*
X42592241Y-95250000D01*
X42824759Y-95094637D01*
X43024637Y-94894759D01*
X43181680Y-94659727D01*
X43289853Y-94398574D01*
X43345000Y-94121335D01*
X43345000Y-93838665D01*
X43329327Y-93759872D01*
X73330000Y-93759872D01*
X73330000Y-94200128D01*
X73415890Y-94631925D01*
X73584369Y-95038669D01*
X73828962Y-95404729D01*
X74140271Y-95716038D01*
X74506331Y-95960631D01*
X74913075Y-96129110D01*
X75344872Y-96215000D01*
X75785128Y-96215000D01*
X76216925Y-96129110D01*
X76623669Y-95960631D01*
X76989729Y-95716038D01*
X77301038Y-95404729D01*
X77545631Y-95038669D01*
X77714110Y-94631925D01*
X77800000Y-94200128D01*
X77800000Y-93759872D01*
X198425000Y-93759872D01*
X198425000Y-94200128D01*
X198510890Y-94631925D01*
X198679369Y-95038669D01*
X198923962Y-95404729D01*
X199235271Y-95716038D01*
X199601331Y-95960631D01*
X200008075Y-96129110D01*
X200439872Y-96215000D01*
X200880128Y-96215000D01*
X201311925Y-96129110D01*
X201718669Y-95960631D01*
X202084729Y-95716038D01*
X202396038Y-95404729D01*
X202640631Y-95038669D01*
X202809110Y-94631925D01*
X202895000Y-94200128D01*
X202895000Y-93759872D01*
X205410000Y-93759872D01*
X205410000Y-94200128D01*
X205495890Y-94631925D01*
X205664369Y-95038669D01*
X205908962Y-95404729D01*
X206220271Y-95716038D01*
X206586331Y-95960631D01*
X206993075Y-96129110D01*
X207424872Y-96215000D01*
X207865128Y-96215000D01*
X208296925Y-96129110D01*
X208703669Y-95960631D01*
X209069729Y-95716038D01*
X209381038Y-95404729D01*
X209625631Y-95038669D01*
X209794110Y-94631925D01*
X209880000Y-94200128D01*
X209880000Y-93759872D01*
X209794110Y-93328075D01*
X209625631Y-92921331D01*
X209381038Y-92555271D01*
X209069729Y-92243962D01*
X208703669Y-91999369D01*
X208296925Y-91830890D01*
X207865128Y-91745000D01*
X207424872Y-91745000D01*
X206993075Y-91830890D01*
X206586331Y-91999369D01*
X206220271Y-92243962D01*
X205908962Y-92555271D01*
X205664369Y-92921331D01*
X205495890Y-93328075D01*
X205410000Y-93759872D01*
X202895000Y-93759872D01*
X202809110Y-93328075D01*
X202640631Y-92921331D01*
X202396038Y-92555271D01*
X202084729Y-92243962D01*
X201718669Y-91999369D01*
X201311925Y-91830890D01*
X200880128Y-91745000D01*
X200439872Y-91745000D01*
X200008075Y-91830890D01*
X199601331Y-91999369D01*
X199235271Y-92243962D01*
X198923962Y-92555271D01*
X198679369Y-92921331D01*
X198510890Y-93328075D01*
X198425000Y-93759872D01*
X77800000Y-93759872D01*
X77714110Y-93328075D01*
X77545631Y-92921331D01*
X77301038Y-92555271D01*
X76989729Y-92243962D01*
X76623669Y-91999369D01*
X76216925Y-91830890D01*
X75785128Y-91745000D01*
X75344872Y-91745000D01*
X74913075Y-91830890D01*
X74506331Y-91999369D01*
X74140271Y-92243962D01*
X73828962Y-92555271D01*
X73584369Y-92921331D01*
X73415890Y-93328075D01*
X73330000Y-93759872D01*
X43329327Y-93759872D01*
X43289853Y-93561426D01*
X43181680Y-93300273D01*
X43024637Y-93065241D01*
X42824759Y-92865363D01*
X42592241Y-92710000D01*
X55817627Y-92710000D01*
X55880000Y-92716143D01*
X55942373Y-92710000D01*
X55942380Y-92710000D01*
X56128963Y-92691623D01*
X56368359Y-92619003D01*
X56588988Y-92501075D01*
X56782370Y-92342370D01*
X56822141Y-92293909D01*
X58003914Y-91112137D01*
X58052370Y-91072370D01*
X58211075Y-90878988D01*
X58329003Y-90658359D01*
X58389586Y-90458644D01*
X58401623Y-90418964D01*
X58409506Y-90338925D01*
X58420000Y-90232380D01*
X58420000Y-90232374D01*
X58426143Y-90170001D01*
X58420000Y-90107628D01*
X58420000Y-74992372D01*
X58426143Y-74929999D01*
X58420000Y-74867626D01*
X58420000Y-74867620D01*
X58401623Y-74681037D01*
X58329003Y-74441641D01*
X58211075Y-74221012D01*
X58052370Y-74027630D01*
X58003915Y-73987864D01*
X56822141Y-72806091D01*
X56782370Y-72757630D01*
X56588988Y-72598925D01*
X56368359Y-72480997D01*
X56128963Y-72408377D01*
X55942380Y-72390000D01*
X55942373Y-72390000D01*
X55880000Y-72383857D01*
X55817627Y-72390000D01*
X51572240Y-72390000D01*
X51564466Y-72384805D01*
X51681355Y-72315178D01*
X51897588Y-72120269D01*
X52071641Y-71886920D01*
X52196825Y-71624099D01*
X52241476Y-71476890D01*
X52120155Y-71247000D01*
X50927000Y-71247000D01*
X50927000Y-71267000D01*
X50673000Y-71267000D01*
X50673000Y-71247000D01*
X49479845Y-71247000D01*
X49358524Y-71476890D01*
X49403175Y-71624099D01*
X49528359Y-71886920D01*
X49702412Y-72120269D01*
X49918645Y-72315178D01*
X50035534Y-72384805D01*
X49853368Y-72506525D01*
X49646525Y-72713368D01*
X49484010Y-72956589D01*
X49372068Y-73226842D01*
X49315000Y-73513740D01*
X49315000Y-73806260D01*
X49372068Y-74093158D01*
X49484010Y-74363411D01*
X49646525Y-74606632D01*
X49853368Y-74813475D01*
X50027760Y-74930000D01*
X49853368Y-75046525D01*
X49646525Y-75253368D01*
X49484010Y-75496589D01*
X49372068Y-75766842D01*
X49315000Y-76053740D01*
X49315000Y-76346260D01*
X49372068Y-76633158D01*
X49484010Y-76903411D01*
X49646525Y-77146632D01*
X49853368Y-77353475D01*
X50027760Y-77470000D01*
X28002372Y-77470000D01*
X27939999Y-77463857D01*
X27877626Y-77470000D01*
X27877620Y-77470000D01*
X27716755Y-77485844D01*
X27691036Y-77488377D01*
X27618416Y-77510406D01*
X27451641Y-77560997D01*
X27231012Y-77678925D01*
X27037630Y-77837630D01*
X26997866Y-77886083D01*
X25816091Y-79067859D01*
X25767630Y-79107630D01*
X25608925Y-79301013D01*
X25490997Y-79521642D01*
X25418377Y-79761038D01*
X25400000Y-79947621D01*
X25400000Y-79947627D01*
X25393857Y-80010000D01*
X25400000Y-80072373D01*
X25400001Y-88217757D01*
X25398320Y-88220273D01*
X25290147Y-88481426D01*
X25235000Y-88758665D01*
X25235000Y-89041335D01*
X25290147Y-89318574D01*
X25398320Y-89579727D01*
X25555363Y-89814759D01*
X25755241Y-90014637D01*
X25987759Y-90170000D01*
X25755241Y-90325363D01*
X25555363Y-90525241D01*
X25398320Y-90760273D01*
X25290147Y-91021426D01*
X25235000Y-91298665D01*
X25235000Y-91581335D01*
X25290147Y-91858574D01*
X25398320Y-92119727D01*
X25555363Y-92354759D01*
X25755241Y-92554637D01*
X25987759Y-92710000D01*
X25755241Y-92865363D01*
X25555363Y-93065241D01*
X25398320Y-93300273D01*
X25290147Y-93561426D01*
X25235000Y-93838665D01*
X25235000Y-94121335D01*
X25290147Y-94398574D01*
X25398320Y-94659727D01*
X25555363Y-94894759D01*
X25755241Y-95094637D01*
X25987759Y-95250000D01*
X25755241Y-95405363D01*
X25555363Y-95605241D01*
X25398320Y-95840273D01*
X25290147Y-96101426D01*
X25235000Y-96378665D01*
X25235000Y-96661335D01*
X25290147Y-96938574D01*
X25398320Y-97199727D01*
X25555363Y-97434759D01*
X25755241Y-97634637D01*
X25987759Y-97790000D01*
X25755241Y-97945363D01*
X25555363Y-98145241D01*
X25398320Y-98380273D01*
X25290147Y-98641426D01*
X25235000Y-98918665D01*
X25235000Y-99201335D01*
X25290147Y-99478574D01*
X25398320Y-99739727D01*
X25555363Y-99974759D01*
X25755241Y-100174637D01*
X25987759Y-100330000D01*
X25755241Y-100485363D01*
X25555363Y-100685241D01*
X25398320Y-100920273D01*
X25290147Y-101181426D01*
X25235000Y-101458665D01*
X25235000Y-101741335D01*
X25290147Y-102018574D01*
X25398320Y-102279727D01*
X25555363Y-102514759D01*
X25755241Y-102714637D01*
X25987759Y-102870000D01*
X25755241Y-103025363D01*
X25555363Y-103225241D01*
X25398320Y-103460273D01*
X25290147Y-103721426D01*
X25235000Y-103998665D01*
X25235000Y-104281335D01*
X25290147Y-104558574D01*
X25398320Y-104819727D01*
X25555363Y-105054759D01*
X25755241Y-105254637D01*
X25987759Y-105410000D01*
X25755241Y-105565363D01*
X25555363Y-105765241D01*
X25398320Y-106000273D01*
X25290147Y-106261426D01*
X25235000Y-106538665D01*
X25235000Y-106821335D01*
X25290147Y-107098574D01*
X25398320Y-107359727D01*
X25555363Y-107594759D01*
X25755241Y-107794637D01*
X25987759Y-107950000D01*
X25755241Y-108105363D01*
X25555363Y-108305241D01*
X25398320Y-108540273D01*
X25290147Y-108801426D01*
X25235000Y-109078665D01*
X25235000Y-109361335D01*
X25290147Y-109638574D01*
X25398320Y-109899727D01*
X25555363Y-110134759D01*
X25755241Y-110334637D01*
X25987759Y-110490000D01*
X25755241Y-110645363D01*
X25555363Y-110845241D01*
X25398320Y-111080273D01*
X25313252Y-111285647D01*
X25309003Y-111271641D01*
X25191075Y-111051012D01*
X25032370Y-110857630D01*
X24983915Y-110817864D01*
X23802141Y-109636091D01*
X23762370Y-109587630D01*
X23568988Y-109428925D01*
X23348359Y-109310997D01*
X23108963Y-109238377D01*
X22922380Y-109220000D01*
X22922373Y-109220000D01*
X22860000Y-109213857D01*
X22797627Y-109220000D01*
X21596143Y-109220000D01*
X21596143Y-109219999D01*
X21590000Y-109157626D01*
X21590000Y-109157620D01*
X21571623Y-108971037D01*
X21499003Y-108731641D01*
X21381075Y-108511012D01*
X21222370Y-108317630D01*
X21173915Y-108277864D01*
X20320000Y-107423950D01*
X20320000Y-99962380D01*
X20326144Y-99900000D01*
X20301623Y-99651038D01*
X20280000Y-99579757D01*
X20280000Y-99018259D01*
X20340537Y-98944494D01*
X20399502Y-98834180D01*
X20435812Y-98714482D01*
X20448072Y-98590000D01*
X20448072Y-96990000D01*
X20435812Y-96865518D01*
X20399502Y-96745820D01*
X20340537Y-96635506D01*
X20280000Y-96561741D01*
X20280000Y-92297743D01*
X20301623Y-92226462D01*
X20326144Y-91977500D01*
X20304038Y-91753057D01*
X20301623Y-91728536D01*
X20275091Y-91641074D01*
X20229003Y-91489141D01*
X20174108Y-91386440D01*
X20111074Y-91268511D01*
X19992134Y-91123583D01*
X19952370Y-91075130D01*
X19903915Y-91035364D01*
X19448551Y-90580000D01*
X19903915Y-90124636D01*
X19952370Y-90084870D01*
X20111075Y-89891488D01*
X20229003Y-89670859D01*
X20301623Y-89431463D01*
X20320000Y-89244880D01*
X20320000Y-89244874D01*
X20326143Y-89182501D01*
X20320000Y-89120128D01*
X20320000Y-69912372D01*
X20326143Y-69850000D01*
X49473222Y-69850000D01*
X49498815Y-69881185D01*
X49595506Y-69960537D01*
X49705820Y-70019502D01*
X49786466Y-70043966D01*
X49702412Y-70119731D01*
X49528359Y-70353080D01*
X49403175Y-70615901D01*
X49358524Y-70763110D01*
X49479845Y-70993000D01*
X50673000Y-70993000D01*
X50673000Y-70973000D01*
X50927000Y-70973000D01*
X50927000Y-70993000D01*
X52120155Y-70993000D01*
X52241476Y-70763110D01*
X52196825Y-70615901D01*
X52071641Y-70353080D01*
X51897588Y-70119731D01*
X51813534Y-70043966D01*
X51894180Y-70019502D01*
X52004494Y-69960537D01*
X52101185Y-69881185D01*
X52126778Y-69850000D01*
X56623950Y-69850000D01*
X66367868Y-79593920D01*
X66407630Y-79642370D01*
X66456080Y-79682132D01*
X66456083Y-79682135D01*
X66461563Y-79686632D01*
X66601012Y-79801075D01*
X66821641Y-79919003D01*
X67061037Y-79991623D01*
X67310000Y-80016144D01*
X67372380Y-80010000D01*
X353003222Y-80010000D01*
X353028815Y-80041185D01*
X353125506Y-80120537D01*
X353235820Y-80179502D01*
X353316466Y-80203966D01*
X353232412Y-80279731D01*
X353058359Y-80513080D01*
X352933175Y-80775901D01*
X352888524Y-80923110D01*
X353009845Y-81153000D01*
X354203000Y-81153000D01*
X354203000Y-81133000D01*
X354457000Y-81133000D01*
X354457000Y-81153000D01*
X355650155Y-81153000D01*
X355771476Y-80923110D01*
X355726825Y-80775901D01*
X355601641Y-80513080D01*
X355427588Y-80279731D01*
X355343534Y-80203966D01*
X355424180Y-80179502D01*
X355534494Y-80120537D01*
X355631185Y-80041185D01*
X355710537Y-79944494D01*
X355769502Y-79834180D01*
X355805812Y-79714482D01*
X355818072Y-79590000D01*
X355818072Y-77890000D01*
X355805812Y-77765518D01*
X355769502Y-77645820D01*
X355710537Y-77535506D01*
X355631185Y-77438815D01*
X355534494Y-77359463D01*
X355424180Y-77300498D01*
X355304482Y-77264188D01*
X355180000Y-77251928D01*
X353480000Y-77251928D01*
X353355518Y-77264188D01*
X353235820Y-77300498D01*
X353125506Y-77359463D01*
X353028815Y-77438815D01*
X353003222Y-77470000D01*
X67836052Y-77470000D01*
X62535923Y-72169872D01*
X73330000Y-72169872D01*
X73330000Y-72610128D01*
X73415890Y-73041925D01*
X73584369Y-73448669D01*
X73828962Y-73814729D01*
X74140271Y-74126038D01*
X74506331Y-74370631D01*
X74913075Y-74539110D01*
X75344872Y-74625000D01*
X75785128Y-74625000D01*
X76216925Y-74539110D01*
X76623669Y-74370631D01*
X76989729Y-74126038D01*
X77301038Y-73814729D01*
X77545631Y-73448669D01*
X77714110Y-73041925D01*
X77800000Y-72610128D01*
X77800000Y-72169872D01*
X198425000Y-72169872D01*
X198425000Y-72610128D01*
X198510890Y-73041925D01*
X198679369Y-73448669D01*
X198923962Y-73814729D01*
X199235271Y-74126038D01*
X199601331Y-74370631D01*
X200008075Y-74539110D01*
X200439872Y-74625000D01*
X200880128Y-74625000D01*
X201311925Y-74539110D01*
X201718669Y-74370631D01*
X202084729Y-74126038D01*
X202396038Y-73814729D01*
X202640631Y-73448669D01*
X202809110Y-73041925D01*
X202895000Y-72610128D01*
X202895000Y-72169872D01*
X205410000Y-72169872D01*
X205410000Y-72610128D01*
X205495890Y-73041925D01*
X205664369Y-73448669D01*
X205908962Y-73814729D01*
X206220271Y-74126038D01*
X206586331Y-74370631D01*
X206993075Y-74539110D01*
X207424872Y-74625000D01*
X207865128Y-74625000D01*
X208296925Y-74539110D01*
X208703669Y-74370631D01*
X209069729Y-74126038D01*
X209381038Y-73814729D01*
X209625631Y-73448669D01*
X209794110Y-73041925D01*
X209880000Y-72610128D01*
X209880000Y-72169872D01*
X330505000Y-72169872D01*
X330505000Y-72610128D01*
X330590890Y-73041925D01*
X330759369Y-73448669D01*
X331003962Y-73814729D01*
X331315271Y-74126038D01*
X331681331Y-74370631D01*
X332088075Y-74539110D01*
X332519872Y-74625000D01*
X332960128Y-74625000D01*
X333391925Y-74539110D01*
X333798669Y-74370631D01*
X334164729Y-74126038D01*
X334476038Y-73814729D01*
X334720631Y-73448669D01*
X334889110Y-73041925D01*
X334975000Y-72610128D01*
X334975000Y-72169872D01*
X334889110Y-71738075D01*
X334720631Y-71331331D01*
X334476038Y-70965271D01*
X334410639Y-70899872D01*
X350825000Y-70899872D01*
X350825000Y-71340128D01*
X350910890Y-71771925D01*
X351079369Y-72178669D01*
X351323962Y-72544729D01*
X351635271Y-72856038D01*
X352001331Y-73100631D01*
X352408075Y-73269110D01*
X352839872Y-73355000D01*
X353280128Y-73355000D01*
X353711925Y-73269110D01*
X354118669Y-73100631D01*
X354484729Y-72856038D01*
X354796038Y-72544729D01*
X355040631Y-72178669D01*
X355209110Y-71771925D01*
X355295000Y-71340128D01*
X355295000Y-70899872D01*
X355209110Y-70468075D01*
X355040631Y-70061331D01*
X354796038Y-69695271D01*
X354484729Y-69383962D01*
X354118669Y-69139369D01*
X353711925Y-68970890D01*
X353280128Y-68885000D01*
X352839872Y-68885000D01*
X352408075Y-68970890D01*
X352001331Y-69139369D01*
X351635271Y-69383962D01*
X351323962Y-69695271D01*
X351079369Y-70061331D01*
X350910890Y-70468075D01*
X350825000Y-70899872D01*
X334410639Y-70899872D01*
X334164729Y-70653962D01*
X333798669Y-70409369D01*
X333391925Y-70240890D01*
X332960128Y-70155000D01*
X332519872Y-70155000D01*
X332088075Y-70240890D01*
X331681331Y-70409369D01*
X331315271Y-70653962D01*
X331003962Y-70965271D01*
X330759369Y-71331331D01*
X330590890Y-71738075D01*
X330505000Y-72169872D01*
X209880000Y-72169872D01*
X209794110Y-71738075D01*
X209625631Y-71331331D01*
X209381038Y-70965271D01*
X209069729Y-70653962D01*
X208703669Y-70409369D01*
X208296925Y-70240890D01*
X207865128Y-70155000D01*
X207424872Y-70155000D01*
X206993075Y-70240890D01*
X206586331Y-70409369D01*
X206220271Y-70653962D01*
X205908962Y-70965271D01*
X205664369Y-71331331D01*
X205495890Y-71738075D01*
X205410000Y-72169872D01*
X202895000Y-72169872D01*
X202809110Y-71738075D01*
X202640631Y-71331331D01*
X202396038Y-70965271D01*
X202084729Y-70653962D01*
X201718669Y-70409369D01*
X201311925Y-70240890D01*
X200880128Y-70155000D01*
X200439872Y-70155000D01*
X200008075Y-70240890D01*
X199601331Y-70409369D01*
X199235271Y-70653962D01*
X198923962Y-70965271D01*
X198679369Y-71331331D01*
X198510890Y-71738075D01*
X198425000Y-72169872D01*
X77800000Y-72169872D01*
X77714110Y-71738075D01*
X77545631Y-71331331D01*
X77301038Y-70965271D01*
X76989729Y-70653962D01*
X76623669Y-70409369D01*
X76216925Y-70240890D01*
X75785128Y-70155000D01*
X75344872Y-70155000D01*
X74913075Y-70240890D01*
X74506331Y-70409369D01*
X74140271Y-70653962D01*
X73828962Y-70965271D01*
X73584369Y-71331331D01*
X73415890Y-71738075D01*
X73330000Y-72169872D01*
X62535923Y-72169872D01*
X58092141Y-67726091D01*
X58052370Y-67677630D01*
X57858988Y-67518925D01*
X57638359Y-67400997D01*
X57398963Y-67328377D01*
X57212380Y-67310000D01*
X57212373Y-67310000D01*
X57150000Y-67303857D01*
X57087627Y-67310000D01*
X52126778Y-67310000D01*
X52101185Y-67278815D01*
X52004494Y-67199463D01*
X51894180Y-67140498D01*
X51774482Y-67104188D01*
X51650000Y-67091928D01*
X49950000Y-67091928D01*
X49825518Y-67104188D01*
X49705820Y-67140498D01*
X49595506Y-67199463D01*
X49498815Y-67278815D01*
X49473222Y-67310000D01*
X17842373Y-67310000D01*
X17780000Y-67303857D01*
X17717627Y-67310000D01*
X-24067628Y-67310000D01*
X-24130001Y-67303857D01*
X-24192374Y-67310000D01*
X-24192380Y-67310000D01*
X-24353245Y-67325844D01*
X-24378964Y-67328377D01*
X-24451584Y-67350406D01*
X-24618359Y-67400997D01*
X-24838988Y-67518925D01*
X-25032370Y-67677630D01*
X-25072137Y-67726086D01*
X-26253914Y-68907864D01*
X-26302369Y-68947630D01*
X-26461074Y-69141012D01*
X-26540168Y-69288987D01*
X-26579002Y-69361641D01*
X-26651623Y-69601037D01*
X-26676143Y-69850000D01*
X-26669999Y-69912383D01*
X-26670000Y-114935000D01*
X-29883538Y-114935000D01*
X-29876977Y-114932636D01*
X-29761020Y-114870656D01*
X-29694040Y-114630565D01*
X-30480000Y-113844605D01*
X-31265960Y-114630565D01*
X-31198980Y-114870656D01*
X-31063240Y-114934485D01*
X-31141727Y-114966995D01*
X-31370535Y-115119880D01*
X-31565120Y-115314465D01*
X-31718005Y-115543273D01*
X-31823314Y-115797510D01*
X-31877000Y-116067408D01*
X-40513000Y-116067408D01*
X-40513000Y-113737017D01*
X-31881910Y-113737017D01*
X-31840922Y-114009133D01*
X-31747636Y-114268023D01*
X-31685656Y-114383980D01*
X-31445565Y-114450960D01*
X-30659605Y-113665000D01*
X-30300395Y-113665000D01*
X-29514435Y-114450960D01*
X-29274344Y-114383980D01*
X-29157244Y-114134952D01*
X-29090977Y-113867865D01*
X-29078090Y-113592983D01*
X-29119078Y-113320867D01*
X-29212364Y-113061977D01*
X-29274344Y-112946020D01*
X-29514435Y-112879040D01*
X-30300395Y-113665000D01*
X-30659605Y-113665000D01*
X-31445565Y-112879040D01*
X-31685656Y-112946020D01*
X-31802756Y-113195048D01*
X-31869023Y-113462135D01*
X-31881910Y-113737017D01*
X-40513000Y-113737017D01*
X-40513000Y-105907408D01*
X-31877000Y-105907408D01*
X-31877000Y-106182592D01*
X-31823314Y-106452490D01*
X-31718005Y-106706727D01*
X-31565120Y-106935535D01*
X-31370535Y-107130120D01*
X-31141727Y-107283005D01*
X-31064485Y-107315000D01*
X-31141727Y-107346995D01*
X-31370535Y-107499880D01*
X-31565120Y-107694465D01*
X-31718005Y-107923273D01*
X-31823314Y-108177510D01*
X-31877000Y-108447408D01*
X-31877000Y-108722592D01*
X-31823314Y-108992490D01*
X-31718005Y-109246727D01*
X-31565120Y-109475535D01*
X-31370535Y-109670120D01*
X-31141727Y-109823005D01*
X-31064485Y-109855000D01*
X-31141727Y-109886995D01*
X-31370535Y-110039880D01*
X-31565120Y-110234465D01*
X-31718005Y-110463273D01*
X-31823314Y-110717510D01*
X-31877000Y-110987408D01*
X-31877000Y-111262592D01*
X-31823314Y-111532490D01*
X-31718005Y-111786727D01*
X-31565120Y-112015535D01*
X-31370535Y-112210120D01*
X-31141727Y-112363005D01*
X-31070057Y-112392692D01*
X-31083023Y-112397364D01*
X-31198980Y-112459344D01*
X-31265960Y-112699435D01*
X-30480000Y-113485395D01*
X-29694040Y-112699435D01*
X-29761020Y-112459344D01*
X-29896760Y-112395515D01*
X-29818273Y-112363005D01*
X-29589465Y-112210120D01*
X-29394880Y-112015535D01*
X-29241995Y-111786727D01*
X-29136686Y-111532490D01*
X-29083000Y-111262592D01*
X-29083000Y-110987408D01*
X-29136686Y-110717510D01*
X-29241995Y-110463273D01*
X-29394880Y-110234465D01*
X-29589465Y-110039880D01*
X-29818273Y-109886995D01*
X-29895515Y-109855000D01*
X-29818273Y-109823005D01*
X-29589465Y-109670120D01*
X-29394880Y-109475535D01*
X-29241995Y-109246727D01*
X-29136686Y-108992490D01*
X-29083000Y-108722592D01*
X-29083000Y-108447408D01*
X-29136686Y-108177510D01*
X-29241995Y-107923273D01*
X-29394880Y-107694465D01*
X-29589465Y-107499880D01*
X-29818273Y-107346995D01*
X-29895515Y-107315000D01*
X-29818273Y-107283005D01*
X-29589465Y-107130120D01*
X-29394880Y-106935535D01*
X-29241995Y-106706727D01*
X-29136686Y-106452490D01*
X-29083000Y-106182592D01*
X-29083000Y-105907408D01*
X-29136686Y-105637510D01*
X-29241995Y-105383273D01*
X-29394880Y-105154465D01*
X-29589465Y-104959880D01*
X-29818273Y-104806995D01*
X-29889943Y-104777308D01*
X-29876977Y-104772636D01*
X-29761020Y-104710656D01*
X-29694040Y-104470565D01*
X-30480000Y-103684605D01*
X-31265960Y-104470565D01*
X-31198980Y-104710656D01*
X-31063240Y-104774485D01*
X-31141727Y-104806995D01*
X-31370535Y-104959880D01*
X-31565120Y-105154465D01*
X-31718005Y-105383273D01*
X-31823314Y-105637510D01*
X-31877000Y-105907408D01*
X-40513000Y-105907408D01*
X-40513000Y-103577017D01*
X-31881910Y-103577017D01*
X-31840922Y-103849133D01*
X-31747636Y-104108023D01*
X-31685656Y-104223980D01*
X-31445565Y-104290960D01*
X-30659605Y-103505000D01*
X-30300395Y-103505000D01*
X-29514435Y-104290960D01*
X-29274344Y-104223980D01*
X-29157244Y-103974952D01*
X-29090977Y-103707865D01*
X-29078090Y-103432983D01*
X-29119078Y-103160867D01*
X-29212364Y-102901977D01*
X-29274344Y-102786020D01*
X-29514435Y-102719040D01*
X-30300395Y-103505000D01*
X-30659605Y-103505000D01*
X-31445565Y-102719040D01*
X-31685656Y-102786020D01*
X-31802756Y-103035048D01*
X-31869023Y-103302135D01*
X-31881910Y-103577017D01*
X-40513000Y-103577017D01*
X-40513000Y-80507408D01*
X-31877000Y-80507408D01*
X-31877000Y-80782592D01*
X-31823314Y-81052490D01*
X-31718005Y-81306727D01*
X-31565120Y-81535535D01*
X-31370535Y-81730120D01*
X-31141727Y-81883005D01*
X-31064485Y-81915000D01*
X-31141727Y-81946995D01*
X-31370535Y-82099880D01*
X-31565120Y-82294465D01*
X-31718005Y-82523273D01*
X-31823314Y-82777510D01*
X-31877000Y-83047408D01*
X-31877000Y-83322592D01*
X-31823314Y-83592490D01*
X-31718005Y-83846727D01*
X-31565120Y-84075535D01*
X-31370535Y-84270120D01*
X-31141727Y-84423005D01*
X-31064485Y-84455000D01*
X-31141727Y-84486995D01*
X-31370535Y-84639880D01*
X-31565120Y-84834465D01*
X-31718005Y-85063273D01*
X-31823314Y-85317510D01*
X-31877000Y-85587408D01*
X-31877000Y-85862592D01*
X-31823314Y-86132490D01*
X-31718005Y-86386727D01*
X-31565120Y-86615535D01*
X-31370535Y-86810120D01*
X-31141727Y-86963005D01*
X-31064485Y-86995000D01*
X-31141727Y-87026995D01*
X-31370535Y-87179880D01*
X-31565120Y-87374465D01*
X-31718005Y-87603273D01*
X-31823314Y-87857510D01*
X-31877000Y-88127408D01*
X-31877000Y-88402592D01*
X-31823314Y-88672490D01*
X-31718005Y-88926727D01*
X-31565120Y-89155535D01*
X-31370535Y-89350120D01*
X-31141727Y-89503005D01*
X-31064485Y-89535000D01*
X-31141727Y-89566995D01*
X-31370535Y-89719880D01*
X-31565120Y-89914465D01*
X-31718005Y-90143273D01*
X-31823314Y-90397510D01*
X-31877000Y-90667408D01*
X-31877000Y-90942592D01*
X-31823314Y-91212490D01*
X-31718005Y-91466727D01*
X-31565120Y-91695535D01*
X-31370535Y-91890120D01*
X-31141727Y-92043005D01*
X-31064485Y-92075000D01*
X-31141727Y-92106995D01*
X-31370535Y-92259880D01*
X-31565120Y-92454465D01*
X-31718005Y-92683273D01*
X-31823314Y-92937510D01*
X-31877000Y-93207408D01*
X-31877000Y-93482592D01*
X-31823314Y-93752490D01*
X-31718005Y-94006727D01*
X-31565120Y-94235535D01*
X-31370535Y-94430120D01*
X-31141727Y-94583005D01*
X-31064485Y-94615000D01*
X-31141727Y-94646995D01*
X-31370535Y-94799880D01*
X-31565120Y-94994465D01*
X-31718005Y-95223273D01*
X-31823314Y-95477510D01*
X-31877000Y-95747408D01*
X-31877000Y-96022592D01*
X-31823314Y-96292490D01*
X-31718005Y-96546727D01*
X-31565120Y-96775535D01*
X-31370535Y-96970120D01*
X-31141727Y-97123005D01*
X-31064485Y-97155000D01*
X-31141727Y-97186995D01*
X-31370535Y-97339880D01*
X-31565120Y-97534465D01*
X-31718005Y-97763273D01*
X-31823314Y-98017510D01*
X-31877000Y-98287408D01*
X-31877000Y-98562592D01*
X-31823314Y-98832490D01*
X-31718005Y-99086727D01*
X-31565120Y-99315535D01*
X-31370535Y-99510120D01*
X-31141727Y-99663005D01*
X-31064485Y-99695000D01*
X-31141727Y-99726995D01*
X-31370535Y-99879880D01*
X-31565120Y-100074465D01*
X-31718005Y-100303273D01*
X-31823314Y-100557510D01*
X-31877000Y-100827408D01*
X-31877000Y-101102592D01*
X-31823314Y-101372490D01*
X-31718005Y-101626727D01*
X-31565120Y-101855535D01*
X-31370535Y-102050120D01*
X-31141727Y-102203005D01*
X-31070057Y-102232692D01*
X-31083023Y-102237364D01*
X-31198980Y-102299344D01*
X-31265960Y-102539435D01*
X-30480000Y-103325395D01*
X-29694040Y-102539435D01*
X-29761020Y-102299344D01*
X-29896760Y-102235515D01*
X-29818273Y-102203005D01*
X-29589465Y-102050120D01*
X-29394880Y-101855535D01*
X-29241995Y-101626727D01*
X-29136686Y-101372490D01*
X-29083000Y-101102592D01*
X-29083000Y-100827408D01*
X-29136686Y-100557510D01*
X-29241995Y-100303273D01*
X-29394880Y-100074465D01*
X-29589465Y-99879880D01*
X-29818273Y-99726995D01*
X-29895515Y-99695000D01*
X-29818273Y-99663005D01*
X-29589465Y-99510120D01*
X-29394880Y-99315535D01*
X-29241995Y-99086727D01*
X-29136686Y-98832490D01*
X-29083000Y-98562592D01*
X-29083000Y-98287408D01*
X-29136686Y-98017510D01*
X-29241995Y-97763273D01*
X-29394880Y-97534465D01*
X-29589465Y-97339880D01*
X-29818273Y-97186995D01*
X-29895515Y-97155000D01*
X-29818273Y-97123005D01*
X-29589465Y-96970120D01*
X-29394880Y-96775535D01*
X-29241995Y-96546727D01*
X-29136686Y-96292490D01*
X-29083000Y-96022592D01*
X-29083000Y-95747408D01*
X-29136686Y-95477510D01*
X-29241995Y-95223273D01*
X-29394880Y-94994465D01*
X-29589465Y-94799880D01*
X-29818273Y-94646995D01*
X-29895515Y-94615000D01*
X-29818273Y-94583005D01*
X-29589465Y-94430120D01*
X-29394880Y-94235535D01*
X-29241995Y-94006727D01*
X-29136686Y-93752490D01*
X-29083000Y-93482592D01*
X-29083000Y-93207408D01*
X-29136686Y-92937510D01*
X-29241995Y-92683273D01*
X-29394880Y-92454465D01*
X-29589465Y-92259880D01*
X-29818273Y-92106995D01*
X-29895515Y-92075000D01*
X-29818273Y-92043005D01*
X-29589465Y-91890120D01*
X-29394880Y-91695535D01*
X-29241995Y-91466727D01*
X-29136686Y-91212490D01*
X-29083000Y-90942592D01*
X-29083000Y-90667408D01*
X-29136686Y-90397510D01*
X-29241995Y-90143273D01*
X-29394880Y-89914465D01*
X-29589465Y-89719880D01*
X-29818273Y-89566995D01*
X-29895515Y-89535000D01*
X-29818273Y-89503005D01*
X-29589465Y-89350120D01*
X-29394880Y-89155535D01*
X-29241995Y-88926727D01*
X-29136686Y-88672490D01*
X-29083000Y-88402592D01*
X-29083000Y-88127408D01*
X-29136686Y-87857510D01*
X-29241995Y-87603273D01*
X-29394880Y-87374465D01*
X-29589465Y-87179880D01*
X-29818273Y-87026995D01*
X-29895515Y-86995000D01*
X-29818273Y-86963005D01*
X-29589465Y-86810120D01*
X-29394880Y-86615535D01*
X-29241995Y-86386727D01*
X-29136686Y-86132490D01*
X-29083000Y-85862592D01*
X-29083000Y-85587408D01*
X-29136686Y-85317510D01*
X-29241995Y-85063273D01*
X-29394880Y-84834465D01*
X-29589465Y-84639880D01*
X-29818273Y-84486995D01*
X-29895515Y-84455000D01*
X-29818273Y-84423005D01*
X-29589465Y-84270120D01*
X-29394880Y-84075535D01*
X-29241995Y-83846727D01*
X-29136686Y-83592490D01*
X-29083000Y-83322592D01*
X-29083000Y-83047408D01*
X-29136686Y-82777510D01*
X-29241995Y-82523273D01*
X-29394880Y-82294465D01*
X-29589465Y-82099880D01*
X-29818273Y-81946995D01*
X-29895515Y-81915000D01*
X-29818273Y-81883005D01*
X-29589465Y-81730120D01*
X-29394880Y-81535535D01*
X-29241995Y-81306727D01*
X-29136686Y-81052490D01*
X-29083000Y-80782592D01*
X-29083000Y-80507408D01*
X-29136686Y-80237510D01*
X-29241995Y-79983273D01*
X-29394880Y-79754465D01*
X-29589465Y-79559880D01*
X-29818273Y-79406995D01*
X-30072510Y-79301686D01*
X-30342408Y-79248000D01*
X-30617592Y-79248000D01*
X-30887490Y-79301686D01*
X-31141727Y-79406995D01*
X-31370535Y-79559880D01*
X-31565120Y-79754465D01*
X-31718005Y-79983273D01*
X-31823314Y-80237510D01*
X-31877000Y-80507408D01*
X-40513000Y-80507408D01*
X-40513000Y-70899872D01*
X-37795000Y-70899872D01*
X-37795000Y-71340128D01*
X-37709110Y-71771925D01*
X-37540631Y-72178669D01*
X-37296038Y-72544729D01*
X-36984729Y-72856038D01*
X-36618669Y-73100631D01*
X-36211925Y-73269110D01*
X-35780128Y-73355000D01*
X-35339872Y-73355000D01*
X-34908075Y-73269110D01*
X-34501331Y-73100631D01*
X-34135271Y-72856038D01*
X-33823962Y-72544729D01*
X-33579369Y-72178669D01*
X-33410890Y-71771925D01*
X-33325000Y-71340128D01*
X-33325000Y-70899872D01*
X-33410890Y-70468075D01*
X-33579369Y-70061331D01*
X-33823962Y-69695271D01*
X-34135271Y-69383962D01*
X-34501331Y-69139369D01*
X-34908075Y-68970890D01*
X-35339872Y-68885000D01*
X-35780128Y-68885000D01*
X-36211925Y-68970890D01*
X-36618669Y-69139369D01*
X-36984729Y-69383962D01*
X-37296038Y-69695271D01*
X-37540631Y-70061331D01*
X-37709110Y-70468075D01*
X-37795000Y-70899872D01*
X-40513000Y-70899872D01*
X-40513000Y-66167000D01*
X358013000Y-66167000D01*
X358013000Y-135714387D01*
G36*
X17780001Y-70376052D02*
G01*
X17780000Y-86422379D01*
X17780001Y-86422389D01*
X17780000Y-88656449D01*
X17126450Y-89310000D01*
X16442769Y-89310000D01*
X16316234Y-89206155D01*
X16040448Y-89058745D01*
X15741203Y-88967970D01*
X15430000Y-88937319D01*
X15118796Y-88967970D01*
X14819551Y-89058745D01*
X14543765Y-89206155D01*
X14302037Y-89404537D01*
X14154838Y-89583900D01*
X13999437Y-89398685D01*
X13756923Y-89204031D01*
X13481094Y-89060429D01*
X13262980Y-88989437D01*
X13017000Y-89109406D01*
X13017000Y-90453000D01*
X13037000Y-90453000D01*
X13037000Y-90707000D01*
X13017000Y-90707000D01*
X13017000Y-92050594D01*
X13262980Y-92170563D01*
X13481094Y-92099571D01*
X13756923Y-91955969D01*
X13999437Y-91761315D01*
X14154837Y-91576101D01*
X14302037Y-91755463D01*
X14543766Y-91953845D01*
X14819552Y-92101255D01*
X15118797Y-92192030D01*
X15430000Y-92222681D01*
X15741204Y-92192030D01*
X16040449Y-92101255D01*
X16316235Y-91953845D01*
X16442770Y-91850000D01*
X17126450Y-91850000D01*
X17740000Y-92463551D01*
X17740001Y-96561740D01*
X17679463Y-96635506D01*
X17620498Y-96745820D01*
X17584188Y-96865518D01*
X17571928Y-96990000D01*
X17571928Y-96997215D01*
X17502702Y-96976903D01*
X16689605Y-97790000D01*
X17502702Y-98603097D01*
X17571928Y-98582785D01*
X17571928Y-98590000D01*
X17584188Y-98714482D01*
X17620498Y-98834180D01*
X17679463Y-98944494D01*
X17740001Y-99018259D01*
X17740001Y-99797618D01*
X17733857Y-99860000D01*
X17758377Y-100108963D01*
X17780000Y-100180244D01*
X17780001Y-106680000D01*
X12825084Y-106680000D01*
X12886585Y-106667767D01*
X12948963Y-106661623D01*
X13008941Y-106643429D01*
X13070445Y-106631195D01*
X13128380Y-106607197D01*
X13188359Y-106589003D01*
X13243639Y-106559455D01*
X13301571Y-106535459D01*
X13353704Y-106500625D01*
X13408988Y-106471075D01*
X13457445Y-106431307D01*
X13509578Y-106396473D01*
X13553914Y-106352137D01*
X13602370Y-106312370D01*
X13642137Y-106263914D01*
X13686473Y-106219578D01*
X13721307Y-106167445D01*
X13761075Y-106118988D01*
X13790625Y-106063704D01*
X13825459Y-106011571D01*
X13849455Y-105953639D01*
X13879003Y-105898359D01*
X13897197Y-105838380D01*
X13921195Y-105780445D01*
X13933429Y-105718941D01*
X13951623Y-105658963D01*
X13957767Y-105596585D01*
X13970000Y-105535084D01*
X13970000Y-102932380D01*
X13976144Y-102870000D01*
X13951623Y-102621037D01*
X13879003Y-102381641D01*
X13839809Y-102308314D01*
X13761075Y-102161012D01*
X13644179Y-102018574D01*
X13642135Y-102016083D01*
X13642132Y-102016080D01*
X13602370Y-101967630D01*
X13553921Y-101927869D01*
X11737141Y-100111091D01*
X11697370Y-100062630D01*
X11503988Y-99903925D01*
X11283359Y-99785997D01*
X11043963Y-99713377D01*
X10857380Y-99695000D01*
X10857373Y-99695000D01*
X10795000Y-99688857D01*
X10732627Y-99695000D01*
X-1955515Y-99695000D01*
X-1878273Y-99663005D01*
X-1649465Y-99510120D01*
X-1454880Y-99315535D01*
X-1301995Y-99086727D01*
X-1196686Y-98832490D01*
X-1143000Y-98562592D01*
X-1143000Y-98287408D01*
X-1196686Y-98017510D01*
X-1301995Y-97763273D01*
X-1454880Y-97534465D01*
X-1649465Y-97339880D01*
X-1878273Y-97186995D01*
X-1949943Y-97157308D01*
X-1936977Y-97152636D01*
X-1821020Y-97090656D01*
X-1754040Y-96850565D01*
X-2540000Y-96064605D01*
X-3325960Y-96850565D01*
X-3258980Y-97090656D01*
X-3123240Y-97154485D01*
X-3201727Y-97186995D01*
X-3430535Y-97339880D01*
X-3625120Y-97534465D01*
X-3778005Y-97763273D01*
X-3810000Y-97840515D01*
X-3810000Y-96481462D01*
X-3807636Y-96488023D01*
X-3745656Y-96603980D01*
X-3505565Y-96670960D01*
X-2719605Y-95885000D01*
X-2360395Y-95885000D01*
X-1574435Y-96670960D01*
X-1334344Y-96603980D01*
X-1217244Y-96354952D01*
X-1150977Y-96087865D01*
X-1138090Y-95812983D01*
X-1179078Y-95540867D01*
X-1272364Y-95281977D01*
X-1334344Y-95166020D01*
X-1574435Y-95099040D01*
X-2360395Y-95885000D01*
X-2719605Y-95885000D01*
X-2733748Y-95870858D01*
X-2554143Y-95691253D01*
X-2540000Y-95705395D01*
X-1754040Y-94919435D01*
X-1821020Y-94679344D01*
X-1956760Y-94615515D01*
X-1878273Y-94583005D01*
X-1649465Y-94430120D01*
X-1454880Y-94235535D01*
X-1301995Y-94006727D01*
X-1196686Y-93752490D01*
X-1143000Y-93482592D01*
X-1143000Y-93207408D01*
X-1196686Y-92937510D01*
X-1301995Y-92683273D01*
X-1454880Y-92454465D01*
X-1649465Y-92259880D01*
X-1878273Y-92106995D01*
X-1955515Y-92075000D01*
X-1878273Y-92043005D01*
X-1649465Y-91890120D01*
X-1454880Y-91695535D01*
X-1301995Y-91466727D01*
X-1196686Y-91212490D01*
X-1143000Y-90942592D01*
X-1143000Y-90667408D01*
X-1196686Y-90397510D01*
X-1301995Y-90143273D01*
X-1454880Y-89914465D01*
X-1649465Y-89719880D01*
X-1878273Y-89566995D01*
X-1955515Y-89535000D01*
X-1878273Y-89503005D01*
X-1649465Y-89350120D01*
X-1454880Y-89155535D01*
X-1301995Y-88926727D01*
X-1196686Y-88672490D01*
X-1143000Y-88402592D01*
X-1143000Y-88127408D01*
X-1196686Y-87857510D01*
X-1301995Y-87603273D01*
X-1454880Y-87374465D01*
X-1649465Y-87179880D01*
X-1878273Y-87026995D01*
X-1955515Y-86995000D01*
X-1878273Y-86963005D01*
X-1649465Y-86810120D01*
X-1454880Y-86615535D01*
X-1301995Y-86386727D01*
X-1196686Y-86132490D01*
X-1143000Y-85862592D01*
X-1143000Y-85587408D01*
X-1196686Y-85317510D01*
X-1301995Y-85063273D01*
X-1454880Y-84834465D01*
X-1649465Y-84639880D01*
X-1878273Y-84486995D01*
X-1955515Y-84455000D01*
X-1878273Y-84423005D01*
X-1649465Y-84270120D01*
X-1454880Y-84075535D01*
X-1301995Y-83846727D01*
X-1196686Y-83592490D01*
X-1143000Y-83322592D01*
X-1143000Y-83047408D01*
X-1196686Y-82777510D01*
X-1301995Y-82523273D01*
X-1454880Y-82294465D01*
X-1649465Y-82099880D01*
X-1878273Y-81946995D01*
X-1955515Y-81915000D01*
X-1878273Y-81883005D01*
X-1649465Y-81730120D01*
X-1454880Y-81535535D01*
X-1301995Y-81306727D01*
X-1196686Y-81052490D01*
X-1143000Y-80782592D01*
X-1143000Y-80507408D01*
X-1196686Y-80237510D01*
X-1301995Y-79983273D01*
X-1454880Y-79754465D01*
X-1649465Y-79559880D01*
X-1878273Y-79406995D01*
X-2132510Y-79301686D01*
X-2402408Y-79248000D01*
X-2677592Y-79248000D01*
X-2947490Y-79301686D01*
X-3201727Y-79406995D01*
X-3430535Y-79559880D01*
X-3625120Y-79754465D01*
X-3778005Y-79983273D01*
X-3883314Y-80237510D01*
X-3937000Y-80507408D01*
X-3937000Y-80782592D01*
X-3883314Y-81052490D01*
X-3778005Y-81306727D01*
X-3625120Y-81535535D01*
X-3430535Y-81730120D01*
X-3201727Y-81883005D01*
X-3124485Y-81915000D01*
X-3201727Y-81946995D01*
X-3430535Y-82099880D01*
X-3625120Y-82294465D01*
X-3778005Y-82523273D01*
X-3883314Y-82777510D01*
X-3937000Y-83047408D01*
X-3937000Y-83322592D01*
X-3883314Y-83592490D01*
X-3778005Y-83846727D01*
X-3625120Y-84075535D01*
X-3430535Y-84270120D01*
X-3201727Y-84423005D01*
X-3124485Y-84455000D01*
X-3201727Y-84486995D01*
X-3430535Y-84639880D01*
X-3625120Y-84834465D01*
X-3778005Y-85063273D01*
X-3883314Y-85317510D01*
X-3937000Y-85587408D01*
X-3937000Y-85862592D01*
X-3883314Y-86132490D01*
X-3778005Y-86386727D01*
X-3625120Y-86615535D01*
X-3430535Y-86810120D01*
X-3201727Y-86963005D01*
X-3124485Y-86995000D01*
X-3201727Y-87026995D01*
X-3430535Y-87179880D01*
X-3625120Y-87374465D01*
X-3778005Y-87603273D01*
X-3883314Y-87857510D01*
X-3937000Y-88127408D01*
X-3937000Y-88402592D01*
X-3883314Y-88672490D01*
X-3778005Y-88926727D01*
X-3625120Y-89155535D01*
X-3430535Y-89350120D01*
X-3201727Y-89503005D01*
X-3124485Y-89535000D01*
X-3201727Y-89566995D01*
X-3430535Y-89719880D01*
X-3625120Y-89914465D01*
X-3778005Y-90143273D01*
X-3883314Y-90397510D01*
X-3937000Y-90667408D01*
X-3937000Y-90942592D01*
X-3883314Y-91212490D01*
X-3778005Y-91466727D01*
X-3625120Y-91695535D01*
X-3430535Y-91890120D01*
X-3201727Y-92043005D01*
X-3124485Y-92075000D01*
X-3555258Y-92075000D01*
X-3617631Y-92068857D01*
X-3680004Y-92075000D01*
X-3680010Y-92075000D01*
X-3840875Y-92090844D01*
X-3866594Y-92093377D01*
X-3923162Y-92110537D01*
X-4105989Y-92165997D01*
X-4326618Y-92283925D01*
X-4520000Y-92442630D01*
X-4559767Y-92491086D01*
X-5933909Y-93865229D01*
X-5982370Y-93905000D01*
X-6141075Y-94098383D01*
X-6259003Y-94319012D01*
X-6283138Y-94398574D01*
X-6326550Y-94541686D01*
X-6331623Y-94558408D01*
X-6350000Y-94744991D01*
X-6350000Y-94744997D01*
X-6356143Y-94807370D01*
X-6350000Y-94869743D01*
X-6349999Y-115507617D01*
X-6356143Y-115570000D01*
X-6331623Y-115818963D01*
X-6259002Y-116058358D01*
X-6259002Y-116058359D01*
X-6141074Y-116278988D01*
X-5982369Y-116472370D01*
X-5933914Y-116512136D01*
X-5387137Y-117058914D01*
X-5347370Y-117107370D01*
X-5153988Y-117266075D01*
X-4933361Y-117384002D01*
X-4933359Y-117384003D01*
X-4693963Y-117456623D01*
X-4445000Y-117481144D01*
X-4382620Y-117475000D01*
X-3124485Y-117475000D01*
X-2947490Y-117548314D01*
X-2677592Y-117602000D01*
X-2402408Y-117602000D01*
X-2132510Y-117548314D01*
X-1955515Y-117475000D01*
X235001Y-117475000D01*
X235000Y-119329162D01*
X235000Y-119329163D01*
X235001Y-125679162D01*
X229994Y-125730000D01*
X249977Y-125932895D01*
X309160Y-126127993D01*
X405266Y-126307797D01*
X499157Y-126422203D01*
X534605Y-126465396D01*
X574092Y-126497802D01*
X1772197Y-127695908D01*
X1804604Y-127735396D01*
X1844092Y-127767803D01*
X1962202Y-127864734D01*
X2032615Y-127902370D01*
X2142007Y-127960841D01*
X2337105Y-128020024D01*
X2489162Y-128035000D01*
X2489171Y-128035000D01*
X2539999Y-128040006D01*
X2590827Y-128035000D01*
X6299162Y-128035000D01*
X6350000Y-128040007D01*
X6400838Y-128035000D01*
X17729162Y-128035000D01*
X17780000Y-128040007D01*
X17830838Y-128035000D01*
X17982895Y-128020024D01*
X18177993Y-127960841D01*
X18357797Y-127864734D01*
X18463511Y-127777977D01*
X18478382Y-127928968D01*
X18518457Y-128061075D01*
X18551003Y-128168364D01*
X18668931Y-128388993D01*
X18827636Y-128582375D01*
X18876091Y-128622142D01*
X21917863Y-131663914D01*
X21957630Y-131712370D01*
X22151012Y-131871075D01*
X22371641Y-131989003D01*
X22538416Y-132039594D01*
X22611036Y-132061623D01*
X22636755Y-132064156D01*
X22797620Y-132080000D01*
X-23603948Y-132080000D01*
X-24765000Y-130918950D01*
X-24765000Y-116731051D01*
X-24546085Y-116512136D01*
X-24497630Y-116472370D01*
X-24338925Y-116278988D01*
X-24220997Y-116058359D01*
X-24148377Y-115818963D01*
X-24130000Y-115632380D01*
X-24130000Y-115632379D01*
X-24123856Y-115570000D01*
X-24130000Y-115507620D01*
X-24130000Y-71540000D01*
X1051928Y-71540000D01*
X1051928Y-73240000D01*
X1064188Y-73364482D01*
X1100498Y-73484180D01*
X1159463Y-73594494D01*
X1238815Y-73691185D01*
X1270000Y-73716778D01*
X1270001Y-88837617D01*
X1263857Y-88900000D01*
X1288377Y-89148963D01*
X1344253Y-89333158D01*
X1360998Y-89388359D01*
X1478926Y-89608988D01*
X1637631Y-89802370D01*
X1686086Y-89842136D01*
X3277867Y-91433919D01*
X3317630Y-91482370D01*
X3366080Y-91522132D01*
X3366083Y-91522135D01*
X3376883Y-91530998D01*
X3511012Y-91641075D01*
X3674641Y-91728536D01*
X3731641Y-91759003D01*
X3971037Y-91831623D01*
X4220000Y-91856144D01*
X4282380Y-91850000D01*
X5120000Y-91850000D01*
X5120001Y-96561740D01*
X5059463Y-96635506D01*
X5000498Y-96745820D01*
X4964188Y-96865518D01*
X4951928Y-96990000D01*
X4951928Y-98590000D01*
X4964188Y-98714482D01*
X5000498Y-98834180D01*
X5059463Y-98944494D01*
X5138815Y-99041185D01*
X5235506Y-99120537D01*
X5345820Y-99179502D01*
X5465518Y-99215812D01*
X5590000Y-99228072D01*
X7190000Y-99228072D01*
X7314482Y-99215812D01*
X7434180Y-99179502D01*
X7544494Y-99120537D01*
X7641185Y-99041185D01*
X7720537Y-98944494D01*
X7779502Y-98834180D01*
X7795117Y-98782702D01*
X8076903Y-98782702D01*
X8148486Y-99026671D01*
X8403996Y-99147571D01*
X8678184Y-99216300D01*
X8960512Y-99230217D01*
X9240130Y-99188787D01*
X9506292Y-99093603D01*
X9631514Y-99026671D01*
X9703097Y-98782702D01*
X15696903Y-98782702D01*
X15768486Y-99026671D01*
X16023996Y-99147571D01*
X16298184Y-99216300D01*
X16580512Y-99230217D01*
X16860130Y-99188787D01*
X17126292Y-99093603D01*
X17251514Y-99026671D01*
X17323097Y-98782702D01*
X16510000Y-97969605D01*
X15696903Y-98782702D01*
X9703097Y-98782702D01*
X8890000Y-97969605D01*
X8076903Y-98782702D01*
X7795117Y-98782702D01*
X7815812Y-98714482D01*
X7828072Y-98590000D01*
X7828072Y-98582785D01*
X7897298Y-98603097D01*
X8710395Y-97790000D01*
X9069605Y-97790000D01*
X9882702Y-98603097D01*
X10126671Y-98531514D01*
X10247571Y-98276004D01*
X10316300Y-98001816D01*
X10323265Y-97860512D01*
X15069783Y-97860512D01*
X15111213Y-98140130D01*
X15206397Y-98406292D01*
X15273329Y-98531514D01*
X15517298Y-98603097D01*
X16330395Y-97790000D01*
X15517298Y-96976903D01*
X15273329Y-97048486D01*
X15152429Y-97303996D01*
X15083700Y-97578184D01*
X15069783Y-97860512D01*
X10323265Y-97860512D01*
X10330217Y-97719488D01*
X10288787Y-97439870D01*
X10193603Y-97173708D01*
X10126671Y-97048486D01*
X9882702Y-96976903D01*
X9069605Y-97790000D01*
X8710395Y-97790000D01*
X7897298Y-96976903D01*
X7828072Y-96997215D01*
X7828072Y-96990000D01*
X7815812Y-96865518D01*
X7795118Y-96797298D01*
X8076903Y-96797298D01*
X8890000Y-97610395D01*
X9703097Y-96797298D01*
X15696903Y-96797298D01*
X16510000Y-97610395D01*
X17323097Y-96797298D01*
X17251514Y-96553329D01*
X16996004Y-96432429D01*
X16721816Y-96363700D01*
X16439488Y-96349783D01*
X16159870Y-96391213D01*
X15893708Y-96486397D01*
X15768486Y-96553329D01*
X15696903Y-96797298D01*
X9703097Y-96797298D01*
X9631514Y-96553329D01*
X9376004Y-96432429D01*
X9101816Y-96363700D01*
X8819488Y-96349783D01*
X8539870Y-96391213D01*
X8273708Y-96486397D01*
X8148486Y-96553329D01*
X8076903Y-96797298D01*
X7795118Y-96797298D01*
X7779502Y-96745820D01*
X7720537Y-96635506D01*
X7660000Y-96561741D01*
X7660000Y-91926050D01*
X7736050Y-91850000D01*
X8821799Y-91850000D01*
X8866963Y-91934494D01*
X8946315Y-92031185D01*
X9043006Y-92110537D01*
X9153320Y-92169502D01*
X9273018Y-92205812D01*
X9397500Y-92218072D01*
X11302500Y-92218072D01*
X11426982Y-92205812D01*
X11546680Y-92169502D01*
X11656994Y-92110537D01*
X11753685Y-92031185D01*
X11833037Y-91934494D01*
X11882059Y-91842781D01*
X12023077Y-91955969D01*
X12298906Y-92099571D01*
X12517020Y-92170563D01*
X12763000Y-92050594D01*
X12763000Y-90707000D01*
X12743000Y-90707000D01*
X12743000Y-90453000D01*
X12763000Y-90453000D01*
X12763000Y-89109406D01*
X12517020Y-88989437D01*
X12298906Y-89060429D01*
X12023077Y-89204031D01*
X11882059Y-89317219D01*
X11833037Y-89225506D01*
X11753685Y-89128815D01*
X11656994Y-89049463D01*
X11546680Y-88990498D01*
X11426982Y-88954188D01*
X11302500Y-88941928D01*
X9397500Y-88941928D01*
X9273018Y-88954188D01*
X9153320Y-88990498D01*
X9043006Y-89049463D01*
X8946315Y-89128815D01*
X8866963Y-89225506D01*
X8821799Y-89310000D01*
X7272372Y-89310000D01*
X7209999Y-89303857D01*
X7147626Y-89310000D01*
X4746052Y-89310000D01*
X3810000Y-88373950D01*
X3810000Y-73716778D01*
X3841185Y-73691185D01*
X3920537Y-73594494D01*
X3979502Y-73484180D01*
X4003966Y-73403534D01*
X4079731Y-73487588D01*
X4313080Y-73661641D01*
X4575901Y-73786825D01*
X4723110Y-73831476D01*
X4953000Y-73710155D01*
X4953000Y-72517000D01*
X5207000Y-72517000D01*
X5207000Y-73710155D01*
X5436890Y-73831476D01*
X5584099Y-73786825D01*
X5797672Y-73685098D01*
X10505000Y-73685098D01*
X10505000Y-74154902D01*
X10596654Y-74615679D01*
X10776440Y-75049721D01*
X11037450Y-75440349D01*
X11369651Y-75772550D01*
X11760279Y-76033560D01*
X12194321Y-76213346D01*
X12655098Y-76305000D01*
X13124902Y-76305000D01*
X13585679Y-76213346D01*
X14019721Y-76033560D01*
X14410349Y-75772550D01*
X14742550Y-75440349D01*
X15003560Y-75049721D01*
X15183346Y-74615679D01*
X15275000Y-74154902D01*
X15275000Y-73685098D01*
X15183346Y-73224321D01*
X15003560Y-72790279D01*
X14742550Y-72399651D01*
X14410349Y-72067450D01*
X14019721Y-71806440D01*
X13585679Y-71626654D01*
X13124902Y-71535000D01*
X12655098Y-71535000D01*
X12194321Y-71626654D01*
X11760279Y-71806440D01*
X11369651Y-72067450D01*
X11037450Y-72399651D01*
X10776440Y-72790279D01*
X10596654Y-73224321D01*
X10505000Y-73685098D01*
X5797672Y-73685098D01*
X5846920Y-73661641D01*
X6080269Y-73487588D01*
X6275178Y-73271355D01*
X6424157Y-73021252D01*
X6521481Y-72746891D01*
X6400814Y-72517000D01*
X5207000Y-72517000D01*
X4953000Y-72517000D01*
X4933000Y-72517000D01*
X4933000Y-72263000D01*
X4953000Y-72263000D01*
X4953000Y-71069845D01*
X5207000Y-71069845D01*
X5207000Y-72263000D01*
X6400814Y-72263000D01*
X6521481Y-72033109D01*
X6424157Y-71758748D01*
X6275178Y-71508645D01*
X6080269Y-71292412D01*
X5846920Y-71118359D01*
X5584099Y-70993175D01*
X5436890Y-70948524D01*
X5207000Y-71069845D01*
X4953000Y-71069845D01*
X4723110Y-70948524D01*
X4575901Y-70993175D01*
X4313080Y-71118359D01*
X4079731Y-71292412D01*
X4003966Y-71376466D01*
X3979502Y-71295820D01*
X3920537Y-71185506D01*
X3841185Y-71088815D01*
X3744494Y-71009463D01*
X3634180Y-70950498D01*
X3514482Y-70914188D01*
X3390000Y-70901928D01*
X1690000Y-70901928D01*
X1565518Y-70914188D01*
X1445820Y-70950498D01*
X1335506Y-71009463D01*
X1238815Y-71088815D01*
X1159463Y-71185506D01*
X1100498Y-71295820D01*
X1064188Y-71415518D01*
X1051928Y-71540000D01*
X-24130000Y-71540000D01*
X-24130000Y-70376050D01*
X-23603949Y-69850000D01*
X17253950Y-69850000D01*
X17780001Y-70376052D01*
G37*
X17780001Y-70376052D02*
X17780000Y-86422379D01*
X17780001Y-86422389D01*
X17780000Y-88656449D01*
X17126450Y-89310000D01*
X16442769Y-89310000D01*
X16316234Y-89206155D01*
X16040448Y-89058745D01*
X15741203Y-88967970D01*
X15430000Y-88937319D01*
X15118796Y-88967970D01*
X14819551Y-89058745D01*
X14543765Y-89206155D01*
X14302037Y-89404537D01*
X14154838Y-89583900D01*
X13999437Y-89398685D01*
X13756923Y-89204031D01*
X13481094Y-89060429D01*
X13262980Y-88989437D01*
X13017000Y-89109406D01*
X13017000Y-90453000D01*
X13037000Y-90453000D01*
X13037000Y-90707000D01*
X13017000Y-90707000D01*
X13017000Y-92050594D01*
X13262980Y-92170563D01*
X13481094Y-92099571D01*
X13756923Y-91955969D01*
X13999437Y-91761315D01*
X14154837Y-91576101D01*
X14302037Y-91755463D01*
X14543766Y-91953845D01*
X14819552Y-92101255D01*
X15118797Y-92192030D01*
X15430000Y-92222681D01*
X15741204Y-92192030D01*
X16040449Y-92101255D01*
X16316235Y-91953845D01*
X16442770Y-91850000D01*
X17126450Y-91850000D01*
X17740000Y-92463551D01*
X17740001Y-96561740D01*
X17679463Y-96635506D01*
X17620498Y-96745820D01*
X17584188Y-96865518D01*
X17571928Y-96990000D01*
X17571928Y-96997215D01*
X17502702Y-96976903D01*
X16689605Y-97790000D01*
X17502702Y-98603097D01*
X17571928Y-98582785D01*
X17571928Y-98590000D01*
X17584188Y-98714482D01*
X17620498Y-98834180D01*
X17679463Y-98944494D01*
X17740001Y-99018259D01*
X17740001Y-99797618D01*
X17733857Y-99860000D01*
X17758377Y-100108963D01*
X17780000Y-100180244D01*
X17780001Y-106680000D01*
X12825084Y-106680000D01*
X12886585Y-106667767D01*
X12948963Y-106661623D01*
X13008941Y-106643429D01*
X13070445Y-106631195D01*
X13128380Y-106607197D01*
X13188359Y-106589003D01*
X13243639Y-106559455D01*
X13301571Y-106535459D01*
X13353704Y-106500625D01*
X13408988Y-106471075D01*
X13457445Y-106431307D01*
X13509578Y-106396473D01*
X13553914Y-106352137D01*
X13602370Y-106312370D01*
X13642137Y-106263914D01*
X13686473Y-106219578D01*
X13721307Y-106167445D01*
X13761075Y-106118988D01*
X13790625Y-106063704D01*
X13825459Y-106011571D01*
X13849455Y-105953639D01*
X13879003Y-105898359D01*
X13897197Y-105838380D01*
X13921195Y-105780445D01*
X13933429Y-105718941D01*
X13951623Y-105658963D01*
X13957767Y-105596585D01*
X13970000Y-105535084D01*
X13970000Y-102932380D01*
X13976144Y-102870000D01*
X13951623Y-102621037D01*
X13879003Y-102381641D01*
X13839809Y-102308314D01*
X13761075Y-102161012D01*
X13644179Y-102018574D01*
X13642135Y-102016083D01*
X13642132Y-102016080D01*
X13602370Y-101967630D01*
X13553921Y-101927869D01*
X11737141Y-100111091D01*
X11697370Y-100062630D01*
X11503988Y-99903925D01*
X11283359Y-99785997D01*
X11043963Y-99713377D01*
X10857380Y-99695000D01*
X10857373Y-99695000D01*
X10795000Y-99688857D01*
X10732627Y-99695000D01*
X-1955515Y-99695000D01*
X-1878273Y-99663005D01*
X-1649465Y-99510120D01*
X-1454880Y-99315535D01*
X-1301995Y-99086727D01*
X-1196686Y-98832490D01*
X-1143000Y-98562592D01*
X-1143000Y-98287408D01*
X-1196686Y-98017510D01*
X-1301995Y-97763273D01*
X-1454880Y-97534465D01*
X-1649465Y-97339880D01*
X-1878273Y-97186995D01*
X-1949943Y-97157308D01*
X-1936977Y-97152636D01*
X-1821020Y-97090656D01*
X-1754040Y-96850565D01*
X-2540000Y-96064605D01*
X-3325960Y-96850565D01*
X-3258980Y-97090656D01*
X-3123240Y-97154485D01*
X-3201727Y-97186995D01*
X-3430535Y-97339880D01*
X-3625120Y-97534465D01*
X-3778005Y-97763273D01*
X-3810000Y-97840515D01*
X-3810000Y-96481462D01*
X-3807636Y-96488023D01*
X-3745656Y-96603980D01*
X-3505565Y-96670960D01*
X-2719605Y-95885000D01*
X-2360395Y-95885000D01*
X-1574435Y-96670960D01*
X-1334344Y-96603980D01*
X-1217244Y-96354952D01*
X-1150977Y-96087865D01*
X-1138090Y-95812983D01*
X-1179078Y-95540867D01*
X-1272364Y-95281977D01*
X-1334344Y-95166020D01*
X-1574435Y-95099040D01*
X-2360395Y-95885000D01*
X-2719605Y-95885000D01*
X-2733748Y-95870858D01*
X-2554143Y-95691253D01*
X-2540000Y-95705395D01*
X-1754040Y-94919435D01*
X-1821020Y-94679344D01*
X-1956760Y-94615515D01*
X-1878273Y-94583005D01*
X-1649465Y-94430120D01*
X-1454880Y-94235535D01*
X-1301995Y-94006727D01*
X-1196686Y-93752490D01*
X-1143000Y-93482592D01*
X-1143000Y-93207408D01*
X-1196686Y-92937510D01*
X-1301995Y-92683273D01*
X-1454880Y-92454465D01*
X-1649465Y-92259880D01*
X-1878273Y-92106995D01*
X-1955515Y-92075000D01*
X-1878273Y-92043005D01*
X-1649465Y-91890120D01*
X-1454880Y-91695535D01*
X-1301995Y-91466727D01*
X-1196686Y-91212490D01*
X-1143000Y-90942592D01*
X-1143000Y-90667408D01*
X-1196686Y-90397510D01*
X-1301995Y-90143273D01*
X-1454880Y-89914465D01*
X-1649465Y-89719880D01*
X-1878273Y-89566995D01*
X-1955515Y-89535000D01*
X-1878273Y-89503005D01*
X-1649465Y-89350120D01*
X-1454880Y-89155535D01*
X-1301995Y-88926727D01*
X-1196686Y-88672490D01*
X-1143000Y-88402592D01*
X-1143000Y-88127408D01*
X-1196686Y-87857510D01*
X-1301995Y-87603273D01*
X-1454880Y-87374465D01*
X-1649465Y-87179880D01*
X-1878273Y-87026995D01*
X-1955515Y-86995000D01*
X-1878273Y-86963005D01*
X-1649465Y-86810120D01*
X-1454880Y-86615535D01*
X-1301995Y-86386727D01*
X-1196686Y-86132490D01*
X-1143000Y-85862592D01*
X-1143000Y-85587408D01*
X-1196686Y-85317510D01*
X-1301995Y-85063273D01*
X-1454880Y-84834465D01*
X-1649465Y-84639880D01*
X-1878273Y-84486995D01*
X-1955515Y-84455000D01*
X-1878273Y-84423005D01*
X-1649465Y-84270120D01*
X-1454880Y-84075535D01*
X-1301995Y-83846727D01*
X-1196686Y-83592490D01*
X-1143000Y-83322592D01*
X-1143000Y-83047408D01*
X-1196686Y-82777510D01*
X-1301995Y-82523273D01*
X-1454880Y-82294465D01*
X-1649465Y-82099880D01*
X-1878273Y-81946995D01*
X-1955515Y-81915000D01*
X-1878273Y-81883005D01*
X-1649465Y-81730120D01*
X-1454880Y-81535535D01*
X-1301995Y-81306727D01*
X-1196686Y-81052490D01*
X-1143000Y-80782592D01*
X-1143000Y-80507408D01*
X-1196686Y-80237510D01*
X-1301995Y-79983273D01*
X-1454880Y-79754465D01*
X-1649465Y-79559880D01*
X-1878273Y-79406995D01*
X-2132510Y-79301686D01*
X-2402408Y-79248000D01*
X-2677592Y-79248000D01*
X-2947490Y-79301686D01*
X-3201727Y-79406995D01*
X-3430535Y-79559880D01*
X-3625120Y-79754465D01*
X-3778005Y-79983273D01*
X-3883314Y-80237510D01*
X-3937000Y-80507408D01*
X-3937000Y-80782592D01*
X-3883314Y-81052490D01*
X-3778005Y-81306727D01*
X-3625120Y-81535535D01*
X-3430535Y-81730120D01*
X-3201727Y-81883005D01*
X-3124485Y-81915000D01*
X-3201727Y-81946995D01*
X-3430535Y-82099880D01*
X-3625120Y-82294465D01*
X-3778005Y-82523273D01*
X-3883314Y-82777510D01*
X-3937000Y-83047408D01*
X-3937000Y-83322592D01*
X-3883314Y-83592490D01*
X-3778005Y-83846727D01*
X-3625120Y-84075535D01*
X-3430535Y-84270120D01*
X-3201727Y-84423005D01*
X-3124485Y-84455000D01*
X-3201727Y-84486995D01*
X-3430535Y-84639880D01*
X-3625120Y-84834465D01*
X-3778005Y-85063273D01*
X-3883314Y-85317510D01*
X-3937000Y-85587408D01*
X-3937000Y-85862592D01*
X-3883314Y-86132490D01*
X-3778005Y-86386727D01*
X-3625120Y-86615535D01*
X-3430535Y-86810120D01*
X-3201727Y-86963005D01*
X-3124485Y-86995000D01*
X-3201727Y-87026995D01*
X-3430535Y-87179880D01*
X-3625120Y-87374465D01*
X-3778005Y-87603273D01*
X-3883314Y-87857510D01*
X-3937000Y-88127408D01*
X-3937000Y-88402592D01*
X-3883314Y-88672490D01*
X-3778005Y-88926727D01*
X-3625120Y-89155535D01*
X-3430535Y-89350120D01*
X-3201727Y-89503005D01*
X-3124485Y-89535000D01*
X-3201727Y-89566995D01*
X-3430535Y-89719880D01*
X-3625120Y-89914465D01*
X-3778005Y-90143273D01*
X-3883314Y-90397510D01*
X-3937000Y-90667408D01*
X-3937000Y-90942592D01*
X-3883314Y-91212490D01*
X-3778005Y-91466727D01*
X-3625120Y-91695535D01*
X-3430535Y-91890120D01*
X-3201727Y-92043005D01*
X-3124485Y-92075000D01*
X-3555258Y-92075000D01*
X-3617631Y-92068857D01*
X-3680004Y-92075000D01*
X-3680010Y-92075000D01*
X-3840875Y-92090844D01*
X-3866594Y-92093377D01*
X-3923162Y-92110537D01*
X-4105989Y-92165997D01*
X-4326618Y-92283925D01*
X-4520000Y-92442630D01*
X-4559767Y-92491086D01*
X-5933909Y-93865229D01*
X-5982370Y-93905000D01*
X-6141075Y-94098383D01*
X-6259003Y-94319012D01*
X-6283138Y-94398574D01*
X-6326550Y-94541686D01*
X-6331623Y-94558408D01*
X-6350000Y-94744991D01*
X-6350000Y-94744997D01*
X-6356143Y-94807370D01*
X-6350000Y-94869743D01*
X-6349999Y-115507617D01*
X-6356143Y-115570000D01*
X-6331623Y-115818963D01*
X-6259002Y-116058358D01*
X-6259002Y-116058359D01*
X-6141074Y-116278988D01*
X-5982369Y-116472370D01*
X-5933914Y-116512136D01*
X-5387137Y-117058914D01*
X-5347370Y-117107370D01*
X-5153988Y-117266075D01*
X-4933361Y-117384002D01*
X-4933359Y-117384003D01*
X-4693963Y-117456623D01*
X-4445000Y-117481144D01*
X-4382620Y-117475000D01*
X-3124485Y-117475000D01*
X-2947490Y-117548314D01*
X-2677592Y-117602000D01*
X-2402408Y-117602000D01*
X-2132510Y-117548314D01*
X-1955515Y-117475000D01*
X235001Y-117475000D01*
X235000Y-119329162D01*
X235000Y-119329163D01*
X235001Y-125679162D01*
X229994Y-125730000D01*
X249977Y-125932895D01*
X309160Y-126127993D01*
X405266Y-126307797D01*
X499157Y-126422203D01*
X534605Y-126465396D01*
X574092Y-126497802D01*
X1772197Y-127695908D01*
X1804604Y-127735396D01*
X1844092Y-127767803D01*
X1962202Y-127864734D01*
X2032615Y-127902370D01*
X2142007Y-127960841D01*
X2337105Y-128020024D01*
X2489162Y-128035000D01*
X2489171Y-128035000D01*
X2539999Y-128040006D01*
X2590827Y-128035000D01*
X6299162Y-128035000D01*
X6350000Y-128040007D01*
X6400838Y-128035000D01*
X17729162Y-128035000D01*
X17780000Y-128040007D01*
X17830838Y-128035000D01*
X17982895Y-128020024D01*
X18177993Y-127960841D01*
X18357797Y-127864734D01*
X18463511Y-127777977D01*
X18478382Y-127928968D01*
X18518457Y-128061075D01*
X18551003Y-128168364D01*
X18668931Y-128388993D01*
X18827636Y-128582375D01*
X18876091Y-128622142D01*
X21917863Y-131663914D01*
X21957630Y-131712370D01*
X22151012Y-131871075D01*
X22371641Y-131989003D01*
X22538416Y-132039594D01*
X22611036Y-132061623D01*
X22636755Y-132064156D01*
X22797620Y-132080000D01*
X-23603948Y-132080000D01*
X-24765000Y-130918950D01*
X-24765000Y-116731051D01*
X-24546085Y-116512136D01*
X-24497630Y-116472370D01*
X-24338925Y-116278988D01*
X-24220997Y-116058359D01*
X-24148377Y-115818963D01*
X-24130000Y-115632380D01*
X-24130000Y-115632379D01*
X-24123856Y-115570000D01*
X-24130000Y-115507620D01*
X-24130000Y-71540000D01*
X1051928Y-71540000D01*
X1051928Y-73240000D01*
X1064188Y-73364482D01*
X1100498Y-73484180D01*
X1159463Y-73594494D01*
X1238815Y-73691185D01*
X1270000Y-73716778D01*
X1270001Y-88837617D01*
X1263857Y-88900000D01*
X1288377Y-89148963D01*
X1344253Y-89333158D01*
X1360998Y-89388359D01*
X1478926Y-89608988D01*
X1637631Y-89802370D01*
X1686086Y-89842136D01*
X3277867Y-91433919D01*
X3317630Y-91482370D01*
X3366080Y-91522132D01*
X3366083Y-91522135D01*
X3376883Y-91530998D01*
X3511012Y-91641075D01*
X3674641Y-91728536D01*
X3731641Y-91759003D01*
X3971037Y-91831623D01*
X4220000Y-91856144D01*
X4282380Y-91850000D01*
X5120000Y-91850000D01*
X5120001Y-96561740D01*
X5059463Y-96635506D01*
X5000498Y-96745820D01*
X4964188Y-96865518D01*
X4951928Y-96990000D01*
X4951928Y-98590000D01*
X4964188Y-98714482D01*
X5000498Y-98834180D01*
X5059463Y-98944494D01*
X5138815Y-99041185D01*
X5235506Y-99120537D01*
X5345820Y-99179502D01*
X5465518Y-99215812D01*
X5590000Y-99228072D01*
X7190000Y-99228072D01*
X7314482Y-99215812D01*
X7434180Y-99179502D01*
X7544494Y-99120537D01*
X7641185Y-99041185D01*
X7720537Y-98944494D01*
X7779502Y-98834180D01*
X7795117Y-98782702D01*
X8076903Y-98782702D01*
X8148486Y-99026671D01*
X8403996Y-99147571D01*
X8678184Y-99216300D01*
X8960512Y-99230217D01*
X9240130Y-99188787D01*
X9506292Y-99093603D01*
X9631514Y-99026671D01*
X9703097Y-98782702D01*
X15696903Y-98782702D01*
X15768486Y-99026671D01*
X16023996Y-99147571D01*
X16298184Y-99216300D01*
X16580512Y-99230217D01*
X16860130Y-99188787D01*
X17126292Y-99093603D01*
X17251514Y-99026671D01*
X17323097Y-98782702D01*
X16510000Y-97969605D01*
X15696903Y-98782702D01*
X9703097Y-98782702D01*
X8890000Y-97969605D01*
X8076903Y-98782702D01*
X7795117Y-98782702D01*
X7815812Y-98714482D01*
X7828072Y-98590000D01*
X7828072Y-98582785D01*
X7897298Y-98603097D01*
X8710395Y-97790000D01*
X9069605Y-97790000D01*
X9882702Y-98603097D01*
X10126671Y-98531514D01*
X10247571Y-98276004D01*
X10316300Y-98001816D01*
X10323265Y-97860512D01*
X15069783Y-97860512D01*
X15111213Y-98140130D01*
X15206397Y-98406292D01*
X15273329Y-98531514D01*
X15517298Y-98603097D01*
X16330395Y-97790000D01*
X15517298Y-96976903D01*
X15273329Y-97048486D01*
X15152429Y-97303996D01*
X15083700Y-97578184D01*
X15069783Y-97860512D01*
X10323265Y-97860512D01*
X10330217Y-97719488D01*
X10288787Y-97439870D01*
X10193603Y-97173708D01*
X10126671Y-97048486D01*
X9882702Y-96976903D01*
X9069605Y-97790000D01*
X8710395Y-97790000D01*
X7897298Y-96976903D01*
X7828072Y-96997215D01*
X7828072Y-96990000D01*
X7815812Y-96865518D01*
X7795118Y-96797298D01*
X8076903Y-96797298D01*
X8890000Y-97610395D01*
X9703097Y-96797298D01*
X15696903Y-96797298D01*
X16510000Y-97610395D01*
X17323097Y-96797298D01*
X17251514Y-96553329D01*
X16996004Y-96432429D01*
X16721816Y-96363700D01*
X16439488Y-96349783D01*
X16159870Y-96391213D01*
X15893708Y-96486397D01*
X15768486Y-96553329D01*
X15696903Y-96797298D01*
X9703097Y-96797298D01*
X9631514Y-96553329D01*
X9376004Y-96432429D01*
X9101816Y-96363700D01*
X8819488Y-96349783D01*
X8539870Y-96391213D01*
X8273708Y-96486397D01*
X8148486Y-96553329D01*
X8076903Y-96797298D01*
X7795118Y-96797298D01*
X7779502Y-96745820D01*
X7720537Y-96635506D01*
X7660000Y-96561741D01*
X7660000Y-91926050D01*
X7736050Y-91850000D01*
X8821799Y-91850000D01*
X8866963Y-91934494D01*
X8946315Y-92031185D01*
X9043006Y-92110537D01*
X9153320Y-92169502D01*
X9273018Y-92205812D01*
X9397500Y-92218072D01*
X11302500Y-92218072D01*
X11426982Y-92205812D01*
X11546680Y-92169502D01*
X11656994Y-92110537D01*
X11753685Y-92031185D01*
X11833037Y-91934494D01*
X11882059Y-91842781D01*
X12023077Y-91955969D01*
X12298906Y-92099571D01*
X12517020Y-92170563D01*
X12763000Y-92050594D01*
X12763000Y-90707000D01*
X12743000Y-90707000D01*
X12743000Y-90453000D01*
X12763000Y-90453000D01*
X12763000Y-89109406D01*
X12517020Y-88989437D01*
X12298906Y-89060429D01*
X12023077Y-89204031D01*
X11882059Y-89317219D01*
X11833037Y-89225506D01*
X11753685Y-89128815D01*
X11656994Y-89049463D01*
X11546680Y-88990498D01*
X11426982Y-88954188D01*
X11302500Y-88941928D01*
X9397500Y-88941928D01*
X9273018Y-88954188D01*
X9153320Y-88990498D01*
X9043006Y-89049463D01*
X8946315Y-89128815D01*
X8866963Y-89225506D01*
X8821799Y-89310000D01*
X7272372Y-89310000D01*
X7209999Y-89303857D01*
X7147626Y-89310000D01*
X4746052Y-89310000D01*
X3810000Y-88373950D01*
X3810000Y-73716778D01*
X3841185Y-73691185D01*
X3920537Y-73594494D01*
X3979502Y-73484180D01*
X4003966Y-73403534D01*
X4079731Y-73487588D01*
X4313080Y-73661641D01*
X4575901Y-73786825D01*
X4723110Y-73831476D01*
X4953000Y-73710155D01*
X4953000Y-72517000D01*
X5207000Y-72517000D01*
X5207000Y-73710155D01*
X5436890Y-73831476D01*
X5584099Y-73786825D01*
X5797672Y-73685098D01*
X10505000Y-73685098D01*
X10505000Y-74154902D01*
X10596654Y-74615679D01*
X10776440Y-75049721D01*
X11037450Y-75440349D01*
X11369651Y-75772550D01*
X11760279Y-76033560D01*
X12194321Y-76213346D01*
X12655098Y-76305000D01*
X13124902Y-76305000D01*
X13585679Y-76213346D01*
X14019721Y-76033560D01*
X14410349Y-75772550D01*
X14742550Y-75440349D01*
X15003560Y-75049721D01*
X15183346Y-74615679D01*
X15275000Y-74154902D01*
X15275000Y-73685098D01*
X15183346Y-73224321D01*
X15003560Y-72790279D01*
X14742550Y-72399651D01*
X14410349Y-72067450D01*
X14019721Y-71806440D01*
X13585679Y-71626654D01*
X13124902Y-71535000D01*
X12655098Y-71535000D01*
X12194321Y-71626654D01*
X11760279Y-71806440D01*
X11369651Y-72067450D01*
X11037450Y-72399651D01*
X10776440Y-72790279D01*
X10596654Y-73224321D01*
X10505000Y-73685098D01*
X5797672Y-73685098D01*
X5846920Y-73661641D01*
X6080269Y-73487588D01*
X6275178Y-73271355D01*
X6424157Y-73021252D01*
X6521481Y-72746891D01*
X6400814Y-72517000D01*
X5207000Y-72517000D01*
X4953000Y-72517000D01*
X4933000Y-72517000D01*
X4933000Y-72263000D01*
X4953000Y-72263000D01*
X4953000Y-71069845D01*
X5207000Y-71069845D01*
X5207000Y-72263000D01*
X6400814Y-72263000D01*
X6521481Y-72033109D01*
X6424157Y-71758748D01*
X6275178Y-71508645D01*
X6080269Y-71292412D01*
X5846920Y-71118359D01*
X5584099Y-70993175D01*
X5436890Y-70948524D01*
X5207000Y-71069845D01*
X4953000Y-71069845D01*
X4723110Y-70948524D01*
X4575901Y-70993175D01*
X4313080Y-71118359D01*
X4079731Y-71292412D01*
X4003966Y-71376466D01*
X3979502Y-71295820D01*
X3920537Y-71185506D01*
X3841185Y-71088815D01*
X3744494Y-71009463D01*
X3634180Y-70950498D01*
X3514482Y-70914188D01*
X3390000Y-70901928D01*
X1690000Y-70901928D01*
X1565518Y-70914188D01*
X1445820Y-70950498D01*
X1335506Y-71009463D01*
X1238815Y-71088815D01*
X1159463Y-71185506D01*
X1100498Y-71295820D01*
X1064188Y-71415518D01*
X1051928Y-71540000D01*
X-24130000Y-71540000D01*
X-24130000Y-70376050D01*
X-23603949Y-69850000D01*
X17253950Y-69850000D01*
X17780001Y-70376052D01*
G36*
X11430000Y-103396052D02*
G01*
X11430001Y-105284911D01*
X11430000Y-105284916D01*
X11430000Y-105535084D01*
X11442235Y-105596595D01*
X11448378Y-105658963D01*
X11466569Y-105718932D01*
X11478805Y-105780445D01*
X11502806Y-105838389D01*
X11520998Y-105898359D01*
X11550541Y-105953631D01*
X11574541Y-106011571D01*
X11609380Y-106063712D01*
X11638926Y-106118988D01*
X11678689Y-106167439D01*
X11713527Y-106219578D01*
X11757869Y-106263920D01*
X11797631Y-106312370D01*
X11846081Y-106352132D01*
X11890422Y-106396473D01*
X11942560Y-106431311D01*
X11991013Y-106471075D01*
X12046292Y-106500622D01*
X12098429Y-106535459D01*
X12156365Y-106559457D01*
X12211642Y-106589003D01*
X12271617Y-106607196D01*
X12329555Y-106631195D01*
X12391061Y-106643429D01*
X12451038Y-106661623D01*
X12513414Y-106667767D01*
X12574916Y-106680000D01*
X10222372Y-106680000D01*
X10159999Y-106673857D01*
X10097626Y-106680000D01*
X10097620Y-106680000D01*
X9936755Y-106695844D01*
X9911036Y-106698377D01*
X9838416Y-106720406D01*
X9671641Y-106770997D01*
X9451012Y-106888925D01*
X9257630Y-107047630D01*
X9217863Y-107096086D01*
X8036086Y-108277864D01*
X7987631Y-108317630D01*
X7828926Y-108511012D01*
X7710997Y-108731641D01*
X7638377Y-108971037D01*
X7620000Y-109157620D01*
X7620000Y-109157627D01*
X7613857Y-109220000D01*
X7620000Y-109282373D01*
X7620000Y-109807759D01*
X7618320Y-109810273D01*
X7510147Y-110071426D01*
X7455000Y-110348665D01*
X7455000Y-110631335D01*
X7510147Y-110908574D01*
X7618320Y-111169727D01*
X7775363Y-111404759D01*
X7975241Y-111604637D01*
X8207759Y-111760000D01*
X5080000Y-111760000D01*
X5080000Y-111172241D01*
X5081680Y-111169727D01*
X5189853Y-110908574D01*
X5245000Y-110631335D01*
X5245000Y-110348665D01*
X5189853Y-110071426D01*
X5081680Y-109810273D01*
X4924637Y-109575241D01*
X4724759Y-109375363D01*
X4489727Y-109218320D01*
X4228574Y-109110147D01*
X3951335Y-109055000D01*
X3668665Y-109055000D01*
X3391426Y-109110147D01*
X3130273Y-109218320D01*
X2895241Y-109375363D01*
X2695363Y-109575241D01*
X2538320Y-109810273D01*
X2430147Y-110071426D01*
X2375000Y-110348665D01*
X2375000Y-110631335D01*
X2430147Y-110908574D01*
X2538320Y-111169727D01*
X2540000Y-111172242D01*
X2540001Y-112967610D01*
X2533856Y-113030000D01*
X2540001Y-113092390D01*
X2540000Y-114935000D01*
X-1943538Y-114935000D01*
X-1936977Y-114932636D01*
X-1821020Y-114870656D01*
X-1754040Y-114630565D01*
X-2540000Y-113844605D01*
X-3325960Y-114630565D01*
X-3258980Y-114870656D01*
X-3123240Y-114934485D01*
X-3124485Y-114935000D01*
X-3810000Y-114935000D01*
X-3810000Y-114261462D01*
X-3807636Y-114268023D01*
X-3745656Y-114383980D01*
X-3505565Y-114450960D01*
X-2719605Y-113665000D01*
X-2360395Y-113665000D01*
X-1574435Y-114450960D01*
X-1334344Y-114383980D01*
X-1217244Y-114134952D01*
X-1150977Y-113867865D01*
X-1138090Y-113592983D01*
X-1179078Y-113320867D01*
X-1272364Y-113061977D01*
X-1334344Y-112946020D01*
X-1574435Y-112879040D01*
X-2360395Y-113665000D01*
X-2719605Y-113665000D01*
X-3505565Y-112879040D01*
X-3745656Y-112946020D01*
X-3810000Y-113082856D01*
X-3810000Y-111709485D01*
X-3778005Y-111786727D01*
X-3625120Y-112015535D01*
X-3430535Y-112210120D01*
X-3201727Y-112363005D01*
X-3130057Y-112392692D01*
X-3143023Y-112397364D01*
X-3258980Y-112459344D01*
X-3325960Y-112699435D01*
X-2540000Y-113485395D01*
X-1754040Y-112699435D01*
X-1821020Y-112459344D01*
X-1956760Y-112395515D01*
X-1878273Y-112363005D01*
X-1649465Y-112210120D01*
X-1454880Y-112015535D01*
X-1301995Y-111786727D01*
X-1196686Y-111532490D01*
X-1143000Y-111262592D01*
X-1143000Y-110987408D01*
X-1196686Y-110717510D01*
X-1301995Y-110463273D01*
X-1454880Y-110234465D01*
X-1649465Y-110039880D01*
X-1878273Y-109886995D01*
X-1955515Y-109855000D01*
X-1878273Y-109823005D01*
X-1649465Y-109670120D01*
X-1454880Y-109475535D01*
X-1301995Y-109246727D01*
X-1196686Y-108992490D01*
X-1143000Y-108722592D01*
X-1143000Y-108447408D01*
X-1196686Y-108177510D01*
X-1301995Y-107923273D01*
X-1454880Y-107694465D01*
X-1649465Y-107499880D01*
X-1878273Y-107346995D01*
X-1955515Y-107315000D01*
X-1878273Y-107283005D01*
X-1649465Y-107130120D01*
X-1454880Y-106935535D01*
X-1301995Y-106706727D01*
X-1196686Y-106452490D01*
X-1143000Y-106182592D01*
X-1143000Y-105907408D01*
X-1196686Y-105637510D01*
X-1301995Y-105383273D01*
X-1454880Y-105154465D01*
X-1649465Y-104959880D01*
X-1878273Y-104806995D01*
X-1955515Y-104775000D01*
X5652627Y-104775000D01*
X5715000Y-104781143D01*
X5777373Y-104775000D01*
X5777380Y-104775000D01*
X5963963Y-104756623D01*
X6203359Y-104684003D01*
X6423988Y-104566075D01*
X6617370Y-104407370D01*
X6657141Y-104358909D01*
X7292135Y-103723916D01*
X7336473Y-103679578D01*
X7371313Y-103627437D01*
X7411074Y-103578987D01*
X7440619Y-103523713D01*
X7475459Y-103471571D01*
X7499456Y-103413636D01*
X7529003Y-103358359D01*
X7547197Y-103298380D01*
X7571195Y-103240445D01*
X7583429Y-103178941D01*
X7601623Y-103118963D01*
X7607767Y-103056585D01*
X7620000Y-102995084D01*
X7620000Y-102932380D01*
X7626144Y-102870000D01*
X7620000Y-102807620D01*
X7620000Y-102744916D01*
X7607767Y-102683415D01*
X7601623Y-102621037D01*
X7583429Y-102561059D01*
X7571195Y-102499555D01*
X7547197Y-102441620D01*
X7529003Y-102381641D01*
X7499456Y-102326364D01*
X7475459Y-102268429D01*
X7453122Y-102235000D01*
X10268950Y-102235000D01*
X11430000Y-103396052D01*
G37*
X11430000Y-103396052D02*
X11430001Y-105284911D01*
X11430000Y-105284916D01*
X11430000Y-105535084D01*
X11442235Y-105596595D01*
X11448378Y-105658963D01*
X11466569Y-105718932D01*
X11478805Y-105780445D01*
X11502806Y-105838389D01*
X11520998Y-105898359D01*
X11550541Y-105953631D01*
X11574541Y-106011571D01*
X11609380Y-106063712D01*
X11638926Y-106118988D01*
X11678689Y-106167439D01*
X11713527Y-106219578D01*
X11757869Y-106263920D01*
X11797631Y-106312370D01*
X11846081Y-106352132D01*
X11890422Y-106396473D01*
X11942560Y-106431311D01*
X11991013Y-106471075D01*
X12046292Y-106500622D01*
X12098429Y-106535459D01*
X12156365Y-106559457D01*
X12211642Y-106589003D01*
X12271617Y-106607196D01*
X12329555Y-106631195D01*
X12391061Y-106643429D01*
X12451038Y-106661623D01*
X12513414Y-106667767D01*
X12574916Y-106680000D01*
X10222372Y-106680000D01*
X10159999Y-106673857D01*
X10097626Y-106680000D01*
X10097620Y-106680000D01*
X9936755Y-106695844D01*
X9911036Y-106698377D01*
X9838416Y-106720406D01*
X9671641Y-106770997D01*
X9451012Y-106888925D01*
X9257630Y-107047630D01*
X9217863Y-107096086D01*
X8036086Y-108277864D01*
X7987631Y-108317630D01*
X7828926Y-108511012D01*
X7710997Y-108731641D01*
X7638377Y-108971037D01*
X7620000Y-109157620D01*
X7620000Y-109157627D01*
X7613857Y-109220000D01*
X7620000Y-109282373D01*
X7620000Y-109807759D01*
X7618320Y-109810273D01*
X7510147Y-110071426D01*
X7455000Y-110348665D01*
X7455000Y-110631335D01*
X7510147Y-110908574D01*
X7618320Y-111169727D01*
X7775363Y-111404759D01*
X7975241Y-111604637D01*
X8207759Y-111760000D01*
X5080000Y-111760000D01*
X5080000Y-111172241D01*
X5081680Y-111169727D01*
X5189853Y-110908574D01*
X5245000Y-110631335D01*
X5245000Y-110348665D01*
X5189853Y-110071426D01*
X5081680Y-109810273D01*
X4924637Y-109575241D01*
X4724759Y-109375363D01*
X4489727Y-109218320D01*
X4228574Y-109110147D01*
X3951335Y-109055000D01*
X3668665Y-109055000D01*
X3391426Y-109110147D01*
X3130273Y-109218320D01*
X2895241Y-109375363D01*
X2695363Y-109575241D01*
X2538320Y-109810273D01*
X2430147Y-110071426D01*
X2375000Y-110348665D01*
X2375000Y-110631335D01*
X2430147Y-110908574D01*
X2538320Y-111169727D01*
X2540000Y-111172242D01*
X2540001Y-112967610D01*
X2533856Y-113030000D01*
X2540001Y-113092390D01*
X2540000Y-114935000D01*
X-1943538Y-114935000D01*
X-1936977Y-114932636D01*
X-1821020Y-114870656D01*
X-1754040Y-114630565D01*
X-2540000Y-113844605D01*
X-3325960Y-114630565D01*
X-3258980Y-114870656D01*
X-3123240Y-114934485D01*
X-3124485Y-114935000D01*
X-3810000Y-114935000D01*
X-3810000Y-114261462D01*
X-3807636Y-114268023D01*
X-3745656Y-114383980D01*
X-3505565Y-114450960D01*
X-2719605Y-113665000D01*
X-2360395Y-113665000D01*
X-1574435Y-114450960D01*
X-1334344Y-114383980D01*
X-1217244Y-114134952D01*
X-1150977Y-113867865D01*
X-1138090Y-113592983D01*
X-1179078Y-113320867D01*
X-1272364Y-113061977D01*
X-1334344Y-112946020D01*
X-1574435Y-112879040D01*
X-2360395Y-113665000D01*
X-2719605Y-113665000D01*
X-3505565Y-112879040D01*
X-3745656Y-112946020D01*
X-3810000Y-113082856D01*
X-3810000Y-111709485D01*
X-3778005Y-111786727D01*
X-3625120Y-112015535D01*
X-3430535Y-112210120D01*
X-3201727Y-112363005D01*
X-3130057Y-112392692D01*
X-3143023Y-112397364D01*
X-3258980Y-112459344D01*
X-3325960Y-112699435D01*
X-2540000Y-113485395D01*
X-1754040Y-112699435D01*
X-1821020Y-112459344D01*
X-1956760Y-112395515D01*
X-1878273Y-112363005D01*
X-1649465Y-112210120D01*
X-1454880Y-112015535D01*
X-1301995Y-111786727D01*
X-1196686Y-111532490D01*
X-1143000Y-111262592D01*
X-1143000Y-110987408D01*
X-1196686Y-110717510D01*
X-1301995Y-110463273D01*
X-1454880Y-110234465D01*
X-1649465Y-110039880D01*
X-1878273Y-109886995D01*
X-1955515Y-109855000D01*
X-1878273Y-109823005D01*
X-1649465Y-109670120D01*
X-1454880Y-109475535D01*
X-1301995Y-109246727D01*
X-1196686Y-108992490D01*
X-1143000Y-108722592D01*
X-1143000Y-108447408D01*
X-1196686Y-108177510D01*
X-1301995Y-107923273D01*
X-1454880Y-107694465D01*
X-1649465Y-107499880D01*
X-1878273Y-107346995D01*
X-1955515Y-107315000D01*
X-1878273Y-107283005D01*
X-1649465Y-107130120D01*
X-1454880Y-106935535D01*
X-1301995Y-106706727D01*
X-1196686Y-106452490D01*
X-1143000Y-106182592D01*
X-1143000Y-105907408D01*
X-1196686Y-105637510D01*
X-1301995Y-105383273D01*
X-1454880Y-105154465D01*
X-1649465Y-104959880D01*
X-1878273Y-104806995D01*
X-1955515Y-104775000D01*
X5652627Y-104775000D01*
X5715000Y-104781143D01*
X5777373Y-104775000D01*
X5777380Y-104775000D01*
X5963963Y-104756623D01*
X6203359Y-104684003D01*
X6423988Y-104566075D01*
X6617370Y-104407370D01*
X6657141Y-104358909D01*
X7292135Y-103723916D01*
X7336473Y-103679578D01*
X7371313Y-103627437D01*
X7411074Y-103578987D01*
X7440619Y-103523713D01*
X7475459Y-103471571D01*
X7499456Y-103413636D01*
X7529003Y-103358359D01*
X7547197Y-103298380D01*
X7571195Y-103240445D01*
X7583429Y-103178941D01*
X7601623Y-103118963D01*
X7607767Y-103056585D01*
X7620000Y-102995084D01*
X7620000Y-102932380D01*
X7626144Y-102870000D01*
X7620000Y-102807620D01*
X7620000Y-102744916D01*
X7607767Y-102683415D01*
X7601623Y-102621037D01*
X7583429Y-102561059D01*
X7571195Y-102499555D01*
X7547197Y-102441620D01*
X7529003Y-102381641D01*
X7499456Y-102326364D01*
X7475459Y-102268429D01*
X7453122Y-102235000D01*
X10268950Y-102235000D01*
X11430000Y-103396052D01*
M02*
